<?xml version="1.0" encoding="UTF-8" standalone="no"?>
<!DOCTYPE svg PUBLIC "-//W3C//DTD SVG 1.1//EN"
 "http://www.w3.org/Graphics/SVG/1.1/DTD/svg11.dtd">
<!-- Generated by graphviz version 14.1.5 (20260411.2331)
 -->
<!-- Title: AST Pages: 1 -->
<svg width="152pt" height="260pt"
 viewBox="0.00 0.00 152.00 260.00" xmlns="http://www.w3.org/2000/svg" xmlns:xlink="http://www.w3.org/1999/xlink">
<g id="graph0" class="graph" transform="scale(1 1) rotate(0) translate(4 256)">
<title>AST</title>
<polygon fill="white" stroke="none" points="-4,4 -4,-256 148,-256 148,4 -4,4"/>
<!-- n1 -->
<g id="node1" class="node">
<title>n1</title>
<ellipse fill="none" stroke="black" cx="99" cy="-234" rx="18" ry="18"/>
<text xml:space="preserve" text-anchor="middle" x="99" y="-229.32" font-family="monospace" font-size="14.00">+</text>
</g>
<!-- n2 -->
<g id="node2" class="node">
<title>n2</title>
<ellipse fill="none" stroke="black" cx="72" cy="-162" rx="18" ry="18"/>
<text xml:space="preserve" text-anchor="middle" x="72" y="-157.32" font-family="monospace" font-size="14.00">+</text>
</g>
<!-- n1&#45;&gt;n2 -->
<g id="edge1" class="edge">
<title>n1&#45;&gt;n2</title>
<path fill="none" stroke="black" d="M92.74,-216.76C89.64,-208.72 85.81,-198.81 82.3,-189.69"/>
<polygon fill="black" stroke="black" points="85.64,-188.63 78.77,-180.56 79.11,-191.15 85.64,-188.63"/>
</g>
<!-- n7 -->
<g id="node7" class="node">
<title>n7</title>
<ellipse fill="none" stroke="black" cx="126" cy="-162" rx="18" ry="18"/>
<text xml:space="preserve" text-anchor="middle" x="126" y="-157.32" font-family="monospace" font-size="14.00">1</text>
</g>
<!-- n1&#45;&gt;n7 -->
<g id="edge2" class="edge">
<title>n1&#45;&gt;n7</title>
<path fill="none" stroke="black" d="M105.26,-216.76C108.36,-208.72 112.19,-198.81 115.7,-189.69"/>
<polygon fill="black" stroke="black" points="118.89,-191.15 119.23,-180.56 112.36,-188.63 118.89,-191.15"/>
</g>
<!-- n3 -->
<g id="node3" class="node">
<title>n3</title>
<ellipse fill="none" stroke="black" cx="45" cy="-90" rx="18" ry="18"/>
<text xml:space="preserve" text-anchor="middle" x="45" y="-85.33" font-family="monospace" font-size="14.00">+</text>
</g>
<!-- n2&#45;&gt;n3 -->
<g id="edge3" class="edge">
<title>n2&#45;&gt;n3</title>
<path fill="none" stroke="black" d="M65.74,-144.76C62.64,-136.72 58.81,-126.81 55.3,-117.69"/>
<polygon fill="black" stroke="black" points="58.64,-116.63 51.77,-108.56 52.11,-119.15 58.64,-116.63"/>
</g>
<!-- n6 -->
<g id="node6" class="node">
<title>n6</title>
<ellipse fill="none" stroke="black" cx="99" cy="-90" rx="18" ry="18"/>
<text xml:space="preserve" text-anchor="middle" x="99" y="-85.33" font-family="monospace" font-size="14.00">4</text>
</g>
<!-- n2&#45;&gt;n6 -->
<g id="edge4" class="edge">
<title>n2&#45;&gt;n6</title>
<path fill="none" stroke="black" d="M78.26,-144.76C81.36,-136.72 85.19,-126.81 88.7,-117.69"/>
<polygon fill="black" stroke="black" points="91.89,-119.15 92.23,-108.56 85.36,-116.63 91.89,-119.15"/>
</g>
<!-- n4 -->
<g id="node4" class="node">
<title>n4</title>
<ellipse fill="none" stroke="black" cx="18" cy="-18" rx="18" ry="18"/>
<text xml:space="preserve" text-anchor="middle" x="18" y="-13.32" font-family="monospace" font-size="14.00">3</text>
</g>
<!-- n3&#45;&gt;n4 -->
<g id="edge5" class="edge">
<title>n3&#45;&gt;n4</title>
<path fill="none" stroke="black" d="M38.74,-72.76C35.64,-64.72 31.81,-54.81 28.3,-45.69"/>
<polygon fill="black" stroke="black" points="31.64,-44.63 24.77,-36.56 25.11,-47.15 31.64,-44.63"/>
</g>
<!-- n5 -->
<g id="node5" class="node">
<title>n5</title>
<ellipse fill="none" stroke="black" cx="72" cy="-18" rx="18" ry="18"/>
<text xml:space="preserve" text-anchor="middle" x="72" y="-13.32" font-family="monospace" font-size="14.00">2</text>
</g>
<!-- n3&#45;&gt;n5 -->
<g id="edge6" class="edge">
<title>n3&#45;&gt;n5</title>
<path fill="none" stroke="black" d="M51.26,-72.76C54.36,-64.72 58.19,-54.81 61.7,-45.69"/>
<polygon fill="black" stroke="black" points="64.89,-47.15 65.23,-36.56 58.36,-44.63 64.89,-47.15"/>
</g>
</g>
</svg>
