<?xml version="1.0" encoding="UTF-8" standalone="no"?>
<!DOCTYPE svg PUBLIC "-//W3C//DTD SVG 1.1//EN"
 "http://www.w3.org/Graphics/SVG/1.1/DTD/svg11.dtd">
<!-- Generated by graphviz version 2.36.0 (20140111.2315)
 -->
<!-- Title: AST Pages: 1 -->
<svg width="152pt" height="260pt"
 viewBox="0.00 0.00 152.00 260.00" xmlns="http://www.w3.org/2000/svg" xmlns:xlink="http://www.w3.org/1999/xlink">
<g id="graph0" class="graph" transform="scale(1 1) rotate(0) translate(4 256)">
<title>AST</title>
<polygon fill="white" stroke="none" points="-4,4 -4,-256 148,-256 148,4 -4,4"/>
<!-- n1 -->
<g id="node1" class="node"><title>n1</title>
<ellipse fill="none" stroke="black" cx="99" cy="-234" rx="18" ry="18"/>
<text text-anchor="middle" x="99" y="-229.8" font-family="monospace" font-size="14.00">+</text>
</g>
<!-- n2 -->
<g id="node2" class="node"><title>n2</title>
<ellipse fill="none" stroke="black" cx="72" cy="-162" rx="18" ry="18"/>
<text text-anchor="middle" x="72" y="-157.8" font-family="monospace" font-size="14.00">+</text>
</g>
<!-- n1&#45;&gt;n2 -->
<g id="edge1" class="edge"><title>n1&#45;&gt;n2</title>
<path fill="none" stroke="black" d="M92.7378,-216.765C89.5004,-208.371 85.4747,-197.934 81.8339,-188.495"/>
<polygon fill="black" stroke="black" points="85.0925,-187.218 78.2282,-179.147 78.5615,-189.737 85.0925,-187.218"/>
</g>
<!-- n7 -->
<g id="node7" class="node"><title>n7</title>
<ellipse fill="none" stroke="black" cx="126" cy="-162" rx="18" ry="18"/>
<text text-anchor="middle" x="126" y="-157.8" font-family="monospace" font-size="14.00">1</text>
</g>
<!-- n1&#45;&gt;n7 -->
<g id="edge2" class="edge"><title>n1&#45;&gt;n7</title>
<path fill="none" stroke="black" d="M105.262,-216.765C108.5,-208.371 112.525,-197.934 116.166,-188.495"/>
<polygon fill="black" stroke="black" points="119.438,-189.737 119.772,-179.147 112.907,-187.218 119.438,-189.737"/>
</g>
<!-- n3 -->
<g id="node3" class="node"><title>n3</title>
<ellipse fill="none" stroke="black" cx="45" cy="-90" rx="18" ry="18"/>
<text text-anchor="middle" x="45" y="-85.8" font-family="monospace" font-size="14.00">+</text>
</g>
<!-- n2&#45;&gt;n3 -->
<g id="edge3" class="edge"><title>n2&#45;&gt;n3</title>
<path fill="none" stroke="black" d="M65.7378,-144.765C62.5004,-136.371 58.4747,-125.934 54.8339,-116.495"/>
<polygon fill="black" stroke="black" points="58.0925,-115.218 51.2282,-107.147 51.5615,-117.737 58.0925,-115.218"/>
</g>
<!-- n6 -->
<g id="node6" class="node"><title>n6</title>
<ellipse fill="none" stroke="black" cx="99" cy="-90" rx="18" ry="18"/>
<text text-anchor="middle" x="99" y="-85.8" font-family="monospace" font-size="14.00">4</text>
</g>
<!-- n2&#45;&gt;n6 -->
<g id="edge4" class="edge"><title>n2&#45;&gt;n6</title>
<path fill="none" stroke="black" d="M78.2622,-144.765C81.4996,-136.371 85.5253,-125.934 89.1661,-116.495"/>
<polygon fill="black" stroke="black" points="92.4385,-117.737 92.7718,-107.147 85.9075,-115.218 92.4385,-117.737"/>
</g>
<!-- n4 -->
<g id="node4" class="node"><title>n4</title>
<ellipse fill="none" stroke="black" cx="18" cy="-18" rx="18" ry="18"/>
<text text-anchor="middle" x="18" y="-13.8" font-family="monospace" font-size="14.00">3</text>
</g>
<!-- n3&#45;&gt;n4 -->
<g id="edge5" class="edge"><title>n3&#45;&gt;n4</title>
<path fill="none" stroke="black" d="M38.7378,-72.7646C35.5004,-64.3715 31.4747,-53.9344 27.8339,-44.4952"/>
<polygon fill="black" stroke="black" points="31.0925,-43.2178 24.2282,-35.1473 24.5615,-45.7369 31.0925,-43.2178"/>
</g>
<!-- n5 -->
<g id="node5" class="node"><title>n5</title>
<ellipse fill="none" stroke="black" cx="72" cy="-18" rx="18" ry="18"/>
<text text-anchor="middle" x="72" y="-13.8" font-family="monospace" font-size="14.00">2</text>
</g>
<!-- n3&#45;&gt;n5 -->
<g id="edge6" class="edge"><title>n3&#45;&gt;n5</title>
<path fill="none" stroke="black" d="M51.2622,-72.7646C54.4996,-64.3715 58.5253,-53.9344 62.1661,-44.4952"/>
<polygon fill="black" stroke="black" points="65.4385,-45.7369 65.7718,-35.1473 58.9075,-43.2178 65.4385,-45.7369"/>
</g>
</g>
</svg>
