<?xml version="1.0" encoding="UTF-8" standalone="no"?>
<!DOCTYPE svg PUBLIC "-//W3C//DTD SVG 1.1//EN"
 "http://www.w3.org/Graphics/SVG/1.1/DTD/svg11.dtd">
<!-- Generated by graphviz version 14.1.5 (20260411.2331)
 -->
<!-- Title: parse_tree Pages: 1 -->
<svg width="161pt" height="188pt"
 viewBox="0.00 0.00 161.00 188.00" xmlns="http://www.w3.org/2000/svg" xmlns:xlink="http://www.w3.org/1999/xlink">
<g id="graph0" class="graph" transform="scale(1 1) rotate(0) translate(4 184)">
<title>parse_tree</title>
<polygon fill="white" stroke="none" points="-4,4 -4,-184 157,-184 157,4 -4,4"/>
<!-- E0 -->
<g id="node1" class="node">
<title>E0</title>
<ellipse fill="none" stroke="black" cx="58" cy="-162" rx="18" ry="18"/>
<text xml:space="preserve" text-anchor="middle" x="58" y="-156.95" font-family="Times,serif" font-size="14.00">*</text>
</g>
<!-- E1 -->
<g id="node2" class="node">
<title>E1</title>
<ellipse fill="none" stroke="black" cx="90" cy="-90" rx="18" ry="18"/>
<text xml:space="preserve" text-anchor="middle" x="90" y="-84.95" font-family="Times,serif" font-size="14.00">+</text>
</g>
<!-- E0&#45;&gt;E1 -->
<g id="edge2" class="edge">
<title>E0&#45;&gt;E1</title>
<path fill="none" stroke="black" d="M65.26,-145.12C70.5,-133.66 77.54,-118.26 82.77,-106.82"/>
</g>
<!-- c -->
<g id="node3" class="node">
<title>c</title>
<text xml:space="preserve" text-anchor="middle" x="27" y="-84.95" font-family="Times,serif" font-size="14.00">c</text>
</g>
<!-- E0&#45;&gt;c -->
<g id="edge1" class="edge">
<title>E0&#45;&gt;c</title>
<path fill="none" stroke="black" d="M50.97,-145.12C46.04,-133.98 39.46,-119.13 34.44,-107.8"/>
</g>
<!-- b -->
<g id="node4" class="node">
<title>b</title>
<text xml:space="preserve" text-anchor="middle" x="54" y="-12.95" font-family="Times,serif" font-size="14.00">b</text>
</g>
<!-- E1&#45;&gt;b -->
<g id="edge3" class="edge">
<title>E1&#45;&gt;b</title>
<path fill="none" stroke="black" d="M82.01,-73.46C76.29,-62.35 68.6,-47.39 62.72,-35.96"/>
</g>
<!-- d -->
<g id="node5" class="node">
<title>d</title>
<text xml:space="preserve" text-anchor="middle" x="126" y="-12.95" font-family="Times,serif" font-size="14.00">d</text>
</g>
<!-- E1&#45;&gt;d -->
<g id="edge4" class="edge">
<title>E1&#45;&gt;d</title>
<path fill="none" stroke="black" d="M97.99,-73.46C103.71,-62.35 111.4,-47.39 117.28,-35.96"/>
</g>
</g>
</svg>
