<?xml version="1.0" standalone="no"?>
<svg xmlns="http://www.w3.org/2000/svg" xmlns:xlink="http://www.w3.org/1999/xlink" width="161pt" height="188pt" viewBox="0.00 0.00 161 188.00">
<g id="graph0" class="graph" transform="translate(-1.8451125760903935,219.94370222691396) scale(1.199507356965974)" data-name="parse_tree">

<polygon fill="white" stroke="none" points="-4,4 -4,-184 157,-184 157,4 -4,4"/>
<!-- E0 -->
<g id="node1" class="node" pointer-events="visible" data-name="E0">

<text text-anchor="middle" x="58" y="-157.8" font-family="Times,serif" font-size="14.00">*</text><ellipse fill="none" stroke="black" cx="58" cy="-162" rx="18" ry="18"/>

</g>
<!-- E1 -->
<g id="node2" class="node" pointer-events="visible" data-name="E1">

<text text-anchor="middle" x="90" y="-85.8" font-family="Times,serif" font-size="14.00">+</text><ellipse fill="none" stroke="black" cx="90" cy="-90" rx="18" ry="18"/>

</g>
<!-- E0&#45;&gt;E1 -->
<g id="edge2" class="edge" data-name="E0-&gt;E1">

<path fill="none" stroke="black" d="M65.26,-145.12C69.03,-136.88 73.72,-126.61 78.01,-117.24"/>
<polygon fill="black" stroke="black" points="81.16,-118.75 82.14,-108.2 74.8,-115.84 81.16,-118.75"/>
</g>
<!-- c -->
<g id="node3" class="node" pointer-events="visible" data-name="c">

<text text-anchor="middle" x="27" y="-85.8" font-family="Times,serif" font-size="14.00">c</text>
</g>
<!-- E0&#45;&gt;c -->
<g id="edge1" class="edge" data-name="E0-&gt;c">

<path fill="none" stroke="black" d="M50.97,-145.12C47.42,-137.11 43.03,-127.19 38.97,-118.03"/>
<polygon fill="black" stroke="black" points="42.3,-116.91 35.05,-109.18 35.9,-119.74 42.3,-116.91"/>
</g>
<!-- b -->
<g id="node4" class="node" pointer-events="visible" data-name="b">

<text text-anchor="middle" x="54" y="-13.8" font-family="Times,serif" font-size="14.00">b</text>
</g>
<!-- E1&#45;&gt;b -->
<g id="edge3" class="edge" data-name="E1-&gt;b">

<path fill="none" stroke="black" d="M82.01,-73.46C77.86,-65.39 72.66,-55.28 67.87,-45.98"/>
<polygon fill="black" stroke="black" points="71.1,-44.6 63.42,-37.31 64.88,-47.8 71.1,-44.6"/>
</g>
<!-- d -->
<g id="node5" class="node" pointer-events="visible" data-name="d">

<text text-anchor="middle" x="126" y="-13.8" font-family="Times,serif" font-size="14.00">d</text>
</g>
<!-- E1&#45;&gt;d -->
<g id="edge4" class="edge" data-name="E1-&gt;d">

<path fill="none" stroke="black" d="M97.99,-73.46C102.14,-65.39 107.34,-55.28 112.13,-45.98"/>
<polygon fill="black" stroke="black" points="115.12,-47.8 116.58,-37.31 108.9,-44.6 115.12,-47.8"/>
</g>
</g>
</svg>