<?xml version="1.0" encoding="UTF-8" standalone="no"?>
<!DOCTYPE svg PUBLIC "-//W3C//DTD SVG 1.1//EN"
 "http://www.w3.org/Graphics/SVG/1.1/DTD/svg11.dtd">
<!-- Generated by graphviz version 2.36.0 (20140111.2315)
 -->
<!-- Title: CopyingGC Pages: 1 -->
<svg width="504pt" height="407pt"
 viewBox="0.00 0.00 504.00 407.00" xmlns="http://www.w3.org/2000/svg" xmlns:xlink="http://www.w3.org/1999/xlink">
<g id="graph0" class="graph" transform="scale(1 1) rotate(0) translate(4 403)">
<title>CopyingGC</title>
<polygon fill="white" stroke="none" points="-4,4 -4,-403 500,-403 500,4 -4,4"/>
<g id="clust1" class="cluster"><title>cluster_stack</title>
<polygon fill="none" stroke="black" stroke-dasharray="5,2" points="8,-209 8,-391 60,-391 60,-209 8,-209"/>
<text text-anchor="middle" x="34" y="-375.8" font-family="Times,serif" font-size="14.00">stack</text>
</g>
<g id="clust2" class="cluster"><title>cluster_from</title>
<polygon fill="none" stroke="black" points="82,-8 82,-230 376,-230 376,-8 82,-8"/>
<text text-anchor="middle" x="229" y="-214.8" font-family="Times,serif" font-size="14.00">from&#45;space</text>
</g>
<g id="clust3" class="cluster"><title>cluster_to</title>
<polygon fill="none" stroke="black" points="194,-238 194,-386 488,-386 488,-238 194,-238"/>
<text text-anchor="middle" x="341" y="-370.8" font-family="Times,serif" font-size="14.00">to&#45;space</text>
</g>
<!-- s1 -->
<g id="node1" class="node"><title>s1</title>
<path fill="none" stroke="black" d="M40,-361C40,-361 28,-361 28,-361 22,-361 16,-355 16,-349 16,-349 16,-337 16,-337 16,-331 22,-325 28,-325 28,-325 40,-325 40,-325 46,-325 52,-331 52,-337 52,-337 52,-349 52,-349 52,-355 46,-361 40,-361"/>
<text text-anchor="middle" x="34" y="-338.8" font-family="Times,serif" font-size="14.00"> </text>
</g>
<!-- A -->
<g id="node4" class="node"><title>A</title>
<path fill="none" stroke="green" d="M132,-200C132,-200 102,-200 102,-200 96,-200 90,-194 90,-188 90,-188 90,-176 90,-176 90,-170 96,-164 102,-164 102,-164 132,-164 132,-164 138,-164 144,-170 144,-176 144,-176 144,-188 144,-188 144,-194 138,-200 132,-200"/>
<text text-anchor="middle" x="117" y="-177.8" font-family="Times,serif" font-size="14.00" fill="green">A</text>
</g>
<!-- s1&#45;&gt;A -->
<g id="edge1" class="edge"><title>s1&#45;&gt;A</title>
<path fill="none" stroke="green" d="M52.1036,-326.319C54.9536,-323.059 57.7198,-319.547 60,-316 81.86,-282 98.3022,-238.035 107.54,-209.918"/>
<polygon fill="green" stroke="green" points="110.895,-210.915 110.614,-200.324 104.229,-208.779 110.895,-210.915"/>
</g>
<!-- A2 -->
<g id="node11" class="node"><title>A2</title>
<path fill="none" stroke="blue" d="M244,-282C244,-282 214,-282 214,-282 208,-282 202,-276 202,-270 202,-270 202,-258 202,-258 202,-252 208,-246 214,-246 214,-246 244,-246 244,-246 250,-246 256,-252 256,-258 256,-258 256,-270 256,-270 256,-276 250,-282 244,-282"/>
<text text-anchor="middle" x="229" y="-259.8" font-family="Times,serif" font-size="14.00" fill="blue">A&#39;</text>
</g>
<!-- s1&#45;&gt;A2 -->
<g id="edge18" class="edge"><title>s1&#45;&gt;A2</title>
<path fill="none" stroke="blue" stroke-dasharray="5,2" d="M52.1275,-335.989C83.472,-323.159 150.664,-295.656 192.323,-278.603"/>
<polygon fill="blue" stroke="blue" points="193.89,-281.744 201.819,-274.717 191.238,-275.266 193.89,-281.744"/>
</g>
<!-- s2 -->
<g id="node2" class="node"><title>s2</title>
<path fill="none" stroke="black" d="M40,-307C40,-307 28,-307 28,-307 22,-307 16,-301 16,-295 16,-295 16,-283 16,-283 16,-277 22,-271 28,-271 28,-271 40,-271 40,-271 46,-271 52,-277 52,-283 52,-283 52,-295 52,-295 52,-301 46,-307 40,-307"/>
<text text-anchor="middle" x="34" y="-284.8" font-family="Times,serif" font-size="14.00"> </text>
</g>
<!-- s3 -->
<g id="node3" class="node"><title>s3</title>
<path fill="none" stroke="black" d="M40,-253C40,-253 28,-253 28,-253 22,-253 16,-247 16,-241 16,-241 16,-229 16,-229 16,-223 22,-217 28,-217 28,-217 40,-217 40,-217 46,-217 52,-223 52,-229 52,-229 52,-241 52,-241 52,-247 46,-253 40,-253"/>
<text text-anchor="middle" x="34" y="-230.8" font-family="Times,serif" font-size="14.00"> </text>
</g>
<!-- C -->
<g id="node6" class="node"><title>C</title>
<path fill="none" stroke="green" d="M244,-52C244,-52 214,-52 214,-52 208,-52 202,-46 202,-40 202,-40 202,-28 202,-28 202,-22 208,-16 214,-16 214,-16 244,-16 244,-16 250,-16 256,-22 256,-28 256,-28 256,-40 256,-40 256,-46 250,-52 244,-52"/>
<text text-anchor="middle" x="229" y="-29.8" font-family="Times,serif" font-size="14.00" fill="green">C</text>
</g>
<!-- s3&#45;&gt;C -->
<g id="edge2" class="edge"><title>s3&#45;&gt;C</title>
<path fill="none" stroke="green" d="M35.3421,-216.864C36.9352,-184.991 44.8294,-118.741 82,-81 111.084,-51.4696 158.776,-40.474 191.695,-36.3912"/>
<polygon fill="green" stroke="green" points="192.257,-39.8509 201.822,-35.2938 191.503,-32.8916 192.257,-39.8509"/>
</g>
<!-- C2 -->
<g id="node13" class="node"><title>C2</title>
<path fill="none" stroke="blue" d="M356,-336C356,-336 326,-336 326,-336 320,-336 314,-330 314,-324 314,-324 314,-312 314,-312 314,-306 320,-300 326,-300 326,-300 356,-300 356,-300 362,-300 368,-306 368,-312 368,-312 368,-324 368,-324 368,-330 362,-336 356,-336"/>
<text text-anchor="middle" x="341" y="-313.8" font-family="Times,serif" font-size="14.00" fill="blue">C&#39;</text>
</g>
<!-- s3&#45;&gt;C2 -->
<g id="edge19" class="edge"><title>s3&#45;&gt;C2</title>
<path fill="none" stroke="blue" stroke-dasharray="5,2" d="M52.3658,-242.123C81.3021,-253.763 141.405,-276.966 194,-291 230.983,-300.868 274.185,-308.372 303.948,-312.935"/>
<polygon fill="blue" stroke="blue" points="303.474,-316.403 313.882,-314.425 304.512,-309.481 303.474,-316.403"/>
</g>
<!-- B -->
<g id="node5" class="node"><title>B</title>
<path fill="none" stroke="green" d="M244,-180C244,-180 214,-180 214,-180 208,-180 202,-174 202,-168 202,-168 202,-156 202,-156 202,-150 208,-144 214,-144 214,-144 244,-144 244,-144 250,-144 256,-150 256,-156 256,-156 256,-168 256,-168 256,-174 250,-180 244,-180"/>
<text text-anchor="middle" x="229" y="-157.8" font-family="Times,serif" font-size="14.00" fill="green">B</text>
</g>
<!-- A&#45;&gt;B -->
<g id="edge3" class="edge"><title>A&#45;&gt;B</title>
<path fill="none" stroke="green" d="M144.027,-176.512C149.929,-175.313 156.174,-174.081 162,-173 171.646,-171.21 182.11,-169.404 191.803,-167.788"/>
<polygon fill="green" stroke="green" points="192.645,-171.196 201.944,-166.117 191.508,-164.289 192.645,-171.196"/>
</g>
<!-- A&#45;&gt;A2 -->
<g id="edge10" class="edge"><title>A&#45;&gt;A2</title>
<path fill="none" stroke="gray" stroke-dasharray="5,2" d="M142.413,-200.198C158.078,-211.876 178.598,-227.173 195.618,-239.861"/>
<polygon fill="gray" stroke="gray" points="203.656,-245.852 192.949,-243.484 199.647,-242.864 195.638,-239.876 195.638,-239.876 195.638,-239.876 199.647,-242.864 198.328,-236.268 203.656,-245.852 203.656,-245.852"/>
<text text-anchor="middle" x="173" y="-233.8" font-family="Times,serif" font-size="14.00">fwd</text>
</g>
<!-- D -->
<g id="node7" class="node"><title>D</title>
<path fill="none" stroke="green" d="M356,-180C356,-180 326,-180 326,-180 320,-180 314,-174 314,-168 314,-168 314,-156 314,-156 314,-150 320,-144 326,-144 326,-144 356,-144 356,-144 362,-144 368,-150 368,-156 368,-156 368,-168 368,-168 368,-174 362,-180 356,-180"/>
<text text-anchor="middle" x="341" y="-157.8" font-family="Times,serif" font-size="14.00" fill="green">D</text>
</g>
<!-- B&#45;&gt;D -->
<g id="edge4" class="edge"><title>B&#45;&gt;D</title>
<path fill="none" stroke="green" d="M256.068,-162C270.212,-162 287.925,-162 303.428,-162"/>
<polygon fill="green" stroke="green" points="303.737,-165.5 313.737,-162 303.737,-158.5 303.737,-165.5"/>
</g>
<!-- B2 -->
<g id="node12" class="node"><title>B2</title>
<path fill="none" stroke="blue" d="M356,-282C356,-282 326,-282 326,-282 320,-282 314,-276 314,-270 314,-270 314,-258 314,-258 314,-252 320,-246 326,-246 326,-246 356,-246 356,-246 362,-246 368,-252 368,-258 368,-258 368,-270 368,-270 368,-276 362,-282 356,-282"/>
<text text-anchor="middle" x="341" y="-259.8" font-family="Times,serif" font-size="14.00" fill="blue">B&#39;</text>
</g>
<!-- B&#45;&gt;B2 -->
<g id="edge11" class="edge"><title>B&#45;&gt;B2</title>
<path fill="none" stroke="gray" stroke-dasharray="5,2" d="M256.279,-176.084C269.186,-183.813 284.413,-194.218 296,-206 306.373,-216.548 305.133,-222.158 314,-234 315.022,-235.365 316.09,-236.747 317.185,-238.13"/>
<polygon fill="gray" stroke="gray" points="323.623,-245.94 313.79,-241.086 320.443,-242.082 317.262,-238.224 317.262,-238.224 317.262,-238.224 320.443,-242.082 320.735,-235.362 323.623,-245.94 323.623,-245.94"/>
<text text-anchor="middle" x="285" y="-208.8" font-family="Times,serif" font-size="14.00">fwd</text>
</g>
<!-- C&#45;&gt;D -->
<g id="edge5" class="edge"><title>C&#45;&gt;D</title>
<path fill="none" stroke="green" d="M244.484,-52.2133C260.926,-72.6988 288.749,-106.792 314,-135 314.407,-135.455 314.819,-135.912 315.235,-136.372"/>
<polygon fill="green" stroke="green" points="312.827,-138.922 322.195,-143.87 317.957,-134.16 312.827,-138.922"/>
</g>
<!-- C&#45;&gt;C2 -->
<g id="edge12" class="edge"><title>C&#45;&gt;C2</title>
<path fill="none" stroke="gray" stroke-dasharray="5,2" d="M242.065,-52.0167C247.168,-60.4742 252.686,-70.8992 256,-81 275.42,-140.189 254.35,-160.887 274,-220 279.712,-237.185 303.188,-276.472 314,-291 314.282,-291.378 314.568,-291.757 314.859,-292.136"/>
<polygon fill="gray" stroke="gray" points="321.443,-299.964 311.562,-295.207 318.225,-296.137 315.006,-292.311 315.006,-292.311 315.006,-292.311 318.225,-296.137 318.45,-289.414 321.443,-299.964 321.443,-299.964"/>
<text text-anchor="middle" x="285" y="-266.8" font-family="Times,serif" font-size="14.00">fwd</text>
</g>
<!-- D&#45;&gt;A -->
<g id="edge6" class="edge"><title>D&#45;&gt;A</title>
<path fill="none" stroke="green" d="M313.83,-170.863C291.421,-178.377 261.864,-188.081 256,-189 221.746,-194.37 182.181,-191.445 154.222,-187.88"/>
<polygon fill="green" stroke="green" points="154.492,-184.384 144.11,-186.498 153.544,-191.32 154.492,-184.384"/>
</g>
<!-- D2 -->
<g id="node14" class="node"><title>D2</title>
<path fill="none" stroke="blue" d="M468,-282C468,-282 438,-282 438,-282 432,-282 426,-276 426,-270 426,-270 426,-258 426,-258 426,-252 432,-246 438,-246 438,-246 468,-246 468,-246 474,-246 480,-252 480,-258 480,-258 480,-270 480,-270 480,-276 474,-282 468,-282"/>
<text text-anchor="middle" x="453" y="-259.8" font-family="Times,serif" font-size="14.00" fill="blue">D&#39;</text>
</g>
<!-- D&#45;&gt;D2 -->
<g id="edge13" class="edge"><title>D&#45;&gt;D2</title>
<path fill="none" stroke="gray" stroke-dasharray="5,2" d="M361.413,-180.001C379.054,-196.359 405.257,-220.656 424.949,-238.916"/>
<polygon fill="gray" stroke="gray" points="432.411,-245.836 422.019,-242.336 428.745,-242.436 425.079,-239.037 425.079,-239.037 425.079,-239.037 428.745,-242.436 428.139,-235.737 432.411,-245.836 432.411,-245.836"/>
<text text-anchor="middle" x="397" y="-225.8" font-family="Times,serif" font-size="14.00">fwd</text>
</g>
<!-- X -->
<g id="node8" class="node"><title>X</title>
<path fill="none" stroke="red" d="M132,-126C132,-126 102,-126 102,-126 96,-126 90,-120 90,-114 90,-114 90,-102 90,-102 90,-96 96,-90 102,-90 102,-90 132,-90 132,-90 138,-90 144,-96 144,-102 144,-102 144,-114 144,-114 144,-120 138,-126 132,-126"/>
<text text-anchor="middle" x="117" y="-103.8" font-family="Times,serif" font-size="14.00" fill="red">X</text>
</g>
<!-- Y -->
<g id="node9" class="node"><title>Y</title>
<path fill="none" stroke="red" d="M244,-126C244,-126 214,-126 214,-126 208,-126 202,-120 202,-114 202,-114 202,-102 202,-102 202,-96 208,-90 214,-90 214,-90 244,-90 244,-90 250,-90 256,-96 256,-102 256,-102 256,-114 256,-114 256,-120 250,-126 244,-126"/>
<text text-anchor="middle" x="229" y="-103.8" font-family="Times,serif" font-size="14.00" fill="red">Y</text>
</g>
<!-- X&#45;&gt;Y -->
<g id="edge7" class="edge"><title>X&#45;&gt;Y</title>
<path fill="none" stroke="red" d="M144.068,-108C158.212,-108 175.925,-108 191.428,-108"/>
<polygon fill="red" stroke="red" points="191.737,-111.5 201.737,-108 191.737,-104.5 191.737,-111.5"/>
</g>
<!-- Z -->
<g id="node10" class="node"><title>Z</title>
<path fill="none" stroke="red" d="M356,-126C356,-126 326,-126 326,-126 320,-126 314,-120 314,-114 314,-114 314,-102 314,-102 314,-96 320,-90 326,-90 326,-90 356,-90 356,-90 362,-90 368,-96 368,-102 368,-102 368,-114 368,-114 368,-120 362,-126 356,-126"/>
<text text-anchor="middle" x="341" y="-103.8" font-family="Times,serif" font-size="14.00" fill="red">Z</text>
</g>
<!-- Y&#45;&gt;Z -->
<g id="edge8" class="edge"><title>Y&#45;&gt;Z</title>
<path fill="none" stroke="red" d="M256.068,-108C270.212,-108 287.925,-108 303.428,-108"/>
<polygon fill="red" stroke="red" points="303.737,-111.5 313.737,-108 303.737,-104.5 303.737,-111.5"/>
</g>
<!-- Z&#45;&gt;X -->
<g id="edge9" class="edge"><title>Z&#45;&gt;X</title>
<path fill="none" stroke="red" d="M313.656,-97.1974C297.356,-91.1051 275.825,-84.1078 256,-81 228.777,-76.7324 221.155,-76.3197 194,-81 180.499,-83.327 166.216,-87.8194 153.721,-92.482"/>
<polygon fill="red" stroke="red" points="152.179,-89.3265 144.133,-96.2196 154.721,-95.8485 152.179,-89.3265"/>
</g>
<!-- A2&#45;&gt;B2 -->
<g id="edge14" class="edge"><title>A2&#45;&gt;B2</title>
<path fill="none" stroke="blue" d="M256.068,-264C270.212,-264 287.925,-264 303.428,-264"/>
<polygon fill="blue" stroke="blue" points="303.737,-267.5 313.737,-264 303.737,-260.5 303.737,-267.5"/>
</g>
<!-- B2&#45;&gt;D2 -->
<g id="edge15" class="edge"><title>B2&#45;&gt;D2</title>
<path fill="none" stroke="blue" d="M368.068,-264C382.212,-264 399.925,-264 415.428,-264"/>
<polygon fill="blue" stroke="blue" points="415.737,-267.5 425.737,-264 415.737,-260.5 415.737,-267.5"/>
</g>
<!-- C2&#45;&gt;D2 -->
<g id="edge16" class="edge"><title>C2&#45;&gt;D2</title>
<path fill="none" stroke="blue" d="M368.068,-305.203C382.484,-298.126 400.607,-289.229 416.32,-281.516"/>
<polygon fill="blue" stroke="blue" points="418.303,-284.441 425.737,-276.893 415.218,-278.157 418.303,-284.441"/>
</g>
<!-- D2&#45;&gt;A2 -->
<g id="edge17" class="edge"><title>D2&#45;&gt;A2</title>
<path fill="none" stroke="blue" d="M441.317,-282.279C428.61,-301.999 405.375,-332.281 376,-345 350.713,-355.949 339.553,-355.313 314,-345 286.834,-334.036 263.557,-309.614 248.443,-290.437"/>
<polygon fill="blue" stroke="blue" points="251.119,-288.174 242.283,-282.328 245.545,-292.408 251.119,-288.174"/>
</g>
</g>
</svg>
