<?xml version="1.0" encoding="UTF-8" standalone="no"?>
<!DOCTYPE svg PUBLIC "-//W3C//DTD SVG 1.1//EN"
 "http://www.w3.org/Graphics/SVG/1.1/DTD/svg11.dtd">
<!-- Generated by graphviz version 14.1.5 (20260411.2331)
 -->
<!-- Title: CopyingGC Pages: 1 -->
<svg width="500pt" height="408pt"
 viewBox="0.00 0.00 500.00 408.00" xmlns="http://www.w3.org/2000/svg" xmlns:xlink="http://www.w3.org/1999/xlink">
<g id="graph0" class="graph" transform="scale(1 1) rotate(0) translate(4 404)">
<title>CopyingGC</title>
<polygon fill="white" stroke="none" points="-4,4 -4,-404 496,-404 496,4 -4,4"/>
<g id="clust1" class="cluster">
<title>cluster_stack</title>
<polygon fill="none" stroke="black" stroke-dasharray="5,2" points="8,-169 8,-354 60,-354 60,-169 8,-169"/>
<text xml:space="preserve" text-anchor="middle" x="34" y="-336.7" font-family="Times,serif" font-size="14.00">stack</text>
</g>
<g id="clust2" class="cluster">
<title>cluster_from</title>
<polygon fill="none" stroke="black" points="81,-8 81,-233 373,-233 373,-8 81,-8"/>
<text xml:space="preserve" text-anchor="middle" x="227" y="-215.7" font-family="Times,serif" font-size="14.00">from&#45;space</text>
</g>
<g id="clust3" class="cluster">
<title>cluster_to</title>
<polygon fill="none" stroke="black" points="192,-241 192,-392 484,-392 484,-241 192,-241"/>
<text xml:space="preserve" text-anchor="middle" x="338" y="-374.7" font-family="Times,serif" font-size="14.00">to&#45;space</text>
</g>
<!-- s1 -->
<g id="node1" class="node">
<title>s1</title>
<path fill="none" stroke="black" d="M40,-213C40,-213 28,-213 28,-213 22,-213 16,-207 16,-201 16,-201 16,-189 16,-189 16,-183 22,-177 28,-177 28,-177 40,-177 40,-177 46,-177 52,-183 52,-189 52,-189 52,-201 52,-201 52,-207 46,-213 40,-213"/>
<text xml:space="preserve" text-anchor="middle" x="34" y="-189.95" font-family="Times,serif" font-size="14.00"> </text>
</g>
<!-- A -->
<g id="node4" class="node">
<title>A</title>
<path fill="none" stroke="green" d="M131,-200C131,-200 101,-200 101,-200 95,-200 89,-194 89,-188 89,-188 89,-176 89,-176 89,-170 95,-164 101,-164 101,-164 131,-164 131,-164 137,-164 143,-170 143,-176 143,-176 143,-188 143,-188 143,-194 137,-200 131,-200"/>
<text xml:space="preserve" text-anchor="middle" x="116" y="-176.95" font-family="Times,serif" font-size="14.00" fill="green">A</text>
</g>
<!-- s1&#45;&gt;A -->
<g id="edge1" class="edge">
<title>s1&#45;&gt;A</title>
<path fill="none" stroke="green" d="M52.36,-192.18C59.71,-190.98 68.58,-189.54 77.3,-188.13"/>
<polygon fill="green" stroke="green" points="77.74,-191.6 87.05,-186.54 76.62,-184.69 77.74,-191.6"/>
</g>
<!-- A2 -->
<g id="node11" class="node">
<title>A2</title>
<path fill="none" stroke="blue" d="M242,-285C242,-285 212,-285 212,-285 206,-285 200,-279 200,-273 200,-273 200,-261 200,-261 200,-255 206,-249 212,-249 212,-249 242,-249 242,-249 248,-249 254,-255 254,-261 254,-261 254,-273 254,-273 254,-279 248,-285 242,-285"/>
<text xml:space="preserve" text-anchor="middle" x="227" y="-261.95" font-family="Times,serif" font-size="14.00" fill="blue">A&#39;</text>
</g>
<!-- s1&#45;&gt;A2 -->
<g id="edge18" class="edge">
<title>s1&#45;&gt;A2</title>
<path fill="none" stroke="blue" stroke-dasharray="5,2" d="M52.45,-212.73C62.61,-222.69 74.64,-233.75 81,-237 114.86,-254.28 157.98,-261.61 188.37,-264.72"/>
<polygon fill="blue" stroke="blue" points="187.96,-268.19 198.24,-265.61 188.59,-261.22 187.96,-268.19"/>
</g>
<!-- s2 -->
<g id="node2" class="node">
<title>s2</title>
<path fill="none" stroke="black" d="M40,-267C40,-267 28,-267 28,-267 22,-267 16,-261 16,-255 16,-255 16,-243 16,-243 16,-237 22,-231 28,-231 28,-231 40,-231 40,-231 46,-231 52,-237 52,-243 52,-243 52,-255 52,-255 52,-261 46,-267 40,-267"/>
<text xml:space="preserve" text-anchor="middle" x="34" y="-243.95" font-family="Times,serif" font-size="14.00"> </text>
</g>
<!-- s3 -->
<g id="node3" class="node">
<title>s3</title>
<path fill="none" stroke="black" d="M40,-321C40,-321 28,-321 28,-321 22,-321 16,-315 16,-309 16,-309 16,-297 16,-297 16,-291 22,-285 28,-285 28,-285 40,-285 40,-285 46,-285 52,-291 52,-297 52,-297 52,-309 52,-309 52,-315 46,-321 40,-321"/>
<text xml:space="preserve" text-anchor="middle" x="34" y="-297.95" font-family="Times,serif" font-size="14.00"> </text>
</g>
<!-- C -->
<g id="node6" class="node">
<title>C</title>
<path fill="none" stroke="green" d="M242,-52C242,-52 212,-52 212,-52 206,-52 200,-46 200,-40 200,-40 200,-28 200,-28 200,-22 206,-16 212,-16 212,-16 242,-16 242,-16 248,-16 254,-22 254,-28 254,-28 254,-40 254,-40 254,-46 248,-52 242,-52"/>
<text xml:space="preserve" text-anchor="middle" x="227" y="-28.95" font-family="Times,serif" font-size="14.00" fill="green">C</text>
</g>
<!-- s3&#45;&gt;C -->
<g id="edge2" class="edge">
<title>s3&#45;&gt;C</title>
<path fill="none" stroke="green" d="M52.44,-287.38C55.4,-283.92 58.12,-280.06 60,-276 92.88,-204.9 34.93,-164.36 81,-101 106.49,-65.94 154.92,-48.71 188.77,-40.62"/>
<polygon fill="green" stroke="green" points="189.15,-44.12 198.16,-38.53 187.64,-37.28 189.15,-44.12"/>
</g>
<!-- C2 -->
<g id="node13" class="node">
<title>C2</title>
<path fill="none" stroke="blue" d="M353,-359C353,-359 323,-359 323,-359 317,-359 311,-353 311,-347 311,-347 311,-335 311,-335 311,-329 317,-323 323,-323 323,-323 353,-323 353,-323 359,-323 365,-329 365,-335 365,-335 365,-347 365,-347 365,-353 359,-359 353,-359"/>
<text xml:space="preserve" text-anchor="middle" x="338" y="-335.95" font-family="Times,serif" font-size="14.00" fill="blue">C&#39;</text>
</g>
<!-- s3&#45;&gt;C2 -->
<g id="edge19" class="edge">
<title>s3&#45;&gt;C2</title>
<path fill="none" stroke="blue" stroke-dasharray="5,2" d="M52.1,-305.15C99.54,-311.12 233.61,-327.99 299.5,-336.28"/>
<polygon fill="blue" stroke="blue" points="298.74,-339.71 309.1,-337.49 299.61,-332.77 298.74,-339.71"/>
</g>
<!-- B -->
<g id="node5" class="node">
<title>B</title>
<path fill="none" stroke="green" d="M242,-180C242,-180 212,-180 212,-180 206,-180 200,-174 200,-168 200,-168 200,-156 200,-156 200,-150 206,-144 212,-144 212,-144 242,-144 242,-144 248,-144 254,-150 254,-156 254,-156 254,-168 254,-168 254,-174 248,-180 242,-180"/>
<text xml:space="preserve" text-anchor="middle" x="227" y="-156.95" font-family="Times,serif" font-size="14.00" fill="green">B</text>
</g>
<!-- A&#45;&gt;B -->
<g id="edge3" class="edge">
<title>A&#45;&gt;B</title>
<path fill="none" stroke="green" d="M143.39,-177.16C157.04,-174.65 173.94,-171.55 188.89,-168.81"/>
<polygon fill="green" stroke="green" points="189.16,-172.32 198.37,-167.07 187.9,-165.43 189.16,-172.32"/>
</g>
<!-- A&#45;&gt;A2 -->
<g id="edge10" class="edge">
<title>A&#45;&gt;A2</title>
<path fill="none" stroke="gray" stroke-dasharray="5,2" d="M143.39,-193.84C156.08,-200.43 170.91,-209.52 182,-220.5 188.09,-226.53 186.5,-230.42 192,-237 193.04,-238.25 194.14,-239.49 195.27,-240.71"/>
<polygon fill="gray" stroke="gray" points="202.26,-247.68 192,-243.81 199.58,-245.01 195.18,-240.62 195.18,-240.62 195.18,-240.62 199.58,-245.01 198.35,-237.43 202.26,-247.68"/>
<text xml:space="preserve" text-anchor="middle" x="171.5" y="-223.7" font-family="Times,serif" font-size="14.00">fwd</text>
</g>
<!-- D -->
<g id="node7" class="node">
<title>D</title>
<path fill="none" stroke="green" d="M353,-180C353,-180 323,-180 323,-180 317,-180 311,-174 311,-168 311,-168 311,-156 311,-156 311,-150 317,-144 323,-144 323,-144 353,-144 353,-144 359,-144 365,-150 365,-156 365,-156 365,-168 365,-168 365,-174 359,-180 353,-180"/>
<text xml:space="preserve" text-anchor="middle" x="338" y="-156.95" font-family="Times,serif" font-size="14.00" fill="green">D</text>
</g>
<!-- B&#45;&gt;D -->
<g id="edge4" class="edge">
<title>B&#45;&gt;D</title>
<path fill="none" stroke="green" d="M254.39,-162C267.91,-162 284.61,-162 299.45,-162"/>
<polygon fill="green" stroke="green" points="299.34,-165.5 309.34,-162 299.34,-158.5 299.34,-165.5"/>
</g>
<!-- B2 -->
<g id="node12" class="node">
<title>B2</title>
<path fill="none" stroke="blue" d="M353,-285C353,-285 323,-285 323,-285 317,-285 311,-279 311,-273 311,-273 311,-261 311,-261 311,-255 317,-249 323,-249 323,-249 353,-249 353,-249 359,-249 365,-255 365,-261 365,-261 365,-273 365,-273 365,-279 359,-285 353,-285"/>
<text xml:space="preserve" text-anchor="middle" x="338" y="-261.95" font-family="Times,serif" font-size="14.00" fill="blue">B&#39;</text>
</g>
<!-- B&#45;&gt;B2 -->
<g id="edge11" class="edge">
<title>B&#45;&gt;B2</title>
<path fill="none" stroke="gray" stroke-dasharray="5,2" d="M254.29,-174.72C267.11,-181.87 282.07,-191.72 293,-203.5 304.49,-215.89 301.41,-223.08 311,-237 311.77,-238.12 312.58,-239.24 313.41,-240.36"/>
<polygon fill="gray" stroke="gray" points="319.35,-247.84 309.6,-242.81 317,-244.88 313.13,-240.01 313.13,-240.01 313.13,-240.01 317,-244.88 316.65,-237.21 319.35,-247.84"/>
<text xml:space="preserve" text-anchor="middle" x="282.5" y="-206.7" font-family="Times,serif" font-size="14.00">fwd</text>
</g>
<!-- C&#45;&gt;D -->
<g id="edge5" class="edge">
<title>C&#45;&gt;D</title>
<path fill="none" stroke="green" d="M254.4,-44.26C267.73,-50.67 283.12,-60.18 293,-73 308.67,-93.33 299.21,-107.03 311.81,-133.75"/>
<polygon fill="green" stroke="green" points="308.69,-135.34 316.55,-142.45 314.84,-131.99 308.69,-135.34"/>
</g>
<!-- C&#45;&gt;C2 -->
<g id="edge12" class="edge">
<title>C&#45;&gt;C2</title>
<path fill="none" stroke="gray" stroke-dasharray="5,2" d="M240.33,-52.46C245.36,-60.84 250.74,-71.08 254,-81 273.42,-140.19 253.18,-160.62 272,-220 283.23,-255.44 293.33,-261.29 311,-294 314.37,-300.25 318.04,-306.93 321.53,-313.25"/>
<polygon fill="gray" stroke="gray" points="326.2,-321.68 317.42,-315.11 324.37,-318.37 321.35,-312.93 321.35,-312.93 321.35,-312.93 324.37,-318.37 325.29,-310.75 326.2,-321.68"/>
<text xml:space="preserve" text-anchor="middle" x="282.5" y="-267.23" font-family="Times,serif" font-size="14.00">fwd</text>
</g>
<!-- D&#45;&gt;A -->
<g id="edge6" class="edge">
<title>D&#45;&gt;A</title>
<path fill="none" stroke="green" d="M318.95,-143.7C295.79,-120.33 258.1,-82.67 254,-81 228.48,-70.61 216.27,-67.96 192,-81 191.77,-81.12 158.14,-132.1 142.49,-154.27"/>
<polygon fill="green" stroke="green" points="139.68,-152.18 136.54,-162.3 145.31,-156.35 139.68,-152.18"/>
</g>
<!-- D2 -->
<g id="node14" class="node">
<title>D2</title>
<path fill="none" stroke="blue" d="M464,-285C464,-285 434,-285 434,-285 428,-285 422,-279 422,-273 422,-273 422,-261 422,-261 422,-255 428,-249 434,-249 434,-249 464,-249 464,-249 470,-249 476,-255 476,-261 476,-261 476,-273 476,-273 476,-279 470,-285 464,-285"/>
<text xml:space="preserve" text-anchor="middle" x="449" y="-261.95" font-family="Times,serif" font-size="14.00" fill="blue">D&#39;</text>
</g>
<!-- D&#45;&gt;D2 -->
<g id="edge13" class="edge">
<title>D&#45;&gt;D2</title>
<path fill="none" stroke="gray" stroke-dasharray="5,2" d="M357.99,-180.29C375.39,-197.05 401.34,-222.05 420.91,-240.9"/>
<polygon fill="gray" stroke="gray" points="427.99,-247.72 417.66,-244.03 425.26,-245.1 420.79,-240.78 420.79,-240.78 420.79,-240.78 425.26,-245.1 423.91,-237.54 427.99,-247.72"/>
<text xml:space="preserve" text-anchor="middle" x="393.5" y="-227.1" font-family="Times,serif" font-size="14.00">fwd</text>
</g>
<!-- X -->
<g id="node8" class="node">
<title>X</title>
<path fill="none" stroke="red" d="M131,-146C131,-146 101,-146 101,-146 95,-146 89,-140 89,-134 89,-134 89,-122 89,-122 89,-116 95,-110 101,-110 101,-110 131,-110 131,-110 137,-110 143,-116 143,-122 143,-122 143,-134 143,-134 143,-140 137,-146 131,-146"/>
<text xml:space="preserve" text-anchor="middle" x="116" y="-122.95" font-family="Times,serif" font-size="14.00" fill="red">X</text>
</g>
<!-- Y -->
<g id="node9" class="node">
<title>Y</title>
<path fill="none" stroke="red" d="M242,-126C242,-126 212,-126 212,-126 206,-126 200,-120 200,-114 200,-114 200,-102 200,-102 200,-96 206,-90 212,-90 212,-90 242,-90 242,-90 248,-90 254,-96 254,-102 254,-102 254,-114 254,-114 254,-120 248,-126 242,-126"/>
<text xml:space="preserve" text-anchor="middle" x="227" y="-102.95" font-family="Times,serif" font-size="14.00" fill="red">Y</text>
</g>
<!-- X&#45;&gt;Y -->
<g id="edge7" class="edge">
<title>X&#45;&gt;Y</title>
<path fill="none" stroke="red" d="M143.39,-123.16C157.04,-120.65 173.94,-117.55 188.89,-114.81"/>
<polygon fill="red" stroke="red" points="189.16,-118.32 198.37,-113.07 187.9,-111.43 189.16,-118.32"/>
</g>
<!-- Z -->
<g id="node10" class="node">
<title>Z</title>
<path fill="none" stroke="red" d="M353,-126C353,-126 323,-126 323,-126 317,-126 311,-120 311,-114 311,-114 311,-102 311,-102 311,-96 317,-90 323,-90 323,-90 353,-90 353,-90 359,-90 365,-96 365,-102 365,-102 365,-114 365,-114 365,-120 359,-126 353,-126"/>
<text xml:space="preserve" text-anchor="middle" x="338" y="-102.95" font-family="Times,serif" font-size="14.00" fill="red">Z</text>
</g>
<!-- Y&#45;&gt;Z -->
<g id="edge8" class="edge">
<title>Y&#45;&gt;Z</title>
<path fill="none" stroke="red" d="M254.39,-108C267.91,-108 284.61,-108 299.45,-108"/>
<polygon fill="red" stroke="red" points="299.34,-111.5 309.34,-108 299.34,-104.5 299.34,-111.5"/>
</g>
<!-- Z&#45;&gt;X -->
<g id="edge9" class="edge">
<title>Z&#45;&gt;X</title>
<path fill="none" stroke="red" d="M318.95,-126.3C295.79,-149.67 258.1,-187.33 254,-189 228.48,-199.39 217.97,-198.23 192,-189 181.43,-185.24 161.44,-168.77 144.76,-153.89"/>
<polygon fill="red" stroke="red" points="147.29,-151.46 137.53,-147.35 142.59,-156.65 147.29,-151.46"/>
</g>
<!-- A2&#45;&gt;B2 -->
<g id="edge14" class="edge">
<title>A2&#45;&gt;B2</title>
<path fill="none" stroke="blue" d="M254.39,-267C267.91,-267 284.61,-267 299.45,-267"/>
<polygon fill="blue" stroke="blue" points="299.34,-270.5 309.34,-267 299.34,-263.5 299.34,-270.5"/>
</g>
<!-- B2&#45;&gt;D2 -->
<g id="edge15" class="edge">
<title>B2&#45;&gt;D2</title>
<path fill="none" stroke="blue" d="M365.39,-267C378.91,-267 395.61,-267 410.45,-267"/>
<polygon fill="blue" stroke="blue" points="410.34,-270.5 420.34,-267 410.34,-263.5 410.34,-270.5"/>
</g>
<!-- C2&#45;&gt;D2 -->
<g id="edge16" class="edge">
<title>C2&#45;&gt;D2</title>
<path fill="none" stroke="blue" d="M365.39,-323.09C379.58,-313.45 397.27,-301.44 412.64,-291.01"/>
<polygon fill="blue" stroke="blue" points="414.3,-294.11 420.6,-285.6 410.37,-288.32 414.3,-294.11"/>
</g>
<!-- D2&#45;&gt;A2 -->
<g id="edge17" class="edge">
<title>D2&#45;&gt;A2</title>
<path fill="none" stroke="blue" d="M421.54,-279.06C407.45,-284.83 389.63,-291.1 373,-294 345.85,-298.74 338.22,-298.32 311,-294 295.65,-291.57 279.27,-286.75 265.16,-281.85"/>
<polygon fill="blue" stroke="blue" points="266.41,-278.57 255.81,-278.46 264.02,-285.16 266.41,-278.57"/>
</g>
</g>
</svg>
