<?xml version="1.0" encoding="UTF-8" standalone="no"?>
<!DOCTYPE svg PUBLIC "-//W3C//DTD SVG 1.1//EN"
 "http://www.w3.org/Graphics/SVG/1.1/DTD/svg11.dtd">
<!-- Generated by graphviz version 14.1.5 (20260411.2331)
 -->
<!-- Title: dfa_hopcroft_min Pages: 1 -->
<svg width="169pt" height="135pt"
 viewBox="0.00 0.00 169.00 135.00" xmlns="http://www.w3.org/2000/svg" xmlns:xlink="http://www.w3.org/1999/xlink">
<g id="graph0" class="graph" transform="scale(1 1) rotate(0) translate(4 131.26)">
<title>dfa_hopcroft_min</title>
<polygon fill="white" stroke="none" points="-4,4 -4,-131.26 165.34,-131.26 165.34,4 -4,4"/>
<!-- [BD] -->
<g id="node1" class="node">
<title>[BD]</title>
<ellipse fill="none" stroke="black" cx="31.46" cy="-62.8" rx="27.46" ry="27.46"/>
<ellipse fill="none" stroke="black" cx="31.46" cy="-62.8" rx="31.46" ry="31.46"/>
<text xml:space="preserve" text-anchor="middle" x="31.46" y="-57" font-family="Helvetica,Arial,sans-serif" font-size="14.00">[BD]</text>
</g>
<!-- [BD]&#45;&gt;[BD] -->
<g id="edge5" class="edge">
<title>[BD]&#45;&gt;[BD]</title>
<path fill="none" stroke="black" d="M21.49,-92.74C21.28,-103.49 24.6,-112.26 31.46,-112.26 35.64,-112.26 38.51,-109 40.06,-104.03"/>
<polygon fill="black" stroke="black" points="43.52,-104.59 41.25,-94.24 36.57,-103.75 43.52,-104.59"/>
<text xml:space="preserve" text-anchor="middle" x="31.46" y="-113.96" font-family="Helvetica,Arial,sans-serif" font-size="14.00">b</text>
</g>
<!-- [AC] -->
<g id="node3" class="node">
<title>[AC]</title>
<ellipse fill="none" stroke="black" cx="133.88" cy="-34.8" rx="27.46" ry="27.46"/>
<text xml:space="preserve" text-anchor="middle" x="133.88" y="-29" font-family="Helvetica,Arial,sans-serif" font-size="14.00">[AC]</text>
</g>
<!-- [BD]&#45;&gt;[AC] -->
<g id="edge4" class="edge">
<title>[BD]&#45;&gt;[AC]</title>
<path fill="none" stroke="black" d="M62.85,-57.06C71.19,-55.27 80.2,-53.15 88.42,-50.8 91.18,-50.01 94.02,-49.14 96.86,-48.22"/>
<polygon fill="black" stroke="black" points="97.91,-51.56 106.25,-45.02 95.65,-44.93 97.91,-51.56"/>
<text xml:space="preserve" text-anchor="middle" x="84.67" y="-54.14" font-family="Helvetica,Arial,sans-serif" font-size="14.00">a</text>
</g>
<!-- ENTRY -->
<g id="node2" class="node">
<title>ENTRY</title>
<ellipse fill="black" stroke="black" cx="31.46" cy="-1.8" rx="1.8" ry="1.8"/>
</g>
<!-- ENTRY&#45;&gt;[AC] -->
<g id="edge1" class="edge">
<title>ENTRY&#45;&gt;[AC]</title>
<path fill="none" stroke="black" d="M33.59,-2.17C39.85,-4.23 70.97,-14.45 96.72,-22.92"/>
<polygon fill="black" stroke="black" points="95.31,-26.14 105.91,-25.94 97.5,-19.49 95.31,-26.14"/>
</g>
<!-- [AC]&#45;&gt;[BD] -->
<g id="edge3" class="edge">
<title>[AC]&#45;&gt;[BD]</title>
<path fill="none" stroke="black" d="M106.1,-32.84C97.9,-32.9 88.93,-33.64 80.92,-35.8 76.65,-36.95 72.35,-38.56 68.17,-40.43"/>
<polygon fill="black" stroke="black" points="66.84,-37.18 59.47,-44.79 69.98,-43.44 66.84,-37.18"/>
<text xml:space="preserve" text-anchor="middle" x="84.67" y="-37.5" font-family="Helvetica,Arial,sans-serif" font-size="14.00">b</text>
</g>
<!-- [AC]&#45;&gt;[AC] -->
<g id="edge2" class="edge">
<title>[AC]&#45;&gt;[AC]</title>
<path fill="none" stroke="black" d="M124.71,-60.96C124.19,-71.45 127.25,-80.26 133.88,-80.26 137.92,-80.26 140.64,-76.99 142.02,-72.06"/>
<polygon fill="black" stroke="black" points="145.47,-72.75 142.91,-62.47 138.5,-72.1 145.47,-72.75"/>
<text xml:space="preserve" text-anchor="middle" x="133.88" y="-81.96" font-family="Helvetica,Arial,sans-serif" font-size="14.00">a</text>
</g>
</g>
</svg>
