<?xml version="1.0" encoding="UTF-8" standalone="no"?>
<!DOCTYPE svg PUBLIC "-//W3C//DTD SVG 1.1//EN"
 "http://www.w3.org/Graphics/SVG/1.1/DTD/svg11.dtd">
<!-- Generated by graphviz version 14.1.5 (20260411.2331)
 -->
<!-- Title: FSM Pages: 1 -->
<svg width="263pt" height="91pt"
 viewBox="0.00 0.00 263.00 91.00" xmlns="http://www.w3.org/2000/svg" xmlns:xlink="http://www.w3.org/1999/xlink">
<g id="graph0" class="graph" transform="scale(1 1) rotate(0) translate(4 86.76)">
<title>FSM</title>
<polygon fill="white" stroke="none" points="-4,4 -4,-86.76 258.89,-86.76 258.89,4 -4,4"/>
<!-- start -->
<g id="node1" class="node">
<title>start</title>
<ellipse fill="black" stroke="black" cx="1.8" cy="-24.13" rx="1.8" ry="1.8"/>
</g>
<!-- q0 -->
<g id="node2" class="node">
<title>q0</title>
<ellipse fill="none" stroke="black" cx="60.73" cy="-24.13" rx="20.13" ry="20.13"/>
<text xml:space="preserve" text-anchor="middle" x="60.73" y="-19.08" font-family="Times,serif" font-size="14.00">q0</text>
</g>
<!-- start&#45;&gt;q0 -->
<g id="edge1" class="edge">
<title>start&#45;&gt;q0</title>
<path fill="none" stroke="black" d="M3.79,-24.13C7.01,-24.13 17.65,-24.13 28.79,-24.13"/>
<polygon fill="black" stroke="black" points="28.79,-27.63 38.79,-24.13 28.79,-20.63 28.79,-27.63"/>
</g>
<!-- q0&#45;&gt;q0 -->
<g id="edge2" class="edge">
<title>q0&#45;&gt;q0</title>
<path fill="none" stroke="black" d="M53.74,-43.36C52.67,-53.3 55,-62.26 60.73,-62.26 64.05,-62.26 66.22,-59.27 67.26,-54.82"/>
<polygon fill="black" stroke="black" points="70.76,-55 67.66,-44.87 63.76,-54.72 70.76,-55"/>
<text xml:space="preserve" text-anchor="middle" x="60.73" y="-65.46" font-family="Times,serif" font-size="14.00">1</text>
</g>
<!-- q2 -->
<g id="node3" class="node">
<title>q2</title>
<ellipse fill="none" stroke="black" cx="143.74" cy="-24.13" rx="20.13" ry="20.13"/>
<text xml:space="preserve" text-anchor="middle" x="143.74" y="-19.08" font-family="Times,serif" font-size="14.00">q2</text>
</g>
<!-- q0&#45;&gt;q2 -->
<g id="edge3" class="edge">
<title>q0&#45;&gt;q2</title>
<path fill="none" stroke="black" d="M81.34,-24.13C90.5,-24.13 101.61,-24.13 111.86,-24.13"/>
<polygon fill="black" stroke="black" points="111.8,-27.63 121.8,-24.13 111.8,-20.63 111.8,-27.63"/>
<text xml:space="preserve" text-anchor="middle" x="102.24" y="-27.33" font-family="Times,serif" font-size="14.00">0</text>
</g>
<!-- q2&#45;&gt;q2 -->
<g id="edge4" class="edge">
<title>q2&#45;&gt;q2</title>
<path fill="none" stroke="black" d="M136.28,-42.97C135.01,-53.06 137.5,-62.26 143.74,-62.26 147.45,-62.26 149.83,-59.02 150.89,-54.27"/>
<polygon fill="black" stroke="black" points="154.38,-54.57 151.16,-44.48 147.39,-54.38 154.38,-54.57"/>
<text xml:space="preserve" text-anchor="middle" x="143.74" y="-65.46" font-family="Times,serif" font-size="14.00">0</text>
</g>
<!-- q1 -->
<g id="node4" class="node">
<title>q1</title>
<ellipse fill="none" stroke="black" cx="230.76" cy="-24.13" rx="20.13" ry="20.13"/>
<ellipse fill="none" stroke="black" cx="230.76" cy="-24.13" rx="24.13" ry="24.13"/>
<text xml:space="preserve" text-anchor="middle" x="230.76" y="-19.08" font-family="Times,serif" font-size="14.00">q1</text>
</g>
<!-- q2&#45;&gt;q1 -->
<g id="edge5" class="edge">
<title>q2&#45;&gt;q1</title>
<path fill="none" stroke="black" d="M164.03,-24.13C173.15,-24.13 184.31,-24.13 194.83,-24.13"/>
<polygon fill="black" stroke="black" points="194.79,-27.63 204.79,-24.13 194.79,-20.63 194.79,-27.63"/>
<text xml:space="preserve" text-anchor="middle" x="185.25" y="-27.33" font-family="Times,serif" font-size="14.00">1</text>
</g>
<!-- q1&#45;&gt;q1 -->
<g id="edge6" class="edge">
<title>q1&#45;&gt;q1</title>
<path fill="none" stroke="black" d="M222.36,-47.1C221.56,-57.38 224.36,-66.26 230.76,-66.26 234.56,-66.26 237.09,-63.13 238.35,-58.43"/>
<polygon fill="black" stroke="black" points="241.83,-58.83 239.05,-48.61 234.85,-58.34 241.83,-58.83"/>
<text xml:space="preserve" text-anchor="middle" x="230.76" y="-69.46" font-family="Times,serif" font-size="14.00">0,1</text>
</g>
</g>
</svg>
