<?xml version="1.0" encoding="UTF-8" standalone="no"?>
<!DOCTYPE svg PUBLIC "-//W3C//DTD SVG 1.1//EN"
 "http://www.w3.org/Graphics/SVG/1.1/DTD/svg11.dtd">
<!-- Generated by graphviz version 14.1.5 (20260411.2331)
 -->
<!-- Title: dfa_complement_orig Pages: 1 -->
<svg width="140pt" height="190pt"
 viewBox="0.00 0.00 140.00 190.00" xmlns="http://www.w3.org/2000/svg" xmlns:xlink="http://www.w3.org/1999/xlink">
<g id="graph0" class="graph" transform="scale(1 1) rotate(0) translate(4 185.95)">
<title>dfa_complement_orig</title>
<polygon fill="white" stroke="none" points="-4,4 -4,-185.95 136.09,-185.95 136.09,4 -4,4"/>
<!-- q2 -->
<g id="node1" class="node">
<title>q2</title>
<ellipse fill="none" stroke="black" cx="107.94" cy="-124.8" rx="20.15" ry="20.15"/>
<ellipse fill="none" stroke="black" cx="107.94" cy="-124.8" rx="24.15" ry="24.15"/>
<text xml:space="preserve" text-anchor="middle" x="107.94" y="-119" font-family="Helvetica,Arial,sans-serif" font-size="14.00">q2</text>
</g>
<!-- q2&#45;&gt;q2 -->
<g id="edge6" class="edge">
<title>q2&#45;&gt;q2</title>
<path fill="none" stroke="black" d="M99.47,-147.78C98.67,-158.06 101.49,-166.95 107.94,-166.95 111.78,-166.95 114.33,-163.81 115.6,-159.12"/>
<polygon fill="black" stroke="black" points="119.08,-159.51 116.31,-149.29 112.1,-159.01 119.08,-159.51"/>
<text xml:space="preserve" text-anchor="middle" x="107.94" y="-168.65" font-family="Helvetica,Arial,sans-serif" font-size="14.00">a, b</text>
</g>
<!-- ENTRY -->
<g id="node2" class="node">
<title>ENTRY</title>
<ellipse fill="black" stroke="black" cx="20.15" cy="-1.8" rx="1.8" ry="1.8"/>
</g>
<!-- q0 -->
<g id="node3" class="node">
<title>q0</title>
<ellipse fill="none" stroke="black" cx="107.94" cy="-29.8" rx="20.15" ry="20.15"/>
<text xml:space="preserve" text-anchor="middle" x="107.94" y="-24" font-family="Helvetica,Arial,sans-serif" font-size="14.00">q0</text>
</g>
<!-- ENTRY&#45;&gt;q0 -->
<g id="edge1" class="edge">
<title>ENTRY&#45;&gt;q0</title>
<path fill="none" stroke="black" d="M22.26,-2.14C27.29,-3.67 48.5,-10.15 65.8,-15.8 69.64,-17.06 73.68,-18.4 77.67,-19.74"/>
<polygon fill="black" stroke="black" points="76.51,-23.05 87.11,-22.95 78.76,-16.42 76.51,-23.05"/>
</g>
<!-- q0&#45;&gt;q0 -->
<g id="edge3" class="edge">
<title>q0&#45;&gt;q0</title>
<path fill="none" stroke="black" d="M99.69,-48.64C98.29,-58.74 101.04,-67.95 107.94,-67.95 112.04,-67.95 114.68,-64.7 115.85,-59.95"/>
<polygon fill="black" stroke="black" points="119.34,-60.26 116.15,-50.16 112.34,-60.04 119.34,-60.26"/>
<text xml:space="preserve" text-anchor="middle" x="107.94" y="-69.65" font-family="Helvetica,Arial,sans-serif" font-size="14.00">b</text>
</g>
<!-- q1 -->
<g id="node4" class="node">
<title>q1</title>
<ellipse fill="none" stroke="black" cx="20.15" cy="-72.8" rx="20.15" ry="20.15"/>
<text xml:space="preserve" text-anchor="middle" x="20.15" y="-67" font-family="Helvetica,Arial,sans-serif" font-size="14.00">q1</text>
</g>
<!-- q0&#45;&gt;q1 -->
<g id="edge2" class="edge">
<title>q0&#45;&gt;q1</title>
<path fill="none" stroke="black" d="M87.65,-29.32C78.37,-29.79 67.32,-31.4 58.3,-35.8 51.74,-38.99 45.66,-43.8 40.38,-48.91"/>
<polygon fill="black" stroke="black" points="38.13,-46.2 33.85,-55.89 43.24,-50.98 38.13,-46.2"/>
<text xml:space="preserve" text-anchor="middle" x="62.05" y="-37.5" font-family="Helvetica,Arial,sans-serif" font-size="14.00">a</text>
</g>
<!-- q1&#45;&gt;q2 -->
<g id="edge4" class="edge">
<title>q1&#45;&gt;q2</title>
<path fill="none" stroke="black" d="M37.69,-82.83C48.87,-89.6 63.94,-98.73 77.17,-106.75"/>
<polygon fill="black" stroke="black" points="75.17,-109.63 85.53,-111.82 78.8,-103.65 75.17,-109.63"/>
<text xml:space="preserve" text-anchor="middle" x="62.05" y="-100.5" font-family="Helvetica,Arial,sans-serif" font-size="14.00">a</text>
</g>
<!-- q1&#45;&gt;q0 -->
<g id="edge5" class="edge">
<title>q1&#45;&gt;q0</title>
<path fill="none" stroke="black" d="M38.56,-64.29C46.83,-60.23 56.84,-55.29 65.8,-50.8 70.36,-48.51 75.19,-46.07 79.88,-43.68"/>
<polygon fill="black" stroke="black" points="81.09,-46.99 88.41,-39.33 77.91,-40.76 81.09,-46.99"/>
<text xml:space="preserve" text-anchor="middle" x="62.05" y="-56.14" font-family="Helvetica,Arial,sans-serif" font-size="14.00">b</text>
</g>
</g>
</svg>
