<?xml version="1.0" encoding="UTF-8" standalone="no"?>
<!DOCTYPE svg PUBLIC "-//W3C//DTD SVG 1.1//EN"
 "http://www.w3.org/Graphics/SVG/1.1/DTD/svg11.dtd">
<!-- Generated by graphviz version 14.1.5 (20260411.2331)
 -->
<!-- Title: dfa_hopcroft Pages: 1 -->
<svg width="339pt" height="124pt"
 viewBox="0.00 0.00 339.00 124.00" xmlns="http://www.w3.org/2000/svg" xmlns:xlink="http://www.w3.org/1999/xlink">
<g id="graph0" class="graph" transform="scale(1 1) rotate(0) translate(4 120)">
<title>dfa_hopcroft</title>
<polygon fill="white" stroke="none" points="-4,4 -4,-120 335.1,-120 335.1,4 -4,4"/>
<!-- B -->
<g id="node1" class="node">
<title>B</title>
<ellipse fill="none" stroke="black" cx="142.1" cy="-61" rx="18" ry="18"/>
<ellipse fill="none" stroke="black" cx="142.1" cy="-61" rx="22" ry="22"/>
<text xml:space="preserve" text-anchor="middle" x="142.1" y="-55.2" font-family="Helvetica,Arial,sans-serif" font-size="14.00">B</text>
</g>
<!-- B&#45;&gt;B -->
<g id="edge5" class="edge">
<title>B&#45;&gt;B</title>
<path fill="none" stroke="black" d="M134.1,-81.99C133.11,-92.09 135.78,-101 142.1,-101 145.85,-101 148.32,-97.86 149.5,-93.19"/>
<polygon fill="black" stroke="black" points="152.98,-93.68 150.02,-83.5 145.99,-93.3 152.98,-93.68"/>
<text xml:space="preserve" text-anchor="middle" x="142.1" y="-102.7" font-family="Helvetica,Arial,sans-serif" font-size="14.00">b</text>
</g>
<!-- C -->
<g id="node5" class="node">
<title>C</title>
<ellipse fill="none" stroke="black" cx="225.6" cy="-22" rx="18" ry="18"/>
<text xml:space="preserve" text-anchor="middle" x="225.6" y="-16.2" font-family="Helvetica,Arial,sans-serif" font-size="14.00">C</text>
</g>
<!-- B&#45;&gt;C -->
<g id="edge4" class="edge">
<title>B&#45;&gt;C</title>
<path fill="none" stroke="black" d="M162.41,-51.76C173.3,-46.55 187.03,-39.98 198.83,-34.33"/>
<polygon fill="black" stroke="black" points="200.1,-37.61 207.61,-30.13 197.08,-31.29 200.1,-37.61"/>
<text xml:space="preserve" text-anchor="middle" x="185.85" y="-43.2" font-family="Helvetica,Arial,sans-serif" font-size="14.00">a</text>
</g>
<!-- D -->
<g id="node2" class="node">
<title>D</title>
<ellipse fill="none" stroke="black" cx="309.1" cy="-22" rx="18" ry="18"/>
<ellipse fill="none" stroke="black" cx="309.1" cy="-22" rx="22" ry="22"/>
<text xml:space="preserve" text-anchor="middle" x="309.1" y="-16.2" font-family="Helvetica,Arial,sans-serif" font-size="14.00">D</text>
</g>
<!-- D&#45;&gt;D -->
<g id="edge9" class="edge">
<title>D&#45;&gt;D</title>
<path fill="none" stroke="black" d="M301.1,-42.99C300.11,-53.09 302.78,-62 309.1,-62 312.85,-62 315.32,-58.86 316.5,-54.19"/>
<polygon fill="black" stroke="black" points="319.98,-54.68 317.02,-44.5 312.99,-54.3 319.98,-54.68"/>
<text xml:space="preserve" text-anchor="middle" x="309.1" y="-63.7" font-family="Helvetica,Arial,sans-serif" font-size="14.00">b</text>
</g>
<!-- D&#45;&gt;C -->
<g id="edge8" class="edge">
<title>D&#45;&gt;C</title>
<path fill="none" stroke="black" d="M290.83,-9.18C282.23,-4.31 271.57,-0.47 261.6,-3 257.98,-3.92 254.33,-5.3 250.83,-6.9"/>
<polygon fill="black" stroke="black" points="249.46,-3.66 242.25,-11.43 252.73,-9.85 249.46,-3.66"/>
<text xml:space="preserve" text-anchor="middle" x="265.35" y="-4.7" font-family="Helvetica,Arial,sans-serif" font-size="14.00">a</text>
</g>
<!-- ENTRY -->
<g id="node3" class="node">
<title>ENTRY</title>
<ellipse fill="black" stroke="black" cx="1.8" cy="-22" rx="1.8" ry="1.8"/>
</g>
<!-- A -->
<g id="node4" class="node">
<title>A</title>
<ellipse fill="none" stroke="black" cx="58.6" cy="-22" rx="18" ry="18"/>
<text xml:space="preserve" text-anchor="middle" x="58.6" y="-16.2" font-family="Helvetica,Arial,sans-serif" font-size="14.00">A</text>
</g>
<!-- ENTRY&#45;&gt;A -->
<g id="edge1" class="edge">
<title>ENTRY&#45;&gt;A</title>
<path fill="none" stroke="black" d="M3.75,-22C6.96,-22 17.8,-22 28.92,-22"/>
<polygon fill="black" stroke="black" points="28.79,-25.5 38.79,-22 28.78,-18.5 28.79,-25.5"/>
</g>
<!-- A&#45;&gt;B -->
<g id="edge3" class="edge">
<title>A&#45;&gt;B</title>
<path fill="none" stroke="black" d="M75.31,-29.52C85.55,-34.42 99.22,-40.96 111.44,-46.81"/>
<polygon fill="black" stroke="black" points="109.8,-49.9 120.33,-51.06 112.82,-43.59 109.8,-49.9"/>
<text xml:space="preserve" text-anchor="middle" x="98.35" y="-43.2" font-family="Helvetica,Arial,sans-serif" font-size="14.00">b</text>
</g>
<!-- A&#45;&gt;C -->
<g id="edge2" class="edge">
<title>A&#45;&gt;C</title>
<path fill="none" stroke="black" d="M76.77,-19.48C88.85,-17.84 105.43,-15.85 120.1,-15 139.62,-13.87 144.58,-13.87 164.1,-15 174.65,-15.61 186.18,-16.81 196.31,-18.04"/>
<polygon fill="black" stroke="black" points="195.57,-21.48 205.93,-19.29 196.46,-14.53 195.57,-21.48"/>
<text xml:space="preserve" text-anchor="middle" x="142.1" y="-16.7" font-family="Helvetica,Arial,sans-serif" font-size="14.00">a</text>
</g>
<!-- C&#45;&gt;D -->
<g id="edge7" class="edge">
<title>C&#45;&gt;D</title>
<path fill="none" stroke="black" d="M243.88,-22C253.08,-22 264.7,-22 275.51,-22"/>
<polygon fill="black" stroke="black" points="275.27,-25.5 285.27,-22 275.27,-18.5 275.27,-25.5"/>
<text xml:space="preserve" text-anchor="middle" x="265.35" y="-23.7" font-family="Helvetica,Arial,sans-serif" font-size="14.00">b</text>
</g>
<!-- C&#45;&gt;C -->
<g id="edge6" class="edge">
<title>C&#45;&gt;C</title>
<path fill="none" stroke="black" d="M218.56,-39.04C217.12,-48.86 219.47,-58 225.6,-58 229.15,-58 231.43,-54.94 232.44,-50.47"/>
<polygon fill="black" stroke="black" points="235.94,-50.61 232.62,-40.55 228.94,-50.49 235.94,-50.61"/>
<text xml:space="preserve" text-anchor="middle" x="225.6" y="-59.7" font-family="Helvetica,Arial,sans-serif" font-size="14.00">a</text>
</g>
</g>
</svg>
