<?xml version="1.0" encoding="UTF-8" standalone="no"?>
<!DOCTYPE svg PUBLIC "-//W3C//DTD SVG 1.1//EN"
 "http://www.w3.org/Graphics/SVG/1.1/DTD/svg11.dtd">
<!-- Generated by graphviz version 14.1.5 (20260411.2331)
 -->
<!-- Title: dfa_complement Pages: 1 -->
<svg width="272pt" height="89pt"
 viewBox="0.00 0.00 272.00 89.00" xmlns="http://www.w3.org/2000/svg" xmlns:xlink="http://www.w3.org/1999/xlink">
<g id="graph0" class="graph" transform="scale(1 1) rotate(0) translate(4 85.3)">
<title>dfa_complement</title>
<polygon fill="white" stroke="none" points="-4,4 -4,-85.3 268.49,-85.3 268.49,4 -4,4"/>
<!-- q0 -->
<g id="node1" class="node">
<title>q0</title>
<ellipse fill="none" stroke="black" cx="64.75" cy="-24.15" rx="20.15" ry="20.15"/>
<ellipse fill="none" stroke="black" cx="64.75" cy="-24.15" rx="24.15" ry="24.15"/>
<text xml:space="preserve" text-anchor="middle" x="64.75" y="-18.35" font-family="Helvetica,Arial,sans-serif" font-size="14.00">q0</text>
</g>
<!-- q0&#45;&gt;q0 -->
<g id="edge3" class="edge">
<title>q0&#45;&gt;q0</title>
<path fill="none" stroke="black" d="M56.88,-47.13C56.13,-57.41 58.75,-66.3 64.75,-66.3 68.31,-66.3 70.68,-63.16 71.86,-58.46"/>
<polygon fill="black" stroke="black" points="75.35,-58.85 72.52,-48.64 68.36,-58.38 75.35,-58.85"/>
<text xml:space="preserve" text-anchor="middle" x="64.75" y="-68" font-family="Helvetica,Arial,sans-serif" font-size="14.00">b</text>
</g>
<!-- q1 -->
<g id="node2" class="node">
<title>q1</title>
<ellipse fill="none" stroke="black" cx="156.54" cy="-24.15" rx="20.15" ry="20.15"/>
<ellipse fill="none" stroke="black" cx="156.54" cy="-24.15" rx="24.15" ry="24.15"/>
<text xml:space="preserve" text-anchor="middle" x="156.54" y="-18.35" font-family="Helvetica,Arial,sans-serif" font-size="14.00">q1</text>
</g>
<!-- q0&#45;&gt;q1 -->
<g id="edge2" class="edge">
<title>q0&#45;&gt;q1</title>
<path fill="none" stroke="black" d="M89.34,-24.15C98.93,-24.15 110.21,-24.15 120.71,-24.15"/>
<polygon fill="black" stroke="black" points="120.6,-27.65 130.6,-24.15 120.6,-20.65 120.6,-27.65"/>
<text xml:space="preserve" text-anchor="middle" x="110.65" y="-25.85" font-family="Helvetica,Arial,sans-serif" font-size="14.00">a</text>
</g>
<!-- q1&#45;&gt;q0 -->
<g id="edge5" class="edge">
<title>q1&#45;&gt;q0</title>
<path fill="none" stroke="black" d="M136.1,-10.81C127.37,-6.33 116.82,-2.97 106.9,-5.15 103.47,-5.9 99.99,-6.97 96.58,-8.21"/>
<polygon fill="black" stroke="black" points="95.31,-4.95 87.46,-12.07 98.04,-11.4 95.31,-4.95"/>
<text xml:space="preserve" text-anchor="middle" x="110.65" y="-6.85" font-family="Helvetica,Arial,sans-serif" font-size="14.00">b</text>
</g>
<!-- q2 -->
<g id="node4" class="node">
<title>q2</title>
<ellipse fill="none" stroke="black" cx="244.34" cy="-24.15" rx="20.15" ry="20.15"/>
<text xml:space="preserve" text-anchor="middle" x="244.34" y="-18.35" font-family="Helvetica,Arial,sans-serif" font-size="14.00">q2</text>
</g>
<!-- q1&#45;&gt;q2 -->
<g id="edge4" class="edge">
<title>q1&#45;&gt;q2</title>
<path fill="none" stroke="black" d="M180.99,-24.15C190.62,-24.15 201.9,-24.15 212.21,-24.15"/>
<polygon fill="black" stroke="black" points="212.18,-27.65 222.18,-24.15 212.18,-20.65 212.18,-27.65"/>
<text xml:space="preserve" text-anchor="middle" x="202.44" y="-25.85" font-family="Helvetica,Arial,sans-serif" font-size="14.00">a</text>
</g>
<!-- ENTRY -->
<g id="node3" class="node">
<title>ENTRY</title>
<ellipse fill="black" stroke="black" cx="1.8" cy="-24.15" rx="1.8" ry="1.8"/>
</g>
<!-- ENTRY&#45;&gt;q0 -->
<g id="edge1" class="edge">
<title>ENTRY&#45;&gt;q0</title>
<path fill="none" stroke="black" d="M3.86,-24.15C7.15,-24.15 17.7,-24.15 29.04,-24.15"/>
<polygon fill="black" stroke="black" points="28.89,-27.65 38.89,-24.15 28.89,-20.65 28.89,-27.65"/>
</g>
<!-- q2&#45;&gt;q2 -->
<g id="edge6" class="edge">
<title>q2&#45;&gt;q2</title>
<path fill="none" stroke="black" d="M236.81,-42.99C235.53,-53.09 238.04,-62.3 244.34,-62.3 248.08,-62.3 250.49,-59.05 251.56,-54.3"/>
<polygon fill="black" stroke="black" points="255.05,-54.6 251.83,-44.5 248.05,-54.4 255.05,-54.6"/>
<text xml:space="preserve" text-anchor="middle" x="244.34" y="-64" font-family="Helvetica,Arial,sans-serif" font-size="14.00">a, b</text>
</g>
</g>
</svg>
