<?xml version="1.0" standalone="no"?>
<svg xmlns="http://www.w3.org/2000/svg" xmlns:xlink="http://www.w3.org/1999/xlink" width="267pt" height="92pt" viewBox="0.00 0.00 266.76 92.19">
<g id="graph0" class="graph" transform="translate(4,88.19000244140625) scale(1)" data-name="FSM">

<polygon fill="white" stroke="none" points="-4,4 -4,-88.19 262.76,-88.19 262.76,4 -4,4"/>
<!-- start -->
<g id="node1" class="node" pointer-events="visible" data-name="start">

<ellipse fill="black" stroke="black" cx="1.8" cy="-24.69" rx="1.8" ry="1.8"/>
</g>
<!-- q0 -->
<g id="node2" class="node" pointer-events="visible" data-name="q0">

<ellipse fill="none" stroke="black" cx="61.29" cy="-24.69" rx="20.89" ry="20.89"/>
<text text-anchor="middle" x="61.29" y="-20.49" font-family="Times,serif" font-size="14.00">q0</text>
</g>
<!-- start&#45;&gt;q0 -->
<g id="edge1" class="edge" data-name="start-&gt;q0">

<path fill="none" stroke="black" d="M3.8,-24.69C7.01,-24.69 17.5,-24.69 28.59,-24.69"/>
<polygon fill="black" stroke="black" points="28.57,-28.19 38.57,-24.69 28.57,-21.19 28.57,-28.19"/>
</g>
<!-- q0&#45;&gt;q0 -->
<g id="edge2" class="edge" data-name="q0-&gt;q0">

<path fill="none" stroke="black" d="M54.16,-44.6C53.17,-54.53 55.55,-63.39 61.29,-63.39 64.61,-63.39 66.81,-60.43 67.88,-56.01"/>
<polygon fill="black" stroke="black" points="71.37,-56.27 68.35,-46.11 64.38,-55.93 71.37,-56.27"/>
<text text-anchor="middle" x="61.29" y="-67.59" font-family="Times,serif" font-size="14.00">1</text>
</g>
<!-- q2 -->
<g id="node3" class="node" pointer-events="visible" data-name="q2">

<ellipse fill="none" stroke="black" cx="145.68" cy="-24.69" rx="20.89" ry="20.89"/>
<text text-anchor="middle" x="145.68" y="-20.49" font-family="Times,serif" font-size="14.00">q2</text>
</g>
<!-- q0&#45;&gt;q2 -->
<g id="edge3" class="edge" data-name="q0-&gt;q2">

<path fill="none" stroke="black" d="M82.66,-24.69C91.84,-24.69 102.89,-24.69 113.1,-24.69"/>
<polygon fill="black" stroke="black" points="113.04,-28.19 123.04,-24.69 113.04,-21.19 113.04,-28.19"/>
<text text-anchor="middle" x="103.49" y="-28.89" font-family="Times,serif" font-size="14.00">0</text>
</g>
<!-- q2&#45;&gt;q2 -->
<g id="edge4" class="edge" data-name="q2-&gt;q2">

<path fill="none" stroke="black" d="M138,-44.6C136.94,-54.53 139.5,-63.39 145.68,-63.39 149.25,-63.39 151.62,-60.43 152.77,-56.01"/>
<polygon fill="black" stroke="black" points="156.26,-56.28 153.28,-46.11 149.27,-55.92 156.26,-56.28"/>
<text text-anchor="middle" x="145.68" y="-67.59" font-family="Times,serif" font-size="14.00">0</text>
</g>
<!-- q1 -->
<g id="node4" class="node" pointer-events="visible" data-name="q1">

<ellipse fill="none" stroke="black" cx="234.07" cy="-24.69" rx="20.86" ry="20.86"/>
<ellipse fill="none" stroke="black" cx="234.07" cy="-24.69" rx="24.89" ry="24.89"/>
<text text-anchor="middle" x="234.07" y="-20.49" font-family="Times,serif" font-size="14.00">q1</text>
</g>
<!-- q2&#45;&gt;q1 -->
<g id="edge5" class="edge" data-name="q2-&gt;q1">

<path fill="none" stroke="black" d="M166.72,-24.69C175.84,-24.69 186.93,-24.69 197.4,-24.69"/>
<polygon fill="black" stroke="black" points="197.32,-28.19 207.32,-24.69 197.32,-21.19 197.32,-28.19"/>
<text text-anchor="middle" x="187.87" y="-28.89" font-family="Times,serif" font-size="14.00">1</text>
</g>
<!-- q1&#45;&gt;q1 -->
<g id="edge6" class="edge" data-name="q1-&gt;q1">

<path fill="none" stroke="black" d="M225.51,-48.4C224.81,-58.63 227.66,-67.39 234.07,-67.39 237.87,-67.39 240.42,-64.3 241.72,-59.65"/>
<polygon fill="black" stroke="black" points="245.19,-60.16 242.5,-49.91 238.21,-59.6 245.19,-60.16"/>
<text text-anchor="middle" x="234.07" y="-71.59" font-family="Times,serif" font-size="14.00">0,1</text>
</g>
</g>
</svg>