<?xml version="1.0" encoding="UTF-8" standalone="no"?>
<!DOCTYPE svg PUBLIC "-//W3C//DTD SVG 1.1//EN"
 "http://www.w3.org/Graphics/SVG/1.1/DTD/svg11.dtd">
<!-- Generated by graphviz version 2.36.0 (20140111.2315)
 -->
<!-- Title: dfa_hopcroft Pages: 1 -->
<svg width="342pt" height="118pt"
 viewBox="0.00 0.00 342.00 118.00" xmlns="http://www.w3.org/2000/svg" xmlns:xlink="http://www.w3.org/1999/xlink">
<g id="graph0" class="graph" transform="scale(1 1) rotate(0) translate(4 114)">
<title>dfa_hopcroft</title>
<polygon fill="white" stroke="none" points="-4,4 -4,-114 338,-114 338,4 -4,4"/>
<!-- B -->
<g id="node1" class="node"><title>B</title>
<ellipse fill="none" stroke="black" cx="144" cy="-56" rx="18" ry="18"/>
<ellipse fill="none" stroke="black" cx="144" cy="-56" rx="22" ry="22"/>
<text text-anchor="middle" x="144" y="-51.8" font-family="Helvetica,Arial,sans-serif" font-size="14.00">B</text>
</g>
<!-- B&#45;&gt;B -->
<g id="edge5" class="edge"><title>B&#45;&gt;B</title>
<path fill="none" stroke="black" d="M135.994,-76.5808C134.886,-86.8447 137.555,-96 144,-96 148.129,-96 150.708,-92.2427 151.737,-86.8436"/>
<polygon fill="black" stroke="black" points="155.243,-86.6691 152.006,-76.5808 148.245,-86.4857 155.243,-86.6691"/>
<text text-anchor="middle" x="144" y="-98.8" font-family="Helvetica,Arial,sans-serif" font-size="14.00">b</text>
</g>
<!-- C -->
<g id="node5" class="node"><title>C</title>
<ellipse fill="none" stroke="black" cx="228" cy="-23" rx="18" ry="18"/>
<text text-anchor="middle" x="228" y="-18.8" font-family="Helvetica,Arial,sans-serif" font-size="14.00">C</text>
</g>
<!-- B&#45;&gt;C -->
<g id="edge4" class="edge"><title>B&#45;&gt;C</title>
<path fill="none" stroke="black" d="M164.85,-48.0116C175.885,-43.5707 189.735,-37.997 201.558,-33.2389"/>
<polygon fill="black" stroke="black" points="202.936,-36.4571 210.906,-29.4767 200.323,-29.9632 202.936,-36.4571"/>
<text text-anchor="middle" x="188" y="-41.8" font-family="Helvetica,Arial,sans-serif" font-size="14.00">a</text>
</g>
<!-- D -->
<g id="node2" class="node"><title>D</title>
<ellipse fill="none" stroke="black" cx="312" cy="-23" rx="18" ry="18"/>
<ellipse fill="none" stroke="black" cx="312" cy="-23" rx="22" ry="22"/>
<text text-anchor="middle" x="312" y="-18.8" font-family="Helvetica,Arial,sans-serif" font-size="14.00">D</text>
</g>
<!-- D&#45;&gt;D -->
<g id="edge9" class="edge"><title>D&#45;&gt;D</title>
<path fill="none" stroke="black" d="M303.994,-43.5808C302.886,-53.8447 305.555,-63 312,-63 316.129,-63 318.708,-59.2427 319.737,-53.8436"/>
<polygon fill="black" stroke="black" points="323.243,-53.6691 320.006,-43.5808 316.245,-53.4857 323.243,-53.6691"/>
<text text-anchor="middle" x="312" y="-65.8" font-family="Helvetica,Arial,sans-serif" font-size="14.00">b</text>
</g>
<!-- D&#45;&gt;C -->
<g id="edge8" class="edge"><title>D&#45;&gt;C</title>
<path fill="none" stroke="black" d="M293.488,-10.8327C284.79,-6.209 274.021,-2.57417 264,-5 260.26,-5.9053 256.472,-7.28328 252.838,-8.8822"/>
<polygon fill="black" stroke="black" points="251.086,-5.84541 243.717,-13.4577 254.225,-12.1023 251.086,-5.84541"/>
<text text-anchor="middle" x="268" y="-7.8" font-family="Helvetica,Arial,sans-serif" font-size="14.00">a</text>
</g>
<!-- ENTRY -->
<g id="node3" class="node"><title>ENTRY</title>
<ellipse fill="black" stroke="black" cx="2" cy="-18" rx="1.8" ry="1.8"/>
</g>
<!-- A -->
<g id="node4" class="node"><title>A</title>
<ellipse fill="none" stroke="black" cx="60" cy="-18" rx="18" ry="18"/>
<text text-anchor="middle" x="60" y="-13.8" font-family="Helvetica,Arial,sans-serif" font-size="14.00">A</text>
</g>
<!-- ENTRY&#45;&gt;A -->
<g id="edge1" class="edge"><title>ENTRY&#45;&gt;A</title>
<path fill="none" stroke="black" d="M3.97198,-18C7.43184,-18 19.5845,-18 31.5919,-18"/>
<polygon fill="black" stroke="black" points="31.8844,-21.5001 41.8843,-18 31.8843,-14.5001 31.8844,-21.5001"/>
</g>
<!-- A&#45;&gt;B -->
<g id="edge3" class="edge"><title>A&#45;&gt;B</title>
<path fill="none" stroke="black" d="M76.8104,-25.3268C87.4913,-30.2764 101.896,-36.9517 114.54,-42.8111"/>
<polygon fill="black" stroke="black" points="113.23,-46.0616 123.775,-47.0907 116.173,-39.7104 113.23,-46.0616"/>
<text text-anchor="middle" x="100" y="-39.8" font-family="Helvetica,Arial,sans-serif" font-size="14.00">b</text>
</g>
<!-- A&#45;&gt;C -->
<g id="edge2" class="edge"><title>A&#45;&gt;C</title>
<path fill="none" stroke="black" d="M78.1219,-15.1412C98.9282,-12.0634 135.088,-7.98834 166,-11 177.36,-12.1068 189.744,-14.3468 200.367,-16.5951"/>
<polygon fill="black" stroke="black" points="199.779,-20.0497 210.3,-18.8043 201.299,-13.2167 199.779,-20.0497"/>
<text text-anchor="middle" x="144" y="-13.8" font-family="Helvetica,Arial,sans-serif" font-size="14.00">a</text>
</g>
<!-- C&#45;&gt;D -->
<g id="edge7" class="edge"><title>C&#45;&gt;D</title>
<path fill="none" stroke="black" d="M246.39,-23C256.108,-23 268.511,-23 279.847,-23"/>
<polygon fill="black" stroke="black" points="279.85,-26.5001 289.85,-23 279.85,-19.5001 279.85,-26.5001"/>
<text text-anchor="middle" x="268" y="-25.8" font-family="Helvetica,Arial,sans-serif" font-size="14.00">b</text>
</g>
<!-- C&#45;&gt;C -->
<g id="edge6" class="edge"><title>C&#45;&gt;C</title>
<path fill="none" stroke="black" d="M220.969,-39.6641C219.406,-49.625 221.75,-59 228,-59 232.004,-59 234.405,-55.1525 235.202,-49.7682"/>
<polygon fill="black" stroke="black" points="238.7,-49.6033 235.031,-39.6641 231.701,-49.7219 238.7,-49.6033"/>
<text text-anchor="middle" x="228" y="-61.8" font-family="Helvetica,Arial,sans-serif" font-size="14.00">a</text>
</g>
</g>
</svg>
