<?xml version="1.0" encoding="UTF-8" standalone="no"?>
<!DOCTYPE svg PUBLIC "-//W3C//DTD SVG 1.1//EN"
 "http://www.w3.org/Graphics/SVG/1.1/DTD/svg11.dtd">
<!-- Generated by graphviz version 2.36.0 (20140111.2315)
 -->
<!-- Title: FSM Pages: 1 -->
<svg width="260pt" height="84pt"
 viewBox="0.00 0.00 260.00 84.00" xmlns="http://www.w3.org/2000/svg" xmlns:xlink="http://www.w3.org/1999/xlink">
<g id="graph0" class="graph" transform="scale(1 1) rotate(0) translate(4 80)">
<title>FSM</title>
<polygon fill="white" stroke="none" points="-4,4 -4,-80 256,-80 256,4 -4,4"/>
<!-- start -->
<g id="node1" class="node"><title>start</title>
<ellipse fill="black" stroke="black" cx="2" cy="-22" rx="1.8" ry="1.8"/>
</g>
<!-- q0 -->
<g id="node2" class="node"><title>q0</title>
<ellipse fill="none" stroke="black" cx="61" cy="-22" rx="18.9007" ry="18.9007"/>
<text text-anchor="middle" x="61" y="-17.8" font-family="Times,serif" font-size="14.00">q0</text>
</g>
<!-- start&#45;&gt;q0 -->
<g id="edge1" class="edge"><title>start&#45;&gt;q0</title>
<path fill="none" stroke="black" d="M3.98934,-22C7.50036,-22 19.8061,-22 31.9918,-22"/>
<polygon fill="black" stroke="black" points="32.004,-25.5001 42.004,-22 32.0039,-18.5001 32.004,-25.5001"/>
</g>
<!-- q0&#45;&gt;q0 -->
<g id="edge2" class="edge"><title>q0&#45;&gt;q0</title>
<path fill="none" stroke="black" d="M54.2159,-39.4099C52.9496,-49.0879 55.2109,-58 61,-58 64.6182,-58 66.8583,-54.5187 67.7205,-49.5449"/>
<polygon fill="black" stroke="black" points="71.2211,-49.4317 67.7841,-39.4099 64.2213,-49.3877 71.2211,-49.4317"/>
<text text-anchor="middle" x="61" y="-60.8" font-family="Times,serif" font-size="14.00">1</text>
</g>
<!-- q2 -->
<g id="node3" class="node"><title>q2</title>
<ellipse fill="none" stroke="black" cx="143" cy="-22" rx="18.9007" ry="18.9007"/>
<text text-anchor="middle" x="143" y="-17.8" font-family="Times,serif" font-size="14.00">q2</text>
</g>
<!-- q0&#45;&gt;q2 -->
<g id="edge3" class="edge"><title>q0&#45;&gt;q2</title>
<path fill="none" stroke="black" d="M80.1532,-22C90.0749,-22 102.583,-22 113.751,-22"/>
<polygon fill="black" stroke="black" points="113.919,-25.5001 123.919,-22 113.919,-18.5001 113.919,-25.5001"/>
<text text-anchor="middle" x="102" y="-24.8" font-family="Times,serif" font-size="14.00">0</text>
</g>
<!-- q2&#45;&gt;q2 -->
<g id="edge4" class="edge"><title>q2&#45;&gt;q2</title>
<path fill="none" stroke="black" d="M135.859,-39.4099C134.526,-49.0879 136.906,-58 143,-58 146.809,-58 149.167,-54.5187 150.074,-49.5449"/>
<polygon fill="black" stroke="black" points="153.575,-49.4328 150.141,-39.4099 146.575,-49.3865 153.575,-49.4328"/>
<text text-anchor="middle" x="143" y="-60.8" font-family="Times,serif" font-size="14.00">0</text>
</g>
<!-- q1 -->
<g id="node4" class="node"><title>q1</title>
<ellipse fill="none" stroke="black" cx="229" cy="-22" rx="18.9093" ry="18.9093"/>
<ellipse fill="none" stroke="black" cx="229" cy="-22" rx="22.9007" ry="22.9007"/>
<text text-anchor="middle" x="229" y="-17.8" font-family="Times,serif" font-size="14.00">q1</text>
</g>
<!-- q2&#45;&gt;q1 -->
<g id="edge5" class="edge"><title>q2&#45;&gt;q1</title>
<path fill="none" stroke="black" d="M162.227,-22C172.054,-22 184.469,-22 195.86,-22"/>
<polygon fill="black" stroke="black" points="195.928,-25.5001 205.928,-22 195.928,-18.5001 195.928,-25.5001"/>
<text text-anchor="middle" x="184" y="-24.8" font-family="Times,serif" font-size="14.00">1</text>
</g>
<!-- q1&#45;&gt;q1 -->
<g id="edge6" class="edge"><title>q1&#45;&gt;q1</title>
<path fill="none" stroke="black" d="M220.913,-43.3994C220.031,-53.3265 222.727,-62 229,-62 232.921,-62 235.444,-58.6119 236.57,-53.6472"/>
<polygon fill="black" stroke="black" points="240.079,-53.5631 237.087,-43.3994 233.087,-53.2104 240.079,-53.5631"/>
<text text-anchor="middle" x="229" y="-64.8" font-family="Times,serif" font-size="14.00">0,1</text>
</g>
</g>
</svg>
