<?xml version="1.0" encoding="UTF-8" standalone="no"?>
<!DOCTYPE svg PUBLIC "-//W3C//DTD SVG 1.1//EN"
 "http://www.w3.org/Graphics/SVG/1.1/DTD/svg11.dtd">
<!-- Generated by graphviz version 2.36.0 (20140111.2315)
 -->
<!-- Title: dfa_hopcroft_min Pages: 1 -->
<svg width="172pt" height="132pt"
 viewBox="0.00 0.00 172.00 132.00" xmlns="http://www.w3.org/2000/svg" xmlns:xlink="http://www.w3.org/1999/xlink">
<g id="graph0" class="graph" transform="scale(1 1) rotate(0) translate(4 128)">
<title>dfa_hopcroft_min</title>
<polygon fill="white" stroke="none" points="-4,4 -4,-128 168,-128 168,4 -4,4"/>
<!-- [BD] -->
<g id="node1" class="node"><title>[BD]</title>
<ellipse fill="none" stroke="black" cx="32" cy="-61" rx="27.1375" ry="27.1375"/>
<ellipse fill="none" stroke="black" cx="32" cy="-61" rx="31.1128" ry="31.1128"/>
<text text-anchor="middle" x="32" y="-56.8" font-family="Helvetica,Arial,sans-serif" font-size="14.00">[BD]</text>
</g>
<!-- [BD]&#45;&gt;[BD] -->
<g id="edge5" class="edge"><title>[BD]&#45;&gt;[BD]</title>
<path fill="none" stroke="black" d="M21.8849,-90.6622C21.6674,-101.315 25.0391,-110 32,-110 36.5681,-110 39.5905,-106.26 41.0671,-100.677"/>
<polygon fill="black" stroke="black" points="44.5553,-100.972 42.1151,-90.6622 37.5933,-100.244 44.5553,-100.972"/>
<text text-anchor="middle" x="32" y="-112.8" font-family="Helvetica,Arial,sans-serif" font-size="14.00">b</text>
</g>
<!-- [AC] -->
<g id="node3" class="node"><title>[AC]</title>
<ellipse fill="none" stroke="black" cx="136" cy="-34" rx="27.113" ry="27.113"/>
<text text-anchor="middle" x="136" y="-29.8" font-family="Helvetica,Arial,sans-serif" font-size="14.00">[AC]</text>
</g>
<!-- [BD]&#45;&gt;[AC] -->
<g id="edge4" class="edge"><title>[BD]&#45;&gt;[AC]</title>
<path fill="none" stroke="black" d="M63.0319,-55.3479C71.7768,-53.5216 81.3129,-51.354 90,-49 93.3607,-48.0893 96.8388,-47.0703 100.304,-46.0035"/>
<polygon fill="black" stroke="black" points="101.471,-49.305 109.926,-42.9212 99.3353,-42.6387 101.471,-49.305"/>
<text text-anchor="middle" x="86" y="-52.8" font-family="Helvetica,Arial,sans-serif" font-size="14.00">a</text>
</g>
<!-- ENTRY -->
<g id="node2" class="node"><title>ENTRY</title>
<ellipse fill="black" stroke="black" cx="32" cy="-1" rx="1.8" ry="1.8"/>
</g>
<!-- ENTRY&#45;&gt;[AC] -->
<g id="edge1" class="edge"><title>ENTRY&#45;&gt;[AC]</title>
<path fill="none" stroke="black" d="M34.1455,-1.37061C40.6276,-3.46775 73.3564,-14.0565 99.7985,-22.6113"/>
<polygon fill="black" stroke="black" points="98.9652,-26.0202 109.557,-25.7685 101.12,-19.3601 98.9652,-26.0202"/>
</g>
<!-- [AC]&#45;&gt;[BD] -->
<g id="edge3" class="edge"><title>[AC]&#45;&gt;[BD]</title>
<path fill="none" stroke="black" d="M108.522,-32.0888C99.9445,-32.1059 90.4638,-32.8086 82,-35 77.2948,-36.2182 72.5405,-37.9666 67.9391,-39.9888"/>
<polygon fill="black" stroke="black" points="66.2389,-36.9236 58.774,-44.442 69.2981,-43.2198 66.2389,-36.9236"/>
<text text-anchor="middle" x="86" y="-37.8" font-family="Helvetica,Arial,sans-serif" font-size="14.00">b</text>
</g>
<!-- [AC]&#45;&gt;[AC] -->
<g id="edge2" class="edge"><title>[AC]&#45;&gt;[AC]</title>
<path fill="none" stroke="black" d="M126.682,-59.8961C126.156,-70.2823 129.262,-79 136,-79 140.317,-79 143.143,-75.4223 144.478,-70.1201"/>
<polygon fill="black" stroke="black" points="147.987,-70.1491 145.318,-59.8961 141.011,-69.576 147.987,-70.1491"/>
<text text-anchor="middle" x="136" y="-81.8" font-family="Helvetica,Arial,sans-serif" font-size="14.00">a</text>
</g>
</g>
</svg>
