<?xml version="1.0" encoding="UTF-8" standalone="no"?>
<!DOCTYPE svg PUBLIC "-//W3C//DTD SVG 1.1//EN"
 "http://www.w3.org/Graphics/SVG/1.1/DTD/svg11.dtd">
<!-- Generated by graphviz version 2.36.0 (20140111.2315)
 -->
<!-- Title: dfa_complement Pages: 1 -->
<svg width="274pt" height="86pt"
 viewBox="0.00 0.00 274.00 86.00" xmlns="http://www.w3.org/2000/svg" xmlns:xlink="http://www.w3.org/1999/xlink">
<g id="graph0" class="graph" transform="scale(1 1) rotate(0) translate(4 82)">
<title>dfa_complement</title>
<polygon fill="white" stroke="none" points="-4,4 -4,-82 270,-82 270,4 -4,4"/>
<!-- q0 -->
<g id="node1" class="node"><title>q0</title>
<ellipse fill="none" stroke="black" cx="66" cy="-23" rx="19.8965" ry="19.8965"/>
<ellipse fill="none" stroke="black" cx="66" cy="-23" rx="23.887" ry="23.887"/>
<text text-anchor="middle" x="66" y="-18.8" font-family="Helvetica,Arial,sans-serif" font-size="14.00">q0</text>
</g>
<!-- q0&#45;&gt;q0 -->
<g id="edge3" class="edge"><title>q0&#45;&gt;q0</title>
<path fill="none" stroke="black" d="M58.248,-45.3518C57.5098,-55.3516 60.0938,-64 66,-64 69.6914,-64 72.0851,-60.6217 73.1809,-55.6466"/>
<polygon fill="black" stroke="black" points="76.6927,-55.5303 73.752,-45.3518 69.7034,-55.1426 76.6927,-55.5303"/>
<text text-anchor="middle" x="66" y="-66.8" font-family="Helvetica,Arial,sans-serif" font-size="14.00">b</text>
</g>
<!-- q1 -->
<g id="node2" class="node"><title>q1</title>
<ellipse fill="none" stroke="black" cx="158" cy="-23" rx="19.8965" ry="19.8965"/>
<ellipse fill="none" stroke="black" cx="158" cy="-23" rx="23.887" ry="23.887"/>
<text text-anchor="middle" x="158" y="-18.8" font-family="Helvetica,Arial,sans-serif" font-size="14.00">q1</text>
</g>
<!-- q0&#45;&gt;q1 -->
<g id="edge2" class="edge"><title>q0&#45;&gt;q1</title>
<path fill="none" stroke="black" d="M90.1772,-23C100.36,-23 112.51,-23 123.64,-23"/>
<polygon fill="black" stroke="black" points="123.901,-26.5001 133.901,-23 123.901,-19.5001 123.901,-26.5001"/>
<text text-anchor="middle" x="112" y="-25.8" font-family="Helvetica,Arial,sans-serif" font-size="14.00">a</text>
</g>
<!-- q1&#45;&gt;q0 -->
<g id="edge5" class="edge"><title>q1&#45;&gt;q0</title>
<path fill="none" stroke="black" d="M137.36,-10.3426C128.555,-6.10014 117.934,-2.9154 108,-5 104.282,-5.7803 100.488,-6.91876 96.7848,-8.25016"/>
<polygon fill="black" stroke="black" points="95.2441,-5.09846 87.3027,-12.1116 97.8842,-11.5815 95.2441,-5.09846"/>
<text text-anchor="middle" x="112" y="-7.8" font-family="Helvetica,Arial,sans-serif" font-size="14.00">b</text>
</g>
<!-- q2 -->
<g id="node4" class="node"><title>q2</title>
<ellipse fill="none" stroke="black" cx="246" cy="-23" rx="19.8871" ry="19.8871"/>
<text text-anchor="middle" x="246" y="-18.8" font-family="Helvetica,Arial,sans-serif" font-size="14.00">q2</text>
</g>
<!-- q1&#45;&gt;q2 -->
<g id="edge4" class="edge"><title>q1&#45;&gt;q2</title>
<path fill="none" stroke="black" d="M182.046,-23C192.453,-23 204.863,-23 215.903,-23"/>
<polygon fill="black" stroke="black" points="215.957,-26.5001 225.957,-23 215.957,-19.5001 215.957,-26.5001"/>
<text text-anchor="middle" x="204" y="-25.8" font-family="Helvetica,Arial,sans-serif" font-size="14.00">a</text>
</g>
<!-- ENTRY -->
<g id="node3" class="node"><title>ENTRY</title>
<ellipse fill="black" stroke="black" cx="2" cy="-23" rx="1.8" ry="1.8"/>
</g>
<!-- ENTRY&#45;&gt;q0 -->
<g id="edge1" class="edge"><title>ENTRY&#45;&gt;q0</title>
<path fill="none" stroke="black" d="M4.07613,-23C7.61875,-23 19.393,-23 31.6589,-23"/>
<polygon fill="black" stroke="black" points="31.908,-26.5001 41.908,-23 31.9079,-19.5001 31.908,-26.5001"/>
</g>
<!-- q2&#45;&gt;q2 -->
<g id="edge6" class="edge"><title>q2&#45;&gt;q2</title>
<path fill="none" stroke="black" d="M238.45,-41.2757C237.167,-51.0737 239.684,-60 246,-60 249.948,-60 252.411,-56.5132 253.39,-51.5059"/>
<polygon fill="black" stroke="black" points="256.894,-51.3291 253.55,-41.2757 249.894,-51.2198 256.894,-51.3291"/>
<text text-anchor="middle" x="246" y="-62.8" font-family="Helvetica,Arial,sans-serif" font-size="14.00">a, b</text>
</g>
</g>
</svg>
