<?xml version="1.0" encoding="UTF-8" standalone="no"?>
<!DOCTYPE svg PUBLIC "-//W3C//DTD SVG 1.1//EN"
 "http://www.w3.org/Graphics/SVG/1.1/DTD/svg11.dtd">
<!-- Generated by graphviz version 2.36.0 (20140111.2315)
 -->
<!-- Title: dfa_complement_orig Pages: 1 -->
<svg width="140pt" height="186pt"
 viewBox="0.00 0.00 140.00 186.00" xmlns="http://www.w3.org/2000/svg" xmlns:xlink="http://www.w3.org/1999/xlink">
<g id="graph0" class="graph" transform="scale(1 1) rotate(0) translate(4 182)">
<title>dfa_complement_orig</title>
<polygon fill="white" stroke="none" points="-4,4 -4,-182 136,-182 136,4 -4,4"/>
<!-- q2 -->
<g id="node1" class="node"><title>q2</title>
<ellipse fill="none" stroke="black" cx="108" cy="-123" rx="19.8965" ry="19.8965"/>
<ellipse fill="none" stroke="black" cx="108" cy="-123" rx="23.887" ry="23.887"/>
<text text-anchor="middle" x="108" y="-118.8" font-family="Helvetica,Arial,sans-serif" font-size="14.00">q2</text>
</g>
<!-- q2&#45;&gt;q2 -->
<g id="edge6" class="edge"><title>q2&#45;&gt;q2</title>
<path fill="none" stroke="black" d="M99.5098,-145.352C98.7012,-155.352 101.531,-164 108,-164 112.043,-164 114.665,-160.622 115.865,-155.647"/>
<polygon fill="black" stroke="black" points="119.377,-155.546 116.49,-145.352 112.39,-155.121 119.377,-155.546"/>
<text text-anchor="middle" x="108" y="-166.8" font-family="Helvetica,Arial,sans-serif" font-size="14.00">a, b</text>
</g>
<!-- ENTRY -->
<g id="node2" class="node"><title>ENTRY</title>
<ellipse fill="black" stroke="black" cx="20" cy="-1" rx="1.8" ry="1.8"/>
</g>
<!-- q0 -->
<g id="node3" class="node"><title>q0</title>
<ellipse fill="none" stroke="black" cx="108" cy="-29" rx="19.8871" ry="19.8871"/>
<text text-anchor="middle" x="108" y="-24.8" font-family="Helvetica,Arial,sans-serif" font-size="14.00">q0</text>
</g>
<!-- ENTRY&#45;&gt;q0 -->
<g id="edge1" class="edge"><title>ENTRY&#45;&gt;q0</title>
<path fill="none" stroke="black" d="M22.1169,-1.33513C27.191,-2.86026 48.5763,-9.31606 66,-15 70.3821,-16.4295 75.0156,-17.9769 79.529,-19.5037"/>
<polygon fill="black" stroke="black" points="78.4793,-22.8436 89.0738,-22.7599 80.7394,-16.2185 78.4793,-22.8436"/>
</g>
<!-- q0&#45;&gt;q0 -->
<g id="edge3" class="edge"><title>q0&#45;&gt;q0</title>
<path fill="none" stroke="black" d="M99.7877,-46.8935C98.2548,-56.8403 100.992,-66 108,-66 112.489,-66 115.226,-62.2409 116.21,-56.9238"/>
<polygon fill="black" stroke="black" points="119.71,-56.8942 116.212,-46.8935 112.71,-56.8928 119.71,-56.8942"/>
<text text-anchor="middle" x="108" y="-68.8" font-family="Helvetica,Arial,sans-serif" font-size="14.00">b</text>
</g>
<!-- q1 -->
<g id="node4" class="node"><title>q1</title>
<ellipse fill="none" stroke="black" cx="20" cy="-71" rx="19.8871" ry="19.8871"/>
<text text-anchor="middle" x="20" y="-66.8" font-family="Helvetica,Arial,sans-serif" font-size="14.00">q1</text>
</g>
<!-- q0&#45;&gt;q1 -->
<g id="edge2" class="edge"><title>q0&#45;&gt;q1</title>
<path fill="none" stroke="black" d="M88.0592,-28.5186C78.6214,-28.9604 67.2751,-30.5565 58,-35 51.3747,-38.1741 45.1988,-43.0063 39.8637,-48.1094"/>
<polygon fill="black" stroke="black" points="37.0686,-45.9686 32.6945,-55.6184 42.1316,-50.8025 37.0686,-45.9686"/>
<text text-anchor="middle" x="62" y="-37.8" font-family="Helvetica,Arial,sans-serif" font-size="14.00">a</text>
</g>
<!-- q1&#45;&gt;q2 -->
<g id="edge4" class="edge"><title>q1&#45;&gt;q2</title>
<path fill="none" stroke="black" d="M37.5817,-81.0261C49.0825,-87.9801 64.6998,-97.4232 78.2091,-105.592"/>
<polygon fill="black" stroke="black" points="76.7801,-108.818 87.1484,-110.997 80.402,-102.827 76.7801,-108.818"/>
<text text-anchor="middle" x="62" y="-99.8" font-family="Helvetica,Arial,sans-serif" font-size="14.00">a</text>
</g>
<!-- q1&#45;&gt;q0 -->
<g id="edge5" class="edge"><title>q1&#45;&gt;q0</title>
<path fill="none" stroke="black" d="M38.4034,-62.5007C50.6061,-56.5412 67.133,-48.4699 80.907,-41.7431"/>
<polygon fill="black" stroke="black" points="82.4663,-44.8768 89.916,-37.3434 79.3944,-38.5868 82.4663,-44.8768"/>
<text text-anchor="middle" x="62" y="-55.8" font-family="Helvetica,Arial,sans-serif" font-size="14.00">b</text>
</g>
</g>
</svg>
