<?xml version="1.0" encoding="UTF-8" standalone="no"?>
<!DOCTYPE svg PUBLIC "-//W3C//DTD SVG 1.1//EN"
 "http://www.w3.org/Graphics/SVG/1.1/DTD/svg11.dtd">
<!-- Generated by graphviz version 14.1.5 (20260411.2331)
 -->
<!-- Title: dfa1 Pages: 1 -->
<svg width="201pt" height="148pt"
 viewBox="0.00 0.00 201.00 148.00" xmlns="http://www.w3.org/2000/svg" xmlns:xlink="http://www.w3.org/1999/xlink">
<g id="graph0" class="graph" transform="scale(1 1) rotate(0) translate(4 144)">
<title>dfa1</title>
<polygon fill="white" stroke="none" points="-4,4 -4,-144 196.97,-144 196.97,4 -4,4"/>
<!-- 2 -->
<g id="node1" class="node">
<title>2</title>
<ellipse fill="none" stroke="black" cx="170.97" cy="-85" rx="18" ry="18"/>
<ellipse fill="none" stroke="black" cx="170.97" cy="-85" rx="22" ry="22"/>
<text xml:space="preserve" text-anchor="middle" x="170.97" y="-79.2" font-family="Helvetica,Arial,sans-serif" font-size="14.00">2</text>
</g>
<!-- 2&#45;&gt;2 -->
<g id="edge5" class="edge">
<title>2&#45;&gt;2</title>
<path fill="none" stroke="black" d="M162.97,-105.99C161.98,-116.09 164.65,-125 170.97,-125 174.72,-125 177.19,-121.86 178.37,-117.19"/>
<polygon fill="black" stroke="black" points="181.85,-117.68 178.89,-107.5 174.86,-117.3 181.85,-117.68"/>
<text xml:space="preserve" text-anchor="middle" x="170.97" y="-126.7" font-family="Helvetica,Arial,sans-serif" font-size="14.00">c</text>
</g>
<!-- {0,2} -->
<g id="node2" class="node">
<title>{0,2}</title>
<ellipse fill="none" stroke="black" cx="73.03" cy="-47" rx="28.43" ry="28.43"/>
<ellipse fill="none" stroke="black" cx="73.03" cy="-47" rx="32.43" ry="32.43"/>
<text xml:space="preserve" text-anchor="middle" x="73.03" y="-41.2" font-family="Helvetica,Arial,sans-serif" font-size="14.00">{0,2}</text>
</g>
<!-- {0,2}&#45;&gt;2 -->
<g id="edge3" class="edge">
<title>{0,2}&#45;&gt;2</title>
<path fill="none" stroke="black" d="M103.6,-58.71C115.03,-63.24 128.11,-68.42 139.61,-72.98"/>
<polygon fill="black" stroke="black" points="138.07,-76.13 148.65,-76.56 140.64,-69.62 138.07,-76.13"/>
<text xml:space="preserve" text-anchor="middle" x="127.22" y="-71.1" font-family="Helvetica,Arial,sans-serif" font-size="14.00">c</text>
</g>
<!-- 1 -->
<g id="node4" class="node">
<title>1</title>
<ellipse fill="none" stroke="black" cx="170.97" cy="-18" rx="18" ry="18"/>
<text xml:space="preserve" text-anchor="middle" x="170.97" y="-12.2" font-family="Helvetica,Arial,sans-serif" font-size="14.00">1</text>
</g>
<!-- {0,2}&#45;&gt;1 -->
<g id="edge2" class="edge">
<title>{0,2}&#45;&gt;1</title>
<path fill="none" stroke="black" d="M104.39,-37.82C116.62,-34.13 130.62,-29.89 142.54,-26.29"/>
<polygon fill="black" stroke="black" points="143.2,-29.75 151.76,-23.51 141.17,-23.05 143.2,-29.75"/>
<text xml:space="preserve" text-anchor="middle" x="127.22" y="-33.33" font-family="Helvetica,Arial,sans-serif" font-size="14.00">a</text>
</g>
<!-- ENTRY -->
<g id="node3" class="node">
<title>ENTRY</title>
<ellipse fill="black" stroke="black" cx="1.8" cy="-47" rx="1.8" ry="1.8"/>
</g>
<!-- ENTRY&#45;&gt;{0,2} -->
<g id="edge1" class="edge">
<title>ENTRY&#45;&gt;{0,2}</title>
<path fill="none" stroke="black" d="M4,-47C7.4,-47 17.6,-47 29.1,-47"/>
<polygon fill="black" stroke="black" points="28.84,-50.5 38.84,-47 28.84,-43.5 28.84,-50.5"/>
</g>
<!-- 1&#45;&gt;{0,2} -->
<g id="edge4" class="edge">
<title>1&#45;&gt;{0,2}</title>
<path fill="none" stroke="black" d="M153.74,-11.95C144.67,-9.46 133.25,-7.82 123.47,-11 117.66,-12.89 111.97,-15.75 106.64,-19.04"/>
<polygon fill="black" stroke="black" points="104.99,-15.93 98.72,-24.47 108.94,-21.7 104.99,-15.93"/>
<text xml:space="preserve" text-anchor="middle" x="127.22" y="-12.7" font-family="Helvetica,Arial,sans-serif" font-size="14.00">b</text>
</g>
</g>
</svg>
