<?xml version="1.0" encoding="UTF-8" standalone="no"?>
<!DOCTYPE svg PUBLIC "-//W3C//DTD SVG 1.1//EN"
 "http://www.w3.org/Graphics/SVG/1.1/DTD/svg11.dtd">
<!-- Generated by graphviz version 14.1.5 (20260411.2331)
 -->
<!-- Title: dfa2 Pages: 1 -->
<svg width="361pt" height="102pt"
 viewBox="0.00 0.00 361.00 102.00" xmlns="http://www.w3.org/2000/svg" xmlns:xlink="http://www.w3.org/1999/xlink">
<g id="graph0" class="graph" transform="scale(1 1) rotate(0) translate(4 97.87)">
<title>dfa2</title>
<polygon fill="white" stroke="none" points="-4,4 -4,-97.87 357.11,-97.87 357.11,4 -4,4"/>
<!-- 4 -->
<g id="node1" class="node">
<title>4</title>
<ellipse fill="none" stroke="black" cx="331.11" cy="-32.43" rx="18" ry="18"/>
<ellipse fill="none" stroke="black" cx="331.11" cy="-32.43" rx="22" ry="22"/>
<text xml:space="preserve" text-anchor="middle" x="331.11" y="-26.63" font-family="Helvetica,Arial,sans-serif" font-size="14.00">4</text>
</g>
<!-- {2,4} -->
<g id="node2" class="node">
<title>{2,4}</title>
<ellipse fill="none" stroke="black" cx="132.8" cy="-32.43" rx="28.43" ry="28.43"/>
<ellipse fill="none" stroke="black" cx="132.8" cy="-32.43" rx="32.43" ry="32.43"/>
<text xml:space="preserve" text-anchor="middle" x="132.8" y="-26.63" font-family="Helvetica,Arial,sans-serif" font-size="14.00">{2,4}</text>
</g>
<!-- {2,3} -->
<g id="node4" class="node">
<title>{2,3}</title>
<ellipse fill="none" stroke="black" cx="237.17" cy="-32.43" rx="28.43" ry="28.43"/>
<text xml:space="preserve" text-anchor="middle" x="237.17" y="-26.63" font-family="Helvetica,Arial,sans-serif" font-size="14.00">{2,3}</text>
</g>
<!-- {2,4}&#45;&gt;{2,3} -->
<g id="edge2" class="edge">
<title>{2,4}&#45;&gt;{2,3}</title>
<path fill="none" stroke="black" d="M165.63,-32.43C175.61,-32.43 186.74,-32.43 197.16,-32.43"/>
<polygon fill="black" stroke="black" points="197,-35.94 207,-32.43 197,-28.94 197,-35.94"/>
<text xml:space="preserve" text-anchor="middle" x="186.99" y="-34.13" font-family="Helvetica,Arial,sans-serif" font-size="14.00">a</text>
</g>
<!-- {1,3} -->
<g id="node3" class="node">
<title>{1,3}</title>
<ellipse fill="none" stroke="black" cx="28.43" cy="-32.43" rx="28.43" ry="28.43"/>
<text xml:space="preserve" text-anchor="middle" x="28.43" y="-26.63" font-family="Helvetica,Arial,sans-serif" font-size="14.00">{1,3}</text>
</g>
<!-- {1,3}&#45;&gt;{2,4} -->
<g id="edge1" class="edge">
<title>{1,3}&#45;&gt;{2,4}</title>
<path fill="none" stroke="black" d="M57.14,-32.43C66.88,-32.43 78.07,-32.43 88.77,-32.43"/>
<polygon fill="black" stroke="black" points="88.58,-35.94 98.58,-32.43 88.58,-28.94 88.58,-35.94"/>
<text xml:space="preserve" text-anchor="middle" x="78.62" y="-34.13" font-family="Helvetica,Arial,sans-serif" font-size="14.00">b</text>
</g>
<!-- {2,3}&#45;&gt;4 -->
<g id="edge4" class="edge">
<title>{2,3}&#45;&gt;4</title>
<path fill="none" stroke="black" d="M265.76,-32.43C275.64,-32.43 286.88,-32.43 297.18,-32.43"/>
<polygon fill="black" stroke="black" points="297.17,-35.94 307.17,-32.43 297.17,-28.94 297.17,-35.94"/>
<text xml:space="preserve" text-anchor="middle" x="287.36" y="-34.13" font-family="Helvetica,Arial,sans-serif" font-size="14.00">b</text>
</g>
<!-- {2,3}&#45;&gt;{2,3} -->
<g id="edge3" class="edge">
<title>{2,3}&#45;&gt;{2,3}</title>
<path fill="none" stroke="black" d="M227.8,-59.62C227.39,-70.13 230.51,-78.87 237.17,-78.87 241.24,-78.87 243.98,-75.63 245.42,-70.71"/>
<polygon fill="black" stroke="black" points="248.86,-71.43 246.39,-61.13 241.9,-70.72 248.86,-71.43"/>
<text xml:space="preserve" text-anchor="middle" x="237.17" y="-80.57" font-family="Helvetica,Arial,sans-serif" font-size="14.00">a</text>
</g>
</g>
</svg>
