<?xml version="1.0" encoding="UTF-8" standalone="no"?>
<!DOCTYPE svg PUBLIC "-//W3C//DTD SVG 1.1//EN"
 "http://www.w3.org/Graphics/SVG/1.1/DTD/svg11.dtd">
<!-- Generated by graphviz version 14.1.5 (20260411.2331)
 -->
<!-- Title: dfa3 Pages: 1 -->
<svg width="266pt" height="135pt"
 viewBox="0.00 0.00 266.00 135.00" xmlns="http://www.w3.org/2000/svg" xmlns:xlink="http://www.w3.org/1999/xlink">
<g id="graph0" class="graph" transform="scale(1 1) rotate(0) translate(4 131.12)">
<title>dfa3</title>
<polygon fill="white" stroke="none" points="-4,4 -4,-131.12 261.71,-131.12 261.71,4 -4,4"/>
<!-- {1,2,4} -->
<g id="node1" class="node">
<title>{1,2,4}</title>
<ellipse fill="none" stroke="black" cx="80.35" cy="-47.06" rx="35.75" ry="35.75"/>
<ellipse fill="none" stroke="black" cx="80.35" cy="-47.06" rx="39.75" ry="39.75"/>
<text xml:space="preserve" text-anchor="middle" x="80.35" y="-41.26" font-family="Helvetica,Arial,sans-serif" font-size="14.00">{1,2,4}</text>
</g>
<!-- {1,2,3,4} -->
<g id="node2" class="node">
<title>{1,2,3,4}</title>
<ellipse fill="none" stroke="black" cx="210.65" cy="-47.06" rx="43.06" ry="43.06"/>
<ellipse fill="none" stroke="black" cx="210.65" cy="-47.06" rx="47.06" ry="47.06"/>
<text xml:space="preserve" text-anchor="middle" x="210.65" y="-41.26" font-family="Helvetica,Arial,sans-serif" font-size="14.00">{1,2,3,4}</text>
</g>
<!-- {1,2,4}&#45;&gt;{1,2,3,4} -->
<g id="edge2" class="edge">
<title>{1,2,4}&#45;&gt;{1,2,3,4}</title>
<path fill="none" stroke="black" d="M120.54,-47.06C130.5,-47.06 141.41,-47.06 152.07,-47.06"/>
<polygon fill="black" stroke="black" points="151.98,-50.56 161.98,-47.06 151.98,-43.56 151.98,-50.56"/>
<text xml:space="preserve" text-anchor="middle" x="141.84" y="-48.76" font-family="Helvetica,Arial,sans-serif" font-size="14.00">a</text>
</g>
<!-- {1,2,3,4}&#45;&gt;{1,2,3,4} -->
<g id="edge3" class="edge">
<title>{1,2,3,4}&#45;&gt;{1,2,3,4}</title>
<path fill="none" stroke="black" d="M197.95,-92.66C198.89,-103.82 203.13,-112.12 210.65,-112.12 215.36,-112.12 218.77,-108.87 220.9,-103.72"/>
<polygon fill="black" stroke="black" points="224.28,-104.66 223.03,-94.14 217.45,-103.15 224.28,-104.66"/>
<text xml:space="preserve" text-anchor="middle" x="210.65" y="-113.82" font-family="Helvetica,Arial,sans-serif" font-size="14.00">a</text>
</g>
<!-- ENTRY -->
<g id="node3" class="node">
<title>ENTRY</title>
<ellipse fill="black" stroke="black" cx="1.8" cy="-47.06" rx="1.8" ry="1.8"/>
</g>
<!-- ENTRY&#45;&gt;{1,2,4} -->
<g id="edge1" class="edge">
<title>ENTRY&#45;&gt;{1,2,4}</title>
<path fill="none" stroke="black" d="M3.88,-47.06C7.08,-47.06 16.98,-47.06 28.6,-47.06"/>
<polygon fill="black" stroke="black" points="28.59,-50.56 38.59,-47.06 28.59,-43.56 28.59,-50.56"/>
</g>
</g>
</svg>
