<?xml version="1.0" encoding="UTF-8" standalone="no"?>
<!DOCTYPE svg PUBLIC "-//W3C//DTD SVG 1.1//EN"
 "http://www.w3.org/Graphics/SVG/1.1/DTD/svg11.dtd">
<!-- Generated by graphviz version 14.1.5 (20260411.2331)
 -->
<!-- Title: dfa4 Pages: 1 -->
<svg width="409pt" height="141pt"
 viewBox="0.00 0.00 409.00 141.00" xmlns="http://www.w3.org/2000/svg" xmlns:xlink="http://www.w3.org/1999/xlink">
<g id="graph0" class="graph" transform="scale(1 1) rotate(0) translate(4 137.04)">
<title>dfa4</title>
<polygon fill="white" stroke="none" points="-4,4 -4,-137.04 405.31,-137.04 405.31,4 -4,4"/>
<!-- {C,D} -->
<g id="node1" class="node">
<title>{C,D}</title>
<ellipse fill="none" stroke="black" cx="286.45" cy="-35.36" rx="31.36" ry="31.36"/>
<ellipse fill="none" stroke="black" cx="286.45" cy="-35.36" rx="35.36" ry="35.36"/>
<text xml:space="preserve" text-anchor="middle" x="286.45" y="-29.56" font-family="Helvetica,Arial,sans-serif" font-size="14.00">{C,D}</text>
</g>
<!-- {C,D}&#45;&gt;{C,D} -->
<g id="edge4" class="edge">
<title>{C,D}&#45;&gt;{C,D}</title>
<path fill="none" stroke="black" d="M275.75,-69.49C275.91,-80.24 279.48,-88.72 286.45,-88.72 290.7,-88.72 293.68,-85.57 295.4,-80.68"/>
<polygon fill="black" stroke="black" points="298.83,-81.4 296.92,-70.98 291.91,-80.32 298.83,-81.4"/>
<text xml:space="preserve" text-anchor="middle" x="286.45" y="-90.42" font-family="Helvetica,Arial,sans-serif" font-size="14.00">1</text>
</g>
<!-- C -->
<g id="node5" class="node">
<title>C</title>
<ellipse fill="none" stroke="black" cx="383.31" cy="-73.36" rx="18" ry="18"/>
<text xml:space="preserve" text-anchor="middle" x="383.31" y="-67.56" font-family="Helvetica,Arial,sans-serif" font-size="14.00">C</text>
</g>
<!-- {C,D}&#45;&gt;C -->
<g id="edge6" class="edge">
<title>{C,D}&#45;&gt;C</title>
<path fill="none" stroke="black" d="M319.83,-48.33C331.5,-53.01 344.53,-58.23 355.66,-62.69"/>
<polygon fill="black" stroke="black" points="354.04,-65.81 364.63,-66.28 356.65,-59.31 354.04,-65.81"/>
<text xml:space="preserve" text-anchor="middle" x="343.56" y="-60.58" font-family="Helvetica,Arial,sans-serif" font-size="14.00">0</text>
</g>
<!-- ENTRY -->
<g id="node2" class="node">
<title>ENTRY</title>
<ellipse fill="black" stroke="black" cx="1.8" cy="-51.36" rx="1.8" ry="1.8"/>
</g>
<!-- {A,C} -->
<g id="node3" class="node">
<title>{A,C}</title>
<ellipse fill="none" stroke="black" cx="71.47" cy="-51.36" rx="30.87" ry="30.87"/>
<text xml:space="preserve" text-anchor="middle" x="71.47" y="-45.56" font-family="Helvetica,Arial,sans-serif" font-size="14.00">{A,C}</text>
</g>
<!-- ENTRY&#45;&gt;{A,C} -->
<g id="edge1" class="edge">
<title>ENTRY&#45;&gt;{A,C}</title>
<path fill="none" stroke="black" d="M3.97,-51.36C7.35,-51.36 17.59,-51.36 29.05,-51.36"/>
<polygon fill="black" stroke="black" points="28.72,-54.86 38.72,-51.36 28.72,-47.86 28.72,-54.86"/>
</g>
<!-- {A,C}&#45;&gt;{C,D} -->
<g id="edge3" class="edge">
<title>{A,C}&#45;&gt;{C,D}</title>
<path fill="none" stroke="black" d="M102.44,-48.29C115.73,-46.98 131.56,-45.5 145.84,-44.36 177.09,-41.86 212.31,-39.6 239.56,-37.96"/>
<polygon fill="black" stroke="black" points="239.43,-41.48 249.21,-37.39 239.02,-34.49 239.43,-41.48"/>
<text xml:space="preserve" text-anchor="middle" x="176.72" y="-46.06" font-family="Helvetica,Arial,sans-serif" font-size="14.00">1</text>
</g>
<!-- {B,C} -->
<g id="node4" class="node">
<title>{B,C}</title>
<ellipse fill="none" stroke="black" cx="176.72" cy="-99.36" rx="30.87" ry="30.87"/>
<text xml:space="preserve" text-anchor="middle" x="176.72" y="-93.56" font-family="Helvetica,Arial,sans-serif" font-size="14.00">{B,C}</text>
</g>
<!-- {A,C}&#45;&gt;{B,C} -->
<g id="edge2" class="edge">
<title>{A,C}&#45;&gt;{B,C}</title>
<path fill="none" stroke="black" d="M99.87,-64.1C111.54,-69.52 125.34,-75.94 137.95,-81.8"/>
<polygon fill="black" stroke="black" points="136.28,-84.88 146.82,-85.93 139.23,-78.54 136.28,-84.88"/>
<text xml:space="preserve" text-anchor="middle" x="124.09" y="-78.5" font-family="Helvetica,Arial,sans-serif" font-size="14.00">0</text>
</g>
<!-- {B,C}&#45;&gt;{C,D} -->
<g id="edge7" class="edge">
<title>{B,C}&#45;&gt;{C,D}</title>
<path fill="none" stroke="black" d="M203.8,-83.87C216.32,-76.42 231.61,-67.34 245.56,-59.06"/>
<polygon fill="black" stroke="black" points="247.31,-62.09 254.12,-53.97 243.73,-56.07 247.31,-62.09"/>
<text xml:space="preserve" text-anchor="middle" x="229.34" y="-70.98" font-family="Helvetica,Arial,sans-serif" font-size="14.00">1</text>
</g>
<!-- {B,C}&#45;&gt;C -->
<g id="edge5" class="edge">
<title>{B,C}&#45;&gt;C</title>
<path fill="none" stroke="black" d="M206.77,-108.19C236.32,-115.74 283.14,-123.74 321.81,-112.36 335.76,-108.25 349.53,-99.82 360.4,-91.84"/>
<polygon fill="black" stroke="black" points="362.54,-94.61 368.29,-85.71 358.25,-89.08 362.54,-94.61"/>
<text xml:space="preserve" text-anchor="middle" x="286.45" y="-119.74" font-family="Helvetica,Arial,sans-serif" font-size="14.00">0</text>
</g>
<!-- C&#45;&gt;{C,D} -->
<g id="edge9" class="edge">
<title>C&#45;&gt;{C,D}</title>
<path fill="none" stroke="black" d="M372.46,-58.74C366.26,-50.87 357.51,-41.87 347.31,-37.36 342.92,-35.42 338.17,-34.11 333.33,-33.28"/>
<polygon fill="black" stroke="black" points="333.83,-29.81 323.52,-32.25 333.1,-36.77 333.83,-29.81"/>
<text xml:space="preserve" text-anchor="middle" x="343.56" y="-39.06" font-family="Helvetica,Arial,sans-serif" font-size="14.00">1</text>
</g>
<!-- C&#45;&gt;C -->
<g id="edge8" class="edge">
<title>C&#45;&gt;C</title>
<path fill="none" stroke="black" d="M376.26,-90.4C374.83,-100.22 377.18,-109.36 383.31,-109.36 386.85,-109.36 389.13,-106.3 390.15,-101.83"/>
<polygon fill="black" stroke="black" points="393.65,-101.97 390.33,-91.91 386.65,-101.85 393.65,-101.97"/>
<text xml:space="preserve" text-anchor="middle" x="383.31" y="-111.06" font-family="Helvetica,Arial,sans-serif" font-size="14.00">0</text>
</g>
</g>
</svg>
