<?xml version="1.0" encoding="UTF-8" standalone="no"?>
<!DOCTYPE svg PUBLIC "-//W3C//DTD SVG 1.1//EN"
 "http://www.w3.org/Graphics/SVG/1.1/DTD/svg11.dtd">
<!-- Generated by graphviz version 14.1.5 (20260411.2331)
 -->
<!-- Title: dfa5 Pages: 1 -->
<svg width="337pt" height="175pt"
 viewBox="0.00 0.00 337.00 175.00" xmlns="http://www.w3.org/2000/svg" xmlns:xlink="http://www.w3.org/1999/xlink">
<g id="graph0" class="graph" transform="scale(1 1) rotate(0) translate(4 171.18)">
<title>dfa5</title>
<polygon fill="white" stroke="none" points="-4,4 -4,-171.18 332.83,-171.18 332.83,4 -4,4"/>
<!-- {2,3,4} -->
<g id="node1" class="node">
<title>{2,3,4}</title>
<ellipse fill="none" stroke="black" cx="80.35" cy="-39.75" rx="35.75" ry="35.75"/>
<ellipse fill="none" stroke="black" cx="80.35" cy="-39.75" rx="39.75" ry="39.75"/>
<text xml:space="preserve" text-anchor="middle" x="80.35" y="-33.95" font-family="Helvetica,Arial,sans-serif" font-size="14.00">{2,3,4}</text>
</g>
<!-- {2,3,4}&#45;&gt;{2,3,4} -->
<g id="edge7" class="edge">
<title>{2,3,4}&#45;&gt;{2,3,4}</title>
<path fill="none" stroke="black" d="M69.48,-78.34C69.96,-89.18 73.58,-97.49 80.35,-97.49 84.47,-97.49 87.43,-94.4 89.22,-89.54"/>
<polygon fill="black" stroke="black" points="92.64,-90.29 90.95,-79.83 85.75,-89.06 92.64,-90.29"/>
<text xml:space="preserve" text-anchor="middle" x="80.35" y="-99.19" font-family="Helvetica,Arial,sans-serif" font-size="14.00">b</text>
</g>
<!-- {0,1} -->
<g id="node5" class="node">
<title>{0,1}</title>
<ellipse fill="none" stroke="black" cx="192.03" cy="-105.75" rx="28.43" ry="28.43"/>
<text xml:space="preserve" text-anchor="middle" x="192.03" y="-99.95" font-family="Helvetica,Arial,sans-serif" font-size="14.00">{0,1}</text>
</g>
<!-- {2,3,4}&#45;&gt;{0,1} -->
<g id="edge8" class="edge">
<title>{2,3,4}&#45;&gt;{0,1}</title>
<path fill="none" stroke="black" d="M114.85,-59.91C128.31,-68 143.79,-77.32 157.27,-85.43"/>
<polygon fill="black" stroke="black" points="155.45,-88.42 165.82,-90.58 159.06,-82.42 155.45,-88.42"/>
<text xml:space="preserve" text-anchor="middle" x="141.84" y="-78.4" font-family="Helvetica,Arial,sans-serif" font-size="14.00">a</text>
</g>
<!-- {2,3} -->
<g id="node2" class="node">
<title>{2,3}</title>
<ellipse fill="none" stroke="black" cx="296.4" cy="-72.75" rx="28.43" ry="28.43"/>
<ellipse fill="none" stroke="black" cx="296.4" cy="-72.75" rx="32.43" ry="32.43"/>
<text xml:space="preserve" text-anchor="middle" x="296.4" y="-66.95" font-family="Helvetica,Arial,sans-serif" font-size="14.00">{2,3}</text>
</g>
<!-- {2,3}&#45;&gt;{2,3,4} -->
<g id="edge6" class="edge">
<title>{2,3}&#45;&gt;{2,3,4}</title>
<path fill="none" stroke="black" d="M264.99,-63.95C251.46,-60.32 235.27,-56.35 220.46,-53.75 191.2,-48.59 158.13,-45.17 131.57,-43"/>
<polygon fill="black" stroke="black" points="131.99,-39.52 121.75,-42.23 131.44,-46.5 131.99,-39.52"/>
<text xml:space="preserve" text-anchor="middle" x="192.03" y="-55.45" font-family="Helvetica,Arial,sans-serif" font-size="14.00">b</text>
</g>
<!-- {2,3}&#45;&gt;{0,1} -->
<g id="edge5" class="edge">
<title>{2,3}&#45;&gt;{0,1}</title>
<path fill="none" stroke="black" d="M264.06,-66.83C255.57,-66.37 246.5,-66.95 238.46,-69.75 232.52,-71.81 226.78,-75.02 221.48,-78.68"/>
<polygon fill="black" stroke="black" points="219.47,-75.81 213.69,-84.7 223.75,-81.35 219.47,-75.81"/>
<text xml:space="preserve" text-anchor="middle" x="242.21" y="-71.45" font-family="Helvetica,Arial,sans-serif" font-size="14.00">a</text>
</g>
<!-- ENTRY -->
<g id="node3" class="node">
<title>ENTRY</title>
<ellipse fill="black" stroke="black" cx="1.8" cy="-148.75" rx="1.8" ry="1.8"/>
</g>
<!-- 0 -->
<g id="node4" class="node">
<title>0</title>
<ellipse fill="none" stroke="black" cx="80.35" cy="-148.75" rx="18" ry="18"/>
<text xml:space="preserve" text-anchor="middle" x="80.35" y="-142.95" font-family="Helvetica,Arial,sans-serif" font-size="14.00">0</text>
</g>
<!-- ENTRY&#45;&gt;0 -->
<g id="edge1" class="edge">
<title>ENTRY&#45;&gt;0</title>
<path fill="none" stroke="black" d="M3.88,-148.75C9.03,-148.75 31.57,-148.75 50.69,-148.75"/>
<polygon fill="black" stroke="black" points="50.45,-152.25 60.45,-148.75 50.45,-145.25 50.45,-152.25"/>
</g>
<!-- 0&#45;&gt;{0,1} -->
<g id="edge2" class="edge">
<title>0&#45;&gt;{0,1}</title>
<path fill="none" stroke="black" d="M97.53,-142.4C112.44,-136.56 135.12,-127.67 154.4,-120.11"/>
<polygon fill="black" stroke="black" points="155.55,-123.42 163.58,-116.51 152.99,-116.9 155.55,-123.42"/>
<text xml:space="preserve" text-anchor="middle" x="141.84" y="-127.66" font-family="Helvetica,Arial,sans-serif" font-size="14.00">a</text>
</g>
<!-- {0,1}&#45;&gt;{2,3} -->
<g id="edge4" class="edge">
<title>{0,1}&#45;&gt;{2,3}</title>
<path fill="none" stroke="black" d="M219.42,-97.28C227.9,-94.56 237.33,-91.53 245.96,-88.75 248.67,-87.87 251.46,-86.98 254.26,-86.07"/>
<polygon fill="black" stroke="black" points="255.2,-89.45 263.64,-83.04 253.04,-82.78 255.2,-89.45"/>
<text xml:space="preserve" text-anchor="middle" x="242.21" y="-92.77" font-family="Helvetica,Arial,sans-serif" font-size="14.00">b</text>
</g>
<!-- {0,1}&#45;&gt;{0,1} -->
<g id="edge3" class="edge">
<title>{0,1}&#45;&gt;{0,1}</title>
<path fill="none" stroke="black" d="M182.66,-132.93C182.24,-143.45 185.36,-152.18 192.03,-152.18 196.09,-152.18 198.84,-148.94 200.27,-144.02"/>
<polygon fill="black" stroke="black" points="203.71,-144.74 201.25,-134.44 196.75,-144.03 203.71,-144.74"/>
<text xml:space="preserve" text-anchor="middle" x="192.03" y="-153.88" font-family="Helvetica,Arial,sans-serif" font-size="14.00">a</text>
</g>
</g>
</svg>
