<?xml version="1.0" encoding="UTF-8" standalone="no"?>
<!DOCTYPE svg PUBLIC "-//W3C//DTD SVG 1.1//EN"
 "http://www.w3.org/Graphics/SVG/1.1/DTD/svg11.dtd">
<!-- Generated by graphviz version 14.1.5 (20260411.2331)
 -->
<!-- Title: dfa6 Pages: 1 -->
<svg width="267pt" height="160pt"
 viewBox="0.00 0.00 267.00 160.00" xmlns="http://www.w3.org/2000/svg" xmlns:xlink="http://www.w3.org/1999/xlink">
<g id="graph0" class="graph" transform="scale(1 1) rotate(0) translate(4 155.75)">
<title>dfa6</title>
<polygon fill="white" stroke="none" points="-4,4 -4,-155.75 263.36,-155.75 263.36,4 -4,4"/>
<!-- {1,2,3} -->
<g id="node1" class="node">
<title>{1,2,3}</title>
<ellipse fill="none" stroke="black" cx="39.75" cy="-39.75" rx="35.75" ry="35.75"/>
<ellipse fill="none" stroke="black" cx="39.75" cy="-39.75" rx="39.75" ry="39.75"/>
<text xml:space="preserve" text-anchor="middle" x="39.75" y="-33.95" font-family="Helvetica,Arial,sans-serif" font-size="14.00">{1,2,3}</text>
</g>
<!-- {1,2,3}&#45;&gt;{1,2,3} -->
<g id="edge6" class="edge">
<title>{1,2,3}&#45;&gt;{1,2,3}</title>
<path fill="none" stroke="black" d="M28.26,-78.06C28.71,-89.03 32.54,-97.49 39.75,-97.49 44.25,-97.49 47.44,-94.19 49.3,-89.03"/>
<polygon fill="black" stroke="black" points="52.68,-90.01 50.97,-79.55 45.79,-88.8 52.68,-90.01"/>
<text xml:space="preserve" text-anchor="middle" x="39.75" y="-99.19" font-family="Helvetica,Arial,sans-serif" font-size="14.00">b</text>
</g>
<!-- 1 -->
<g id="node3" class="node">
<title>1</title>
<ellipse fill="none" stroke="black" cx="140.99" cy="-100.75" rx="18" ry="18"/>
<text xml:space="preserve" text-anchor="middle" x="140.99" y="-94.95" font-family="Helvetica,Arial,sans-serif" font-size="14.00">1</text>
</g>
<!-- {1,2,3}&#45;&gt;1 -->
<g id="edge7" class="edge">
<title>{1,2,3}&#45;&gt;1</title>
<path fill="none" stroke="black" d="M74.07,-60.23C87.62,-68.56 103,-78.01 115.49,-85.68"/>
<polygon fill="black" stroke="black" points="113.56,-88.61 123.91,-90.86 117.22,-82.64 113.56,-88.61"/>
<text xml:space="preserve" text-anchor="middle" x="101.24" y="-79.2" font-family="Helvetica,Arial,sans-serif" font-size="14.00">a</text>
</g>
<!-- ENTRY -->
<g id="node2" class="node">
<title>ENTRY</title>
<ellipse fill="black" stroke="black" cx="39.75" cy="-132.75" rx="1.8" ry="1.8"/>
</g>
<!-- ENTRY&#45;&gt;1 -->
<g id="edge1" class="edge">
<title>ENTRY&#45;&gt;1</title>
<path fill="none" stroke="black" d="M41.96,-132.43C46.75,-131.17 64.82,-126.37 79.49,-121.75 90.55,-118.26 102.64,-114.13 113.08,-110.46"/>
<polygon fill="black" stroke="black" points="113.97,-113.86 122.22,-107.21 111.62,-107.26 113.97,-113.86"/>
</g>
<!-- 1&#45;&gt;1 -->
<g id="edge2" class="edge">
<title>1&#45;&gt;1</title>
<path fill="none" stroke="black" d="M133.95,-117.78C132.51,-127.6 134.86,-136.75 140.99,-136.75 144.54,-136.75 146.82,-133.69 147.84,-129.22"/>
<polygon fill="black" stroke="black" points="151.33,-129.36 148.01,-119.3 144.33,-129.23 151.33,-129.36"/>
<text xml:space="preserve" text-anchor="middle" x="140.99" y="-138.45" font-family="Helvetica,Arial,sans-serif" font-size="14.00">a</text>
</g>
<!-- {1,2} -->
<g id="node4" class="node">
<title>{1,2}</title>
<ellipse fill="none" stroke="black" cx="230.93" cy="-72.75" rx="28.43" ry="28.43"/>
<text xml:space="preserve" text-anchor="middle" x="230.93" y="-66.95" font-family="Helvetica,Arial,sans-serif" font-size="14.00">{1,2}</text>
</g>
<!-- 1&#45;&gt;{1,2} -->
<g id="edge3" class="edge">
<title>1&#45;&gt;{1,2}</title>
<path fill="none" stroke="black" d="M158.62,-96.32C166.49,-94.15 176.02,-91.43 184.49,-88.75 187.38,-87.83 190.37,-86.85 193.36,-85.85"/>
<polygon fill="black" stroke="black" points="194.32,-89.22 202.64,-82.66 192.05,-82.6 194.32,-89.22"/>
<text xml:space="preserve" text-anchor="middle" x="180.74" y="-92.58" font-family="Helvetica,Arial,sans-serif" font-size="14.00">b</text>
</g>
<!-- {1,2}&#45;&gt;{1,2,3} -->
<g id="edge5" class="edge">
<title>{1,2}&#45;&gt;{1,2,3}</title>
<path fill="none" stroke="black" d="M202.54,-67.31C196.59,-66.13 190.33,-64.9 184.49,-63.75 173.16,-61.51 170.36,-60.77 158.99,-58.75 136.63,-54.76 111.81,-50.71 90.71,-47.39"/>
<polygon fill="black" stroke="black" points="91.33,-43.94 80.91,-45.85 90.25,-50.86 91.33,-43.94"/>
<text xml:space="preserve" text-anchor="middle" x="140.99" y="-60.45" font-family="Helvetica,Arial,sans-serif" font-size="14.00">b</text>
</g>
<!-- {1,2}&#45;&gt;1 -->
<g id="edge4" class="edge">
<title>{1,2}&#45;&gt;1</title>
<path fill="none" stroke="black" d="M202.61,-66.96C194.17,-66.28 185,-66.71 176.99,-69.75 171.35,-71.89 166.03,-75.4 161.33,-79.3"/>
<polygon fill="black" stroke="black" points="159.09,-76.6 154.21,-86.01 163.89,-81.7 159.09,-76.6"/>
<text xml:space="preserve" text-anchor="middle" x="180.74" y="-71.45" font-family="Helvetica,Arial,sans-serif" font-size="14.00">a</text>
</g>
</g>
</svg>
