<?xml version="1.0" encoding="UTF-8" standalone="no"?>
<!DOCTYPE svg PUBLIC "-//W3C//DTD SVG 1.1//EN"
 "http://www.w3.org/Graphics/SVG/1.1/DTD/svg11.dtd">
<!-- Generated by graphviz version 14.1.5 (20260411.2331)
 -->
<!-- Title: ExpressionTree Pages: 1 -->
<svg width="125pt" height="188pt"
 viewBox="0.00 0.00 125.00 188.00" xmlns="http://www.w3.org/2000/svg" xmlns:xlink="http://www.w3.org/1999/xlink">
<g id="graph0" class="graph" transform="scale(1 1) rotate(0) translate(4 184)">
<title>ExpressionTree</title>
<polygon fill="white" stroke="none" points="-4,4 -4,-184 121,-184 121,4 -4,4"/>
<!-- + -->
<g id="node1" class="node">
<title>+</title>
<ellipse fill="none" stroke="black" cx="45" cy="-162" rx="18" ry="18"/>
<text xml:space="preserve" text-anchor="middle" x="45" y="-157.32" font-family="monospace" font-size="14.00">+</text>
</g>
<!-- 2 -->
<g id="node2" class="node">
<title>2</title>
<ellipse fill="none" stroke="black" cx="18" cy="-90" rx="18" ry="18"/>
<text xml:space="preserve" text-anchor="middle" x="18" y="-85.33" font-family="monospace" font-size="14.00">2</text>
</g>
<!-- +&#45;&gt;2 -->
<g id="edge1" class="edge">
<title>+&#45;&gt;2</title>
<path fill="none" stroke="black" d="M38.74,-144.76C34.38,-133.46 28.58,-118.44 24.23,-107.15"/>
</g>
<!-- * -->
<g id="node3" class="node">
<title>*</title>
<ellipse fill="none" stroke="black" cx="72" cy="-90" rx="18" ry="18"/>
<text xml:space="preserve" text-anchor="middle" x="72" y="-85.33" font-family="monospace" font-size="14.00">*</text>
</g>
<!-- +&#45;&gt;* -->
<g id="edge2" class="edge">
<title>+&#45;&gt;*</title>
<path fill="none" stroke="black" d="M51.26,-144.76C55.62,-133.46 61.42,-118.44 65.77,-107.15"/>
</g>
<!-- 3 -->
<g id="node4" class="node">
<title>3</title>
<ellipse fill="none" stroke="black" cx="45" cy="-18" rx="18" ry="18"/>
<text xml:space="preserve" text-anchor="middle" x="45" y="-13.32" font-family="monospace" font-size="14.00">3</text>
</g>
<!-- *&#45;&gt;3 -->
<g id="edge3" class="edge">
<title>*&#45;&gt;3</title>
<path fill="none" stroke="black" d="M65.74,-72.76C61.38,-61.46 55.58,-46.44 51.23,-35.15"/>
</g>
<!-- 4 -->
<g id="node5" class="node">
<title>4</title>
<ellipse fill="none" stroke="black" cx="99" cy="-18" rx="18" ry="18"/>
<text xml:space="preserve" text-anchor="middle" x="99" y="-13.32" font-family="monospace" font-size="14.00">4</text>
</g>
<!-- *&#45;&gt;4 -->
<g id="edge4" class="edge">
<title>*&#45;&gt;4</title>
<path fill="none" stroke="black" d="M78.26,-72.76C82.62,-61.46 88.42,-46.44 92.77,-35.15"/>
</g>
</g>
</svg>
