<?xml version="1.0" encoding="UTF-8" standalone="no"?>
<!DOCTYPE svg PUBLIC "-//W3C//DTD SVG 1.1//EN"
 "http://www.w3.org/Graphics/SVG/1.1/DTD/svg11.dtd">
<!-- Generated by graphviz version 2.36.0 (20140111.2315)
 -->
<!-- Title: exam1_fall2025_fsm Pages: 1 -->
<svg width="292pt" height="133pt"
 viewBox="0.00 0.00 292.00 132.93" xmlns="http://www.w3.org/2000/svg" xmlns:xlink="http://www.w3.org/1999/xlink">
<g id="graph0" class="graph" transform="scale(1 1) rotate(0) translate(4 128.929)">
<title>exam1_fall2025_fsm</title>
<polygon fill="white" stroke="none" points="-4,4 -4,-128.929 288,-128.929 288,4 -4,4"/>
<!-- 4 -->
<g id="node1" class="node"><title>4</title>
<ellipse fill="none" stroke="black" cx="22" cy="-30.9291" rx="18" ry="18"/>
<ellipse fill="none" stroke="black" cx="22" cy="-30.9291" rx="22" ry="22"/>
<text text-anchor="middle" x="22" y="-26.7291" font-family="Helvetica,Arial,sans-serif" font-size="14.00">4</text>
</g>
<!-- 2 -->
<g id="node5" class="node"><title>2</title>
<ellipse fill="none" stroke="black" cx="106" cy="-30.9291" rx="18" ry="18"/>
<text text-anchor="middle" x="106" y="-26.7291" font-family="Helvetica,Arial,sans-serif" font-size="14.00">2</text>
</g>
<!-- 4&#45;&gt;2 -->
<g id="edge4" class="edge"><title>4&#45;&gt;2</title>
<path fill="none" stroke="black" d="M44.117,-30.9291C54.2957,-30.9291 66.6317,-30.9291 77.5308,-30.9291"/>
<polygon fill="black" stroke="black" points="77.818,-34.4292 87.8179,-30.9291 77.8179,-27.4292 77.818,-34.4292"/>
<text text-anchor="middle" x="66" y="-33.7291" font-family="Helvetica,Arial,sans-serif" font-size="14.00">b</text>
</g>
<!-- ENTRY -->
<g id="node2" class="node"><title>ENTRY</title>
<ellipse fill="black" stroke="black" cx="106" cy="-122.929" rx="1.8" ry="1.8"/>
</g>
<!-- 1 -->
<g id="node3" class="node"><title>1</title>
<ellipse fill="none" stroke="black" cx="186" cy="-82.9291" rx="18" ry="18"/>
<text text-anchor="middle" x="186" y="-78.7291" font-family="Helvetica,Arial,sans-serif" font-size="14.00">1</text>
</g>
<!-- ENTRY&#45;&gt;1 -->
<g id="edge1" class="edge"><title>ENTRY&#45;&gt;1</title>
<path fill="none" stroke="black" d="M108.08,-122.467C112.983,-120.359 133.618,-111.4 150,-102.929 153.672,-101.03 157.512,-98.9433 161.248,-96.8557"/>
<polygon fill="black" stroke="black" points="163.21,-99.7661 170.164,-91.7726 159.743,-93.685 163.21,-99.7661"/>
</g>
<!-- 1&#45;&gt;4 -->
<g id="edge3" class="edge"><title>1&#45;&gt;4</title>
<path fill="none" stroke="black" d="M168.153,-80.2811C160.176,-78.9035 150.546,-77.0611 142,-74.9291 105.725,-65.8801 96.6799,-62.8945 62,-48.9291 58.5456,-47.538 54.9549,-46.0048 51.4125,-44.4377"/>
<polygon fill="black" stroke="black" points="52.8272,-41.2362 42.2752,-40.285 49.931,-47.6089 52.8272,-41.2362"/>
<text text-anchor="middle" x="106" y="-73.7291" font-family="Helvetica,Arial,sans-serif" font-size="14.00">c</text>
</g>
<!-- 3 -->
<g id="node4" class="node"><title>3</title>
<ellipse fill="none" stroke="black" cx="266" cy="-26.9291" rx="18" ry="18"/>
<text text-anchor="middle" x="266" y="-22.7291" font-family="Helvetica,Arial,sans-serif" font-size="14.00">3</text>
</g>
<!-- 1&#45;&gt;3 -->
<g id="edge2" class="edge"><title>1&#45;&gt;3</title>
<path fill="none" stroke="black" d="M201.306,-72.6578C212.851,-64.3692 229.3,-52.5596 242.59,-43.0181"/>
<polygon fill="black" stroke="black" points="244.702,-45.8105 250.784,-37.1352 240.62,-40.1242 244.702,-45.8105"/>
<text text-anchor="middle" x="226" y="-59.7291" font-family="Helvetica,Arial,sans-serif" font-size="14.00">a</text>
</g>
<!-- 3&#45;&gt;4 -->
<g id="edge7" class="edge"><title>3&#45;&gt;4</title>
<path fill="none" stroke="black" d="M248.774,-21.3107C217.47,-11.2447 146.651,7.76776 88,-3.9291 75.3948,-6.44298 62.1743,-11.4494 50.9724,-16.4756"/>
<polygon fill="black" stroke="black" points="49.2699,-13.4086 41.714,-20.8356 52.2522,-19.7416 49.2699,-13.4086"/>
<text text-anchor="middle" x="146" y="-4.7291" font-family="Helvetica,Arial,sans-serif" font-size="14.00">a</text>
</g>
<!-- 2&#45;&gt;1 -->
<g id="edge6" class="edge"><title>2&#45;&gt;1</title>
<path fill="none" stroke="black" d="M121.306,-40.4667C132.67,-48.0423 148.785,-58.7855 161.962,-67.5701"/>
<polygon fill="black" stroke="black" points="160.258,-70.641 170.52,-73.2759 164.141,-64.8166 160.258,-70.641"/>
<text text-anchor="middle" x="146" y="-61.7291" font-family="Helvetica,Arial,sans-serif" font-size="14.00">b</text>
</g>
<!-- 2&#45;&gt;3 -->
<g id="edge5" class="edge"><title>2&#45;&gt;3</title>
<path fill="none" stroke="black" d="M124.21,-30.4934C151.515,-29.8021 205.006,-28.4479 237.62,-27.6223"/>
<polygon fill="black" stroke="black" points="237.903,-31.1163 247.812,-27.3642 237.726,-24.1185 237.903,-31.1163"/>
<text text-anchor="middle" x="186" y="-32.7291" font-family="Helvetica,Arial,sans-serif" font-size="14.00">c</text>
</g>
</g>
</svg>
