<?xml version="1.0" standalone="no"?>
<svg xmlns="http://www.w3.org/2000/svg" xmlns:xlink="http://www.w3.org/1999/xlink" width="288pt" height="138pt" viewBox="0.00 0.00 288.21 137.74">
<g id="graph0" class="graph" transform="translate(4,133.74000549316406) scale(1)" data-name="exam1_fall2025_fsm">

<polygon fill="white" stroke="none" points="-4,4 -4,-133.74 284.21,-133.74 284.21,4 -4,4"/>
<!-- 4 -->
<g id="node1" class="node" pointer-events="visible" data-name="4">

<ellipse fill="none" stroke="black" cx="22" cy="-30.94" rx="18" ry="18"/>
<ellipse fill="none" stroke="black" cx="22" cy="-30.94" rx="22" ry="22"/>
<text text-anchor="middle" x="22" y="-26.74" font-family="Helvetica,Arial,sans-serif" font-size="14.00">4</text>
</g>
<!-- 2 -->
<g id="node5" class="node" pointer-events="visible" data-name="2">

<ellipse fill="none" stroke="black" cx="105" cy="-30.94" rx="18" ry="18"/>
<text text-anchor="middle" x="105" y="-26.74" font-family="Helvetica,Arial,sans-serif" font-size="14.00">2</text>
</g>
<!-- 4&#45;&gt;2 -->
<g id="edge4" class="edge" data-name="4-&gt;2">

<path fill="none" stroke="black" d="M44.28,-30.94C53.78,-30.94 65.12,-30.94 75.35,-30.94"/>
<polygon fill="black" stroke="black" points="75.16,-34.44 85.16,-30.94 75.16,-27.44 75.16,-34.44"/>
<text text-anchor="middle" x="65.5" y="-35.14" font-family="Helvetica,Arial,sans-serif" font-size="14.00">b</text>
</g>
<!-- ENTRY -->
<g id="node2" class="node" pointer-events="visible" data-name="ENTRY">

<ellipse fill="black" stroke="black" cx="105" cy="-127.94" rx="1.8" ry="1.8"/>
</g>
<!-- 1 -->
<g id="node3" class="node" pointer-events="visible" data-name="1">

<ellipse fill="none" stroke="black" cx="184" cy="-84.94" rx="18" ry="18"/>
<text text-anchor="middle" x="184" y="-80.74" font-family="Helvetica,Arial,sans-serif" font-size="14.00">1</text>
</g>
<!-- ENTRY&#45;&gt;1 -->
<g id="edge1" class="edge" data-name="ENTRY-&gt;1">

<path fill="none" stroke="black" d="M107.04,-127.38C111.78,-124.82 131.75,-114.03 148,-104.94 151.3,-103.1 154.76,-101.14 158.18,-99.2"/>
<polygon fill="black" stroke="black" points="159.78,-102.31 166.73,-94.32 156.31,-96.23 159.78,-102.31"/>
</g>
<!-- 1&#45;&gt;4 -->
<g id="edge3" class="edge" data-name="1-&gt;4">

<path fill="none" stroke="black" d="M165.73,-82.13C158.11,-80.76 149.06,-78.98 141,-76.94 105.29,-67.92 95.92,-66.29 62,-51.94 58.53,-50.47 54.96,-48.8 51.45,-47.05"/>
<polygon fill="black" stroke="black" points="53.12,-43.97 42.64,-42.41 49.86,-50.17 53.12,-43.97"/>
<text text-anchor="middle" x="105" y="-77.14" font-family="Helvetica,Arial,sans-serif" font-size="14.00">c</text>
</g>
<!-- 3 -->
<g id="node4" class="node" pointer-events="visible" data-name="3">

<ellipse fill="none" stroke="black" cx="262.21" cy="-25.94" rx="18" ry="18"/>
<text text-anchor="middle" x="262.21" y="-21.74" font-family="Helvetica,Arial,sans-serif" font-size="14.00">3</text>
</g>
<!-- 1&#45;&gt;3 -->
<g id="edge2" class="edge" data-name="1-&gt;3">

<path fill="none" stroke="black" d="M198.98,-74.12C210.04,-65.55 225.72,-53.42 238.57,-43.47"/>
<polygon fill="black" stroke="black" points="240.36,-46.51 246.13,-37.62 236.08,-40.97 240.36,-46.51"/>
<text text-anchor="middle" x="223.11" y="-62.14" font-family="Helvetica,Arial,sans-serif" font-size="14.00">a</text>
</g>
<!-- 3&#45;&gt;4 -->
<g id="edge7" class="edge" data-name="3-&gt;4">

<path fill="none" stroke="black" d="M244.75,-20.33C213.68,-10.51 144.37,7.66 87,-3.94 75.24,-6.32 62.96,-10.93 52.34,-15.67"/>
<polygon fill="black" stroke="black" points="50.87,-12.49 43.33,-19.93 53.87,-18.82 50.87,-12.49"/>
<text text-anchor="middle" x="144.5" y="-5.14" font-family="Helvetica,Arial,sans-serif" font-size="14.00">a</text>
</g>
<!-- 2&#45;&gt;1 -->
<g id="edge6" class="edge" data-name="2-&gt;1">

<path fill="none" stroke="black" d="M120.41,-40.91C128.52,-46.54 138.84,-53.71 148,-60.14 151.73,-62.76 155.68,-65.55 159.53,-68.27"/>
<polygon fill="black" stroke="black" points="157.3,-70.98 167.48,-73.9 161.35,-65.26 157.3,-70.98"/>
<text text-anchor="middle" x="144.5" y="-65.14" font-family="Helvetica,Arial,sans-serif" font-size="14.00">b</text>
</g>
<!-- 2&#45;&gt;3 -->
<g id="edge5" class="edge" data-name="2-&gt;3">

<path fill="none" stroke="black" d="M123.2,-30.39C149.66,-29.54 200.62,-27.89 232.67,-26.86"/>
<polygon fill="black" stroke="black" points="232.54,-30.37 242.42,-26.55 232.31,-23.37 232.54,-30.37"/>
<text text-anchor="middle" x="184" y="-33.14" font-family="Helvetica,Arial,sans-serif" font-size="14.00">c</text>
</g>
</g>
</svg>