<?xml version="1.0" encoding="UTF-8" standalone="no"?>
<!DOCTYPE svg PUBLIC "-//W3C//DTD SVG 1.1//EN"
 "http://www.w3.org/Graphics/SVG/1.1/DTD/svg11.dtd">
<!-- Generated by graphviz version 14.1.5 (20260411.2331)
 -->
<!-- Title: exam1_fall2025_fsm Pages: 1 -->
<svg width="291pt" height="135pt"
 viewBox="0.00 0.00 291.00 135.00" xmlns="http://www.w3.org/2000/svg" xmlns:xlink="http://www.w3.org/1999/xlink">
<g id="graph0" class="graph" transform="scale(1 1) rotate(0) translate(4 130.74)">
<title>exam1_fall2025_fsm</title>
<polygon fill="white" stroke="none" points="-4,4 -4,-130.74 286.5,-130.74 286.5,4 -4,4"/>
<!-- 4 -->
<g id="node1" class="node">
<title>4</title>
<ellipse fill="none" stroke="black" cx="22" cy="-30.94" rx="18" ry="18"/>
<ellipse fill="none" stroke="black" cx="22" cy="-30.94" rx="22" ry="22"/>
<text xml:space="preserve" text-anchor="middle" x="22" y="-25.14" font-family="Helvetica,Arial,sans-serif" font-size="14.00">4</text>
</g>
<!-- 2 -->
<g id="node5" class="node">
<title>2</title>
<ellipse fill="none" stroke="black" cx="105.5" cy="-30.94" rx="18" ry="18"/>
<text xml:space="preserve" text-anchor="middle" x="105.5" y="-25.14" font-family="Helvetica,Arial,sans-serif" font-size="14.00">2</text>
</g>
<!-- 4&#45;&gt;2 -->
<g id="edge4" class="edge">
<title>4&#45;&gt;2</title>
<path fill="none" stroke="black" d="M44.41,-30.94C53.97,-30.94 65.38,-30.94 75.67,-30.94"/>
<polygon fill="black" stroke="black" points="75.56,-34.44 85.56,-30.94 75.56,-27.44 75.56,-34.44"/>
<text xml:space="preserve" text-anchor="middle" x="65.75" y="-32.64" font-family="Helvetica,Arial,sans-serif" font-size="14.00">b</text>
</g>
<!-- ENTRY -->
<g id="node2" class="node">
<title>ENTRY</title>
<ellipse fill="black" stroke="black" cx="105.5" cy="-124.94" rx="1.8" ry="1.8"/>
</g>
<!-- 1 -->
<g id="node3" class="node">
<title>1</title>
<ellipse fill="none" stroke="black" cx="185" cy="-83.94" rx="18" ry="18"/>
<text xml:space="preserve" text-anchor="middle" x="185" y="-78.14" font-family="Helvetica,Arial,sans-serif" font-size="14.00">1</text>
</g>
<!-- ENTRY&#45;&gt;1 -->
<g id="edge1" class="edge">
<title>ENTRY&#45;&gt;1</title>
<path fill="none" stroke="black" d="M107.56,-124.44C112.39,-122.18 132.73,-112.6 149,-103.94 152.34,-102.16 155.82,-100.24 159.25,-98.32"/>
<polygon fill="black" stroke="black" points="160.85,-101.44 167.81,-93.45 157.39,-95.36 160.85,-101.44"/>
</g>
<!-- 1&#45;&gt;4 -->
<g id="edge3" class="edge">
<title>1&#45;&gt;4</title>
<path fill="none" stroke="black" d="M166.93,-81.24C159.13,-79.88 149.79,-78.06 141.5,-75.94 105.49,-66.7 96.46,-63.89 62,-49.94 58.75,-48.62 55.4,-47.16 52.09,-45.64"/>
<polygon fill="black" stroke="black" points="53.71,-42.54 43.17,-41.39 50.69,-48.86 53.71,-42.54"/>
<text xml:space="preserve" text-anchor="middle" x="105.5" y="-72.72" font-family="Helvetica,Arial,sans-serif" font-size="14.00">c</text>
</g>
<!-- 3 -->
<g id="node4" class="node">
<title>3</title>
<ellipse fill="none" stroke="black" cx="264.5" cy="-26.94" rx="18" ry="18"/>
<text xml:space="preserve" text-anchor="middle" x="264.5" y="-21.14" font-family="Helvetica,Arial,sans-serif" font-size="14.00">3</text>
</g>
<!-- 1&#45;&gt;3 -->
<g id="edge2" class="edge">
<title>1&#45;&gt;3</title>
<path fill="none" stroke="black" d="M200.21,-73.48C211.47,-65.2 227.41,-53.48 240.48,-43.87"/>
<polygon fill="black" stroke="black" points="242.17,-46.96 248.16,-38.22 238.03,-41.33 242.17,-46.96"/>
<text xml:space="preserve" text-anchor="middle" x="224.75" y="-58.84" font-family="Helvetica,Arial,sans-serif" font-size="14.00">a</text>
</g>
<!-- 3&#45;&gt;4 -->
<g id="edge7" class="edge">
<title>3&#45;&gt;4</title>
<path fill="none" stroke="black" d="M247.36,-21.31C216.23,-11.24 145.81,7.78 87.5,-3.94 75.45,-6.36 62.84,-11.08 52,-15.92"/>
<polygon fill="black" stroke="black" points="50.76,-12.63 43.21,-20.06 53.75,-18.97 50.76,-12.63"/>
<text xml:space="preserve" text-anchor="middle" x="145.25" y="-2.74" font-family="Helvetica,Arial,sans-serif" font-size="14.00">a</text>
</g>
<!-- 2&#45;&gt;1 -->
<g id="edge6" class="edge">
<title>2&#45;&gt;1</title>
<path fill="none" stroke="black" d="M121.08,-40.9C132.12,-48.45 147.52,-58.99 160.32,-67.74"/>
<polygon fill="black" stroke="black" points="158.01,-70.4 168.24,-73.16 161.96,-64.62 158.01,-70.4"/>
<text xml:space="preserve" text-anchor="middle" x="145.25" y="-60.72" font-family="Helvetica,Arial,sans-serif" font-size="14.00">b</text>
</g>
<!-- 2&#45;&gt;3 -->
<g id="edge5" class="edge">
<title>2&#45;&gt;3</title>
<path fill="none" stroke="black" d="M123.9,-30.49C150.66,-29.81 202.21,-28.5 234.63,-27.67"/>
<polygon fill="black" stroke="black" points="234.6,-31.17 244.51,-27.42 234.42,-24.18 234.6,-31.17"/>
<text xml:space="preserve" text-anchor="middle" x="185" y="-31.03" font-family="Helvetica,Arial,sans-serif" font-size="14.00">c</text>
</g>
</g>
</svg>
