<?xml version="1.0" encoding="UTF-8" standalone="no"?>
<!DOCTYPE svg PUBLIC "-//W3C//DTD SVG 1.1//EN"
 "http://www.w3.org/Graphics/SVG/1.1/DTD/svg11.dtd">
<!-- Generated by graphviz version 14.1.5 (20260411.2331)
 -->
<!-- Title: After_GC Pages: 1 -->
<svg width="608pt" height="123pt"
 viewBox="0.00 0.00 608.00 123.00" xmlns="http://www.w3.org/2000/svg" xmlns:xlink="http://www.w3.org/1999/xlink">
<g id="graph0" class="graph" transform="scale(1 1) rotate(0) translate(4 118.5)">
<title>After_GC</title>
<polygon fill="white" stroke="none" points="-4,4 -4,-118.5 604.25,-118.5 604.25,4 -4,4"/>
<text xml:space="preserve" text-anchor="middle" x="300.12" y="-7.2" font-family="Times,serif" font-size="14.00">After Mark&#45;Sweep: Garbage reclaimed into free list (fragmented)</text>
<!-- A -->
<g id="node1" class="node">
<title>A</title>
<path fill="none" stroke="green" d="M42,-114.5C42,-114.5 12,-114.5 12,-114.5 6,-114.5 0,-108.5 0,-102.5 0,-102.5 0,-90.5 0,-90.5 0,-84.5 6,-78.5 12,-78.5 12,-78.5 42,-78.5 42,-78.5 48,-78.5 54,-84.5 54,-90.5 54,-90.5 54,-102.5 54,-102.5 54,-108.5 48,-114.5 42,-114.5"/>
<text xml:space="preserve" text-anchor="middle" x="27" y="-91.45" font-family="Times,serif" font-size="14.00">A</text>
</g>
<!-- B -->
<g id="node2" class="node">
<title>B</title>
<path fill="none" stroke="green" d="M135.12,-114.5C135.12,-114.5 105.12,-114.5 105.12,-114.5 99.12,-114.5 93.12,-108.5 93.12,-102.5 93.12,-102.5 93.12,-90.5 93.12,-90.5 93.12,-84.5 99.12,-78.5 105.12,-78.5 105.12,-78.5 135.12,-78.5 135.12,-78.5 141.12,-78.5 147.12,-84.5 147.12,-90.5 147.12,-90.5 147.12,-102.5 147.12,-102.5 147.12,-108.5 141.12,-114.5 135.12,-114.5"/>
<text xml:space="preserve" text-anchor="middle" x="120.12" y="-91.45" font-family="Times,serif" font-size="14.00">B</text>
</g>
<!-- A&#45;&gt;B -->
<g id="edge1" class="edge">
<title>A&#45;&gt;B</title>
<path fill="none" stroke="black" d="M54.36,-96.5C66.45,-96.5 80.74,-96.5 92.83,-96.5"/>
</g>
<!-- F1 -->
<g id="node5" class="node">
<title>F1</title>
<path fill="none" stroke="gray" d="M228.25,-87.5C228.25,-87.5 198.25,-87.5 198.25,-87.5 192.25,-87.5 186.25,-81.5 186.25,-75.5 186.25,-75.5 186.25,-63.5 186.25,-63.5 186.25,-57.5 192.25,-51.5 198.25,-51.5 198.25,-51.5 228.25,-51.5 228.25,-51.5 234.25,-51.5 240.25,-57.5 240.25,-63.5 240.25,-63.5 240.25,-75.5 240.25,-75.5 240.25,-81.5 234.25,-87.5 228.25,-87.5"/>
<text xml:space="preserve" text-anchor="middle" x="213.25" y="-64.45" font-family="Times,serif" font-size="14.00">free</text>
</g>
<!-- B&#45;&gt;F1 -->
<g id="edge2" class="edge">
<title>B&#45;&gt;F1</title>
<path fill="none" stroke="black" d="M147.48,-88.69C159.57,-85.11 173.87,-80.87 185.95,-77.29"/>
</g>
<!-- C -->
<g id="node3" class="node">
<title>C</title>
<path fill="none" stroke="green" d="M408.25,-110.5C408.25,-110.5 378.25,-110.5 378.25,-110.5 372.25,-110.5 366.25,-104.5 366.25,-98.5 366.25,-98.5 366.25,-86.5 366.25,-86.5 366.25,-80.5 372.25,-74.5 378.25,-74.5 378.25,-74.5 408.25,-74.5 408.25,-74.5 414.25,-74.5 420.25,-80.5 420.25,-86.5 420.25,-86.5 420.25,-98.5 420.25,-98.5 420.25,-104.5 414.25,-110.5 408.25,-110.5"/>
<text xml:space="preserve" text-anchor="middle" x="393.25" y="-87.45" font-family="Times,serif" font-size="14.00">C</text>
</g>
<!-- F3 -->
<g id="node7" class="node">
<title>F3</title>
<path fill="none" stroke="gray" d="M498.25,-87.5C498.25,-87.5 468.25,-87.5 468.25,-87.5 462.25,-87.5 456.25,-81.5 456.25,-75.5 456.25,-75.5 456.25,-63.5 456.25,-63.5 456.25,-57.5 462.25,-51.5 468.25,-51.5 468.25,-51.5 498.25,-51.5 498.25,-51.5 504.25,-51.5 510.25,-57.5 510.25,-63.5 510.25,-63.5 510.25,-75.5 510.25,-75.5 510.25,-81.5 504.25,-87.5 498.25,-87.5"/>
<text xml:space="preserve" text-anchor="middle" x="483.25" y="-64.45" font-family="Times,serif" font-size="14.00">free</text>
</g>
<!-- C&#45;&gt;F3 -->
<g id="edge5" class="edge">
<title>C&#45;&gt;F3</title>
<path fill="none" stroke="black" d="M420.65,-85.6C431.79,-82.69 444.73,-79.31 455.87,-76.4"/>
</g>
<!-- D -->
<g id="node4" class="node">
<title>D</title>
<path fill="none" stroke="green" d="M588.25,-87.5C588.25,-87.5 558.25,-87.5 558.25,-87.5 552.25,-87.5 546.25,-81.5 546.25,-75.5 546.25,-75.5 546.25,-63.5 546.25,-63.5 546.25,-57.5 552.25,-51.5 558.25,-51.5 558.25,-51.5 588.25,-51.5 588.25,-51.5 594.25,-51.5 600.25,-57.5 600.25,-63.5 600.25,-63.5 600.25,-75.5 600.25,-75.5 600.25,-81.5 594.25,-87.5 588.25,-87.5"/>
<text xml:space="preserve" text-anchor="middle" x="573.25" y="-64.45" font-family="Times,serif" font-size="14.00">D</text>
</g>
<!-- F2 -->
<g id="node6" class="node">
<title>F2</title>
<path fill="none" stroke="gray" d="M318.25,-87.5C318.25,-87.5 288.25,-87.5 288.25,-87.5 282.25,-87.5 276.25,-81.5 276.25,-75.5 276.25,-75.5 276.25,-63.5 276.25,-63.5 276.25,-57.5 282.25,-51.5 288.25,-51.5 288.25,-51.5 318.25,-51.5 318.25,-51.5 324.25,-51.5 330.25,-57.5 330.25,-63.5 330.25,-63.5 330.25,-75.5 330.25,-75.5 330.25,-81.5 324.25,-87.5 318.25,-87.5"/>
<text xml:space="preserve" text-anchor="middle" x="303.25" y="-64.45" font-family="Times,serif" font-size="14.00">free</text>
</g>
<!-- F1&#45;&gt;F2 -->
<g id="edge3" class="edge">
<title>F1&#45;&gt;F2</title>
<path fill="none" stroke="black" d="M240.65,-63.25C251.79,-62.58 264.73,-62.58 275.87,-63.26"/>
</g>
<!-- F1&#45;&gt;F2 -->
<g id="edge8" class="edge">
<title>F1&#45;&gt;F2</title>
<path fill="none" stroke="black" d="M240.65,-75.75C248.14,-76.2 256.43,-76.35 264.45,-76.19"/>
<polygon fill="black" stroke="black" points="264.5,-79.69 274.35,-75.8 264.22,-72.7 264.5,-79.69"/>
</g>
<!-- F2&#45;&gt;C -->
<g id="edge4" class="edge">
<title>F2&#45;&gt;C</title>
<path fill="none" stroke="black" d="M330.65,-76.4C341.79,-79.31 354.73,-82.69 365.87,-85.6"/>
</g>
<!-- F2&#45;&gt;F3 -->
<g id="edge9" class="edge">
<title>F2&#45;&gt;F3</title>
<path fill="none" stroke="black" d="M330.48,-67.43C341.51,-66.66 354.5,-65.88 366.25,-65.5 390.24,-64.73 396.26,-64.73 420.25,-65.5 428.15,-65.75 436.6,-66.19 444.64,-66.68"/>
<polygon fill="black" stroke="black" points="444.3,-70.17 454.51,-67.33 444.76,-63.18 444.3,-70.17"/>
</g>
<!-- F3&#45;&gt;D -->
<g id="edge6" class="edge">
<title>F3&#45;&gt;D</title>
<path fill="none" stroke="black" d="M510.65,-69.5C521.79,-69.5 534.73,-69.5 545.87,-69.5"/>
</g>
<!-- free_head -->
<g id="node8" class="node">
<title>free_head</title>
<text xml:space="preserve" text-anchor="middle" x="120.12" y="-37.45" font-family="Times,serif" font-size="14.00">free_list</text>
</g>
<!-- free_head&#45;&gt;F1 -->
<g id="edge7" class="edge">
<title>free_head&#45;&gt;F1</title>
<path fill="none" stroke="black" d="M150.21,-51.12C158.09,-53.45 166.72,-56.01 174.99,-58.46"/>
<polygon fill="black" stroke="black" points="173.88,-61.78 184.46,-61.27 175.87,-55.07 173.88,-61.78"/>
</g>
</g>
</svg>
