<?xml version="1.0" encoding="UTF-8" standalone="no"?>
<!DOCTYPE svg PUBLIC "-//W3C//DTD SVG 1.1//EN"
 "http://www.w3.org/Graphics/SVG/1.1/DTD/svg11.dtd">
<!-- Generated by graphviz version 14.1.5 (20260411.2331)
 -->
<!-- Title: Before_GC Pages: 1 -->
<svg width="602pt" height="69pt"
 viewBox="0.00 0.00 602.00 69.00" xmlns="http://www.w3.org/2000/svg" xmlns:xlink="http://www.w3.org/1999/xlink">
<g id="graph0" class="graph" transform="scale(1 1) rotate(0) translate(4 64.5)">
<title>Before_GC</title>
<polygon fill="white" stroke="none" points="-4,4 -4,-64.5 598,-64.5 598,4 -4,4"/>
<text xml:space="preserve" text-anchor="middle" x="297" y="-7.2" font-family="Times,serif" font-size="14.00">Before Mark&#45;Sweep: Garbage (red) still occupies heap, no free list</text>
<!-- A -->
<g id="node1" class="node">
<title>A</title>
<path fill="none" stroke="green" d="M42,-60.5C42,-60.5 12,-60.5 12,-60.5 6,-60.5 0,-54.5 0,-48.5 0,-48.5 0,-36.5 0,-36.5 0,-30.5 6,-24.5 12,-24.5 12,-24.5 42,-24.5 42,-24.5 48,-24.5 54,-30.5 54,-36.5 54,-36.5 54,-48.5 54,-48.5 54,-54.5 48,-60.5 42,-60.5"/>
<text xml:space="preserve" text-anchor="middle" x="27" y="-37.45" font-family="Times,serif" font-size="14.00">A</text>
</g>
<!-- B -->
<g id="node2" class="node">
<title>B</title>
<path fill="none" stroke="green" d="M132,-60.5C132,-60.5 102,-60.5 102,-60.5 96,-60.5 90,-54.5 90,-48.5 90,-48.5 90,-36.5 90,-36.5 90,-30.5 96,-24.5 102,-24.5 102,-24.5 132,-24.5 132,-24.5 138,-24.5 144,-30.5 144,-36.5 144,-36.5 144,-48.5 144,-48.5 144,-54.5 138,-60.5 132,-60.5"/>
<text xml:space="preserve" text-anchor="middle" x="117" y="-37.45" font-family="Times,serif" font-size="14.00">B</text>
</g>
<!-- A&#45;&gt;B -->
<g id="edge1" class="edge">
<title>A&#45;&gt;B</title>
<path fill="none" stroke="black" d="M54.4,-42.5C65.54,-42.5 78.48,-42.5 89.62,-42.5"/>
</g>
<!-- X -->
<g id="node3" class="node">
<title>X</title>
<path fill="none" stroke="red" d="M222,-60.5C222,-60.5 192,-60.5 192,-60.5 186,-60.5 180,-54.5 180,-48.5 180,-48.5 180,-36.5 180,-36.5 180,-30.5 186,-24.5 192,-24.5 192,-24.5 222,-24.5 222,-24.5 228,-24.5 234,-30.5 234,-36.5 234,-36.5 234,-48.5 234,-48.5 234,-54.5 228,-60.5 222,-60.5"/>
<text xml:space="preserve" text-anchor="middle" x="207" y="-37.45" font-family="Times,serif" font-size="14.00">X</text>
</g>
<!-- B&#45;&gt;X -->
<g id="edge2" class="edge">
<title>B&#45;&gt;X</title>
<path fill="none" stroke="black" d="M144.4,-42.5C155.54,-42.5 168.48,-42.5 179.62,-42.5"/>
</g>
<!-- Y -->
<g id="node4" class="node">
<title>Y</title>
<path fill="none" stroke="red" d="M312,-60.5C312,-60.5 282,-60.5 282,-60.5 276,-60.5 270,-54.5 270,-48.5 270,-48.5 270,-36.5 270,-36.5 270,-30.5 276,-24.5 282,-24.5 282,-24.5 312,-24.5 312,-24.5 318,-24.5 324,-30.5 324,-36.5 324,-36.5 324,-48.5 324,-48.5 324,-54.5 318,-60.5 312,-60.5"/>
<text xml:space="preserve" text-anchor="middle" x="297" y="-37.45" font-family="Times,serif" font-size="14.00">Y</text>
</g>
<!-- X&#45;&gt;Y -->
<g id="edge3" class="edge">
<title>X&#45;&gt;Y</title>
<path fill="none" stroke="black" d="M234.4,-42.5C245.54,-42.5 258.48,-42.5 269.62,-42.5"/>
</g>
<!-- C -->
<g id="node5" class="node">
<title>C</title>
<path fill="none" stroke="green" d="M402,-60.5C402,-60.5 372,-60.5 372,-60.5 366,-60.5 360,-54.5 360,-48.5 360,-48.5 360,-36.5 360,-36.5 360,-30.5 366,-24.5 372,-24.5 372,-24.5 402,-24.5 402,-24.5 408,-24.5 414,-30.5 414,-36.5 414,-36.5 414,-48.5 414,-48.5 414,-54.5 408,-60.5 402,-60.5"/>
<text xml:space="preserve" text-anchor="middle" x="387" y="-37.45" font-family="Times,serif" font-size="14.00">C</text>
</g>
<!-- Y&#45;&gt;C -->
<g id="edge4" class="edge">
<title>Y&#45;&gt;C</title>
<path fill="none" stroke="black" d="M324.4,-42.5C335.54,-42.5 348.48,-42.5 359.62,-42.5"/>
</g>
<!-- Z -->
<g id="node6" class="node">
<title>Z</title>
<path fill="none" stroke="red" d="M492,-60.5C492,-60.5 462,-60.5 462,-60.5 456,-60.5 450,-54.5 450,-48.5 450,-48.5 450,-36.5 450,-36.5 450,-30.5 456,-24.5 462,-24.5 462,-24.5 492,-24.5 492,-24.5 498,-24.5 504,-30.5 504,-36.5 504,-36.5 504,-48.5 504,-48.5 504,-54.5 498,-60.5 492,-60.5"/>
<text xml:space="preserve" text-anchor="middle" x="477" y="-37.45" font-family="Times,serif" font-size="14.00">Z</text>
</g>
<!-- C&#45;&gt;Z -->
<g id="edge5" class="edge">
<title>C&#45;&gt;Z</title>
<path fill="none" stroke="black" d="M414.4,-42.5C425.54,-42.5 438.48,-42.5 449.62,-42.5"/>
</g>
<!-- D -->
<g id="node7" class="node">
<title>D</title>
<path fill="none" stroke="green" d="M582,-60.5C582,-60.5 552,-60.5 552,-60.5 546,-60.5 540,-54.5 540,-48.5 540,-48.5 540,-36.5 540,-36.5 540,-30.5 546,-24.5 552,-24.5 552,-24.5 582,-24.5 582,-24.5 588,-24.5 594,-30.5 594,-36.5 594,-36.5 594,-48.5 594,-48.5 594,-54.5 588,-60.5 582,-60.5"/>
<text xml:space="preserve" text-anchor="middle" x="567" y="-37.45" font-family="Times,serif" font-size="14.00">D</text>
</g>
<!-- Z&#45;&gt;D -->
<g id="edge6" class="edge">
<title>Z&#45;&gt;D</title>
<path fill="none" stroke="black" d="M504.4,-42.5C515.54,-42.5 528.48,-42.5 539.62,-42.5"/>
</g>
</g>
</svg>
