<?xml version="1.0" encoding="UTF-8" standalone="no"?>
<!DOCTYPE svg PUBLIC "-//W3C//DTD SVG 1.1//EN"
 "http://www.w3.org/Graphics/SVG/1.1/DTD/svg11.dtd">
<!-- Generated by graphviz version 2.36.0 (20140111.2315)
 -->
<!-- Title: Before_GC Pages: 1 -->
<svg width="602pt" height="66pt"
 viewBox="0.00 0.00 602.00 66.00" xmlns="http://www.w3.org/2000/svg" xmlns:xlink="http://www.w3.org/1999/xlink">
<g id="graph0" class="graph" transform="scale(1 1) rotate(0) translate(4 62)">
<title>Before_GC</title>
<polygon fill="white" stroke="none" points="-4,4 -4,-62 598,-62 598,4 -4,4"/>
<text text-anchor="middle" x="297" y="-6.8" font-family="Times,serif" font-size="14.00">Before Mark&#45;Sweep: Garbage (red) still occupies heap, no free list</text>
<!-- A -->
<g id="node1" class="node"><title>A</title>
<path fill="none" stroke="green" d="M42,-58C42,-58 12,-58 12,-58 6,-58 0,-52 0,-46 0,-46 0,-34 0,-34 0,-28 6,-22 12,-22 12,-22 42,-22 42,-22 48,-22 54,-28 54,-34 54,-34 54,-46 54,-46 54,-52 48,-58 42,-58"/>
<text text-anchor="middle" x="27" y="-35.8" font-family="Times,serif" font-size="14.00">A</text>
</g>
<!-- B -->
<g id="node2" class="node"><title>B</title>
<path fill="none" stroke="green" d="M132,-58C132,-58 102,-58 102,-58 96,-58 90,-52 90,-46 90,-46 90,-34 90,-34 90,-28 96,-22 102,-22 102,-22 132,-22 132,-22 138,-22 144,-28 144,-34 144,-34 144,-46 144,-46 144,-52 138,-58 132,-58"/>
<text text-anchor="middle" x="117" y="-35.8" font-family="Times,serif" font-size="14.00">B</text>
</g>
<!-- A&#45;&gt;B -->
<g id="edge1" class="edge"><title>A&#45;&gt;B</title>
<path fill="none" stroke="black" d="M54.4029,-40C65.6421,-40 78.7152,-40 89.919,-40"/>
</g>
<!-- X -->
<g id="node3" class="node"><title>X</title>
<path fill="none" stroke="red" d="M222,-58C222,-58 192,-58 192,-58 186,-58 180,-52 180,-46 180,-46 180,-34 180,-34 180,-28 186,-22 192,-22 192,-22 222,-22 222,-22 228,-22 234,-28 234,-34 234,-34 234,-46 234,-46 234,-52 228,-58 222,-58"/>
<text text-anchor="middle" x="207" y="-35.8" font-family="Times,serif" font-size="14.00">X</text>
</g>
<!-- B&#45;&gt;X -->
<g id="edge2" class="edge"><title>B&#45;&gt;X</title>
<path fill="none" stroke="black" d="M144.403,-40C155.642,-40 168.715,-40 179.919,-40"/>
</g>
<!-- Y -->
<g id="node4" class="node"><title>Y</title>
<path fill="none" stroke="red" d="M312,-58C312,-58 282,-58 282,-58 276,-58 270,-52 270,-46 270,-46 270,-34 270,-34 270,-28 276,-22 282,-22 282,-22 312,-22 312,-22 318,-22 324,-28 324,-34 324,-34 324,-46 324,-46 324,-52 318,-58 312,-58"/>
<text text-anchor="middle" x="297" y="-35.8" font-family="Times,serif" font-size="14.00">Y</text>
</g>
<!-- X&#45;&gt;Y -->
<g id="edge3" class="edge"><title>X&#45;&gt;Y</title>
<path fill="none" stroke="black" d="M234.403,-40C245.642,-40 258.715,-40 269.919,-40"/>
</g>
<!-- C -->
<g id="node5" class="node"><title>C</title>
<path fill="none" stroke="green" d="M402,-58C402,-58 372,-58 372,-58 366,-58 360,-52 360,-46 360,-46 360,-34 360,-34 360,-28 366,-22 372,-22 372,-22 402,-22 402,-22 408,-22 414,-28 414,-34 414,-34 414,-46 414,-46 414,-52 408,-58 402,-58"/>
<text text-anchor="middle" x="387" y="-35.8" font-family="Times,serif" font-size="14.00">C</text>
</g>
<!-- Y&#45;&gt;C -->
<g id="edge4" class="edge"><title>Y&#45;&gt;C</title>
<path fill="none" stroke="black" d="M324.403,-40C335.642,-40 348.715,-40 359.919,-40"/>
</g>
<!-- Z -->
<g id="node6" class="node"><title>Z</title>
<path fill="none" stroke="red" d="M492,-58C492,-58 462,-58 462,-58 456,-58 450,-52 450,-46 450,-46 450,-34 450,-34 450,-28 456,-22 462,-22 462,-22 492,-22 492,-22 498,-22 504,-28 504,-34 504,-34 504,-46 504,-46 504,-52 498,-58 492,-58"/>
<text text-anchor="middle" x="477" y="-35.8" font-family="Times,serif" font-size="14.00">Z</text>
</g>
<!-- C&#45;&gt;Z -->
<g id="edge5" class="edge"><title>C&#45;&gt;Z</title>
<path fill="none" stroke="black" d="M414.403,-40C425.642,-40 438.715,-40 449.919,-40"/>
</g>
<!-- D -->
<g id="node7" class="node"><title>D</title>
<path fill="none" stroke="green" d="M582,-58C582,-58 552,-58 552,-58 546,-58 540,-52 540,-46 540,-46 540,-34 540,-34 540,-28 546,-22 552,-22 552,-22 582,-22 582,-22 588,-22 594,-28 594,-34 594,-34 594,-46 594,-46 594,-52 588,-58 582,-58"/>
<text text-anchor="middle" x="567" y="-35.8" font-family="Times,serif" font-size="14.00">D</text>
</g>
<!-- Z&#45;&gt;D -->
<g id="edge6" class="edge"><title>Z&#45;&gt;D</title>
<path fill="none" stroke="black" d="M504.403,-40C515.642,-40 528.715,-40 539.919,-40"/>
</g>
</g>
</svg>
