<?xml version="1.0" encoding="UTF-8" standalone="no"?>
<!DOCTYPE svg PUBLIC "-//W3C//DTD SVG 1.1//EN"
 "http://www.w3.org/Graphics/SVG/1.1/DTD/svg11.dtd">
<!-- Generated by graphviz version 2.36.0 (20140111.2315)
 -->
<!-- Title: After_GC Pages: 1 -->
<svg width="610pt" height="120pt"
 viewBox="0.00 0.00 610.00 120.00" xmlns="http://www.w3.org/2000/svg" xmlns:xlink="http://www.w3.org/1999/xlink">
<g id="graph0" class="graph" transform="scale(1 1) rotate(0) translate(4 116)">
<title>After_GC</title>
<polygon fill="white" stroke="none" points="-4,4 -4,-116 606,-116 606,4 -4,4"/>
<text text-anchor="middle" x="301" y="-6.8" font-family="Times,serif" font-size="14.00">After Mark&#45;Sweep: Garbage reclaimed into free list (fragmented)</text>
<!-- A -->
<g id="node1" class="node"><title>A</title>
<path fill="none" stroke="green" d="M42,-112C42,-112 12,-112 12,-112 6,-112 0,-106 0,-100 0,-100 0,-88 0,-88 0,-82 6,-76 12,-76 12,-76 42,-76 42,-76 48,-76 54,-82 54,-88 54,-88 54,-100 54,-100 54,-106 48,-112 42,-112"/>
<text text-anchor="middle" x="27" y="-89.8" font-family="Times,serif" font-size="14.00">A</text>
</g>
<!-- B -->
<g id="node2" class="node"><title>B</title>
<path fill="none" stroke="green" d="M136,-112C136,-112 106,-112 106,-112 100,-112 94,-106 94,-100 94,-100 94,-88 94,-88 94,-82 100,-76 106,-76 106,-76 136,-76 136,-76 142,-76 148,-82 148,-88 148,-88 148,-100 148,-100 148,-106 142,-112 136,-112"/>
<text text-anchor="middle" x="121" y="-89.8" font-family="Times,serif" font-size="14.00">B</text>
</g>
<!-- A&#45;&gt;B -->
<g id="edge1" class="edge"><title>A&#45;&gt;B</title>
<path fill="none" stroke="black" d="M54.1174,-94C66.5483,-94 81.378,-94 93.8173,-94"/>
</g>
<!-- F1 -->
<g id="node5" class="node"><title>F1</title>
<path fill="none" stroke="gray" d="M230,-85C230,-85 200,-85 200,-85 194,-85 188,-79 188,-73 188,-73 188,-61 188,-61 188,-55 194,-49 200,-49 200,-49 230,-49 230,-49 236,-49 242,-55 242,-61 242,-61 242,-73 242,-73 242,-79 236,-85 230,-85"/>
<text text-anchor="middle" x="215" y="-62.8" font-family="Times,serif" font-size="14.00">free</text>
</g>
<!-- B&#45;&gt;F1 -->
<g id="edge2" class="edge"><title>B&#45;&gt;F1</title>
<path fill="none" stroke="black" d="M148.117,-86.3351C160.548,-82.6869 175.378,-78.3347 187.817,-74.6841"/>
</g>
<!-- C -->
<g id="node3" class="node"><title>C</title>
<path fill="none" stroke="green" d="M410,-108C410,-108 380,-108 380,-108 374,-108 368,-102 368,-96 368,-96 368,-84 368,-84 368,-78 374,-72 380,-72 380,-72 410,-72 410,-72 416,-72 422,-78 422,-84 422,-84 422,-96 422,-96 422,-102 416,-108 410,-108"/>
<text text-anchor="middle" x="395" y="-85.8" font-family="Times,serif" font-size="14.00">C</text>
</g>
<!-- F3 -->
<g id="node7" class="node"><title>F3</title>
<path fill="none" stroke="gray" d="M500,-85C500,-85 470,-85 470,-85 464,-85 458,-79 458,-73 458,-73 458,-61 458,-61 458,-55 464,-49 470,-49 470,-49 500,-49 500,-49 506,-49 512,-55 512,-61 512,-61 512,-73 512,-73 512,-79 506,-85 500,-85"/>
<text text-anchor="middle" x="485" y="-62.8" font-family="Times,serif" font-size="14.00">free</text>
</g>
<!-- C&#45;&gt;F3 -->
<g id="edge5" class="edge"><title>C&#45;&gt;F3</title>
<path fill="none" stroke="black" d="M422.403,-83.0992C433.642,-80.1617 446.715,-76.7449 457.919,-73.8166"/>
</g>
<!-- D -->
<g id="node4" class="node"><title>D</title>
<path fill="none" stroke="green" d="M590,-85C590,-85 560,-85 560,-85 554,-85 548,-79 548,-73 548,-73 548,-61 548,-61 548,-55 554,-49 560,-49 560,-49 590,-49 590,-49 596,-49 602,-55 602,-61 602,-61 602,-73 602,-73 602,-79 596,-85 590,-85"/>
<text text-anchor="middle" x="575" y="-62.8" font-family="Times,serif" font-size="14.00">D</text>
</g>
<!-- F2 -->
<g id="node6" class="node"><title>F2</title>
<path fill="none" stroke="gray" d="M320,-85C320,-85 290,-85 290,-85 284,-85 278,-79 278,-73 278,-73 278,-61 278,-61 278,-55 284,-49 290,-49 290,-49 320,-49 320,-49 326,-49 332,-55 332,-61 332,-61 332,-73 332,-73 332,-79 326,-85 320,-85"/>
<text text-anchor="middle" x="305" y="-62.8" font-family="Times,serif" font-size="14.00">free</text>
</g>
<!-- F1&#45;&gt;F2 -->
<g id="edge3" class="edge"><title>F1&#45;&gt;F2</title>
<path fill="none" stroke="black" d="M242.403,-60.7547C253.642,-60.0753 266.715,-60.0818 277.919,-60.7744"/>
</g>
<!-- F1&#45;&gt;F2 -->
<g id="edge8" class="edge"><title>F1&#45;&gt;F2</title>
<path fill="none" stroke="black" d="M242.403,-73.2453C250.393,-73.7283 259.311,-73.8646 267.824,-73.6542"/>
<polygon fill="black" stroke="black" points="268.076,-77.1468 277.919,-73.2256 267.779,-70.1531 268.076,-77.1468"/>
</g>
<!-- F2&#45;&gt;C -->
<g id="edge4" class="edge"><title>F2&#45;&gt;C</title>
<path fill="none" stroke="black" d="M332.403,-73.9008C343.642,-76.8383 356.715,-80.2551 367.919,-83.1834"/>
</g>
<!-- F2&#45;&gt;F3 -->
<g id="edge9" class="edge"><title>F2&#45;&gt;F3</title>
<path fill="none" stroke="black" d="M332.228,-64.9325C343.265,-64.16 356.249,-63.3787 368,-63 391.988,-62.227 398.012,-62.227 422,-63 430.354,-63.2692 439.332,-63.742 447.79,-64.2703"/>
<polygon fill="black" stroke="black" points="447.562,-67.7629 457.772,-64.9325 448.026,-60.7782 447.562,-67.7629"/>
</g>
<!-- F3&#45;&gt;D -->
<g id="edge6" class="edge"><title>F3&#45;&gt;D</title>
<path fill="none" stroke="black" d="M512.403,-67C523.642,-67 536.715,-67 547.919,-67"/>
</g>
<!-- free_head -->
<g id="node8" class="node"><title>free_head</title>
<text text-anchor="middle" x="121" y="-35.8" font-family="Times,serif" font-size="14.00">free_list</text>
</g>
<!-- free_head&#45;&gt;F1 -->
<g id="edge7" class="edge"><title>free_head&#45;&gt;F1</title>
<path fill="none" stroke="black" d="M151.87,-48.7661C160.333,-51.2498 169.629,-53.9782 178.395,-56.5507"/>
<polygon fill="black" stroke="black" points="177.412,-59.9098 187.993,-59.3675 179.383,-53.193 177.412,-59.9098"/>
</g>
</g>
</svg>
