<?xml version="1.0" encoding="UTF-8" standalone="no"?>
<!DOCTYPE svg PUBLIC "-//W3C//DTD SVG 1.1//EN"
 "http://www.w3.org/Graphics/SVG/1.1/DTD/svg11.dtd">
<!-- Generated by graphviz version 14.1.5 (20260411.2331)
 -->
<!-- Title: gc Pages: 1 -->
<svg width="454pt" height="267pt"
 viewBox="0.00 0.00 454.00 267.00" xmlns="http://www.w3.org/2000/svg" xmlns:xlink="http://www.w3.org/1999/xlink">
<g id="graph0" class="graph" transform="scale(1 1) rotate(0) translate(4 263)">
<title>gc</title>
<polygon fill="white" stroke="none" points="-4,4 -4,-263 450,-263 450,4 -4,4"/>
<g id="clust1" class="cluster">
<title>cluster_stack</title>
<polygon fill="lightgrey" stroke="black" points="8,-8 8,-251 78,-251 78,-8 8,-8"/>
<text xml:space="preserve" text-anchor="middle" x="43" y="-233.7" font-family="Times,serif" font-size="14.00">Stack</text>
</g>
<g id="clust2" class="cluster">
<title>cluster_heap</title>
<polygon fill="lightyellow" stroke="black" points="98,-116 98,-249 438,-249 438,-116 98,-116"/>
<text xml:space="preserve" text-anchor="middle" x="268" y="-231.7" font-family="Times,serif" font-size="14.00">Heap</text>
</g>
<!-- v4 -->
<g id="node1" class="node">
<title>v4</title>
<polygon fill="white" stroke="black" points="16,-127 16,-163 70,-163 70,-127 16,-127"/>
<text xml:space="preserve" text-anchor="middle" x="43" y="-140.2" font-family="Times,serif" font-size="14.00">v4</text>
</g>
<!-- A -->
<g id="node5" class="node">
<title>A</title>
<polygon fill="white" stroke="black" points="106,-125 106,-161 160,-161 160,-125 106,-125"/>
<text xml:space="preserve" text-anchor="middle" x="133" y="-138.2" font-family="Times,serif" font-size="14.00">A</text>
</g>
<!-- v4&#45;&gt;A -->
<g id="edge4" class="edge">
<title>v4&#45;&gt;A</title>
<path fill="none" stroke="black" d="M70.4,-144.4C77.89,-144.23 86.18,-144.04 94.2,-143.86"/>
<polygon fill="black" stroke="black" points="94.18,-147.36 104.1,-143.63 94.03,-140.36 94.18,-147.36"/>
</g>
<!-- v3 -->
<g id="node2" class="node">
<title>v3</title>
<polygon fill="white" stroke="black" points="16,-72 16,-108 70,-108 70,-72 16,-72"/>
<text xml:space="preserve" text-anchor="middle" x="43" y="-85.2" font-family="Times,serif" font-size="14.00">v3</text>
</g>
<!-- D -->
<g id="node8" class="node">
<title>D</title>
<polygon fill="white" stroke="black" points="286,-125 286,-161 340,-161 340,-125 286,-125"/>
<text xml:space="preserve" text-anchor="middle" x="313" y="-138.2" font-family="Times,serif" font-size="14.00">D</text>
</g>
<!-- v3&#45;&gt;D -->
<g id="edge3" class="edge">
<title>v3&#45;&gt;D</title>
<path fill="none" stroke="black" d="M70.18,-95.18C118.02,-104.64 219.66,-124.74 274.71,-135.62"/>
<polygon fill="black" stroke="black" points="273.73,-139 284.22,-137.51 275.09,-132.13 273.73,-139"/>
</g>
<!-- v2 -->
<g id="node3" class="node">
<title>v2</title>
<polygon fill="white" stroke="black" points="16,-17 16,-53 70,-53 70,-17 16,-17"/>
<text xml:space="preserve" text-anchor="middle" x="43" y="-30.2" font-family="Times,serif" font-size="14.00">v2</text>
</g>
<!-- v2&#45;&gt;D -->
<g id="edge2" class="edge">
<title>v2&#45;&gt;D</title>
<path fill="none" stroke="black" d="M70.4,-45.33C109.65,-60.73 185.68,-90.72 250,-117 258.19,-120.35 266.96,-123.99 275.26,-127.46"/>
<polygon fill="black" stroke="black" points="273.83,-130.66 284.4,-131.3 276.54,-124.2 273.83,-130.66"/>
</g>
<!-- V1 -->
<g id="node4" class="node">
<title>V1</title>
<polygon fill="white" stroke="black" points="16,-182 16,-218 70,-218 70,-182 16,-182"/>
<text xml:space="preserve" text-anchor="middle" x="43" y="-195.2" font-family="Times,serif" font-size="14.00">V1</text>
</g>
<!-- B -->
<g id="node6" class="node">
<title>B</title>
<polygon fill="white" stroke="black" points="106,-180 106,-216 160,-216 160,-180 106,-180"/>
<text xml:space="preserve" text-anchor="middle" x="133" y="-193.2" font-family="Times,serif" font-size="14.00">B</text>
</g>
<!-- V1&#45;&gt;B -->
<g id="edge1" class="edge">
<title>V1&#45;&gt;B</title>
<path fill="none" stroke="black" d="M70.4,-199.4C77.89,-199.23 86.18,-199.04 94.2,-198.86"/>
<polygon fill="black" stroke="black" points="94.18,-202.36 104.1,-198.63 94.03,-195.36 94.18,-202.36"/>
</g>
<!-- C -->
<g id="node7" class="node">
<title>C</title>
<polygon fill="white" stroke="black" points="196,-152 196,-188 250,-188 250,-152 196,-152"/>
<text xml:space="preserve" text-anchor="middle" x="223" y="-165.2" font-family="Times,serif" font-size="14.00">C</text>
</g>
<!-- B&#45;&gt;C -->
<g id="edge5" class="edge">
<title>B&#45;&gt;C</title>
<path fill="none" stroke="black" d="M160.4,-189.6C168.06,-187.16 176.57,-184.46 184.76,-181.85"/>
<polygon fill="black" stroke="black" points="185.71,-185.22 194.17,-178.85 183.58,-178.55 185.71,-185.22"/>
</g>
<!-- C&#45;&gt;D -->
<g id="edge6" class="edge">
<title>C&#45;&gt;D</title>
<path fill="none" stroke="black" d="M250.4,-161.9C258.06,-159.55 266.57,-156.94 274.76,-154.43"/>
<polygon fill="black" stroke="black" points="275.64,-157.82 284.17,-151.54 273.58,-151.13 275.64,-157.82"/>
</g>
<!-- E -->
<g id="node9" class="node">
<title>E</title>
<polygon fill="white" stroke="black" points="376,-125 376,-161 430,-161 430,-125 376,-125"/>
<text xml:space="preserve" text-anchor="middle" x="403" y="-138.2" font-family="Times,serif" font-size="14.00">E</text>
</g>
<!-- D&#45;&gt;E -->
<g id="edge7" class="edge">
<title>D&#45;&gt;E</title>
<path fill="none" stroke="black" d="M340.4,-136.75C347.89,-136.3 356.18,-136.15 364.2,-136.31"/>
<polygon fill="black" stroke="black" points="363.97,-139.8 374.1,-136.7 364.25,-132.81 363.97,-139.8"/>
</g>
<!-- E&#45;&gt;D -->
<g id="edge8" class="edge">
<title>E&#45;&gt;D</title>
<path fill="none" stroke="black" d="M375.62,-149.24C368.13,-149.7 359.84,-149.85 351.82,-149.69"/>
<polygon fill="black" stroke="black" points="352.04,-146.2 341.92,-149.3 351.77,-153.19 352.04,-146.2"/>
</g>
<!-- F -->
<g id="node10" class="node">
<title>F</title>
<polygon fill="white" stroke="black" points="286,-180 286,-216 340,-216 340,-180 286,-180"/>
<text xml:space="preserve" text-anchor="middle" x="313" y="-193.2" font-family="Times,serif" font-size="14.00">F</text>
</g>
<!-- F&#45;&gt;E -->
<g id="edge9" class="edge">
<title>F&#45;&gt;E</title>
<path fill="none" stroke="black" d="M340.4,-181.5C348.41,-176.49 357.34,-170.91 365.87,-165.58"/>
<polygon fill="black" stroke="black" points="367.71,-168.56 374.33,-160.29 364,-162.62 367.71,-168.56"/>
</g>
</g>
</svg>
