<?xml version="1.0" encoding="UTF-8" standalone="no"?>
<!DOCTYPE svg PUBLIC "-//W3C//DTD SVG 1.1//EN"
 "http://www.w3.org/Graphics/SVG/1.1/DTD/svg11.dtd">
<!-- Generated by graphviz version 2.36.0 (20140111.2315)
 -->
<!-- Title: gc Pages: 1 -->
<svg width="454pt" height="265pt"
 viewBox="0.00 0.00 454.00 265.00" xmlns="http://www.w3.org/2000/svg" xmlns:xlink="http://www.w3.org/1999/xlink">
<g id="graph0" class="graph" transform="scale(1 1) rotate(0) translate(4 261)">
<title>gc</title>
<polygon fill="white" stroke="none" points="-4,4 -4,-261 450,-261 450,4 -4,4"/>
<g id="clust1" class="cluster"><title>cluster_stack</title>
<polygon fill="lightgrey" stroke="black" points="8,-8 8,-249 78,-249 78,-8 8,-8"/>
<text text-anchor="middle" x="43" y="-233.8" font-family="Times,serif" font-size="14.00">Stack</text>
</g>
<g id="clust2" class="cluster"><title>cluster_heap</title>
<polygon fill="lightyellow" stroke="black" points="98,-116 98,-247 438,-247 438,-116 98,-116"/>
<text text-anchor="middle" x="268" y="-231.8" font-family="Times,serif" font-size="14.00">Heap</text>
</g>
<!-- v4 -->
<g id="node1" class="node"><title>v4</title>
<polygon fill="white" stroke="black" points="16,-182 16,-218 70,-218 70,-182 16,-182"/>
<text text-anchor="middle" x="43" y="-195.8" font-family="Times,serif" font-size="14.00">v4</text>
</g>
<!-- A -->
<g id="node5" class="node"><title>A</title>
<polygon fill="white" stroke="black" points="106,-180 106,-216 160,-216 160,-180 106,-180"/>
<text text-anchor="middle" x="133" y="-193.8" font-family="Times,serif" font-size="14.00">A</text>
</g>
<!-- v4&#45;&gt;A -->
<g id="edge4" class="edge"><title>v4&#45;&gt;A</title>
<path fill="none" stroke="black" d="M70.4029,-199.4C78.3932,-199.218 87.3106,-199.016 95.8241,-198.822"/>
<polygon fill="black" stroke="black" points="96.0011,-202.319 105.919,-198.593 95.842,-195.321 96.0011,-202.319"/>
</g>
<!-- v3 -->
<g id="node2" class="node"><title>v3</title>
<polygon fill="white" stroke="black" points="16,-72 16,-108 70,-108 70,-72 16,-72"/>
<text text-anchor="middle" x="43" y="-85.8" font-family="Times,serif" font-size="14.00">v3</text>
</g>
<!-- D -->
<g id="node8" class="node"><title>D</title>
<polygon fill="white" stroke="black" points="286,-180 286,-216 340,-216 340,-180 286,-180"/>
<text text-anchor="middle" x="313" y="-193.8" font-family="Times,serif" font-size="14.00">D</text>
</g>
<!-- v3&#45;&gt;D -->
<g id="edge3" class="edge"><title>v3&#45;&gt;D</title>
<path fill="none" stroke="black" d="M70.0069,-92.3335C110.728,-96.9101 190.98,-109.705 250,-143 263.917,-150.851 277.426,-162.24 288.263,-172.62"/>
<polygon fill="black" stroke="black" points="286.081,-175.385 295.649,-179.935 291.006,-170.411 286.081,-175.385"/>
</g>
<!-- v2 -->
<g id="node3" class="node"><title>v2</title>
<polygon fill="white" stroke="black" points="16,-17 16,-53 70,-53 70,-17 16,-17"/>
<text text-anchor="middle" x="43" y="-30.8" font-family="Times,serif" font-size="14.00">v2</text>
</g>
<!-- v2&#45;&gt;D -->
<g id="edge2" class="edge"><title>v2&#45;&gt;D</title>
<path fill="none" stroke="black" d="M70.3166,-40.0095C112.173,-49.0636 194.811,-71.4882 250,-116 272.452,-134.108 268.129,-147.359 286,-170 286.575,-170.729 287.166,-171.462 287.767,-172.196"/>
<polygon fill="black" stroke="black" points="285.318,-174.715 294.501,-179.999 290.617,-170.141 285.318,-174.715"/>
</g>
<!-- V1 -->
<g id="node4" class="node"><title>V1</title>
<polygon fill="white" stroke="black" points="16,-127 16,-163 70,-163 70,-127 16,-127"/>
<text text-anchor="middle" x="43" y="-140.8" font-family="Times,serif" font-size="14.00">V1</text>
</g>
<!-- B -->
<g id="node6" class="node"><title>B</title>
<polygon fill="white" stroke="black" points="106,-125 106,-161 160,-161 160,-125 106,-125"/>
<text text-anchor="middle" x="133" y="-138.8" font-family="Times,serif" font-size="14.00">B</text>
</g>
<!-- V1&#45;&gt;B -->
<g id="edge1" class="edge"><title>V1&#45;&gt;B</title>
<path fill="none" stroke="black" d="M70.4029,-144.4C78.3932,-144.218 87.3106,-144.016 95.8241,-143.822"/>
<polygon fill="black" stroke="black" points="96.0011,-147.319 105.919,-143.593 95.842,-140.321 96.0011,-147.319"/>
</g>
<!-- C -->
<g id="node7" class="node"><title>C</title>
<polygon fill="white" stroke="black" points="196,-153 196,-189 250,-189 250,-153 196,-153"/>
<text text-anchor="middle" x="223" y="-166.8" font-family="Times,serif" font-size="14.00">C</text>
</g>
<!-- B&#45;&gt;C -->
<g id="edge5" class="edge"><title>B&#45;&gt;C</title>
<path fill="none" stroke="black" d="M160.403,-151.401C168.569,-153.999 177.703,-156.905 186.385,-159.668"/>
<polygon fill="black" stroke="black" points="185.328,-163.005 195.919,-162.701 187.451,-156.334 185.328,-163.005"/>
</g>
<!-- C&#45;&gt;D -->
<g id="edge6" class="edge"><title>C&#45;&gt;D</title>
<path fill="none" stroke="black" d="M250.403,-179.101C258.481,-181.579 267.507,-184.349 276.105,-186.987"/>
<polygon fill="black" stroke="black" points="275.332,-190.411 285.919,-189.998 277.386,-183.719 275.332,-190.411"/>
</g>
<!-- E -->
<g id="node9" class="node"><title>E</title>
<polygon fill="white" stroke="black" points="376,-180 376,-216 430,-216 430,-180 376,-180"/>
<text text-anchor="middle" x="403" y="-193.8" font-family="Times,serif" font-size="14.00">E</text>
</g>
<!-- D&#45;&gt;E -->
<g id="edge7" class="edge"><title>D&#45;&gt;E</title>
<path fill="none" stroke="black" d="M340.403,-191.755C348.393,-191.272 357.311,-191.135 365.824,-191.346"/>
<polygon fill="black" stroke="black" points="365.779,-194.847 375.919,-191.774 366.076,-187.853 365.779,-194.847"/>
</g>
<!-- E&#45;&gt;D -->
<g id="edge8" class="edge"><title>E&#45;&gt;D</title>
<path fill="none" stroke="black" d="M375.919,-204.226C367.954,-204.718 359.044,-204.864 350.52,-204.663"/>
<polygon fill="black" stroke="black" points="350.539,-201.16 340.403,-204.245 350.25,-208.154 350.539,-201.16"/>
</g>
<!-- F -->
<g id="node10" class="node"><title>F</title>
<polygon fill="white" stroke="black" points="286,-125 286,-161 340,-161 340,-125 286,-125"/>
<text text-anchor="middle" x="313" y="-138.8" font-family="Times,serif" font-size="14.00">F</text>
</g>
<!-- F&#45;&gt;E -->
<g id="edge9" class="edge"><title>F&#45;&gt;E</title>
<path fill="none" stroke="black" d="M340.403,-159.502C348.832,-164.77 358.293,-170.683 367.224,-176.265"/>
<polygon fill="black" stroke="black" points="365.584,-179.367 375.919,-181.699 369.294,-173.431 365.584,-179.367"/>
</g>
</g>
</svg>
