<?xml version="1.0" encoding="UTF-8" standalone="no"?>
<!DOCTYPE svg PUBLIC "-//W3C//DTD SVG 1.1//EN"
 "http://www.w3.org/Graphics/SVG/1.1/DTD/svg11.dtd">
<!-- Generated by graphviz version 14.1.5 (20260411.2331)
 -->
<!-- Title: gc Pages: 1 -->
<svg width="454pt" height="242pt"
 viewBox="0.00 0.00 454.00 242.00" xmlns="http://www.w3.org/2000/svg" xmlns:xlink="http://www.w3.org/1999/xlink">
<g id="graph0" class="graph" transform="scale(1 1) rotate(0) translate(4 238)">
<title>gc</title>
<polygon fill="white" stroke="none" points="-4,4 -4,-238 450,-238 450,4 -4,4"/>
<g id="clust1" class="cluster">
<title>cluster_stack</title>
<polygon fill="lightgrey" stroke="black" points="8,-8 8,-196 78,-196 78,-8 8,-8"/>
<text xml:space="preserve" text-anchor="middle" x="43" y="-178.7" font-family="Times,serif" font-size="14.00">Stack</text>
</g>
<g id="clust2" class="cluster">
<title>cluster_heap</title>
<polygon fill="lightyellow" stroke="black" points="98,-93 98,-226 438,-226 438,-93 98,-93"/>
<text xml:space="preserve" text-anchor="middle" x="268" y="-208.7" font-family="Times,serif" font-size="14.00">Heap</text>
</g>
<!-- v3 -->
<g id="node1" class="node">
<title>v3</title>
<polygon fill="white" stroke="black" points="16,-72 16,-108 70,-108 70,-72 16,-72"/>
<text xml:space="preserve" text-anchor="middle" x="43" y="-85.2" font-family="Times,serif" font-size="14.00">v3</text>
</g>
<!-- D -->
<g id="node7" class="node">
<title>D</title>
<polygon fill="white" stroke="black" points="286,-102 286,-138 340,-138 340,-102 286,-102"/>
<text xml:space="preserve" text-anchor="middle" x="313" y="-115.2" font-family="Times,serif" font-size="14.00">D</text>
</g>
<!-- v3&#45;&gt;D -->
<g id="edge3" class="edge">
<title>v3&#45;&gt;D</title>
<path fill="none" stroke="black" d="M70.33,-89.56C93.89,-89.43 129.33,-89.9 160,-93 199.37,-96.98 243.88,-105.35 274.51,-111.72"/>
<polygon fill="black" stroke="black" points="273.55,-115.1 284.05,-113.74 275,-108.25 273.55,-115.1"/>
</g>
<!-- v2 -->
<g id="node2" class="node">
<title>v2</title>
<polygon fill="white" stroke="black" points="16,-17 16,-53 70,-53 70,-17 16,-17"/>
<text xml:space="preserve" text-anchor="middle" x="43" y="-30.2" font-family="Times,serif" font-size="14.00">v2</text>
</g>
<!-- v2&#45;&gt;D -->
<g id="edge2" class="edge">
<title>v2&#45;&gt;D</title>
<path fill="none" stroke="black" d="M70.33,-41.48C109.8,-51.42 186.47,-71.67 250,-94 258.27,-96.91 267.02,-100.35 275.26,-103.75"/>
<polygon fill="black" stroke="black" points="273.75,-106.91 284.32,-107.58 276.47,-100.47 273.75,-106.91"/>
</g>
<!-- V1 -->
<g id="node3" class="node">
<title>V1</title>
<polygon fill="white" stroke="black" points="16,-127 16,-163 70,-163 70,-127 16,-127"/>
<text xml:space="preserve" text-anchor="middle" x="43" y="-140.2" font-family="Times,serif" font-size="14.00">V1</text>
</g>
<!-- B -->
<g id="node5" class="node">
<title>B</title>
<polygon fill="white" stroke="black" points="106,-157 106,-193 160,-193 160,-157 106,-157"/>
<text xml:space="preserve" text-anchor="middle" x="133" y="-170.2" font-family="Times,serif" font-size="14.00">B</text>
</g>
<!-- V1&#45;&gt;B -->
<g id="edge1" class="edge">
<title>V1&#45;&gt;B</title>
<path fill="none" stroke="black" d="M70.4,-154C78.06,-156.61 86.57,-159.51 94.76,-162.3"/>
<polygon fill="black" stroke="black" points="93.59,-165.6 104.18,-165.52 95.85,-158.98 93.59,-165.6"/>
</g>
<!-- A -->
<g id="node4" class="node">
<title>A</title>
<polygon fill="white" stroke="black" points="106,-102 106,-138 160,-138 160,-102 106,-102"/>
<text xml:space="preserve" text-anchor="middle" x="133" y="-115.2" font-family="Times,serif" font-size="14.00">A</text>
</g>
<!-- C -->
<g id="node6" class="node">
<title>C</title>
<polygon fill="white" stroke="black" points="196,-129 196,-165 250,-165 250,-129 196,-129"/>
<text xml:space="preserve" text-anchor="middle" x="223" y="-142.2" font-family="Times,serif" font-size="14.00">C</text>
</g>
<!-- B&#45;&gt;C -->
<g id="edge4" class="edge">
<title>B&#45;&gt;C</title>
<path fill="none" stroke="black" d="M160.4,-166.6C168.06,-164.16 176.57,-161.46 184.76,-158.85"/>
<polygon fill="black" stroke="black" points="185.71,-162.22 194.17,-155.85 183.58,-155.55 185.71,-162.22"/>
</g>
<!-- C&#45;&gt;D -->
<g id="edge5" class="edge">
<title>C&#45;&gt;D</title>
<path fill="none" stroke="black" d="M250.4,-138.9C258.06,-136.55 266.57,-133.94 274.76,-131.43"/>
<polygon fill="black" stroke="black" points="275.64,-134.82 284.17,-128.54 273.58,-128.13 275.64,-134.82"/>
</g>
<!-- E -->
<g id="node8" class="node">
<title>E</title>
<polygon fill="white" stroke="black" points="376,-102 376,-138 430,-138 430,-102 376,-102"/>
<text xml:space="preserve" text-anchor="middle" x="403" y="-115.2" font-family="Times,serif" font-size="14.00">E</text>
</g>
<!-- D&#45;&gt;E -->
<g id="edge6" class="edge">
<title>D&#45;&gt;E</title>
<path fill="none" stroke="black" d="M340.4,-113.75C347.89,-113.3 356.18,-113.15 364.2,-113.31"/>
<polygon fill="black" stroke="black" points="363.97,-116.8 374.1,-113.7 364.25,-109.81 363.97,-116.8"/>
</g>
<!-- E&#45;&gt;D -->
<g id="edge7" class="edge">
<title>E&#45;&gt;D</title>
<path fill="none" stroke="black" d="M375.62,-126.24C368.13,-126.7 359.84,-126.85 351.82,-126.69"/>
<polygon fill="black" stroke="black" points="352.04,-123.2 341.92,-126.3 351.77,-130.19 352.04,-123.2"/>
</g>
<!-- F -->
<g id="node9" class="node">
<title>F</title>
<polygon fill="white" stroke="black" points="286,-157 286,-193 340,-193 340,-157 286,-157"/>
<text xml:space="preserve" text-anchor="middle" x="313" y="-170.2" font-family="Times,serif" font-size="14.00">F</text>
</g>
<!-- F&#45;&gt;E -->
<g id="edge8" class="edge">
<title>F&#45;&gt;E</title>
<path fill="none" stroke="black" d="M340.4,-158.5C348.41,-153.49 357.34,-147.91 365.87,-142.58"/>
<polygon fill="black" stroke="black" points="367.71,-145.56 374.33,-137.29 364,-139.62 367.71,-145.56"/>
</g>
</g>
</svg>
