<?xml version="1.0" encoding="UTF-8" standalone="no"?>
<!DOCTYPE svg PUBLIC "-//W3C//DTD SVG 1.1//EN"
 "http://www.w3.org/Graphics/SVG/1.1/DTD/svg11.dtd">
<!-- Generated by graphviz version 2.36.0 (20140111.2315)
 -->
<!-- Title: gc Pages: 1 -->
<svg width="454pt" height="257pt"
 viewBox="0.00 0.00 454.00 257.00" xmlns="http://www.w3.org/2000/svg" xmlns:xlink="http://www.w3.org/1999/xlink">
<g id="graph0" class="graph" transform="scale(1 1) rotate(0) translate(4 253)">
<title>gc</title>
<polygon fill="white" stroke="none" points="-4,4 -4,-253 450,-253 450,4 -4,4"/>
<g id="clust1" class="cluster"><title>cluster_stack</title>
<polygon fill="lightgrey" stroke="black" points="8,-8 8,-194 78,-194 78,-8 8,-8"/>
<text text-anchor="middle" x="43" y="-178.8" font-family="Times,serif" font-size="14.00">Stack</text>
</g>
<g id="clust2" class="cluster"><title>cluster_heap</title>
<polygon fill="lightyellow" stroke="black" points="98,-110 98,-241 438,-241 438,-110 98,-110"/>
<text text-anchor="middle" x="268" y="-225.8" font-family="Times,serif" font-size="14.00">Heap</text>
</g>
<!-- v3 -->
<g id="node1" class="node"><title>v3</title>
<polygon fill="white" stroke="black" points="16,-72 16,-108 70,-108 70,-72 16,-72"/>
<text text-anchor="middle" x="43" y="-85.8" font-family="Times,serif" font-size="14.00">v3</text>
</g>
<!-- D -->
<g id="node7" class="node"><title>D</title>
<polygon fill="white" stroke="black" points="286,-174 286,-210 340,-210 340,-174 286,-174"/>
<text text-anchor="middle" x="313" y="-187.8" font-family="Times,serif" font-size="14.00">D</text>
</g>
<!-- v3&#45;&gt;D -->
<g id="edge3" class="edge"><title>v3&#45;&gt;D</title>
<path fill="none" stroke="black" d="M70.1014,-91.2157C110.951,-94.1183 191.372,-103.926 250,-137 263.917,-144.851 277.426,-156.24 288.263,-166.62"/>
<polygon fill="black" stroke="black" points="286.081,-169.385 295.649,-173.935 291.006,-164.411 286.081,-169.385"/>
</g>
<!-- v2 -->
<g id="node2" class="node"><title>v2</title>
<polygon fill="white" stroke="black" points="16,-17 16,-53 70,-53 70,-17 16,-17"/>
<text text-anchor="middle" x="43" y="-30.8" font-family="Times,serif" font-size="14.00">v2</text>
</g>
<!-- v2&#45;&gt;D -->
<g id="edge2" class="edge"><title>v2&#45;&gt;D</title>
<path fill="none" stroke="black" d="M70.2677,-39.3334C112.056,-47.3198 194.602,-67.6683 250,-111 272.429,-128.544 268.261,-141.725 286,-164 286.579,-164.726 287.172,-165.457 287.776,-166.19"/>
<polygon fill="black" stroke="black" points="285.332,-168.714 294.526,-173.979 290.622,-164.13 285.332,-168.714"/>
</g>
<!-- V1 -->
<g id="node3" class="node"><title>V1</title>
<polygon fill="white" stroke="black" points="16,-127 16,-163 70,-163 70,-127 16,-127"/>
<text text-anchor="middle" x="43" y="-140.8" font-family="Times,serif" font-size="14.00">V1</text>
</g>
<!-- B -->
<g id="node5" class="node"><title>B</title>
<polygon fill="white" stroke="black" points="106,-119 106,-155 160,-155 160,-119 106,-119"/>
<text text-anchor="middle" x="133" y="-132.8" font-family="Times,serif" font-size="14.00">B</text>
</g>
<!-- V1&#45;&gt;B -->
<g id="edge1" class="edge"><title>V1&#45;&gt;B</title>
<path fill="none" stroke="black" d="M70.4029,-142.6C78.3932,-141.873 87.3106,-141.063 95.8241,-140.289"/>
<polygon fill="black" stroke="black" points="96.277,-143.762 105.919,-139.371 95.6431,-136.791 96.277,-143.762"/>
</g>
<!-- A -->
<g id="node4" class="node"><title>A</title>
<polygon fill="white" stroke="black" points="106,-174 106,-210 160,-210 160,-174 106,-174"/>
<text text-anchor="middle" x="133" y="-187.8" font-family="Times,serif" font-size="14.00">A</text>
</g>
<!-- C -->
<g id="node6" class="node"><title>C</title>
<polygon fill="white" stroke="black" points="196,-146 196,-182 250,-182 250,-146 196,-146"/>
<text text-anchor="middle" x="223" y="-159.8" font-family="Times,serif" font-size="14.00">C</text>
</g>
<!-- B&#45;&gt;C -->
<g id="edge4" class="edge"><title>B&#45;&gt;C</title>
<path fill="none" stroke="black" d="M160.403,-145.101C168.481,-147.579 177.507,-150.349 186.105,-152.987"/>
<polygon fill="black" stroke="black" points="185.332,-156.411 195.919,-155.998 187.386,-149.719 185.332,-156.411"/>
</g>
<!-- C&#45;&gt;D -->
<g id="edge5" class="edge"><title>C&#45;&gt;D</title>
<path fill="none" stroke="black" d="M250.403,-172.401C258.569,-174.999 267.703,-177.905 276.385,-180.668"/>
<polygon fill="black" stroke="black" points="275.328,-184.005 285.919,-183.701 277.451,-177.334 275.328,-184.005"/>
</g>
<!-- E -->
<g id="node8" class="node"><title>E</title>
<polygon fill="white" stroke="black" points="376,-174 376,-210 430,-210 430,-174 376,-174"/>
<text text-anchor="middle" x="403" y="-187.8" font-family="Times,serif" font-size="14.00">E</text>
</g>
<!-- D&#45;&gt;E -->
<g id="edge6" class="edge"><title>D&#45;&gt;E</title>
<path fill="none" stroke="black" d="M340.403,-185.755C348.393,-185.272 357.311,-185.135 365.824,-185.346"/>
<polygon fill="black" stroke="black" points="365.779,-188.847 375.919,-185.774 366.076,-181.853 365.779,-188.847"/>
</g>
<!-- E&#45;&gt;D -->
<g id="edge7" class="edge"><title>E&#45;&gt;D</title>
<path fill="none" stroke="black" d="M375.919,-198.226C367.954,-198.718 359.044,-198.864 350.52,-198.663"/>
<polygon fill="black" stroke="black" points="350.539,-195.16 340.403,-198.245 350.25,-202.154 350.539,-195.16"/>
</g>
<!-- F -->
<g id="node9" class="node"><title>F</title>
<polygon fill="white" stroke="black" points="286,-119 286,-155 340,-155 340,-119 286,-119"/>
<text text-anchor="middle" x="313" y="-132.8" font-family="Times,serif" font-size="14.00">F</text>
</g>
<!-- F&#45;&gt;E -->
<g id="edge8" class="edge"><title>F&#45;&gt;E</title>
<path fill="none" stroke="black" d="M340.403,-153.502C348.832,-158.77 358.293,-164.683 367.224,-170.265"/>
<polygon fill="black" stroke="black" points="365.584,-173.367 375.919,-175.699 369.294,-167.431 365.584,-173.367"/>
</g>
</g>
</svg>
