<?xml version="1.0" encoding="UTF-8" standalone="no"?>
<!DOCTYPE svg PUBLIC "-//W3C//DTD SVG 1.1//EN"
 "http://www.w3.org/Graphics/SVG/1.1/DTD/svg11.dtd">
<!-- Generated by graphviz version 2.36.0 (20140111.2315)
 -->
<!-- Title: gc Pages: 1 -->
<svg width="454pt" height="210pt"
 viewBox="0.00 0.00 454.00 210.00" xmlns="http://www.w3.org/2000/svg" xmlns:xlink="http://www.w3.org/1999/xlink">
<g id="graph0" class="graph" transform="scale(1 1) rotate(0) translate(4 206)">
<title>gc</title>
<polygon fill="white" stroke="none" points="-4,4 -4,-206 450,-206 450,4 -4,4"/>
<g id="clust1" class="cluster"><title>cluster_stack</title>
<polygon fill="lightgrey" stroke="black" points="8,-8 8,-194 78,-194 78,-8 8,-8"/>
<text text-anchor="middle" x="43" y="-178.8" font-family="Times,serif" font-size="14.00">Stack</text>
</g>
<g id="clust2" class="cluster"><title>cluster_heap</title>
<polygon fill="lightyellow" stroke="black" points="98,-55 98,-186 438,-186 438,-55 98,-55"/>
<text text-anchor="middle" x="268" y="-170.8" font-family="Times,serif" font-size="14.00">Heap</text>
</g>
<!-- v3 -->
<g id="node1" class="node"><title>v3</title>
<polygon fill="white" stroke="black" points="16,-72 16,-108 70,-108 70,-72 16,-72"/>
<text text-anchor="middle" x="43" y="-85.8" font-family="Times,serif" font-size="14.00">v3</text>
</g>
<!-- D -->
<g id="node6" class="node"><title>D</title>
<polygon fill="white" stroke="black" points="286,-119 286,-155 340,-155 340,-119 286,-119"/>
<text text-anchor="middle" x="313" y="-132.8" font-family="Times,serif" font-size="14.00">D</text>
</g>
<!-- v3&#45;&gt;D -->
<g id="edge3" class="edge"><title>v3&#45;&gt;D</title>
<path fill="none" stroke="black" d="M70.1452,-89.936C109.71,-90.418 186.872,-93.6283 250,-110 258.835,-112.291 268.022,-115.681 276.532,-119.29"/>
<polygon fill="black" stroke="black" points="275.238,-122.546 285.797,-123.412 278.083,-116.15 275.238,-122.546"/>
</g>
<!-- v2 -->
<g id="node2" class="node"><title>v2</title>
<polygon fill="white" stroke="black" points="16,-17 16,-53 70,-53 70,-17 16,-17"/>
<text text-anchor="middle" x="43" y="-30.8" font-family="Times,serif" font-size="14.00">v2</text>
</g>
<!-- v2&#45;&gt;D -->
<g id="edge2" class="edge"><title>v2&#45;&gt;D</title>
<path fill="none" stroke="black" d="M70.3074,-39.9124C110.41,-48.0005 188.645,-66.1593 250,-95 260.45,-99.9121 271.111,-106.471 280.579,-112.943"/>
<polygon fill="black" stroke="black" points="278.71,-115.907 288.899,-118.812 282.745,-110.187 278.71,-115.907"/>
</g>
<!-- V1 -->
<g id="node3" class="node"><title>V1</title>
<polygon fill="white" stroke="black" points="16,-127 16,-163 70,-163 70,-127 16,-127"/>
<text text-anchor="middle" x="43" y="-140.8" font-family="Times,serif" font-size="14.00">V1</text>
</g>
<!-- B -->
<g id="node4" class="node"><title>B</title>
<polygon fill="white" stroke="black" points="106,-119 106,-155 160,-155 160,-119 106,-119"/>
<text text-anchor="middle" x="133" y="-132.8" font-family="Times,serif" font-size="14.00">B</text>
</g>
<!-- V1&#45;&gt;B -->
<g id="edge1" class="edge"><title>V1&#45;&gt;B</title>
<path fill="none" stroke="black" d="M70.4029,-142.6C78.3932,-141.873 87.3106,-141.063 95.8241,-140.289"/>
<polygon fill="black" stroke="black" points="96.277,-143.762 105.919,-139.371 95.6431,-136.791 96.277,-143.762"/>
</g>
<!-- C -->
<g id="node5" class="node"><title>C</title>
<polygon fill="white" stroke="black" points="196,-119 196,-155 250,-155 250,-119 196,-119"/>
<text text-anchor="middle" x="223" y="-132.8" font-family="Times,serif" font-size="14.00">C</text>
</g>
<!-- B&#45;&gt;C -->
<g id="edge4" class="edge"><title>B&#45;&gt;C</title>
<path fill="none" stroke="black" d="M160.403,-137C168.393,-137 177.311,-137 185.824,-137"/>
<polygon fill="black" stroke="black" points="185.919,-140.5 195.919,-137 185.919,-133.5 185.919,-140.5"/>
</g>
<!-- C&#45;&gt;D -->
<g id="edge5" class="edge"><title>C&#45;&gt;D</title>
<path fill="none" stroke="black" d="M250.403,-137C258.393,-137 267.311,-137 275.824,-137"/>
<polygon fill="black" stroke="black" points="275.919,-140.5 285.919,-137 275.919,-133.5 275.919,-140.5"/>
</g>
<!-- E -->
<g id="node7" class="node"><title>E</title>
<polygon fill="white" stroke="black" points="376,-119 376,-155 430,-155 430,-119 376,-119"/>
<text text-anchor="middle" x="403" y="-132.8" font-family="Times,serif" font-size="14.00">E</text>
</g>
<!-- D&#45;&gt;E -->
<g id="edge6" class="edge"><title>D&#45;&gt;E</title>
<path fill="none" stroke="black" d="M340.403,-130.755C348.393,-130.272 357.311,-130.135 365.824,-130.346"/>
<polygon fill="black" stroke="black" points="365.779,-133.847 375.919,-130.774 366.076,-126.853 365.779,-133.847"/>
</g>
<!-- E&#45;&gt;D -->
<g id="edge7" class="edge"><title>E&#45;&gt;D</title>
<path fill="none" stroke="black" d="M375.919,-143.226C367.954,-143.718 359.044,-143.864 350.52,-143.663"/>
<polygon fill="black" stroke="black" points="350.539,-140.16 340.403,-143.245 350.25,-147.154 350.539,-140.16"/>
</g>
<!-- F -->
<g id="node8" class="node"><title>F</title>
<polygon fill="white" stroke="black" points="286,-64 286,-100 340,-100 340,-64 286,-64"/>
<text text-anchor="middle" x="313" y="-77.8" font-family="Times,serif" font-size="14.00">F</text>
</g>
<!-- F&#45;&gt;E -->
<g id="edge8" class="edge"><title>F&#45;&gt;E</title>
<path fill="none" stroke="black" d="M340.403,-98.5018C348.832,-103.77 358.293,-109.683 367.224,-115.265"/>
<polygon fill="black" stroke="black" points="365.584,-118.367 375.919,-120.699 369.294,-112.431 365.584,-118.367"/>
</g>
</g>
</svg>
