<?xml version="1.0" encoding="UTF-8" standalone="no"?>
<!DOCTYPE svg PUBLIC "-//W3C//DTD SVG 1.1//EN"
 "http://www.w3.org/Graphics/SVG/1.1/DTD/svg11.dtd">
<!-- Generated by graphviz version 14.1.5 (20260411.2331)
 -->
<!-- Title: gc Pages: 1 -->
<svg width="454pt" height="212pt"
 viewBox="0.00 0.00 454.00 212.00" xmlns="http://www.w3.org/2000/svg" xmlns:xlink="http://www.w3.org/1999/xlink">
<g id="graph0" class="graph" transform="scale(1 1) rotate(0) translate(4 208)">
<title>gc</title>
<polygon fill="white" stroke="none" points="-4,4 -4,-208 450,-208 450,4 -4,4"/>
<g id="clust1" class="cluster">
<title>cluster_stack</title>
<polygon fill="lightgrey" stroke="black" points="8,-8 8,-196 78,-196 78,-8 8,-8"/>
<text xml:space="preserve" text-anchor="middle" x="43" y="-178.7" font-family="Times,serif" font-size="14.00">Stack</text>
</g>
<g id="clust2" class="cluster">
<title>cluster_heap</title>
<polygon fill="lightyellow" stroke="black" points="98,-63 98,-196 438,-196 438,-63 98,-63"/>
<text xml:space="preserve" text-anchor="middle" x="268" y="-178.7" font-family="Times,serif" font-size="14.00">Heap</text>
</g>
<!-- v3 -->
<g id="node1" class="node">
<title>v3</title>
<polygon fill="white" stroke="black" points="16,-72 16,-108 70,-108 70,-72 16,-72"/>
<text xml:space="preserve" text-anchor="middle" x="43" y="-85.2" font-family="Times,serif" font-size="14.00">v3</text>
</g>
<!-- D -->
<g id="node6" class="node">
<title>D</title>
<polygon fill="white" stroke="black" points="286,-72 286,-108 340,-108 340,-72 286,-72"/>
<text xml:space="preserve" text-anchor="middle" x="313" y="-85.2" font-family="Times,serif" font-size="14.00">D</text>
</g>
<!-- v3&#45;&gt;D -->
<g id="edge3" class="edge">
<title>v3&#45;&gt;D</title>
<path fill="none" stroke="black" d="M70.18,-90C117.92,-90 219.23,-90 274.36,-90"/>
<polygon fill="black" stroke="black" points="274.2,-93.5 284.2,-90 274.2,-86.5 274.2,-93.5"/>
</g>
<!-- v2 -->
<g id="node2" class="node">
<title>v2</title>
<polygon fill="white" stroke="black" points="16,-17 16,-53 70,-53 70,-17 16,-17"/>
<text xml:space="preserve" text-anchor="middle" x="43" y="-30.2" font-family="Times,serif" font-size="14.00">v2</text>
</g>
<!-- v2&#45;&gt;D -->
<g id="edge2" class="edge">
<title>v2&#45;&gt;D</title>
<path fill="none" stroke="black" d="M70.18,-40.37C118.02,-50.19 219.66,-71.05 274.71,-82.35"/>
<polygon fill="black" stroke="black" points="273.73,-85.72 284.23,-84.3 275.13,-78.86 273.73,-85.72"/>
</g>
<!-- V1 -->
<g id="node3" class="node">
<title>V1</title>
<polygon fill="white" stroke="black" points="16,-127 16,-163 70,-163 70,-127 16,-127"/>
<text xml:space="preserve" text-anchor="middle" x="43" y="-140.2" font-family="Times,serif" font-size="14.00">V1</text>
</g>
<!-- B -->
<g id="node4" class="node">
<title>B</title>
<polygon fill="white" stroke="black" points="106,-123 106,-159 160,-159 160,-123 106,-123"/>
<text xml:space="preserve" text-anchor="middle" x="133" y="-136.2" font-family="Times,serif" font-size="14.00">B</text>
</g>
<!-- V1&#45;&gt;B -->
<g id="edge1" class="edge">
<title>V1&#45;&gt;B</title>
<path fill="none" stroke="black" d="M70.4,-143.8C77.89,-143.46 86.18,-143.08 94.2,-142.72"/>
<polygon fill="black" stroke="black" points="94.27,-146.22 104.1,-142.27 93.96,-139.23 94.27,-146.22"/>
</g>
<!-- C -->
<g id="node5" class="node">
<title>C</title>
<polygon fill="white" stroke="black" points="196,-121 196,-157 250,-157 250,-121 196,-121"/>
<text xml:space="preserve" text-anchor="middle" x="223" y="-134.2" font-family="Times,serif" font-size="14.00">C</text>
</g>
<!-- B&#45;&gt;C -->
<g id="edge4" class="edge">
<title>B&#45;&gt;C</title>
<path fill="none" stroke="black" d="M160.4,-140.4C167.89,-140.23 176.18,-140.04 184.2,-139.86"/>
<polygon fill="black" stroke="black" points="184.18,-143.36 194.1,-139.63 184.03,-136.36 184.18,-143.36"/>
</g>
<!-- C&#45;&gt;D -->
<g id="edge5" class="edge">
<title>C&#45;&gt;D</title>
<path fill="none" stroke="black" d="M250.4,-124.3C258.32,-119.89 267.15,-114.97 275.59,-110.27"/>
<polygon fill="black" stroke="black" points="277.26,-113.35 284.29,-105.43 273.85,-107.23 277.26,-113.35"/>
</g>
<!-- E -->
<g id="node7" class="node">
<title>E</title>
<polygon fill="white" stroke="black" points="376,-72 376,-108 430,-108 430,-72 376,-72"/>
<text xml:space="preserve" text-anchor="middle" x="403" y="-85.2" font-family="Times,serif" font-size="14.00">E</text>
</g>
<!-- D&#45;&gt;E -->
<g id="edge6" class="edge">
<title>D&#45;&gt;E</title>
<path fill="none" stroke="black" d="M340.4,-83.75C347.89,-83.3 356.18,-83.15 364.2,-83.31"/>
<polygon fill="black" stroke="black" points="363.97,-86.8 374.1,-83.7 364.25,-79.81 363.97,-86.8"/>
</g>
<!-- E&#45;&gt;D -->
<g id="edge7" class="edge">
<title>E&#45;&gt;D</title>
<path fill="none" stroke="black" d="M375.62,-96.24C368.13,-96.7 359.84,-96.85 351.82,-96.69"/>
<polygon fill="black" stroke="black" points="352.04,-93.2 341.92,-96.3 351.77,-100.19 352.04,-93.2"/>
</g>
<!-- F -->
<g id="node8" class="node">
<title>F</title>
<polygon fill="white" stroke="black" points="286,-127 286,-163 340,-163 340,-127 286,-127"/>
<text xml:space="preserve" text-anchor="middle" x="313" y="-140.2" font-family="Times,serif" font-size="14.00">F</text>
</g>
<!-- F&#45;&gt;E -->
<g id="edge8" class="edge">
<title>F&#45;&gt;E</title>
<path fill="none" stroke="black" d="M340.4,-128.5C348.41,-123.49 357.34,-117.91 365.87,-112.58"/>
<polygon fill="black" stroke="black" points="367.71,-115.56 374.33,-107.29 364,-109.62 367.71,-115.56"/>
</g>
</g>
</svg>
