<?xml version="1.0" encoding="UTF-8" standalone="no"?>
<!DOCTYPE svg PUBLIC "-//W3C//DTD SVG 1.1//EN"
 "http://www.w3.org/Graphics/SVG/1.1/DTD/svg11.dtd">
<!-- Generated by graphviz version 2.36.0 (20140111.2315)
 -->
<!-- Title: gc Pages: 1 -->
<svg width="364pt" height="210pt"
 viewBox="0.00 0.00 364.00 210.00" xmlns="http://www.w3.org/2000/svg" xmlns:xlink="http://www.w3.org/1999/xlink">
<g id="graph0" class="graph" transform="scale(1 1) rotate(0) translate(4 206)">
<title>gc</title>
<polygon fill="white" stroke="none" points="-4,4 -4,-206 360,-206 360,4 -4,4"/>
<g id="clust1" class="cluster"><title>cluster_stack</title>
<polygon fill="lightgrey" stroke="black" points="8,-8 8,-194 78,-194 78,-8 8,-8"/>
<text text-anchor="middle" x="43" y="-178.8" font-family="Times,serif" font-size="14.00">Stack</text>
</g>
<g id="clust2" class="cluster"><title>cluster_heap</title>
<polygon fill="lightyellow" stroke="black" points="98,-110 98,-186 348,-186 348,-110 98,-110"/>
<text text-anchor="middle" x="223" y="-170.8" font-family="Times,serif" font-size="14.00">Heap</text>
</g>
<!-- v3 -->
<g id="node1" class="node"><title>v3</title>
<polygon fill="white" stroke="black" points="16,-72 16,-108 70,-108 70,-72 16,-72"/>
<text text-anchor="middle" x="43" y="-85.8" font-family="Times,serif" font-size="14.00">v3</text>
</g>
<!-- D -->
<g id="node6" class="node"><title>D</title>
<polygon fill="white" stroke="black" points="286,-119 286,-155 340,-155 340,-119 286,-119"/>
<text text-anchor="middle" x="313" y="-132.8" font-family="Times,serif" font-size="14.00">D</text>
</g>
<!-- v3&#45;&gt;D -->
<g id="edge3" class="edge"><title>v3&#45;&gt;D</title>
<path fill="none" stroke="black" d="M70.1707,-89.6637C109.768,-89.7659 186.972,-92.3625 250,-109 258.878,-111.343 268.081,-114.846 276.594,-118.587"/>
<polygon fill="black" stroke="black" points="275.311,-121.85 285.857,-122.864 278.245,-115.494 275.311,-121.85"/>
</g>
<!-- v2 -->
<g id="node2" class="node"><title>v2</title>
<polygon fill="white" stroke="black" points="16,-17 16,-53 70,-53 70,-17 16,-17"/>
<text text-anchor="middle" x="43" y="-30.8" font-family="Times,serif" font-size="14.00">v2</text>
</g>
<!-- v2&#45;&gt;D -->
<g id="edge2" class="edge"><title>v2&#45;&gt;D</title>
<path fill="none" stroke="black" d="M70.3074,-39.9124C110.41,-48.0005 188.645,-66.1593 250,-95 260.45,-99.9121 271.111,-106.471 280.579,-112.943"/>
<polygon fill="black" stroke="black" points="278.71,-115.907 288.899,-118.812 282.745,-110.187 278.71,-115.907"/>
</g>
<!-- V1 -->
<g id="node3" class="node"><title>V1</title>
<polygon fill="white" stroke="black" points="16,-127 16,-163 70,-163 70,-127 16,-127"/>
<text text-anchor="middle" x="43" y="-140.8" font-family="Times,serif" font-size="14.00">V1</text>
</g>
<!-- B -->
<g id="node4" class="node"><title>B</title>
<polygon fill="white" stroke="black" points="106,-119 106,-155 160,-155 160,-119 106,-119"/>
<text text-anchor="middle" x="133" y="-132.8" font-family="Times,serif" font-size="14.00">B</text>
</g>
<!-- V1&#45;&gt;B -->
<g id="edge1" class="edge"><title>V1&#45;&gt;B</title>
<path fill="none" stroke="black" d="M70.4029,-142.6C78.3932,-141.873 87.3106,-141.063 95.8241,-140.289"/>
<polygon fill="black" stroke="black" points="96.277,-143.762 105.919,-139.371 95.6431,-136.791 96.277,-143.762"/>
</g>
<!-- C -->
<g id="node5" class="node"><title>C</title>
<polygon fill="white" stroke="black" points="196,-119 196,-155 250,-155 250,-119 196,-119"/>
<text text-anchor="middle" x="223" y="-132.8" font-family="Times,serif" font-size="14.00">C</text>
</g>
<!-- B&#45;&gt;C -->
<g id="edge4" class="edge"><title>B&#45;&gt;C</title>
<path fill="none" stroke="black" d="M160.403,-137C168.393,-137 177.311,-137 185.824,-137"/>
<polygon fill="black" stroke="black" points="185.919,-140.5 195.919,-137 185.919,-133.5 185.919,-140.5"/>
</g>
<!-- C&#45;&gt;D -->
<g id="edge5" class="edge"><title>C&#45;&gt;D</title>
<path fill="none" stroke="black" d="M250.403,-137C258.393,-137 267.311,-137 275.824,-137"/>
<polygon fill="black" stroke="black" points="275.919,-140.5 285.919,-137 275.919,-133.5 275.919,-140.5"/>
</g>
</g>
</svg>
