<?xml version="1.0" encoding="UTF-8" standalone="no"?>
<!DOCTYPE svg PUBLIC "-//W3C//DTD SVG 1.1//EN"
 "http://www.w3.org/Graphics/SVG/1.1/DTD/svg11.dtd">
<!-- Generated by graphviz version 14.1.5 (20260411.2331)
 -->
<!-- Title: gc Pages: 1 -->
<svg width="364pt" height="212pt"
 viewBox="0.00 0.00 364.00 212.00" xmlns="http://www.w3.org/2000/svg" xmlns:xlink="http://www.w3.org/1999/xlink">
<g id="graph0" class="graph" transform="scale(1 1) rotate(0) translate(4 208)">
<title>gc</title>
<polygon fill="white" stroke="none" points="-4,4 -4,-208 360,-208 360,4 -4,4"/>
<g id="clust1" class="cluster">
<title>cluster_stack</title>
<polygon fill="lightgrey" stroke="black" points="8,-8 8,-196 78,-196 78,-8 8,-8"/>
<text xml:space="preserve" text-anchor="middle" x="43" y="-178.7" font-family="Times,serif" font-size="14.00">Stack</text>
</g>
<g id="clust2" class="cluster">
<title>cluster_heap</title>
<polygon fill="lightyellow" stroke="black" points="98,-110 98,-188 348,-188 348,-110 98,-110"/>
<text xml:space="preserve" text-anchor="middle" x="223" y="-170.7" font-family="Times,serif" font-size="14.00">Heap</text>
</g>
<!-- v3 -->
<g id="node1" class="node">
<title>v3</title>
<polygon fill="white" stroke="black" points="16,-72 16,-108 70,-108 70,-72 16,-72"/>
<text xml:space="preserve" text-anchor="middle" x="43" y="-85.2" font-family="Times,serif" font-size="14.00">v3</text>
</g>
<!-- D -->
<g id="node6" class="node">
<title>D</title>
<polygon fill="white" stroke="black" points="286,-119 286,-155 340,-155 340,-119 286,-119"/>
<text xml:space="preserve" text-anchor="middle" x="313" y="-132.2" font-family="Times,serif" font-size="14.00">D</text>
</g>
<!-- v3&#45;&gt;D -->
<g id="edge3" class="edge">
<title>v3&#45;&gt;D</title>
<path fill="none" stroke="black" d="M70.47,-89.94C110.13,-90.44 187.05,-93.67 250,-110 258.45,-112.19 267.23,-115.39 275.43,-118.83"/>
<polygon fill="black" stroke="black" points="273.85,-121.96 284.41,-122.8 276.68,-115.55 273.85,-121.96"/>
</g>
<!-- v2 -->
<g id="node2" class="node">
<title>v2</title>
<polygon fill="white" stroke="black" points="16,-17 16,-53 70,-53 70,-17 16,-17"/>
<text xml:space="preserve" text-anchor="middle" x="43" y="-30.2" font-family="Times,serif" font-size="14.00">v2</text>
</g>
<!-- v2&#45;&gt;D -->
<g id="edge2" class="edge">
<title>v2&#45;&gt;D</title>
<path fill="none" stroke="black" d="M70.26,-40.16C110.31,-48.59 188.47,-67.33 250,-96 259.71,-100.52 269.64,-106.42 278.62,-112.33"/>
<polygon fill="black" stroke="black" points="276.46,-115.09 286.7,-117.83 280.4,-109.31 276.46,-115.09"/>
</g>
<!-- V1 -->
<g id="node3" class="node">
<title>V1</title>
<polygon fill="white" stroke="black" points="16,-127 16,-163 70,-163 70,-127 16,-127"/>
<text xml:space="preserve" text-anchor="middle" x="43" y="-140.2" font-family="Times,serif" font-size="14.00">V1</text>
</g>
<!-- B -->
<g id="node4" class="node">
<title>B</title>
<polygon fill="white" stroke="black" points="106,-119 106,-155 160,-155 160,-119 106,-119"/>
<text xml:space="preserve" text-anchor="middle" x="133" y="-132.2" font-family="Times,serif" font-size="14.00">B</text>
</g>
<!-- V1&#45;&gt;B -->
<g id="edge1" class="edge">
<title>V1&#45;&gt;B</title>
<path fill="none" stroke="black" d="M70.4,-142.6C77.89,-141.92 86.18,-141.17 94.2,-140.44"/>
<polygon fill="black" stroke="black" points="94.47,-143.93 104.11,-139.54 93.83,-136.96 94.47,-143.93"/>
</g>
<!-- C -->
<g id="node5" class="node">
<title>C</title>
<polygon fill="white" stroke="black" points="196,-119 196,-155 250,-155 250,-119 196,-119"/>
<text xml:space="preserve" text-anchor="middle" x="223" y="-132.2" font-family="Times,serif" font-size="14.00">C</text>
</g>
<!-- B&#45;&gt;C -->
<g id="edge4" class="edge">
<title>B&#45;&gt;C</title>
<path fill="none" stroke="black" d="M160.4,-137C167.89,-137 176.18,-137 184.2,-137"/>
<polygon fill="black" stroke="black" points="184.1,-140.5 194.1,-137 184.1,-133.5 184.1,-140.5"/>
</g>
<!-- C&#45;&gt;D -->
<g id="edge5" class="edge">
<title>C&#45;&gt;D</title>
<path fill="none" stroke="black" d="M250.4,-137C257.89,-137 266.18,-137 274.2,-137"/>
<polygon fill="black" stroke="black" points="274.1,-140.5 284.1,-137 274.1,-133.5 274.1,-140.5"/>
</g>
</g>
</svg>
