<?xml version="1.0" encoding="UTF-8" standalone="no"?>
<!DOCTYPE svg PUBLIC "-//W3C//DTD SVG 1.1//EN"
 "http://www.w3.org/Graphics/SVG/1.1/DTD/svg11.dtd">
<!-- Generated by graphviz version 14.1.5 (20260411.2331)
 -->
<!-- Title: AST Pages: 1 -->
<svg width="292pt" height="188pt"
 viewBox="0.00 0.00 292.00 188.00" xmlns="http://www.w3.org/2000/svg" xmlns:xlink="http://www.w3.org/1999/xlink">
<g id="graph0" class="graph" transform="scale(1 1) rotate(0) translate(4 184)">
<title>AST</title>
<polygon fill="white" stroke="none" points="-4,4 -4,-184 287.62,-184 287.62,4 -4,4"/>
<!-- Let -->
<g id="node1" class="node">
<title>Let</title>
<path fill="none" stroke="black" d="M116,-180C116,-180 86,-180 86,-180 80,-180 74,-174 74,-168 74,-168 74,-156 74,-156 74,-150 80,-144 86,-144 86,-144 116,-144 116,-144 122,-144 128,-150 128,-156 128,-156 128,-168 128,-168 128,-174 122,-180 116,-180"/>
<text xml:space="preserve" text-anchor="middle" x="101" y="-157.32" font-family="monospace" font-size="14.00">Let</text>
</g>
<!-- x -->
<g id="node2" class="node">
<title>x</title>
<path fill="none" stroke="black" d="M42,-108C42,-108 12,-108 12,-108 6,-108 0,-102 0,-96 0,-96 0,-84 0,-84 0,-78 6,-72 12,-72 12,-72 42,-72 42,-72 48,-72 54,-78 54,-84 54,-84 54,-96 54,-96 54,-102 48,-108 42,-108"/>
<text xml:space="preserve" text-anchor="middle" x="27" y="-85.33" font-family="monospace" font-size="14.00">&quot;x&quot;</text>
</g>
<!-- Let&#45;&gt;x -->
<g id="edge1" class="edge">
<title>Let&#45;&gt;x</title>
<path fill="none" stroke="black" d="M82.71,-143.7C73.9,-135.37 63.18,-125.22 53.5,-116.07"/>
<polygon fill="black" stroke="black" points="56.11,-113.72 46.44,-109.39 51.3,-118.8 56.11,-113.72"/>
</g>
<!-- Int3 -->
<g id="node3" class="node">
<title>Int3</title>
<path fill="none" stroke="black" d="M117.62,-108C117.62,-108 84.38,-108 84.38,-108 78.38,-108 72.38,-102 72.38,-96 72.38,-96 72.38,-84 72.38,-84 72.38,-78 78.38,-72 84.38,-72 84.38,-72 117.62,-72 117.62,-72 123.62,-72 129.62,-78 129.62,-84 129.62,-84 129.62,-96 129.62,-96 129.62,-102 123.62,-108 117.62,-108"/>
<text xml:space="preserve" text-anchor="middle" x="101" y="-85.33" font-family="monospace" font-size="14.00">Int 3</text>
</g>
<!-- Let&#45;&gt;Int3 -->
<g id="edge2" class="edge">
<title>Let&#45;&gt;Int3</title>
<path fill="none" stroke="black" d="M101,-143.7C101,-136.41 101,-127.73 101,-119.54"/>
<polygon fill="black" stroke="black" points="104.5,-119.62 101,-109.62 97.5,-119.62 104.5,-119.62"/>
</g>
<!-- Binop -->
<g id="node4" class="node">
<title>Binop</title>
<path fill="none" stroke="black" d="M192.62,-108C192.62,-108 159.38,-108 159.38,-108 153.38,-108 147.38,-102 147.38,-96 147.38,-96 147.38,-84 147.38,-84 147.38,-78 153.38,-72 159.38,-72 159.38,-72 192.62,-72 192.62,-72 198.62,-72 204.62,-78 204.62,-84 204.62,-84 204.62,-96 204.62,-96 204.62,-102 198.62,-108 192.62,-108"/>
<text xml:space="preserve" text-anchor="middle" x="176" y="-85.33" font-family="monospace" font-size="14.00">Binop</text>
</g>
<!-- Let&#45;&gt;Binop -->
<g id="edge3" class="edge">
<title>Let&#45;&gt;Binop</title>
<path fill="none" stroke="black" d="M119.54,-143.7C128.46,-135.37 139.33,-125.22 149.14,-116.07"/>
<polygon fill="black" stroke="black" points="151.39,-118.76 156.31,-109.38 146.61,-113.64 151.39,-118.76"/>
</g>
<!-- Add -->
<g id="node5" class="node">
<title>Add</title>
<path fill="none" stroke="black" d="M113,-36C113,-36 83,-36 83,-36 77,-36 71,-30 71,-24 71,-24 71,-12 71,-12 71,-6 77,0 83,0 83,0 113,0 113,0 119,0 125,-6 125,-12 125,-12 125,-24 125,-24 125,-30 119,-36 113,-36"/>
<text xml:space="preserve" text-anchor="middle" x="98" y="-13.32" font-family="monospace" font-size="14.00">Add</text>
</g>
<!-- Binop&#45;&gt;Add -->
<g id="edge4" class="edge">
<title>Binop&#45;&gt;Add</title>
<path fill="none" stroke="black" d="M156.72,-71.7C147.34,-63.28 135.91,-53.02 125.62,-43.79"/>
<polygon fill="black" stroke="black" points="128.24,-41.43 118.46,-37.36 123.56,-46.64 128.24,-41.43"/>
</g>
<!-- IDx -->
<g id="node6" class="node">
<title>IDx</title>
<path fill="none" stroke="black" d="M196.75,-36C196.75,-36 155.25,-36 155.25,-36 149.25,-36 143.25,-30 143.25,-24 143.25,-24 143.25,-12 143.25,-12 143.25,-6 149.25,0 155.25,0 155.25,0 196.75,0 196.75,0 202.75,0 208.75,-6 208.75,-12 208.75,-12 208.75,-24 208.75,-24 208.75,-30 202.75,-36 196.75,-36"/>
<text xml:space="preserve" text-anchor="middle" x="176" y="-13.32" font-family="monospace" font-size="14.00">ID &quot;x&quot;</text>
</g>
<!-- Binop&#45;&gt;IDx -->
<g id="edge5" class="edge">
<title>Binop&#45;&gt;IDx</title>
<path fill="none" stroke="black" d="M176,-71.7C176,-64.41 176,-55.73 176,-47.54"/>
<polygon fill="black" stroke="black" points="179.5,-47.62 176,-37.62 172.5,-47.62 179.5,-47.62"/>
</g>
<!-- Int1 -->
<g id="node7" class="node">
<title>Int1</title>
<path fill="none" stroke="black" d="M271.62,-36C271.62,-36 238.38,-36 238.38,-36 232.38,-36 226.38,-30 226.38,-24 226.38,-24 226.38,-12 226.38,-12 226.38,-6 232.38,0 238.38,0 238.38,0 271.62,0 271.62,0 277.62,0 283.62,-6 283.62,-12 283.62,-12 283.62,-24 283.62,-24 283.62,-30 277.62,-36 271.62,-36"/>
<text xml:space="preserve" text-anchor="middle" x="255" y="-13.32" font-family="monospace" font-size="14.00">Int 1</text>
</g>
<!-- Binop&#45;&gt;Int1 -->
<g id="edge6" class="edge">
<title>Binop&#45;&gt;Int1</title>
<path fill="none" stroke="black" d="M195.53,-71.7C205.02,-63.28 216.61,-53.02 227.02,-43.79"/>
<polygon fill="black" stroke="black" points="229.13,-46.6 234.29,-37.35 224.48,-41.36 229.13,-46.6"/>
</g>
</g>
</svg>
