<?xml version="1.0" encoding="UTF-8" standalone="no"?>
<!DOCTYPE svg PUBLIC "-//W3C//DTD SVG 1.1//EN"
 "http://www.w3.org/Graphics/SVG/1.1/DTD/svg11.dtd">
<!-- Generated by graphviz version 2.36.0 (20140111.2315)
 -->
<!-- Title: AST Pages: 1 -->
<svg width="278pt" height="188pt"
 viewBox="0.00 0.00 278.00 188.00" xmlns="http://www.w3.org/2000/svg" xmlns:xlink="http://www.w3.org/1999/xlink">
<g id="graph0" class="graph" transform="scale(1 1) rotate(0) translate(4 184)">
<title>AST</title>
<polygon fill="white" stroke="none" points="-4,4 -4,-184 274,-184 274,4 -4,4"/>
<!-- Let -->
<g id="node1" class="node"><title>Let</title>
<path fill="none" stroke="black" d="M114,-180C114,-180 84,-180 84,-180 78,-180 72,-174 72,-168 72,-168 72,-156 72,-156 72,-150 78,-144 84,-144 84,-144 114,-144 114,-144 120,-144 126,-150 126,-156 126,-156 126,-168 126,-168 126,-174 120,-180 114,-180"/>
<text text-anchor="middle" x="99" y="-157.8" font-family="monospace" font-size="14.00">Let</text>
</g>
<!-- x -->
<g id="node2" class="node"><title>x</title>
<path fill="none" stroke="black" d="M42,-108C42,-108 12,-108 12,-108 6,-108 0,-102 0,-96 0,-96 0,-84 0,-84 0,-78 6,-72 12,-72 12,-72 42,-72 42,-72 48,-72 54,-78 54,-84 54,-84 54,-96 54,-96 54,-102 48,-108 42,-108"/>
<text text-anchor="middle" x="27" y="-85.8" font-family="monospace" font-size="14.00">&quot;x&quot;</text>
</g>
<!-- Let&#45;&gt;x -->
<g id="edge1" class="edge"><title>Let&#45;&gt;x</title>
<path fill="none" stroke="black" d="M81.2022,-143.697C72.396,-135.135 61.6179,-124.656 51.9989,-115.304"/>
<polygon fill="black" stroke="black" points="54.2028,-112.566 44.593,-108.104 49.3232,-117.585 54.2028,-112.566"/>
</g>
<!-- Int3 -->
<g id="node3" class="node"><title>Int3</title>
<path fill="none" stroke="black" d="M114,-108C114,-108 84,-108 84,-108 78,-108 72,-102 72,-96 72,-96 72,-84 72,-84 72,-78 78,-72 84,-72 84,-72 114,-72 114,-72 120,-72 126,-78 126,-84 126,-84 126,-96 126,-96 126,-102 120,-108 114,-108"/>
<text text-anchor="middle" x="99" y="-85.8" font-family="monospace" font-size="14.00">Int 3</text>
</g>
<!-- Let&#45;&gt;Int3 -->
<g id="edge2" class="edge"><title>Let&#45;&gt;Int3</title>
<path fill="none" stroke="black" d="M99,-143.697C99,-135.983 99,-126.712 99,-118.112"/>
<polygon fill="black" stroke="black" points="102.5,-118.104 99,-108.104 95.5001,-118.104 102.5,-118.104"/>
</g>
<!-- Binop -->
<g id="node4" class="node"><title>Binop</title>
<path fill="none" stroke="black" d="M186,-108C186,-108 156,-108 156,-108 150,-108 144,-102 144,-96 144,-96 144,-84 144,-84 144,-78 150,-72 156,-72 156,-72 186,-72 186,-72 192,-72 198,-78 198,-84 198,-84 198,-96 198,-96 198,-102 192,-108 186,-108"/>
<text text-anchor="middle" x="171" y="-85.8" font-family="monospace" font-size="14.00">Binop</text>
</g>
<!-- Let&#45;&gt;Binop -->
<g id="edge3" class="edge"><title>Let&#45;&gt;Binop</title>
<path fill="none" stroke="black" d="M116.798,-143.697C125.604,-135.135 136.382,-124.656 146.001,-115.304"/>
<polygon fill="black" stroke="black" points="148.677,-117.585 153.407,-108.104 143.797,-112.566 148.677,-117.585"/>
</g>
<!-- Add -->
<g id="node5" class="node"><title>Add</title>
<path fill="none" stroke="black" d="M114,-36C114,-36 84,-36 84,-36 78,-36 72,-30 72,-24 72,-24 72,-12 72,-12 72,-6 78,-0 84,-0 84,-0 114,-0 114,-0 120,-0 126,-6 126,-12 126,-12 126,-24 126,-24 126,-30 120,-36 114,-36"/>
<text text-anchor="middle" x="99" y="-13.8" font-family="monospace" font-size="14.00">Add</text>
</g>
<!-- Binop&#45;&gt;Add -->
<g id="edge4" class="edge"><title>Binop&#45;&gt;Add</title>
<path fill="none" stroke="black" d="M153.202,-71.6966C144.396,-63.135 133.618,-52.6562 123.999,-43.3045"/>
<polygon fill="black" stroke="black" points="126.203,-40.5657 116.593,-36.1043 121.323,-45.5846 126.203,-40.5657"/>
</g>
<!-- IDx -->
<g id="node6" class="node"><title>IDx</title>
<path fill="none" stroke="black" d="M186,-36C186,-36 156,-36 156,-36 150,-36 144,-30 144,-24 144,-24 144,-12 144,-12 144,-6 150,-0 156,-0 156,-0 186,-0 186,-0 192,-0 198,-6 198,-12 198,-12 198,-24 198,-24 198,-30 192,-36 186,-36"/>
<text text-anchor="middle" x="171" y="-13.8" font-family="monospace" font-size="14.00">ID &quot;x&quot;</text>
</g>
<!-- Binop&#45;&gt;IDx -->
<g id="edge5" class="edge"><title>Binop&#45;&gt;IDx</title>
<path fill="none" stroke="black" d="M171,-71.6966C171,-63.9827 171,-54.7125 171,-46.1124"/>
<polygon fill="black" stroke="black" points="174.5,-46.1043 171,-36.1043 167.5,-46.1044 174.5,-46.1043"/>
</g>
<!-- Int1 -->
<g id="node7" class="node"><title>Int1</title>
<path fill="none" stroke="black" d="M258,-36C258,-36 228,-36 228,-36 222,-36 216,-30 216,-24 216,-24 216,-12 216,-12 216,-6 222,-0 228,-0 228,-0 258,-0 258,-0 264,-0 270,-6 270,-12 270,-12 270,-24 270,-24 270,-30 264,-36 258,-36"/>
<text text-anchor="middle" x="243" y="-13.8" font-family="monospace" font-size="14.00">Int 1</text>
</g>
<!-- Binop&#45;&gt;Int1 -->
<g id="edge6" class="edge"><title>Binop&#45;&gt;Int1</title>
<path fill="none" stroke="black" d="M188.798,-71.6966C197.604,-63.135 208.382,-52.6562 218.001,-43.3045"/>
<polygon fill="black" stroke="black" points="220.677,-45.5846 225.407,-36.1043 215.797,-40.5657 220.677,-45.5846"/>
</g>
</g>
</svg>
