<?xml version="1.0" encoding="UTF-8" standalone="no"?>
<!DOCTYPE svg PUBLIC "-//W3C//DTD SVG 1.1//EN"
 "http://www.w3.org/Graphics/SVG/1.1/DTD/svg11.dtd">
<!-- Generated by graphviz version 14.1.5 (20260411.2331)
 -->
<!-- Title: HeapExample Pages: 1 -->
<svg width="429pt" height="258pt"
 viewBox="0.00 0.00 429.00 258.00" xmlns="http://www.w3.org/2000/svg" xmlns:xlink="http://www.w3.org/1999/xlink">
<g id="graph0" class="graph" transform="scale(1 1) rotate(0) translate(4 254)">
<title>HeapExample</title>
<polygon fill="white" stroke="none" points="-4,4 -4,-254 425,-254 425,4 -4,4"/>
<g id="clust1" class="cluster">
<title>cluster_stack</title>
<polygon fill="none" stroke="black" stroke-dasharray="5,2" points="8,-8 8,-193 60,-193 60,-8 8,-8"/>
<text xml:space="preserve" text-anchor="middle" x="34" y="-175.7" font-family="Times,serif" font-size="14.00">stack</text>
</g>
<!-- s1 -->
<g id="node1" class="node">
<title>s1</title>
<path fill="none" stroke="black" d="M40,-160C40,-160 28,-160 28,-160 22,-160 16,-154 16,-148 16,-148 16,-136 16,-136 16,-130 22,-124 28,-124 28,-124 40,-124 40,-124 46,-124 52,-130 52,-136 52,-136 52,-148 52,-148 52,-154 46,-160 40,-160"/>
<text xml:space="preserve" text-anchor="middle" x="34" y="-136.95" font-family="Times,serif" font-size="14.00"> </text>
</g>
<!-- A -->
<g id="node4" class="node">
<title>A</title>
<path fill="none" stroke="green" d="M139,-154C139,-154 109,-154 109,-154 103,-154 97,-148 97,-142 97,-142 97,-130 97,-130 97,-124 103,-118 109,-118 109,-118 139,-118 139,-118 145,-118 151,-124 151,-130 151,-130 151,-142 151,-142 151,-148 145,-154 139,-154"/>
<text xml:space="preserve" text-anchor="middle" x="124" y="-130.95" font-family="Times,serif" font-size="14.00" fill="green">A</text>
</g>
<!-- s1&#45;&gt;A -->
<g id="edge1" class="edge">
<title>s1&#45;&gt;A</title>
<path fill="none" stroke="green" d="M52.39,-140.81C61.85,-140.17 73.95,-139.34 85.45,-138.56"/>
<polygon fill="green" stroke="green" points="85.38,-142.07 95.12,-137.9 84.91,-135.09 85.38,-142.07"/>
</g>
<!-- s2 -->
<g id="node2" class="node">
<title>s2</title>
<path fill="none" stroke="black" d="M40,-106C40,-106 28,-106 28,-106 22,-106 16,-100 16,-94 16,-94 16,-82 16,-82 16,-76 22,-70 28,-70 28,-70 40,-70 40,-70 46,-70 52,-76 52,-82 52,-82 52,-94 52,-94 52,-100 46,-106 40,-106"/>
<text xml:space="preserve" text-anchor="middle" x="34" y="-82.95" font-family="Times,serif" font-size="14.00"> </text>
</g>
<!-- s3 -->
<g id="node3" class="node">
<title>s3</title>
<path fill="none" stroke="black" d="M40,-52C40,-52 28,-52 28,-52 22,-52 16,-46 16,-40 16,-40 16,-28 16,-28 16,-22 22,-16 28,-16 28,-16 40,-16 40,-16 46,-16 52,-22 52,-28 52,-28 52,-40 52,-40 52,-46 46,-52 40,-52"/>
<text xml:space="preserve" text-anchor="middle" x="34" y="-28.95" font-family="Times,serif" font-size="14.00"> </text>
</g>
<!-- C -->
<g id="node6" class="node">
<title>C</title>
<path fill="none" stroke="green" d="M139,-59C139,-59 109,-59 109,-59 103,-59 97,-53 97,-47 97,-47 97,-35 97,-35 97,-29 103,-23 109,-23 109,-23 139,-23 139,-23 145,-23 151,-29 151,-35 151,-35 151,-47 151,-47 151,-53 145,-59 139,-59"/>
<text xml:space="preserve" text-anchor="middle" x="124" y="-35.95" font-family="Times,serif" font-size="14.00" fill="green">C</text>
</g>
<!-- s3&#45;&gt;C -->
<g id="edge2" class="edge">
<title>s3&#45;&gt;C</title>
<path fill="none" stroke="green" d="M52.39,-35.38C61.85,-36.14 73.95,-37.1 85.45,-38.01"/>
<polygon fill="green" stroke="green" points="84.88,-41.48 95.12,-38.78 85.43,-34.5 84.88,-41.48"/>
</g>
<!-- B -->
<g id="node5" class="node">
<title>B</title>
<path fill="none" stroke="green" d="M229,-153C229,-153 199,-153 199,-153 193,-153 187,-147 187,-141 187,-141 187,-129 187,-129 187,-123 193,-117 199,-117 199,-117 229,-117 229,-117 235,-117 241,-123 241,-129 241,-129 241,-141 241,-141 241,-147 235,-153 229,-153"/>
<text xml:space="preserve" text-anchor="middle" x="214" y="-129.95" font-family="Times,serif" font-size="14.00" fill="green">B</text>
</g>
<!-- A&#45;&gt;B -->
<g id="edge3" class="edge">
<title>A&#45;&gt;B</title>
<path fill="none" stroke="green" d="M151.4,-135.7C158.89,-135.61 167.18,-135.52 175.2,-135.43"/>
<polygon fill="green" stroke="green" points="175.14,-138.93 185.1,-135.32 175.06,-131.93 175.14,-138.93"/>
</g>
<!-- D -->
<g id="node7" class="node">
<title>D</title>
<path fill="none" stroke="green" d="M319,-109C319,-109 289,-109 289,-109 283,-109 277,-103 277,-97 277,-97 277,-85 277,-85 277,-79 283,-73 289,-73 289,-73 319,-73 319,-73 325,-73 331,-79 331,-85 331,-85 331,-97 331,-97 331,-103 325,-109 319,-109"/>
<text xml:space="preserve" text-anchor="middle" x="304" y="-85.95" font-family="Times,serif" font-size="14.00" fill="green">D</text>
</g>
<!-- B&#45;&gt;D -->
<g id="edge4" class="edge">
<title>B&#45;&gt;D</title>
<path fill="none" stroke="green" d="M241.4,-121.8C249.32,-117.84 258.15,-113.43 266.59,-109.2"/>
<polygon fill="green" stroke="green" points="267.88,-112.47 275.26,-104.87 264.75,-106.21 267.88,-112.47"/>
</g>
<!-- C&#45;&gt;D -->
<g id="edge6" class="edge">
<title>C&#45;&gt;D</title>
<path fill="none" stroke="green" d="M151.26,-48.38C181.5,-56.87 231.39,-70.89 265.66,-80.51"/>
<polygon fill="green" stroke="green" points="264.6,-83.85 275.17,-83.18 266.49,-77.11 264.6,-83.85"/>
</g>
<!-- E -->
<g id="node8" class="node">
<title>E</title>
<path fill="none" stroke="green" d="M409,-109C409,-109 379,-109 379,-109 373,-109 367,-103 367,-97 367,-97 367,-85 367,-85 367,-79 373,-73 379,-73 379,-73 409,-73 409,-73 415,-73 421,-79 421,-85 421,-85 421,-97 421,-97 421,-103 415,-109 409,-109"/>
<text xml:space="preserve" text-anchor="middle" x="394" y="-85.95" font-family="Times,serif" font-size="14.00" fill="green">E</text>
</g>
<!-- D&#45;&gt;E -->
<g id="edge5" class="edge">
<title>D&#45;&gt;E</title>
<path fill="none" stroke="green" d="M331.4,-91C338.89,-91 347.18,-91 355.2,-91"/>
<polygon fill="green" stroke="green" points="355.1,-94.5 365.1,-91 355.1,-87.5 355.1,-94.5"/>
</g>
<!-- E&#45;&gt;A -->
<g id="edge7" class="edge">
<title>E&#45;&gt;A</title>
<path fill="none" stroke="green" d="M366.63,-76.67C355.91,-71.6 343.18,-66.54 331,-64 307.5,-59.11 300.42,-58.73 277,-64 234.9,-73.47 190.75,-96 160.95,-113.36"/>
<polygon fill="green" stroke="green" points="159.52,-110.13 152.71,-118.25 163.1,-116.15 159.52,-110.13"/>
</g>
<!-- X -->
<g id="node9" class="node">
<title>X</title>
<path fill="none" stroke="red" d="M49,-244C49,-244 19,-244 19,-244 13,-244 7,-238 7,-232 7,-232 7,-220 7,-220 7,-214 13,-208 19,-208 19,-208 49,-208 49,-208 55,-208 61,-214 61,-220 61,-220 61,-232 61,-232 61,-238 55,-244 49,-244"/>
<text xml:space="preserve" text-anchor="middle" x="34" y="-220.95" font-family="Times,serif" font-size="14.00" fill="red">X</text>
</g>
<!-- Y -->
<g id="node10" class="node">
<title>Y</title>
<path fill="none" stroke="red" d="M139,-250C139,-250 109,-250 109,-250 103,-250 97,-244 97,-238 97,-238 97,-226 97,-226 97,-220 103,-214 109,-214 109,-214 139,-214 139,-214 145,-214 151,-220 151,-226 151,-226 151,-238 151,-238 151,-244 145,-250 139,-250"/>
<text xml:space="preserve" text-anchor="middle" x="124" y="-226.95" font-family="Times,serif" font-size="14.00" fill="red">Y</text>
</g>
<!-- X&#45;&gt;Y -->
<g id="edge8" class="edge">
<title>X&#45;&gt;Y</title>
<path fill="none" stroke="red" d="M61.4,-221.55C68.89,-221.61 77.18,-222.03 85.2,-222.73"/>
<polygon fill="red" stroke="red" points="84.79,-226.21 95.11,-223.8 85.54,-219.25 84.79,-226.21"/>
</g>
<!-- Y&#45;&gt;X -->
<g id="edge11" class="edge">
<title>Y&#45;&gt;X</title>
<path fill="none" stroke="red" d="M96.62,-236.45C89.13,-236.39 80.84,-235.97 72.82,-235.27"/>
<polygon fill="red" stroke="red" points="73.22,-231.79 62.91,-234.21 72.48,-238.75 73.22,-231.79"/>
</g>
<!-- Z -->
<g id="node11" class="node">
<title>Z</title>
<path fill="none" stroke="red" d="M229,-228C229,-228 199,-228 199,-228 193,-228 187,-222 187,-216 187,-216 187,-204 187,-204 187,-198 193,-192 199,-192 199,-192 229,-192 229,-192 235,-192 241,-198 241,-204 241,-204 241,-216 241,-216 241,-222 235,-228 229,-228"/>
<text xml:space="preserve" text-anchor="middle" x="214" y="-204.95" font-family="Times,serif" font-size="14.00" fill="red">Z</text>
</g>
<!-- Y&#45;&gt;Z -->
<g id="edge9" class="edge">
<title>Y&#45;&gt;Z</title>
<path fill="none" stroke="red" d="M151.4,-225.4C158.97,-223.51 167.38,-221.41 175.48,-219.38"/>
<polygon fill="red" stroke="red" points="176.29,-222.78 185.15,-216.96 174.6,-215.99 176.29,-222.78"/>
</g>
<!-- Z&#45;&gt;X -->
<g id="edge10" class="edge">
<title>Z&#45;&gt;X</title>
<path fill="none" stroke="red" d="M186.55,-205.79C162.92,-202.75 127.43,-199.99 97,-205 88.75,-206.36 80.12,-208.67 72.02,-211.28"/>
<polygon fill="red" stroke="red" points="71.11,-207.89 62.8,-214.45 73.39,-214.5 71.11,-207.89"/>
</g>
</g>
</svg>
