<?xml version="1.0" encoding="UTF-8" standalone="no"?>
<!DOCTYPE svg PUBLIC "-//W3C//DTD SVG 1.1//EN"
 "http://www.w3.org/Graphics/SVG/1.1/DTD/svg11.dtd">
<!-- Generated by graphviz version 2.36.0 (20140111.2315)
 -->
<!-- Title: HeapExample Pages: 1 -->
<svg width="429pt" height="257pt"
 viewBox="0.00 0.00 429.00 257.00" xmlns="http://www.w3.org/2000/svg" xmlns:xlink="http://www.w3.org/1999/xlink">
<g id="graph0" class="graph" transform="scale(1 1) rotate(0) translate(4 253)">
<title>HeapExample</title>
<polygon fill="white" stroke="none" points="-4,4 -4,-253 425,-253 425,4 -4,4"/>
<g id="clust1" class="cluster"><title>cluster_stack</title>
<polygon fill="none" stroke="black" stroke-dasharray="5,2" points="8,-8 8,-190 60,-190 60,-8 8,-8"/>
<text text-anchor="middle" x="34" y="-174.8" font-family="Times,serif" font-size="14.00">stack</text>
</g>
<!-- s1 -->
<g id="node1" class="node"><title>s1</title>
<path fill="none" stroke="black" d="M40,-160C40,-160 28,-160 28,-160 22,-160 16,-154 16,-148 16,-148 16,-136 16,-136 16,-130 22,-124 28,-124 28,-124 40,-124 40,-124 46,-124 52,-130 52,-136 52,-136 52,-148 52,-148 52,-154 46,-160 40,-160"/>
<text text-anchor="middle" x="34" y="-137.8" font-family="Times,serif" font-size="14.00"> </text>
</g>
<!-- A -->
<g id="node4" class="node"><title>A</title>
<path fill="none" stroke="green" d="M139,-153C139,-153 109,-153 109,-153 103,-153 97,-147 97,-141 97,-141 97,-129 97,-129 97,-123 103,-117 109,-117 109,-117 139,-117 139,-117 145,-117 151,-123 151,-129 151,-129 151,-141 151,-141 151,-147 145,-153 139,-153"/>
<text text-anchor="middle" x="124" y="-130.8" font-family="Times,serif" font-size="14.00" fill="green">A</text>
</g>
<!-- s1&#45;&gt;A -->
<g id="edge1" class="edge"><title>s1&#45;&gt;A</title>
<path fill="none" stroke="green" d="M52.386,-140.617C62.2262,-139.834 74.9112,-138.825 86.8091,-137.879"/>
<polygon fill="green" stroke="green" points="87.28,-141.353 96.971,-137.07 86.7249,-134.375 87.28,-141.353"/>
</g>
<!-- s2 -->
<g id="node2" class="node"><title>s2</title>
<path fill="none" stroke="black" d="M40,-106C40,-106 28,-106 28,-106 22,-106 16,-100 16,-94 16,-94 16,-82 16,-82 16,-76 22,-70 28,-70 28,-70 40,-70 40,-70 46,-70 52,-76 52,-82 52,-82 52,-94 52,-94 52,-100 46,-106 40,-106"/>
<text text-anchor="middle" x="34" y="-83.8" font-family="Times,serif" font-size="14.00"> </text>
</g>
<!-- s3 -->
<g id="node3" class="node"><title>s3</title>
<path fill="none" stroke="black" d="M40,-52C40,-52 28,-52 28,-52 22,-52 16,-46 16,-40 16,-40 16,-28 16,-28 16,-22 22,-16 28,-16 28,-16 40,-16 40,-16 46,-16 52,-22 52,-28 52,-28 52,-40 52,-40 52,-46 46,-52 40,-52"/>
<text text-anchor="middle" x="34" y="-29.8" font-family="Times,serif" font-size="14.00"> </text>
</g>
<!-- C -->
<g id="node6" class="node"><title>C</title>
<path fill="none" stroke="green" d="M139,-56C139,-56 109,-56 109,-56 103,-56 97,-50 97,-44 97,-44 97,-32 97,-32 97,-26 103,-20 109,-20 109,-20 139,-20 139,-20 145,-20 151,-26 151,-32 151,-32 151,-44 151,-44 151,-50 145,-56 139,-56"/>
<text text-anchor="middle" x="124" y="-33.8" font-family="Times,serif" font-size="14.00" fill="green">C</text>
</g>
<!-- s3&#45;&gt;C -->
<g id="edge2" class="edge"><title>s3&#45;&gt;C</title>
<path fill="none" stroke="green" d="M52.386,-34.7903C62.2262,-35.2376 74.9112,-35.8141 86.8091,-36.355"/>
<polygon fill="green" stroke="green" points="86.8223,-39.8591 96.971,-36.8169 87.1403,-32.8663 86.8223,-39.8591"/>
</g>
<!-- B -->
<g id="node5" class="node"><title>B</title>
<path fill="none" stroke="green" d="M229,-151C229,-151 199,-151 199,-151 193,-151 187,-145 187,-139 187,-139 187,-127 187,-127 187,-121 193,-115 199,-115 199,-115 229,-115 229,-115 235,-115 241,-121 241,-127 241,-127 241,-139 241,-139 241,-145 235,-151 229,-151"/>
<text text-anchor="middle" x="214" y="-128.8" font-family="Times,serif" font-size="14.00" fill="green">B</text>
</g>
<!-- A&#45;&gt;B -->
<g id="edge3" class="edge"><title>A&#45;&gt;B</title>
<path fill="none" stroke="green" d="M151.403,-134.4C159.393,-134.218 168.311,-134.016 176.824,-133.822"/>
<polygon fill="green" stroke="green" points="177.001,-137.319 186.919,-133.593 176.842,-130.321 177.001,-137.319"/>
</g>
<!-- D -->
<g id="node7" class="node"><title>D</title>
<path fill="none" stroke="green" d="M319,-107C319,-107 289,-107 289,-107 283,-107 277,-101 277,-95 277,-95 277,-83 277,-83 277,-77 283,-71 289,-71 289,-71 319,-71 319,-71 325,-71 331,-77 331,-83 331,-83 331,-95 331,-95 331,-101 325,-107 319,-107"/>
<text text-anchor="middle" x="304" y="-84.8" font-family="Times,serif" font-size="14.00" fill="green">D</text>
</g>
<!-- B&#45;&gt;D -->
<g id="edge4" class="edge"><title>B&#45;&gt;D</title>
<path fill="none" stroke="green" d="M241.403,-119.799C249.744,-115.628 259.096,-110.952 267.944,-106.528"/>
<polygon fill="green" stroke="green" points="269.54,-109.643 276.919,-102.041 266.409,-103.382 269.54,-109.643"/>
</g>
<!-- C&#45;&gt;D -->
<g id="edge6" class="edge"><title>C&#45;&gt;D</title>
<path fill="none" stroke="green" d="M151.265,-45.5252C181.983,-54.3265 232.988,-68.9404 267.285,-78.7671"/>
<polygon fill="green" stroke="green" points="266.34,-82.1372 276.918,-81.527 268.269,-75.4079 266.34,-82.1372"/>
</g>
<!-- E -->
<g id="node8" class="node"><title>E</title>
<path fill="none" stroke="green" d="M409,-107C409,-107 379,-107 379,-107 373,-107 367,-101 367,-95 367,-95 367,-83 367,-83 367,-77 373,-71 379,-71 379,-71 409,-71 409,-71 415,-71 421,-77 421,-83 421,-83 421,-95 421,-95 421,-101 415,-107 409,-107"/>
<text text-anchor="middle" x="394" y="-84.8" font-family="Times,serif" font-size="14.00" fill="green">E</text>
</g>
<!-- D&#45;&gt;E -->
<g id="edge5" class="edge"><title>D&#45;&gt;E</title>
<path fill="none" stroke="green" d="M331.403,-89C339.393,-89 348.311,-89 356.824,-89"/>
<polygon fill="green" stroke="green" points="356.919,-92.5001 366.919,-89 356.919,-85.5001 356.919,-92.5001"/>
</g>
<!-- E&#45;&gt;A -->
<g id="edge7" class="edge"><title>E&#45;&gt;A</title>
<path fill="none" stroke="green" d="M366.938,-74.8109C356.147,-69.6987 343.298,-64.5616 331,-62 307.504,-57.106 300.401,-56.672 277,-62 234.318,-71.718 189.638,-94.9895 159.857,-112.665"/>
<polygon fill="green" stroke="green" points="157.86,-109.783 151.111,-117.95 161.48,-115.774 157.86,-109.783"/>
</g>
<!-- X -->
<g id="node9" class="node"><title>X</title>
<path fill="none" stroke="red" d="M49,-243C49,-243 19,-243 19,-243 13,-243 7,-237 7,-231 7,-231 7,-219 7,-219 7,-213 13,-207 19,-207 19,-207 49,-207 49,-207 55,-207 61,-213 61,-219 61,-219 61,-231 61,-231 61,-237 55,-243 49,-243"/>
<text text-anchor="middle" x="34" y="-220.8" font-family="Times,serif" font-size="14.00" fill="red">X</text>
</g>
<!-- Y -->
<g id="node10" class="node"><title>Y</title>
<path fill="none" stroke="red" d="M139,-249C139,-249 109,-249 109,-249 103,-249 97,-243 97,-237 97,-237 97,-225 97,-225 97,-219 103,-213 109,-213 109,-213 139,-213 139,-213 145,-213 151,-219 151,-225 151,-225 151,-237 151,-237 151,-243 145,-249 139,-249"/>
<text text-anchor="middle" x="124" y="-226.8" font-family="Times,serif" font-size="14.00" fill="red">Y</text>
</g>
<!-- X&#45;&gt;Y -->
<g id="edge8" class="edge"><title>X&#45;&gt;Y</title>
<path fill="none" stroke="red" d="M61.4029,-220.555C69.3932,-220.617 78.3106,-221.088 86.8241,-221.879"/>
<polygon fill="red" stroke="red" points="86.5947,-225.375 96.919,-222.996 87.3646,-218.418 86.5947,-225.375"/>
</g>
<!-- Y&#45;&gt;X -->
<g id="edge11" class="edge"><title>Y&#45;&gt;X</title>
<path fill="none" stroke="red" d="M96.919,-235.447C88.9538,-235.397 80.0438,-234.935 71.5196,-234.153"/>
<polygon fill="red" stroke="red" points="71.7243,-230.654 61.4029,-233.046 70.9628,-237.613 71.7243,-230.654"/>
</g>
<!-- Z -->
<g id="node11" class="node"><title>Z</title>
<path fill="none" stroke="red" d="M229,-227C229,-227 199,-227 199,-227 193,-227 187,-221 187,-215 187,-215 187,-203 187,-203 187,-197 193,-191 199,-191 199,-191 229,-191 229,-191 235,-191 241,-197 241,-203 241,-203 241,-215 241,-215 241,-221 235,-227 229,-227"/>
<text text-anchor="middle" x="214" y="-204.8" font-family="Times,serif" font-size="14.00" fill="red">Z</text>
</g>
<!-- Y&#45;&gt;Z -->
<g id="edge9" class="edge"><title>Y&#45;&gt;Z</title>
<path fill="none" stroke="red" d="M151.403,-224.399C159.481,-222.38 168.507,-220.123 177.105,-217.974"/>
<polygon fill="red" stroke="red" points="178.066,-221.341 186.919,-215.52 176.369,-214.55 178.066,-221.341"/>
</g>
<!-- Z&#45;&gt;X -->
<g id="edge10" class="edge"><title>Z&#45;&gt;X</title>
<path fill="none" stroke="red" d="M186.555,-204.788C162.922,-201.751 127.431,-198.986 97,-204 88.2956,-205.434 79.1694,-207.929 70.6776,-210.71"/>
<polygon fill="red" stroke="red" points="69.3553,-207.465 61.0635,-214.06 71.6583,-214.075 69.3553,-207.465"/>
</g>
</g>
</svg>
