<?xml version="1.0" encoding="UTF-8" standalone="no"?>
<!DOCTYPE svg PUBLIC "-//W3C//DTD SVG 1.1//EN"
 "http://www.w3.org/Graphics/SVG/1.1/DTD/svg11.dtd">
<!-- Generated by graphviz version 2.36.0 (20140111.2315)
 -->
<!-- Title: NFA_ex04 Pages: 1 -->
<svg width="262pt" height="112pt"
 viewBox="0.00 0.00 262.00 112.00" xmlns="http://www.w3.org/2000/svg" xmlns:xlink="http://www.w3.org/1999/xlink">
<g id="graph0" class="graph" transform="scale(1 1) rotate(0) translate(4 108)">
<title>NFA_ex04</title>
<polygon fill="white" stroke="none" points="-4,4 -4,-108 258,-108 258,4 -4,4"/>
<!-- start -->
<g id="node1" class="node"><title>start</title>
<ellipse fill="black" stroke="black" cx="2" cy="-23" rx="1.8" ry="1.8"/>
</g>
<!-- S0 -->
<g id="node2" class="node"><title>S0</title>
<ellipse fill="none" stroke="black" cx="62" cy="-23" rx="19.3939" ry="19.3939"/>
<text text-anchor="middle" x="62" y="-18.8" font-family="Times,serif" font-size="14.00">S0</text>
</g>
<!-- start&#45;&gt;S0 -->
<g id="edge1" class="edge"><title>start&#45;&gt;S0</title>
<path fill="none" stroke="black" d="M4.0067,-23C7.55581,-23 19.9365,-23 32.2557,-23"/>
<polygon fill="black" stroke="black" points="32.3942,-26.5001 42.3941,-23 32.3941,-19.5001 32.3942,-26.5001"/>
</g>
<!-- S1 -->
<g id="node3" class="node"><title>S1</title>
<ellipse fill="none" stroke="black" cx="144" cy="-53" rx="19.3939" ry="19.3939"/>
<text text-anchor="middle" x="144" y="-48.8" font-family="Times,serif" font-size="14.00">S1</text>
</g>
<!-- S0&#45;&gt;S1 -->
<g id="edge2" class="edge"><title>S0&#45;&gt;S1</title>
<path fill="none" stroke="black" d="M80.3588,-29.5096C90.8422,-33.4408 104.419,-38.5322 116.252,-42.9695"/>
<polygon fill="black" stroke="black" points="115.083,-46.269 125.675,-46.5032 117.541,-39.7147 115.083,-46.269"/>
<text text-anchor="middle" x="103" y="-40.8" font-family="Times,serif" font-size="14.00">ε</text>
</g>
<!-- S2 -->
<g id="node4" class="node"><title>S2</title>
<ellipse fill="none" stroke="black" cx="230" cy="-23" rx="19.4029" ry="19.4029"/>
<ellipse fill="none" stroke="black" cx="230" cy="-23" rx="23.3939" ry="23.3939"/>
<text text-anchor="middle" x="230" y="-18.8" font-family="Times,serif" font-size="14.00">S2</text>
</g>
<!-- S0&#45;&gt;S2 -->
<g id="edge3" class="edge"><title>S0&#45;&gt;S2</title>
<path fill="none" stroke="black" d="M81.014,-18.5C93.0876,-15.7211 109.39,-12.4234 124,-11 141.694,-9.27613 146.296,-9.3795 164,-11 174.799,-11.9885 186.483,-13.8824 196.926,-15.8785"/>
<polygon fill="black" stroke="black" points="196.384,-19.3395 206.878,-17.879 197.764,-12.4768 196.384,-19.3395"/>
<text text-anchor="middle" x="144" y="-13.8" font-family="Times,serif" font-size="14.00">ε</text>
</g>
<!-- S1&#45;&gt;S1 -->
<g id="edge4" class="edge"><title>S1&#45;&gt;S1</title>
<path fill="none" stroke="black" d="M136.859,-70.8935C135.526,-80.8403 137.906,-90 144,-90 147.904,-90 150.284,-86.2409 151.14,-80.9238"/>
<polygon fill="black" stroke="black" points="154.639,-80.8941 151.141,-70.8935 147.639,-80.8929 154.639,-80.8941"/>
<text text-anchor="middle" x="144" y="-92.8" font-family="Times,serif" font-size="14.00">a,b</text>
</g>
<!-- S1&#45;&gt;S2 -->
<g id="edge5" class="edge"><title>S1&#45;&gt;S2</title>
<path fill="none" stroke="black" d="M162.405,-46.784C172.692,-43.1101 186.018,-38.3509 198.043,-34.0559"/>
<polygon fill="black" stroke="black" points="199.504,-37.251 207.744,-30.5915 197.149,-30.6588 199.504,-37.251"/>
<text text-anchor="middle" x="185" y="-40.8" font-family="Times,serif" font-size="14.00">a</text>
</g>
</g>
</svg>
