<?xml version="1.0" encoding="UTF-8" standalone="no"?>
<!DOCTYPE svg PUBLIC "-//W3C//DTD SVG 1.1//EN"
 "http://www.w3.org/Graphics/SVG/1.1/DTD/svg11.dtd">
<!-- Generated by graphviz version 14.1.5 (20260411.2331)
 -->
<!-- Title: NFA_ex04 Pages: 1 -->
<svg width="264pt" height="127pt"
 viewBox="0.00 0.00 264.00 127.00" xmlns="http://www.w3.org/2000/svg" xmlns:xlink="http://www.w3.org/1999/xlink">
<g id="graph0" class="graph" transform="scale(1 1) rotate(0) translate(4 122.79)">
<title>NFA_ex04</title>
<polygon fill="white" stroke="none" points="-4,4 -4,-122.79 260.46,-122.79 260.46,4 -4,4"/>
<!-- start -->
<g id="node1" class="node">
<title>start</title>
<ellipse fill="black" stroke="black" cx="1.8" cy="-24.64" rx="1.8" ry="1.8"/>
</g>
<!-- S0 -->
<g id="node2" class="node">
<title>S0</title>
<ellipse fill="none" stroke="black" cx="61.24" cy="-24.64" rx="20.64" ry="20.64"/>
<text xml:space="preserve" text-anchor="middle" x="61.24" y="-19.59" font-family="Times,serif" font-size="14.00">S0</text>
</g>
<!-- start&#45;&gt;S0 -->
<g id="edge1" class="edge">
<title>start&#45;&gt;S0</title>
<path fill="none" stroke="black" d="M3.8,-24.64C7.06,-24.64 17.86,-24.64 29.15,-24.64"/>
<polygon fill="black" stroke="black" points="28.83,-28.14 38.83,-24.64 28.83,-21.14 28.83,-28.14"/>
</g>
<!-- S1 -->
<g id="node3" class="node">
<title>S1</title>
<ellipse fill="none" stroke="black" cx="144.53" cy="-63.64" rx="20.64" ry="20.64"/>
<text xml:space="preserve" text-anchor="middle" x="144.53" y="-58.59" font-family="Times,serif" font-size="14.00">S1</text>
</g>
<!-- S0&#45;&gt;S1 -->
<g id="edge2" class="edge">
<title>S0&#45;&gt;S1</title>
<path fill="none" stroke="black" d="M80.28,-33.3C90.6,-38.25 103.76,-44.56 115.4,-50.15"/>
<polygon fill="black" stroke="black" points="113.64,-53.19 124.17,-54.36 116.67,-46.88 113.64,-53.19"/>
<text xml:space="preserve" text-anchor="middle" x="102.89" y="-48.51" font-family="Times,serif" font-size="14.00">ε</text>
</g>
<!-- S2 -->
<g id="node4" class="node">
<title>S2</title>
<ellipse fill="none" stroke="black" cx="231.81" cy="-24.64" rx="20.64" ry="20.64"/>
<ellipse fill="none" stroke="black" cx="231.81" cy="-24.64" rx="24.64" ry="24.64"/>
<text xml:space="preserve" text-anchor="middle" x="231.81" y="-19.59" font-family="Times,serif" font-size="14.00">S2</text>
</g>
<!-- S0&#45;&gt;S2 -->
<g id="edge3" class="edge">
<title>S0&#45;&gt;S2</title>
<path fill="none" stroke="black" d="M81.9,-21.64C93.98,-19.94 109.79,-18 123.89,-17.14 142.2,-16.03 146.85,-16.1 165.17,-17.14 175.21,-17.71 186.08,-18.77 196.02,-19.92"/>
<polygon fill="black" stroke="black" points="195.32,-23.36 205.67,-21.1 196.17,-16.41 195.32,-23.36"/>
<text xml:space="preserve" text-anchor="middle" x="144.53" y="-20.34" font-family="Times,serif" font-size="14.00">ε</text>
</g>
<!-- S1&#45;&gt;S1 -->
<g id="edge4" class="edge">
<title>S1&#45;&gt;S1</title>
<path fill="none" stroke="black" d="M137,-83.13C135.84,-93.2 138.35,-102.29 144.53,-102.29 148.2,-102.29 150.58,-99.08 151.66,-94.37"/>
<polygon fill="black" stroke="black" points="155.15,-94.76 152.01,-84.64 148.15,-94.51 155.15,-94.76"/>
<text xml:space="preserve" text-anchor="middle" x="144.53" y="-105.49" font-family="Times,serif" font-size="14.00">a,b</text>
</g>
<!-- S1&#45;&gt;S2 -->
<g id="edge5" class="edge">
<title>S1&#45;&gt;S2</title>
<path fill="none" stroke="black" d="M163.62,-55.37C173.72,-50.75 186.62,-44.85 198.41,-39.46"/>
<polygon fill="black" stroke="black" points="199.8,-42.67 207.44,-35.33 196.89,-36.31 199.8,-42.67"/>
<text xml:space="preserve" text-anchor="middle" x="186.17" y="-48.51" font-family="Times,serif" font-size="14.00">a</text>
</g>
</g>
</svg>
