<?xml version="1.0" standalone="no"?>
<svg xmlns="http://www.w3.org/2000/svg" xmlns:xlink="http://www.w3.org/1999/xlink" width="270pt" height="89pt" viewBox="0.00 0.00 270.01 89.27">
<g id="graph0" class="graph" transform="translate(4,85.2699966430664) scale(1)" data-name="NFA_100">

<polygon fill="white" stroke="none" points="-4,4 -4,-85.27 266.01,-85.27 266.01,4 -4,4" style=""/>
<!-- start -->
<g id="node1" class="node" pointer-events="visible" data-name="start">

<ellipse fill="black" stroke="black" cx="1.8" cy="-25.24" rx="1.8" ry="1.8" style=""/>
</g>
<!-- S0 -->
<g id="node2" class="node" pointer-events="visible" data-name="S0">

<ellipse fill="none" stroke="black" cx="61.84" cy="-25.24" rx="21.47" ry="21.47" style=""/>
<text text-anchor="middle" x="61.84" y="-21.04" font-family="Times,serif" font-size="14.00" style="">S0</text>
</g>
<!-- start&#45;&gt;S0 -->
<g id="edge1" class="edge" data-name="start-&gt;S0">

<path fill="none" stroke="black" d="M3.81,-25.24C7.06,-25.24 17.72,-25.24 28.95,-25.24" style=""/>
<polygon fill="black" stroke="black" points="28.62,-28.74 38.62,-25.24 28.62,-21.74 28.62,-28.74" style=""/>
</g>
<!-- S1 -->
<g id="node3" class="node" pointer-events="visible" data-name="S1">

<ellipse fill="none" stroke="black" cx="147.31" cy="-25.24" rx="21.47" ry="21.47" style=""/>
<text text-anchor="middle" x="147.31" y="-21.04" font-family="Times,serif" font-size="14.00" style="">S1</text>
</g>
<!-- S0&#45;&gt;S1 -->
<g id="edge2" class="edge" data-name="S0-&gt;S1">

<path fill="none" stroke="black" d="M83.47,-25.24C92.63,-25.24 103.63,-25.24 113.85,-25.24" style=""/>
<polygon fill="black" stroke="black" points="113.82,-28.74 123.82,-25.24 113.82,-21.74 113.82,-28.74" style=""/>
<text text-anchor="middle" x="104.57" y="-29.44" font-family="Times,serif" font-size="14.00" style="">1</text>
</g>
<!-- S1&#45;&gt;S1 -->
<g id="edge3" class="edge" data-name="S1-&gt;S1">

<path fill="none" stroke="black" d="M139.53,-45.42C138.45,-55.49 141.05,-64.47 147.31,-64.47 151.02,-64.47 153.45,-61.31 154.58,-56.63" style=""/>
<polygon fill="black" stroke="black" points="158.06,-57.08 155.02,-46.94 151.07,-56.77 158.06,-57.08" style=""/>
<text text-anchor="middle" x="147.31" y="-68.67" font-family="Times,serif" font-size="14.00" style="">0</text>
</g>
<!-- S2 -->
<g id="node4" class="node" pointer-events="visible" data-name="S2">

<ellipse fill="none" stroke="black" cx="236.78" cy="-25.24" rx="21.44" ry="21.44" style=""/>
<ellipse fill="none" stroke="black" cx="236.78" cy="-25.24" rx="25.47" ry="25.47" style=""/>
<text text-anchor="middle" x="236.78" y="-21.04" font-family="Times,serif" font-size="14.00" style="">S2</text>
</g>
<!-- S1&#45;&gt;S2 -->
<g id="edge4" class="edge" data-name="S1-&gt;S2">

<path fill="none" stroke="black" d="M169.04,-25.24C178.14,-25.24 189.1,-25.24 199.49,-25.24" style=""/>
<polygon fill="black" stroke="black" points="199.32,-28.74 209.32,-25.24 199.32,-21.74 199.32,-28.74" style=""/>
<text text-anchor="middle" x="190.04" y="-29.44" font-family="Times,serif" font-size="14.00" style="">1</text>
</g>
</g>
</svg>