<?xml version="1.0" standalone="no"?>
<svg xmlns="http://www.w3.org/2000/svg" xmlns:xlink="http://www.w3.org/1999/xlink" width="269pt" height="129pt" viewBox="0.00 0.00 269.23 129.27">
<g id="graph0" class="graph" transform="translate(4,125.2699966430664) scale(1)" data-name="NFA_ex04">

<polygon fill="white" stroke="none" points="-4,4 -4,-125.27 265.23,-125.27 265.23,4 -4,4" style=""/>
<!-- start -->
<g id="node1" class="node" pointer-events="visible" data-name="start">

<ellipse fill="black" stroke="black" cx="1.8" cy="-25.24" rx="1.8" ry="1.8" style=""/>
</g>
<!-- S0 -->
<g id="node2" class="node" pointer-events="visible" data-name="S0">

<ellipse fill="none" stroke="black" cx="61.84" cy="-25.24" rx="21.47" ry="21.47" style=""/>
<text text-anchor="middle" x="61.84" y="-21.04" font-family="Times,serif" font-size="14.00" style="">S0</text>
</g>
<!-- start&#45;&gt;S0 -->
<g id="edge1" class="edge" data-name="start-&gt;S0">

<path fill="none" stroke="black" d="M3.81,-25.24C7.06,-25.24 17.72,-25.24 28.95,-25.24" style=""/>
<polygon fill="black" stroke="black" points="28.62,-28.74 38.62,-25.24 28.62,-21.74 28.62,-28.74" style=""/>
</g>
<!-- S1 -->
<g id="node3" class="node" pointer-events="visible" data-name="S1">

<ellipse fill="none" stroke="black" cx="147.31" cy="-65.24" rx="21.47" ry="21.47" style=""/>
<text text-anchor="middle" x="147.31" y="-61.04" font-family="Times,serif" font-size="14.00" style="">S1</text>
</g>
<!-- S0&#45;&gt;S1 -->
<g id="edge2" class="edge" data-name="S0-&gt;S1">

<path fill="none" stroke="black" d="M81.78,-34.31C92.24,-39.32 105.45,-45.66 117.19,-51.28" style=""/>
<polygon fill="black" stroke="black" points="115.55,-54.38 126.08,-55.54 118.57,-48.06 115.55,-54.38" style=""/>
<text text-anchor="middle" x="104.57" y="-50.44" font-family="Times,serif" font-size="14.00" style="">ε</text>
</g>
<!-- S2 -->
<g id="node4" class="node" pointer-events="visible" data-name="S2">

<ellipse fill="none" stroke="black" cx="235.99" cy="-25.24" rx="21.44" ry="21.44" style=""/>
<ellipse fill="none" stroke="black" cx="235.99" cy="-25.24" rx="25.47" ry="25.47" style=""/>
<text text-anchor="middle" x="235.99" y="-21.04" font-family="Times,serif" font-size="14.00" style="">S2</text>
</g>
<!-- S0&#45;&gt;S2 -->
<g id="edge3" class="edge" data-name="S0-&gt;S2">

<path fill="none" stroke="black" d="M83.58,-22.44C95.9,-20.92 111.85,-19.2 126.07,-18.44 144.92,-17.43 149.69,-17.47 168.54,-18.44 178.53,-18.95 189.33,-19.88 199.26,-20.9" style=""/>
<polygon fill="black" stroke="black" points="198.6,-24.35 208.92,-21.95 199.36,-17.39 198.6,-24.35" style=""/>
<text text-anchor="middle" x="147.31" y="-22.44" font-family="Times,serif" font-size="14.00" style="">ε</text>
</g>
<!-- S1&#45;&gt;S1 -->
<g id="edge4" class="edge" data-name="S1-&gt;S1">

<path fill="none" stroke="black" d="M139.6,-85.42C138.54,-95.49 141.1,-104.47 147.31,-104.47 150.99,-104.47 153.39,-101.31 154.51,-96.63" style=""/>
<polygon fill="black" stroke="black" points="157.99,-97.08 154.94,-86.94 151,-96.77 157.99,-97.08" style=""/>
<text text-anchor="middle" x="147.31" y="-108.67" font-family="Times,serif" font-size="14.00" style="">a,b</text>
</g>
<!-- S1&#45;&gt;S2 -->
<g id="edge5" class="edge" data-name="S1-&gt;S2">

<path fill="none" stroke="black" d="M167.12,-56.56C177.33,-51.84 190.26,-45.88 202.09,-40.42" style=""/>
<polygon fill="black" stroke="black" points="203.54,-43.6 211.16,-36.23 200.61,-37.25 203.54,-43.6" style=""/>
<text text-anchor="middle" x="189.65" y="-50.44" font-family="Times,serif" font-size="14.00" style="">a</text>
</g>
</g>
</svg>