<?xml version="1.0" encoding="UTF-8" standalone="no"?>
<!DOCTYPE svg PUBLIC "-//W3C//DTD SVG 1.1//EN"
 "http://www.w3.org/Graphics/SVG/1.1/DTD/svg11.dtd">
<!-- Generated by graphviz version 14.1.5 (20260411.2331)
 -->
<!-- Title: nfa1 Pages: 1 -->
<svg width="252pt" height="108pt"
 viewBox="0.00 0.00 252.00 108.00" xmlns="http://www.w3.org/2000/svg" xmlns:xlink="http://www.w3.org/1999/xlink">
<g id="graph0" class="graph" transform="scale(1 1) rotate(0) translate(4 104)">
<title>nfa1</title>
<polygon fill="white" stroke="none" points="-4,4 -4,-104 247.6,-104 247.6,4 -4,4"/>
<!-- 2 -->
<g id="node1" class="node">
<title>2</title>
<ellipse fill="none" stroke="black" cx="221.6" cy="-45" rx="18" ry="18"/>
<ellipse fill="none" stroke="black" cx="221.6" cy="-45" rx="22" ry="22"/>
<text xml:space="preserve" text-anchor="middle" x="221.6" y="-39.2" font-family="Helvetica,Arial,sans-serif" font-size="14.00">2</text>
</g>
<!-- 2&#45;&gt;2 -->
<g id="edge6" class="edge">
<title>2&#45;&gt;2</title>
<path fill="none" stroke="black" d="M213.6,-65.99C212.61,-76.09 215.28,-85 221.6,-85 225.35,-85 227.82,-81.86 229,-77.19"/>
<polygon fill="black" stroke="black" points="232.48,-77.68 229.52,-67.5 225.49,-77.3 232.48,-77.68"/>
<text xml:space="preserve" text-anchor="middle" x="221.6" y="-86.7" font-family="Helvetica,Arial,sans-serif" font-size="14.00">c</text>
</g>
<!-- ENTRY -->
<g id="node2" class="node">
<title>ENTRY</title>
<ellipse fill="black" stroke="black" cx="1.8" cy="-42" rx="1.8" ry="1.8"/>
</g>
<!-- 0 -->
<g id="node3" class="node">
<title>0</title>
<ellipse fill="none" stroke="black" cx="58.6" cy="-42" rx="18" ry="18"/>
<text xml:space="preserve" text-anchor="middle" x="58.6" y="-36.2" font-family="Helvetica,Arial,sans-serif" font-size="14.00">0</text>
</g>
<!-- ENTRY&#45;&gt;0 -->
<g id="edge1" class="edge">
<title>ENTRY&#45;&gt;0</title>
<path fill="none" stroke="black" d="M3.75,-42C6.96,-42 17.8,-42 28.92,-42"/>
<polygon fill="black" stroke="black" points="28.79,-45.5 38.79,-42 28.78,-38.5 28.79,-45.5"/>
</g>
<!-- 0&#45;&gt;2 -->
<g id="edge5" class="edge">
<title>0&#45;&gt;2</title>
<path fill="none" stroke="black" d="M76.21,-46.55C81.98,-47.94 88.53,-49.28 94.6,-50 133,-54.58 143.04,-53.95 181.6,-51 183.8,-50.83 186.07,-50.61 188.35,-50.35"/>
<polygon fill="black" stroke="black" points="188.68,-53.84 198.12,-49.03 187.74,-46.9 188.68,-53.84"/>
<text xml:space="preserve" text-anchor="middle" x="138.1" y="-55.02" font-family="Helvetica,Arial,sans-serif" font-size="14.00">ε</text>
</g>
<!-- 1 -->
<g id="node4" class="node">
<title>1</title>
<ellipse fill="none" stroke="black" cx="138.1" cy="-18" rx="18" ry="18"/>
<text xml:space="preserve" text-anchor="middle" x="138.1" y="-12.2" font-family="Helvetica,Arial,sans-serif" font-size="14.00">1</text>
</g>
<!-- 0&#45;&gt;1 -->
<g id="edge2" class="edge">
<title>0&#45;&gt;1</title>
<path fill="none" stroke="black" d="M76.04,-36.91C85.73,-33.91 98.25,-30.03 109.43,-26.57"/>
<polygon fill="black" stroke="black" points="110.46,-29.91 118.97,-23.61 108.39,-23.23 110.46,-29.91"/>
<text xml:space="preserve" text-anchor="middle" x="98.35" y="-32.42" font-family="Helvetica,Arial,sans-serif" font-size="14.00">a</text>
</g>
<!-- 1&#45;&gt;2 -->
<g id="edge4" class="edge">
<title>1&#45;&gt;2</title>
<path fill="none" stroke="black" d="M155.59,-23.46C165.39,-26.71 178.13,-30.93 189.74,-34.78"/>
<polygon fill="black" stroke="black" points="188.35,-38 198.94,-37.82 190.55,-31.36 188.35,-38"/>
<text xml:space="preserve" text-anchor="middle" x="177.85" y="-33.2" font-family="Helvetica,Arial,sans-serif" font-size="14.00">b</text>
</g>
<!-- 1&#45;&gt;0 -->
<g id="edge3" class="edge">
<title>1&#45;&gt;0</title>
<path fill="none" stroke="black" d="M121.38,-10.99C113.19,-8.35 103.14,-6.68 94.6,-10 88.65,-12.31 83.1,-16.15 78.24,-20.39"/>
<polygon fill="black" stroke="black" points="76.07,-17.62 71.41,-27.13 80.98,-22.6 76.07,-17.62"/>
<text xml:space="preserve" text-anchor="middle" x="98.35" y="-11.7" font-family="Helvetica,Arial,sans-serif" font-size="14.00">b</text>
</g>
</g>
</svg>
