<?xml version="1.0" encoding="UTF-8" standalone="no"?>
<!DOCTYPE svg PUBLIC "-//W3C//DTD SVG 1.1//EN"
 "http://www.w3.org/Graphics/SVG/1.1/DTD/svg11.dtd">
<!-- Generated by graphviz version 14.1.5 (20260411.2331)
 -->
<!-- Title: NFA_100 Pages: 1 -->
<svg width="266pt" height="88pt"
 viewBox="0.00 0.00 266.00 88.00" xmlns="http://www.w3.org/2000/svg" xmlns:xlink="http://www.w3.org/1999/xlink">
<g id="graph0" class="graph" transform="scale(1 1) rotate(0) translate(4 83.79)">
<title>NFA_100</title>
<polygon fill="white" stroke="none" points="-4,4 -4,-83.79 261.96,-83.79 261.96,4 -4,4"/>
<!-- start -->
<g id="node1" class="node">
<title>start</title>
<ellipse fill="black" stroke="black" cx="1.8" cy="-24.64" rx="1.8" ry="1.8"/>
</g>
<!-- S0 -->
<g id="node2" class="node">
<title>S0</title>
<ellipse fill="none" stroke="black" cx="61.24" cy="-24.64" rx="20.64" ry="20.64"/>
<text xml:space="preserve" text-anchor="middle" x="61.24" y="-19.59" font-family="Times,serif" font-size="14.00">S0</text>
</g>
<!-- start&#45;&gt;S0 -->
<g id="edge1" class="edge">
<title>start&#45;&gt;S0</title>
<path fill="none" stroke="black" d="M3.8,-24.64C7.06,-24.64 17.86,-24.64 29.15,-24.64"/>
<polygon fill="black" stroke="black" points="28.83,-28.14 38.83,-24.64 28.83,-21.14 28.83,-28.14"/>
</g>
<!-- S1 -->
<g id="node3" class="node">
<title>S1</title>
<ellipse fill="none" stroke="black" cx="145.28" cy="-24.64" rx="20.64" ry="20.64"/>
<text xml:space="preserve" text-anchor="middle" x="145.28" y="-19.59" font-family="Times,serif" font-size="14.00">S1</text>
</g>
<!-- S0&#45;&gt;S1 -->
<g id="edge2" class="edge">
<title>S0&#45;&gt;S1</title>
<path fill="none" stroke="black" d="M82.1,-24.64C91.4,-24.64 102.71,-24.64 113.11,-24.64"/>
<polygon fill="black" stroke="black" points="112.81,-28.14 122.81,-24.64 112.81,-21.14 112.81,-28.14"/>
<text xml:space="preserve" text-anchor="middle" x="103.26" y="-27.84" font-family="Times,serif" font-size="14.00">1</text>
</g>
<!-- S1&#45;&gt;S1 -->
<g id="edge3" class="edge">
<title>S1&#45;&gt;S1</title>
<path fill="none" stroke="black" d="M137.68,-44.13C136.51,-54.2 139.04,-63.29 145.28,-63.29 148.98,-63.29 151.38,-60.08 152.47,-55.37"/>
<polygon fill="black" stroke="black" points="155.96,-55.76 152.83,-45.64 148.96,-55.51 155.96,-55.76"/>
<text xml:space="preserve" text-anchor="middle" x="145.28" y="-66.49" font-family="Times,serif" font-size="14.00">0</text>
</g>
<!-- S2 -->
<g id="node4" class="node">
<title>S2</title>
<ellipse fill="none" stroke="black" cx="233.31" cy="-24.64" rx="20.64" ry="20.64"/>
<ellipse fill="none" stroke="black" cx="233.31" cy="-24.64" rx="24.64" ry="24.64"/>
<text xml:space="preserve" text-anchor="middle" x="233.31" y="-19.59" font-family="Times,serif" font-size="14.00">S2</text>
</g>
<!-- S1&#45;&gt;S2 -->
<g id="edge4" class="edge">
<title>S1&#45;&gt;S2</title>
<path fill="none" stroke="black" d="M166.23,-24.64C175.32,-24.64 186.36,-24.64 196.79,-24.64"/>
<polygon fill="black" stroke="black" points="196.66,-28.14 206.66,-24.64 196.66,-21.14 196.66,-28.14"/>
<text xml:space="preserve" text-anchor="middle" x="187.3" y="-27.84" font-family="Times,serif" font-size="14.00">1</text>
</g>
</g>
</svg>
