<?xml version="1.0" encoding="UTF-8" standalone="no"?>
<!DOCTYPE svg PUBLIC "-//W3C//DTD SVG 1.1//EN"
 "http://www.w3.org/Graphics/SVG/1.1/DTD/svg11.dtd">
<!-- Generated by graphviz version 2.36.0 (20140111.2315)
 -->
<!-- Title: NFA_100 Pages: 1 -->
<svg width="266pt" height="82pt"
 viewBox="0.00 0.00 266.00 82.00" xmlns="http://www.w3.org/2000/svg" xmlns:xlink="http://www.w3.org/1999/xlink">
<g id="graph0" class="graph" transform="scale(1 1) rotate(0) translate(4 78)">
<title>NFA_100</title>
<polygon fill="white" stroke="none" points="-4,4 -4,-78 262,-78 262,4 -4,4"/>
<!-- start -->
<g id="node1" class="node"><title>start</title>
<ellipse fill="black" stroke="black" cx="2" cy="-23" rx="1.8" ry="1.8"/>
</g>
<!-- S0 -->
<g id="node2" class="node"><title>S0</title>
<ellipse fill="none" stroke="black" cx="62" cy="-23" rx="19.3939" ry="19.3939"/>
<text text-anchor="middle" x="62" y="-18.8" font-family="Times,serif" font-size="14.00">S0</text>
</g>
<!-- start&#45;&gt;S0 -->
<g id="edge1" class="edge"><title>start&#45;&gt;S0</title>
<path fill="none" stroke="black" d="M4.0067,-23C7.55581,-23 19.9365,-23 32.2557,-23"/>
<polygon fill="black" stroke="black" points="32.3942,-26.5001 42.3941,-23 32.3941,-19.5001 32.3942,-26.5001"/>
</g>
<!-- S1 -->
<g id="node3" class="node"><title>S1</title>
<ellipse fill="none" stroke="black" cx="146" cy="-23" rx="19.3939" ry="19.3939"/>
<text text-anchor="middle" x="146" y="-18.8" font-family="Times,serif" font-size="14.00">S1</text>
</g>
<!-- S0&#45;&gt;S1 -->
<g id="edge2" class="edge"><title>S0&#45;&gt;S1</title>
<path fill="none" stroke="black" d="M81.6071,-23C91.8816,-23 104.863,-23 116.398,-23"/>
<polygon fill="black" stroke="black" points="116.467,-26.5001 126.467,-23 116.467,-19.5001 116.467,-26.5001"/>
<text text-anchor="middle" x="104" y="-25.8" font-family="Times,serif" font-size="14.00">1</text>
</g>
<!-- S1&#45;&gt;S1 -->
<g id="edge3" class="edge"><title>S1&#45;&gt;S1</title>
<path fill="none" stroke="black" d="M138.502,-40.8935C137.102,-50.8403 139.602,-60 146,-60 150.099,-60 152.598,-56.2409 153.496,-50.9238"/>
<polygon fill="black" stroke="black" points="156.996,-50.8941 153.498,-40.8935 149.996,-50.8929 156.996,-50.8941"/>
<text text-anchor="middle" x="146" y="-62.8" font-family="Times,serif" font-size="14.00">0</text>
</g>
<!-- S2 -->
<g id="node4" class="node"><title>S2</title>
<ellipse fill="none" stroke="black" cx="234" cy="-23" rx="19.4029" ry="19.4029"/>
<ellipse fill="none" stroke="black" cx="234" cy="-23" rx="23.3939" ry="23.3939"/>
<text text-anchor="middle" x="234" y="-18.8" font-family="Times,serif" font-size="14.00">S2</text>
</g>
<!-- S1&#45;&gt;S2 -->
<g id="edge4" class="edge"><title>S1&#45;&gt;S2</title>
<path fill="none" stroke="black" d="M165.661,-23C175.722,-23 188.433,-23 200.094,-23"/>
<polygon fill="black" stroke="black" points="200.403,-26.5001 210.403,-23 200.403,-19.5001 200.403,-26.5001"/>
<text text-anchor="middle" x="188" y="-25.8" font-family="Times,serif" font-size="14.00">1</text>
</g>
</g>
</svg>
