<?xml version="1.0" encoding="UTF-8" standalone="no"?>
<!DOCTYPE svg PUBLIC "-//W3C//DTD SVG 1.1//EN"
 "http://www.w3.org/Graphics/SVG/1.1/DTD/svg11.dtd">
<!-- Generated by graphviz version 14.1.5 (20260411.2331)
 -->
<!-- Title: nfa2 Pages: 1 -->
<svg width="331pt" height="116pt"
 viewBox="0.00 0.00 331.00 116.00" xmlns="http://www.w3.org/2000/svg" xmlns:xlink="http://www.w3.org/1999/xlink">
<g id="graph0" class="graph" transform="scale(1 1) rotate(0) translate(4 112)">
<title>nfa2</title>
<polygon fill="white" stroke="none" points="-4,4 -4,-112 327.1,-112 327.1,4 -4,4"/>
<!-- 4 -->
<g id="node1" class="node">
<title>4</title>
<ellipse fill="none" stroke="black" cx="301.1" cy="-22" rx="18" ry="18"/>
<ellipse fill="none" stroke="black" cx="301.1" cy="-22" rx="22" ry="22"/>
<text xml:space="preserve" text-anchor="middle" x="301.1" y="-16.2" font-family="Helvetica,Arial,sans-serif" font-size="14.00">4</text>
</g>
<!-- ENTRY -->
<g id="node2" class="node">
<title>ENTRY</title>
<ellipse fill="black" stroke="black" cx="1.8" cy="-22" rx="1.8" ry="1.8"/>
</g>
<!-- 1 -->
<g id="node3" class="node">
<title>1</title>
<ellipse fill="none" stroke="black" cx="58.6" cy="-22" rx="18" ry="18"/>
<text xml:space="preserve" text-anchor="middle" x="58.6" y="-16.2" font-family="Helvetica,Arial,sans-serif" font-size="14.00">1</text>
</g>
<!-- ENTRY&#45;&gt;1 -->
<g id="edge1" class="edge">
<title>ENTRY&#45;&gt;1</title>
<path fill="none" stroke="black" d="M3.75,-22C6.96,-22 17.8,-22 28.92,-22"/>
<polygon fill="black" stroke="black" points="28.79,-25.5 38.79,-22 28.78,-18.5 28.79,-25.5"/>
</g>
<!-- 2 -->
<g id="node4" class="node">
<title>2</title>
<ellipse fill="none" stroke="black" cx="138.1" cy="-57" rx="18" ry="18"/>
<text xml:space="preserve" text-anchor="middle" x="138.1" y="-51.2" font-family="Helvetica,Arial,sans-serif" font-size="14.00">2</text>
</g>
<!-- 1&#45;&gt;2 -->
<g id="edge2" class="edge">
<title>1&#45;&gt;2</title>
<path fill="none" stroke="black" d="M75.28,-29.08C85.51,-33.7 99.11,-39.84 110.94,-45.19"/>
<polygon fill="black" stroke="black" points="109.24,-48.26 119.79,-49.18 112.12,-41.88 109.24,-48.26"/>
<text xml:space="preserve" text-anchor="middle" x="98.35" y="-42.25" font-family="Helvetica,Arial,sans-serif" font-size="14.00">b</text>
</g>
<!-- 3 -->
<g id="node5" class="node">
<title>3</title>
<ellipse fill="none" stroke="black" cx="217.6" cy="-22" rx="18" ry="18"/>
<text xml:space="preserve" text-anchor="middle" x="217.6" y="-16.2" font-family="Helvetica,Arial,sans-serif" font-size="14.00">3</text>
</g>
<!-- 1&#45;&gt;3 -->
<g id="edge3" class="edge">
<title>1&#45;&gt;3</title>
<path fill="none" stroke="blue" d="M76.77,-19.48C88.85,-17.84 105.43,-15.85 120.1,-15 136.07,-14.08 140.13,-14.08 156.1,-15 166.65,-15.61 178.18,-16.81 188.31,-18.04"/>
<polygon fill="blue" stroke="blue" points="187.57,-21.48 197.93,-19.29 188.46,-14.53 187.57,-21.48"/>
<text xml:space="preserve" text-anchor="middle" x="138.1" y="-16.7" font-family="Helvetica,Arial,sans-serif" font-size="14.00">ε</text>
</g>
<!-- 2&#45;&gt;2 -->
<g id="edge4" class="edge">
<title>2&#45;&gt;2</title>
<path fill="none" stroke="blue" d="M131.06,-74.04C129.62,-83.86 131.97,-93 138.1,-93 141.65,-93 143.93,-89.94 144.94,-85.47"/>
<polygon fill="blue" stroke="blue" points="148.44,-85.61 145.12,-75.55 141.44,-85.49 148.44,-85.61"/>
<text xml:space="preserve" text-anchor="middle" x="138.1" y="-94.7" font-family="Helvetica,Arial,sans-serif" font-size="14.00">a</text>
</g>
<!-- 2&#45;&gt;3 -->
<g id="edge5" class="edge">
<title>2&#45;&gt;3</title>
<path fill="none" stroke="blue" d="M154.78,-49.92C165.01,-45.3 178.61,-39.16 190.44,-33.81"/>
<polygon fill="blue" stroke="blue" points="191.62,-37.12 199.29,-29.82 188.74,-30.74 191.62,-37.12"/>
<text xml:space="preserve" text-anchor="middle" x="177.85" y="-42.25" font-family="Helvetica,Arial,sans-serif" font-size="14.00">a</text>
</g>
<!-- 3&#45;&gt;4 -->
<g id="edge6" class="edge">
<title>3&#45;&gt;4</title>
<path fill="none" stroke="black" d="M235.88,-22C245.08,-22 256.7,-22 267.51,-22"/>
<polygon fill="black" stroke="black" points="267.27,-25.5 277.27,-22 267.27,-18.5 267.27,-25.5"/>
<text xml:space="preserve" text-anchor="middle" x="257.35" y="-23.7" font-family="Helvetica,Arial,sans-serif" font-size="14.00">b</text>
</g>
</g>
</svg>
