<?xml version="1.0" encoding="UTF-8" standalone="no"?>
<!DOCTYPE svg PUBLIC "-//W3C//DTD SVG 1.1//EN"
 "http://www.w3.org/Graphics/SVG/1.1/DTD/svg11.dtd">
<!-- Generated by graphviz version 14.1.5 (20260411.2331)
 -->
<!-- Title: nfa3 Pages: 1 -->
<svg width="291pt" height="113pt"
 viewBox="0.00 0.00 291.00 113.00" xmlns="http://www.w3.org/2000/svg" xmlns:xlink="http://www.w3.org/1999/xlink">
<g id="graph0" class="graph" transform="scale(1 1) rotate(0) translate(4 108.8)">
<title>nfa3</title>
<polygon fill="white" stroke="none" points="-4,4 -4,-108.8 286.5,-108.8 286.5,4 -4,4"/>
<!-- 4 -->
<g id="node1" class="node">
<title>4</title>
<ellipse fill="none" stroke="black" cx="22" cy="-35" rx="18" ry="18"/>
<ellipse fill="none" stroke="black" cx="22" cy="-35" rx="22" ry="22"/>
<text xml:space="preserve" text-anchor="middle" x="22" y="-29.2" font-family="Helvetica,Arial,sans-serif" font-size="14.00">4</text>
</g>
<!-- 1 -->
<g id="node3" class="node">
<title>1</title>
<ellipse fill="none" stroke="black" cx="105.5" cy="-60" rx="18" ry="18"/>
<text xml:space="preserve" text-anchor="middle" x="105.5" y="-54.2" font-family="Helvetica,Arial,sans-serif" font-size="14.00">1</text>
</g>
<!-- 4&#45;&gt;1 -->
<g id="edge6" class="edge">
<title>4&#45;&gt;1</title>
<path fill="none" stroke="black" d="M43.85,-30.19C52.05,-29.19 61.41,-29.16 69.5,-32 74.51,-33.76 79.33,-36.57 83.72,-39.74"/>
<polygon fill="black" stroke="black" points="81.4,-42.37 91.34,-46.05 85.87,-36.98 81.4,-42.37"/>
<text xml:space="preserve" text-anchor="middle" x="65.75" y="-33.7" font-family="Helvetica,Arial,sans-serif" font-size="14.00">ε</text>
</g>
<!-- ENTRY -->
<g id="node2" class="node">
<title>ENTRY</title>
<ellipse fill="black" stroke="black" cx="22" cy="-103" rx="1.8" ry="1.8"/>
</g>
<!-- ENTRY&#45;&gt;1 -->
<g id="edge1" class="edge">
<title>ENTRY&#45;&gt;1</title>
<path fill="none" stroke="black" d="M24.15,-102.39C30.08,-99.27 57.66,-84.71 78.87,-73.52"/>
<polygon fill="black" stroke="black" points="80.4,-76.67 87.61,-68.91 77.13,-70.48 80.4,-76.67"/>
</g>
<!-- 1&#45;&gt;4 -->
<g id="edge5" class="edge">
<title>1&#45;&gt;4</title>
<path fill="none" stroke="black" d="M87.36,-57.1C79.54,-55.59 70.22,-53.53 62,-51 59.08,-50.1 56.08,-49.07 53.1,-47.98"/>
<polygon fill="black" stroke="black" points="54.58,-44.8 44,-44.4 52.02,-51.31 54.58,-44.8"/>
<text xml:space="preserve" text-anchor="middle" x="65.75" y="-54.64" font-family="Helvetica,Arial,sans-serif" font-size="14.00">ε</text>
</g>
<!-- 2 -->
<g id="node4" class="node">
<title>2</title>
<ellipse fill="none" stroke="black" cx="185" cy="-48" rx="18" ry="18"/>
<text xml:space="preserve" text-anchor="middle" x="185" y="-42.2" font-family="Helvetica,Arial,sans-serif" font-size="14.00">2</text>
</g>
<!-- 1&#45;&gt;2 -->
<g id="edge2" class="edge">
<title>1&#45;&gt;2</title>
<path fill="none" stroke="black" d="M123.7,-57.34C133.03,-55.89 144.81,-54.07 155.47,-52.42"/>
<polygon fill="black" stroke="black" points="156.01,-55.88 165.35,-50.89 154.93,-48.96 156.01,-55.88"/>
<text xml:space="preserve" text-anchor="middle" x="145.25" y="-56.06" font-family="Helvetica,Arial,sans-serif" font-size="14.00">ε</text>
</g>
<!-- 3 -->
<g id="node5" class="node">
<title>3</title>
<ellipse fill="none" stroke="black" cx="264.5" cy="-18" rx="18" ry="18"/>
<text xml:space="preserve" text-anchor="middle" x="264.5" y="-12.2" font-family="Helvetica,Arial,sans-serif" font-size="14.00">3</text>
</g>
<!-- 2&#45;&gt;3 -->
<g id="edge3" class="edge">
<title>2&#45;&gt;3</title>
<path fill="none" stroke="black" d="M202.06,-41.78C212.07,-37.91 225.2,-32.82 236.76,-28.35"/>
<polygon fill="black" stroke="black" points="237.72,-31.73 245.78,-24.86 235.2,-25.2 237.72,-31.73"/>
<text xml:space="preserve" text-anchor="middle" x="224.75" y="-35.6" font-family="Helvetica,Arial,sans-serif" font-size="14.00">a</text>
</g>
<!-- 3&#45;&gt;4 -->
<g id="edge4" class="edge">
<title>3&#45;&gt;4</title>
<path fill="none" stroke="black" d="M246.15,-17.56C211.14,-16.91 129.63,-16.66 62,-26 59.63,-26.33 57.2,-26.73 54.76,-27.18"/>
<polygon fill="black" stroke="black" points="54.06,-23.75 45,-29.23 55.5,-30.6 54.06,-23.75"/>
<text xml:space="preserve" text-anchor="middle" x="145.25" y="-20.67" font-family="Helvetica,Arial,sans-serif" font-size="14.00">ε</text>
</g>
</g>
</svg>
