<?xml version="1.0" encoding="UTF-8" standalone="no"?>
<!DOCTYPE svg PUBLIC "-//W3C//DTD SVG 1.1//EN"
 "http://www.w3.org/Graphics/SVG/1.1/DTD/svg11.dtd">
<!-- Generated by graphviz version 14.1.5 (20260411.2331)
 -->
<!-- Title: nfa4 Pages: 1 -->
<svg width="252pt" height="131pt"
 viewBox="0.00 0.00 252.00 131.00" xmlns="http://www.w3.org/2000/svg" xmlns:xlink="http://www.w3.org/1999/xlink">
<g id="graph0" class="graph" transform="scale(1 1) rotate(0) translate(4 127)">
<title>nfa4</title>
<polygon fill="white" stroke="none" points="-4,4 -4,-127 247.6,-127 247.6,4 -4,4"/>
<!-- D -->
<g id="node1" class="node">
<title>D</title>
<ellipse fill="none" stroke="black" cx="221.6" cy="-61" rx="18" ry="18"/>
<ellipse fill="none" stroke="black" cx="221.6" cy="-61" rx="22" ry="22"/>
<text xml:space="preserve" text-anchor="middle" x="221.6" y="-55.2" font-family="Helvetica,Arial,sans-serif" font-size="14.00">D</text>
</g>
<!-- ENTRY -->
<g id="node2" class="node">
<title>ENTRY</title>
<ellipse fill="black" stroke="black" cx="1.8" cy="-61" rx="1.8" ry="1.8"/>
</g>
<!-- A -->
<g id="node3" class="node">
<title>A</title>
<ellipse fill="none" stroke="black" cx="58.6" cy="-61" rx="18" ry="18"/>
<text xml:space="preserve" text-anchor="middle" x="58.6" y="-55.2" font-family="Helvetica,Arial,sans-serif" font-size="14.00">A</text>
</g>
<!-- ENTRY&#45;&gt;A -->
<g id="edge1" class="edge">
<title>ENTRY&#45;&gt;A</title>
<path fill="none" stroke="black" d="M3.75,-61C6.96,-61 17.8,-61 28.92,-61"/>
<polygon fill="black" stroke="black" points="28.79,-64.5 38.79,-61 28.78,-57.5 28.79,-64.5"/>
</g>
<!-- B -->
<g id="node4" class="node">
<title>B</title>
<ellipse fill="none" stroke="black" cx="138.1" cy="-105" rx="18" ry="18"/>
<text xml:space="preserve" text-anchor="middle" x="138.1" y="-99.2" font-family="Helvetica,Arial,sans-serif" font-size="14.00">B</text>
</g>
<!-- A&#45;&gt;B -->
<g id="edge2" class="edge">
<title>A&#45;&gt;B</title>
<path fill="none" stroke="black" d="M74.91,-69.69C85.53,-75.72 99.9,-83.88 112.15,-90.84"/>
<polygon fill="black" stroke="black" points="110.08,-93.68 120.5,-95.58 113.54,-87.6 110.08,-93.68"/>
<text xml:space="preserve" text-anchor="middle" x="98.35" y="-86.02" font-family="Helvetica,Arial,sans-serif" font-size="14.00">0</text>
</g>
<!-- C -->
<g id="node5" class="node">
<title>C</title>
<ellipse fill="none" stroke="black" cx="138.1" cy="-18" rx="18" ry="18"/>
<text xml:space="preserve" text-anchor="middle" x="138.1" y="-12.2" font-family="Helvetica,Arial,sans-serif" font-size="14.00">C</text>
</g>
<!-- A&#45;&gt;C -->
<g id="edge4" class="edge">
<title>A&#45;&gt;C</title>
<path fill="none" stroke="black" d="M74.91,-52.5C85.42,-46.67 99.61,-38.8 111.79,-32.05"/>
<polygon fill="black" stroke="black" points="113.45,-35.12 120.5,-27.21 110.05,-29 113.45,-35.12"/>
<text xml:space="preserve" text-anchor="middle" x="98.35" y="-42.49" font-family="Helvetica,Arial,sans-serif" font-size="14.00">ε</text>
</g>
<!-- B&#45;&gt;D -->
<g id="edge3" class="edge">
<title>B&#45;&gt;D</title>
<path fill="none" stroke="black" d="M154.43,-96.72C164.88,-91.08 179.03,-83.44 191.57,-76.67"/>
<polygon fill="black" stroke="black" points="193.14,-79.8 200.28,-71.97 189.82,-73.64 193.14,-79.8"/>
<text xml:space="preserve" text-anchor="middle" x="177.85" y="-87.33" font-family="Helvetica,Arial,sans-serif" font-size="14.00">1</text>
</g>
<!-- C&#45;&gt;D -->
<g id="edge6" class="edge">
<title>C&#45;&gt;D</title>
<path fill="none" stroke="black" d="M154.43,-26.09C164.88,-31.6 179.03,-39.07 191.57,-45.69"/>
<polygon fill="black" stroke="black" points="189.79,-48.7 200.27,-50.27 193.06,-42.51 189.79,-48.7"/>
<text xml:space="preserve" text-anchor="middle" x="177.85" y="-41.2" font-family="Helvetica,Arial,sans-serif" font-size="14.00">1</text>
</g>
<!-- C&#45;&gt;C -->
<g id="edge5" class="edge">
<title>C&#45;&gt;C</title>
<path fill="none" stroke="black" d="M131.06,-35.04C129.62,-44.86 131.97,-54 138.1,-54 141.65,-54 143.93,-50.94 144.94,-46.47"/>
<polygon fill="black" stroke="black" points="148.44,-46.61 145.12,-36.55 141.44,-46.49 148.44,-46.61"/>
<text xml:space="preserve" text-anchor="middle" x="138.1" y="-55.7" font-family="Helvetica,Arial,sans-serif" font-size="14.00">0,1</text>
</g>
</g>
</svg>
