<?xml version="1.0" encoding="UTF-8" standalone="no"?>
<!DOCTYPE svg PUBLIC "-//W3C//DTD SVG 1.1//EN"
 "http://www.w3.org/Graphics/SVG/1.1/DTD/svg11.dtd">
<!-- Generated by graphviz version 14.1.5 (20260411.2331)
 -->
<!-- Title: nfa5 Pages: 1 -->
<svg width="299pt" height="141pt"
 viewBox="0.00 0.00 299.00 141.00" xmlns="http://www.w3.org/2000/svg" xmlns:xlink="http://www.w3.org/1999/xlink">
<g id="graph0" class="graph" transform="scale(1 1) rotate(0) translate(4 136.8)">
<title>nfa5</title>
<polygon fill="white" stroke="none" points="-4,4 -4,-136.8 294.5,-136.8 294.5,4 -4,4"/>
<!-- 2 -->
<g id="node1" class="node">
<title>2</title>
<ellipse fill="none" stroke="black" cx="268.5" cy="-84" rx="18" ry="18"/>
<ellipse fill="none" stroke="black" cx="268.5" cy="-84" rx="22" ry="22"/>
<text xml:space="preserve" text-anchor="middle" x="268.5" y="-78.2" font-family="Helvetica,Arial,sans-serif" font-size="14.00">2</text>
</g>
<!-- 3 -->
<g id="node2" class="node">
<title>3</title>
<ellipse fill="none" stroke="black" cx="181" cy="-22" rx="18" ry="18"/>
<ellipse fill="none" stroke="black" cx="181" cy="-22" rx="22" ry="22"/>
<text xml:space="preserve" text-anchor="middle" x="181" y="-16.2" font-family="Helvetica,Arial,sans-serif" font-size="14.00">3</text>
</g>
<!-- 2&#45;&gt;3 -->
<g id="edge5" class="edge">
<title>2&#45;&gt;3</title>
<path fill="none" stroke="black" d="M253.96,-66.95C246.98,-58.95 237.95,-49.71 228.5,-43 223.57,-39.5 217.96,-36.37 212.39,-33.67"/>
<polygon fill="black" stroke="black" points="213.85,-30.49 203.29,-29.62 211,-36.88 213.85,-30.49"/>
<text xml:space="preserve" text-anchor="middle" x="224.75" y="-44.7" font-family="Helvetica,Arial,sans-serif" font-size="14.00">ε</text>
</g>
<!-- 4 -->
<g id="node6" class="node">
<title>4</title>
<ellipse fill="none" stroke="black" cx="181" cy="-80" rx="18" ry="18"/>
<text xml:space="preserve" text-anchor="middle" x="181" y="-74.2" font-family="Helvetica,Arial,sans-serif" font-size="14.00">4</text>
</g>
<!-- 2&#45;&gt;4 -->
<g id="edge7" class="edge">
<title>2&#45;&gt;4</title>
<path fill="none" stroke="black" d="M246.37,-83.01C235.65,-82.51 222.47,-81.89 210.84,-81.35"/>
<polygon fill="black" stroke="black" points="211.11,-77.86 200.95,-80.89 210.78,-84.85 211.11,-77.86"/>
<text xml:space="preserve" text-anchor="middle" x="224.75" y="-83.82" font-family="Helvetica,Arial,sans-serif" font-size="14.00">b</text>
</g>
<!-- 1 -->
<g id="node5" class="node">
<title>1</title>
<ellipse fill="none" stroke="black" cx="97.5" cy="-78" rx="18" ry="18"/>
<text xml:space="preserve" text-anchor="middle" x="97.5" y="-72.2" font-family="Helvetica,Arial,sans-serif" font-size="14.00">1</text>
</g>
<!-- 3&#45;&gt;1 -->
<g id="edge6" class="edge">
<title>3&#45;&gt;1</title>
<path fill="none" stroke="black" d="M162.32,-34.15C150.53,-42.25 134.9,-52.99 122.06,-61.81"/>
<polygon fill="black" stroke="black" points="120.4,-58.71 114.14,-67.25 124.36,-64.48 120.4,-58.71"/>
<text xml:space="preserve" text-anchor="middle" x="137.25" y="-55.05" font-family="Helvetica,Arial,sans-serif" font-size="14.00">a</text>
</g>
<!-- ENTRY -->
<g id="node3" class="node">
<title>ENTRY</title>
<ellipse fill="black" stroke="black" cx="97.5" cy="-131" rx="1.8" ry="1.8"/>
</g>
<!-- 0 -->
<g id="node4" class="node">
<title>0</title>
<ellipse fill="none" stroke="black" cx="18" cy="-101" rx="18" ry="18"/>
<text xml:space="preserve" text-anchor="middle" x="18" y="-95.2" font-family="Helvetica,Arial,sans-serif" font-size="14.00">0</text>
</g>
<!-- ENTRY&#45;&gt;0 -->
<g id="edge1" class="edge">
<title>ENTRY&#45;&gt;0</title>
<path fill="none" stroke="black" d="M95.4,-130.58C90,-128.48 65.61,-119.04 45.83,-111.39"/>
<polygon fill="black" stroke="black" points="47.17,-108.15 36.58,-107.81 44.65,-114.68 47.17,-108.15"/>
</g>
<!-- 0&#45;&gt;1 -->
<g id="edge2" class="edge">
<title>0&#45;&gt;1</title>
<path fill="none" stroke="black" d="M35.68,-96.05C45.42,-93.16 57.96,-89.44 69.11,-86.13"/>
<polygon fill="black" stroke="black" points="70.02,-89.51 78.61,-83.31 68.03,-82.8 70.02,-89.51"/>
<text xml:space="preserve" text-anchor="middle" x="57.75" y="-91.89" font-family="Helvetica,Arial,sans-serif" font-size="14.00">a</text>
</g>
<!-- 1&#45;&gt;2 -->
<g id="edge4" class="edge">
<title>1&#45;&gt;2</title>
<path fill="none" stroke="black" d="M113.23,-87.37C125.07,-94.33 142.42,-103.23 159,-107 189.23,-113.87 199.08,-110.78 228.5,-101 231.59,-99.97 234.77,-98.8 237.92,-97.55"/>
<polygon fill="black" stroke="black" points="239.07,-100.86 246.93,-93.76 236.36,-94.41 239.07,-100.86"/>
<text xml:space="preserve" text-anchor="middle" x="181" y="-112.4" font-family="Helvetica,Arial,sans-serif" font-size="14.00">b</text>
</g>
<!-- 1&#45;&gt;0 -->
<g id="edge3" class="edge">
<title>1&#45;&gt;0</title>
<path fill="none" stroke="black" d="M80.8,-71.05C72.62,-68.42 62.56,-66.75 54,-70 48.36,-72.14 43.04,-75.65 38.34,-79.56"/>
<polygon fill="black" stroke="black" points="36.1,-76.85 31.22,-86.26 40.9,-81.95 36.1,-76.85"/>
<text xml:space="preserve" text-anchor="middle" x="57.75" y="-71.7" font-family="Helvetica,Arial,sans-serif" font-size="14.00">ε</text>
</g>
<!-- 4&#45;&gt;2 -->
<g id="edge8" class="edge">
<title>4&#45;&gt;2</title>
<path fill="none" stroke="black" d="M196.42,-69.95C205.48,-64.83 217.5,-60.23 228.5,-63 232.15,-63.92 235.84,-65.26 239.41,-66.82"/>
<polygon fill="black" stroke="black" points="237.77,-69.91 248.27,-71.3 240.92,-63.67 237.77,-69.91"/>
<text xml:space="preserve" text-anchor="middle" x="224.75" y="-64.7" font-family="Helvetica,Arial,sans-serif" font-size="14.00">ε</text>
</g>
</g>
</svg>
