<?xml version="1.0" encoding="UTF-8" standalone="no"?>
<!DOCTYPE svg PUBLIC "-//W3C//DTD SVG 1.1//EN"
 "http://www.w3.org/Graphics/SVG/1.1/DTD/svg11.dtd">
<!-- Generated by graphviz version 14.1.5 (20260411.2331)
 -->
<!-- Title: nfa6 Pages: 1 -->
<svg width="252pt" height="81pt"
 viewBox="0.00 0.00 252.00 81.00" xmlns="http://www.w3.org/2000/svg" xmlns:xlink="http://www.w3.org/1999/xlink">
<g id="graph0" class="graph" transform="scale(1 1) rotate(0) translate(4 77)">
<title>nfa6</title>
<polygon fill="white" stroke="none" points="-4,4 -4,-77 247.6,-77 247.6,4 -4,4"/>
<!-- 3 -->
<g id="node1" class="node">
<title>3</title>
<ellipse fill="none" stroke="black" cx="221.6" cy="-22" rx="18" ry="18"/>
<ellipse fill="none" stroke="black" cx="221.6" cy="-22" rx="22" ry="22"/>
<text xml:space="preserve" text-anchor="middle" x="221.6" y="-16.2" font-family="Helvetica,Arial,sans-serif" font-size="14.00">3</text>
</g>
<!-- ENTRY -->
<g id="node2" class="node">
<title>ENTRY</title>
<ellipse fill="black" stroke="black" cx="1.8" cy="-22" rx="1.8" ry="1.8"/>
</g>
<!-- 1 -->
<g id="node3" class="node">
<title>1</title>
<ellipse fill="none" stroke="black" cx="58.6" cy="-22" rx="18" ry="18"/>
<text xml:space="preserve" text-anchor="middle" x="58.6" y="-16.2" font-family="Helvetica,Arial,sans-serif" font-size="14.00">1</text>
</g>
<!-- ENTRY&#45;&gt;1 -->
<g id="edge1" class="edge">
<title>ENTRY&#45;&gt;1</title>
<path fill="none" stroke="black" d="M3.75,-22C6.96,-22 17.8,-22 28.92,-22"/>
<polygon fill="black" stroke="black" points="28.79,-25.5 38.79,-22 28.78,-18.5 28.79,-25.5"/>
</g>
<!-- 1&#45;&gt;1 -->
<g id="edge2" class="edge">
<title>1&#45;&gt;1</title>
<path fill="none" stroke="black" d="M52.13,-39.04C50.81,-48.86 52.97,-58 58.6,-58 61.86,-58 63.95,-54.94 64.88,-50.47"/>
<polygon fill="black" stroke="black" points="68.38,-50.61 65.04,-40.55 61.38,-50.49 68.38,-50.61"/>
<text xml:space="preserve" text-anchor="middle" x="58.6" y="-59.7" font-family="Helvetica,Arial,sans-serif" font-size="14.00">a,b</text>
</g>
<!-- 2 -->
<g id="node4" class="node">
<title>2</title>
<ellipse fill="none" stroke="black" cx="138.1" cy="-22" rx="18" ry="18"/>
<text xml:space="preserve" text-anchor="middle" x="138.1" y="-16.2" font-family="Helvetica,Arial,sans-serif" font-size="14.00">2</text>
</g>
<!-- 1&#45;&gt;2 -->
<g id="edge3" class="edge">
<title>1&#45;&gt;2</title>
<path fill="none" stroke="black" d="M76.8,-22C86.07,-22 97.74,-22 108.35,-22"/>
<polygon fill="black" stroke="black" points="108.17,-25.5 118.17,-22 108.17,-18.5 108.17,-25.5"/>
<text xml:space="preserve" text-anchor="middle" x="98.35" y="-23.7" font-family="Helvetica,Arial,sans-serif" font-size="14.00">b</text>
</g>
<!-- 2&#45;&gt;3 -->
<g id="edge4" class="edge">
<title>2&#45;&gt;3</title>
<path fill="none" stroke="black" d="M156.38,-22C165.58,-22 177.2,-22 188.01,-22"/>
<polygon fill="black" stroke="black" points="187.77,-25.5 197.77,-22 187.77,-18.5 187.77,-25.5"/>
<text xml:space="preserve" text-anchor="middle" x="177.85" y="-23.7" font-family="Helvetica,Arial,sans-serif" font-size="14.00">b</text>
</g>
</g>
</svg>
