<?xml version="1.0" encoding="UTF-8" standalone="no"?>
<!DOCTYPE svg PUBLIC "-//W3C//DTD SVG 1.1//EN"
 "http://www.w3.org/Graphics/SVG/1.1/DTD/svg11.dtd">
<!-- Generated by graphviz version 14.1.5 (20260411.2331)
 -->
<!-- Title: nfa7 Pages: 1 -->
<svg width="694pt" height="173pt"
 viewBox="0.00 0.00 694.00 173.00" xmlns="http://www.w3.org/2000/svg" xmlns:xlink="http://www.w3.org/1999/xlink">
<g id="graph0" class="graph" transform="scale(1 1) rotate(0) translate(4 169.15)">
<title>nfa7</title>
<polygon fill="white" stroke="none" points="-4,4 -4,-169.15 690.39,-169.15 690.39,4 -4,4"/>
<!-- S1 -->
<g id="node1" class="node">
<title>S1</title>
<ellipse fill="none" stroke="black" cx="661.27" cy="-39.15" rx="21.12" ry="21.12"/>
<ellipse fill="none" stroke="black" cx="661.27" cy="-39.15" rx="25.12" ry="25.12"/>
<text xml:space="preserve" text-anchor="middle" x="661.27" y="-33.35" font-family="Helvetica,Arial,sans-serif" font-size="14.00">S1</text>
</g>
<!-- ENTRY -->
<g id="node2" class="node">
<title>ENTRY</title>
<ellipse fill="black" stroke="black" cx="1.8" cy="-71.15" rx="1.8" ry="1.8"/>
</g>
<!-- S0 -->
<g id="node3" class="node">
<title>S0</title>
<ellipse fill="none" stroke="black" cx="61.72" cy="-71.15" rx="21.12" ry="21.12"/>
<text xml:space="preserve" text-anchor="middle" x="61.72" y="-65.35" font-family="Helvetica,Arial,sans-serif" font-size="14.00">S0</text>
</g>
<!-- ENTRY&#45;&gt;S0 -->
<g id="edge1" class="edge">
<title>ENTRY&#45;&gt;S0</title>
<path fill="none" stroke="black" d="M3.81,-71.15C7.07,-71.15 17.84,-71.15 29.14,-71.15"/>
<polygon fill="black" stroke="black" points="28.84,-74.65 38.84,-71.15 28.84,-67.65 28.84,-74.65"/>
</g>
<!-- 1 -->
<g id="node4" class="node">
<title>1</title>
<ellipse fill="none" stroke="black" cx="144.35" cy="-98.15" rx="18" ry="18"/>
<text xml:space="preserve" text-anchor="middle" x="144.35" y="-92.35" font-family="Helvetica,Arial,sans-serif" font-size="14.00">1</text>
</g>
<!-- S0&#45;&gt;1 -->
<g id="edge2" class="edge">
<title>S0&#45;&gt;1</title>
<path fill="none" stroke="black" d="M82.24,-77.68C92.34,-81.07 104.84,-85.25 115.89,-88.95"/>
<polygon fill="black" stroke="black" points="114.7,-92.25 125.3,-92.1 116.93,-85.61 114.7,-92.25"/>
<text xml:space="preserve" text-anchor="middle" x="104.6" y="-87.96" font-family="Helvetica,Arial,sans-serif" font-size="14.00">ε</text>
</g>
<!-- 2 -->
<g id="node5" class="node">
<title>2</title>
<ellipse fill="none" stroke="black" cx="144.35" cy="-44.15" rx="18" ry="18"/>
<text xml:space="preserve" text-anchor="middle" x="144.35" y="-38.35" font-family="Helvetica,Arial,sans-serif" font-size="14.00">2</text>
</g>
<!-- S0&#45;&gt;2 -->
<g id="edge3" class="edge">
<title>S0&#45;&gt;2</title>
<path fill="none" stroke="black" d="M82.24,-64.61C92.34,-61.23 104.84,-57.04 115.89,-53.34"/>
<polygon fill="black" stroke="black" points="116.93,-56.69 125.3,-50.19 114.7,-50.05 116.93,-56.69"/>
<text xml:space="preserve" text-anchor="middle" x="104.6" y="-59.35" font-family="Helvetica,Arial,sans-serif" font-size="14.00">ε</text>
</g>
<!-- 3 -->
<g id="node6" class="node">
<title>3</title>
<ellipse fill="none" stroke="black" cx="223.85" cy="-98.15" rx="18" ry="18"/>
<text xml:space="preserve" text-anchor="middle" x="223.85" y="-92.35" font-family="Helvetica,Arial,sans-serif" font-size="14.00">3</text>
</g>
<!-- 1&#45;&gt;3 -->
<g id="edge4" class="edge">
<title>1&#45;&gt;3</title>
<path fill="none" stroke="black" d="M162.55,-98.15C171.81,-98.15 183.49,-98.15 194.09,-98.15"/>
<polygon fill="black" stroke="black" points="193.91,-101.65 203.91,-98.15 193.91,-94.65 193.91,-101.65"/>
<text xml:space="preserve" text-anchor="middle" x="184.1" y="-99.85" font-family="Helvetica,Arial,sans-serif" font-size="14.00">a</text>
</g>
<!-- 4 -->
<g id="node7" class="node">
<title>4</title>
<ellipse fill="none" stroke="black" cx="223.85" cy="-28.15" rx="18" ry="18"/>
<text xml:space="preserve" text-anchor="middle" x="223.85" y="-22.35" font-family="Helvetica,Arial,sans-serif" font-size="14.00">4</text>
</g>
<!-- 2&#45;&gt;4 -->
<g id="edge5" class="edge">
<title>2&#45;&gt;4</title>
<path fill="none" stroke="black" d="M162.16,-40.68C171.64,-38.72 183.74,-36.22 194.63,-33.97"/>
<polygon fill="black" stroke="black" points="195.23,-37.42 204.31,-31.97 193.81,-30.57 195.23,-37.42"/>
<text xml:space="preserve" text-anchor="middle" x="184.1" y="-38.33" font-family="Helvetica,Arial,sans-serif" font-size="14.00">c</text>
</g>
<!-- 5 -->
<g id="node8" class="node">
<title>5</title>
<ellipse fill="none" stroke="black" cx="303.35" cy="-100.15" rx="18" ry="18"/>
<text xml:space="preserve" text-anchor="middle" x="303.35" y="-94.35" font-family="Helvetica,Arial,sans-serif" font-size="14.00">5</text>
</g>
<!-- 3&#45;&gt;5 -->
<g id="edge6" class="edge">
<title>3&#45;&gt;5</title>
<path fill="none" stroke="black" d="M242.05,-98.59C251.31,-98.83 262.99,-99.13 273.59,-99.41"/>
<polygon fill="black" stroke="black" points="273.33,-102.9 283.41,-99.66 273.51,-95.9 273.33,-102.9"/>
<text xml:space="preserve" text-anchor="middle" x="263.6" y="-100.91" font-family="Helvetica,Arial,sans-serif" font-size="14.00">ε</text>
</g>
<!-- 6 -->
<g id="node9" class="node">
<title>6</title>
<ellipse fill="none" stroke="black" cx="303.35" cy="-24.15" rx="18" ry="18"/>
<text xml:space="preserve" text-anchor="middle" x="303.35" y="-18.35" font-family="Helvetica,Arial,sans-serif" font-size="14.00">6</text>
</g>
<!-- 4&#45;&gt;6 -->
<g id="edge7" class="edge">
<title>4&#45;&gt;6</title>
<path fill="none" stroke="black" d="M242.05,-27.26C251.31,-26.78 262.99,-26.18 273.59,-25.63"/>
<polygon fill="black" stroke="black" points="273.61,-29.14 283.42,-25.13 273.25,-22.15 273.61,-29.14"/>
<text xml:space="preserve" text-anchor="middle" x="263.6" y="-27.97" font-family="Helvetica,Arial,sans-serif" font-size="14.00">ε</text>
</g>
<!-- 7 -->
<g id="node10" class="node">
<title>7</title>
<ellipse fill="none" stroke="black" cx="382.85" cy="-147.15" rx="18" ry="18"/>
<text xml:space="preserve" text-anchor="middle" x="382.85" y="-141.35" font-family="Helvetica,Arial,sans-serif" font-size="14.00">7</text>
</g>
<!-- 5&#45;&gt;7 -->
<g id="edge8" class="edge">
<title>5&#45;&gt;7</title>
<path fill="none" stroke="black" d="M319.29,-109.21C330.01,-115.71 344.7,-124.62 357.15,-132.17"/>
<polygon fill="black" stroke="black" points="355.29,-135.14 365.66,-137.33 358.92,-129.15 355.29,-135.14"/>
<text xml:space="preserve" text-anchor="middle" x="343.1" y="-126.76" font-family="Helvetica,Arial,sans-serif" font-size="14.00">ε</text>
</g>
<!-- 9 -->
<g id="node13" class="node">
<title>9</title>
<ellipse fill="none" stroke="black" cx="574.64" cy="-84.15" rx="18" ry="18"/>
<text xml:space="preserve" text-anchor="middle" x="574.64" y="-78.35" font-family="Helvetica,Arial,sans-serif" font-size="14.00">9</text>
</g>
<!-- 5&#45;&gt;9 -->
<g id="edge12" class="edge">
<title>5&#45;&gt;9</title>
<path fill="none" stroke="black" d="M321.6,-99.12C366.81,-96.44 489.05,-89.17 545,-85.85"/>
<polygon fill="black" stroke="black" points="544.9,-89.36 554.67,-85.28 544.48,-82.37 544.9,-89.36"/>
<text xml:space="preserve" text-anchor="middle" x="438.99" y="-94.95" font-family="Helvetica,Arial,sans-serif" font-size="14.00">ε</text>
</g>
<!-- 10 -->
<g id="node12" class="node">
<title>10</title>
<ellipse fill="none" stroke="black" cx="438.99" cy="-20.15" rx="20.15" ry="20.15"/>
<text xml:space="preserve" text-anchor="middle" x="438.99" y="-14.35" font-family="Helvetica,Arial,sans-serif" font-size="14.00">10</text>
</g>
<!-- 6&#45;&gt;10 -->
<g id="edge10" class="edge">
<title>6&#45;&gt;10</title>
<path fill="none" stroke="black" d="M321.82,-23.63C343.54,-22.98 380.98,-21.85 407.48,-21.06"/>
<polygon fill="black" stroke="black" points="407.38,-24.57 417.28,-20.77 407.18,-17.57 407.38,-24.57"/>
<text xml:space="preserve" text-anchor="middle" x="343.1" y="-24.76" font-family="Helvetica,Arial,sans-serif" font-size="14.00">d</text>
</g>
<!-- 8 -->
<g id="node11" class="node">
<title>8</title>
<ellipse fill="none" stroke="black" cx="495.14" cy="-147.15" rx="18" ry="18"/>
<text xml:space="preserve" text-anchor="middle" x="495.14" y="-141.35" font-family="Helvetica,Arial,sans-serif" font-size="14.00">8</text>
</g>
<!-- 7&#45;&gt;8 -->
<g id="edge9" class="edge">
<title>7&#45;&gt;8</title>
<path fill="none" stroke="black" d="M401.08,-147.15C418.22,-147.15 444.83,-147.15 465.21,-147.15"/>
<polygon fill="black" stroke="black" points="465.15,-150.65 475.15,-147.15 465.15,-143.65 465.15,-150.65"/>
<text xml:space="preserve" text-anchor="middle" x="438.99" y="-148.85" font-family="Helvetica,Arial,sans-serif" font-size="14.00">b</text>
</g>
<!-- 8&#45;&gt;9 -->
<g id="edge11" class="edge">
<title>8&#45;&gt;9</title>
<path fill="none" stroke="black" d="M510.14,-137.04C518.53,-130.88 529.35,-122.75 538.64,-115.15 543.24,-111.39 548.07,-107.25 552.61,-103.26"/>
<polygon fill="black" stroke="black" points="554.62,-106.15 559.76,-96.89 549.97,-100.93 554.62,-106.15"/>
<text xml:space="preserve" text-anchor="middle" x="534.89" y="-122.29" font-family="Helvetica,Arial,sans-serif" font-size="14.00">ε</text>
</g>
<!-- 10&#45;&gt;S1 -->
<g id="edge15" class="edge">
<title>10&#45;&gt;S1</title>
<path fill="none" stroke="black" d="M459.54,-21.83C496.54,-25.03 577.31,-31.99 624.33,-36.05"/>
<polygon fill="black" stroke="black" points="624.02,-39.53 634.29,-36.91 624.62,-32.56 624.02,-39.53"/>
<text xml:space="preserve" text-anchor="middle" x="534.89" y="-30.31" font-family="Helvetica,Arial,sans-serif" font-size="14.00">ε</text>
</g>
<!-- 9&#45;&gt;S1 -->
<g id="edge14" class="edge">
<title>9&#45;&gt;S1</title>
<path fill="none" stroke="black" d="M591.16,-75.89C601.63,-70.33 615.81,-62.79 628.61,-55.98"/>
<polygon fill="black" stroke="black" points="629.95,-59.23 637.13,-51.45 626.66,-53.05 629.95,-59.23"/>
<text xml:space="preserve" text-anchor="middle" x="614.39" y="-66.04" font-family="Helvetica,Arial,sans-serif" font-size="14.00">ε</text>
</g>
<!-- 9&#45;&gt;5 -->
<g id="edge13" class="edge">
<title>9&#45;&gt;5</title>
<path fill="none" stroke="black" d="M556.87,-80.69C528.42,-75.3 468.89,-66.12 418.85,-72.15 388.57,-75.8 354.74,-84.69 331.76,-91.48"/>
<polygon fill="black" stroke="black" points="330.81,-88.11 322.25,-94.36 332.84,-94.81 330.81,-88.11"/>
<text xml:space="preserve" text-anchor="middle" x="438.99" y="-73.85" font-family="Helvetica,Arial,sans-serif" font-size="14.00">ε</text>
</g>
</g>
</svg>
