<?xml version="1.0" standalone="no"?>
<svg xmlns="http://www.w3.org/2000/svg" xmlns:xlink="http://www.w3.org/1999/xlink" width="157pt" height="404pt" viewBox="0.00 0.00 157.00 404.04">
<g id="graph0" class="graph" transform="translate(4,400.0400085449219) scale(1)" data-name="parse_tree">

<polygon fill="white" stroke="none" points="-4,4 -4,-400.04 153,-400.04 153,4 -4,4" style=""/>
<!-- S0 -->
<g id="node1" class="node" pointer-events="visible" data-name="S0">

<ellipse fill="none" stroke="black" cx="58" cy="-378.04" rx="18" ry="18" style=""/>
<text text-anchor="middle" x="58" y="-373.84" font-family="monospace" font-size="14.00" style="">S</text>
</g>
<!-- a1 -->
<g id="node2" class="node" pointer-events="visible" data-name="a1">

<text text-anchor="middle" x="27" y="-301.84" font-family="monospace" font-size="14.00" style="">a</text>
</g>
<!-- S0&#45;&gt;a1 -->
<g id="edge1" class="edge" data-name="S0-&gt;a1">

<path fill="none" stroke="black" d="M50.97,-361.16C47.42,-353.16 43.03,-343.23 38.97,-334.07" style=""/>
<polygon fill="black" stroke="black" points="42.3,-332.95 35.05,-325.22 35.9,-335.78 42.3,-332.95" style=""/>
</g>
<!-- S1 -->
<g id="node3" class="node" pointer-events="visible" data-name="S1">

<ellipse fill="none" stroke="black" cx="90" cy="-306.04" rx="18" ry="18" style=""/>
<text text-anchor="middle" x="90" y="-301.84" font-family="monospace" font-size="14.00" style="">S</text>
</g>
<!-- S0&#45;&gt;S1 -->
<g id="edge2" class="edge" data-name="S0-&gt;S1">

<path fill="none" stroke="black" d="M65.26,-361.16C69.03,-352.92 73.72,-342.65 78.01,-333.28" style=""/>
<polygon fill="black" stroke="black" points="81.16,-334.79 82.14,-324.24 74.8,-331.88 81.16,-334.79" style=""/>
</g>
<!-- T0 -->
<g id="node4" class="node" pointer-events="visible" data-name="T0">

<ellipse fill="none" stroke="black" cx="90" cy="-234.04" rx="18" ry="18" style=""/>
<text text-anchor="middle" x="90" y="-229.84" font-family="monospace" font-size="14.00" style="">T</text>
</g>
<!-- S1&#45;&gt;T0 -->
<g id="edge3" class="edge" data-name="S1-&gt;T0">

<path fill="none" stroke="black" d="M90,-287.74C90,-280.45 90,-271.77 90,-263.58" style=""/>
<polygon fill="black" stroke="black" points="93.5,-263.66 90,-253.66 86.5,-263.66 93.5,-263.66" style=""/>
</g>
<!-- U0 -->
<g id="node5" class="node" pointer-events="visible" data-name="U0">

<ellipse fill="none" stroke="black" cx="90" cy="-162.03" rx="18.02" ry="18.02" style=""/>
<text text-anchor="middle" x="90" y="-157.83" font-family="monospace" font-size="14.00" style="">U</text>
</g>
<!-- T0&#45;&gt;U0 -->
<g id="edge4" class="edge" data-name="T0-&gt;U0">

<path fill="none" stroke="black" d="M90,-215.74C90,-208.44 90,-199.76 90,-191.57" style=""/>
<polygon fill="black" stroke="black" points="93.5,-191.65 90,-181.65 86.5,-191.65 93.5,-191.65" style=""/>
</g>
<!-- c1 -->
<g id="node6" class="node" pointer-events="visible" data-name="c1">

<text text-anchor="middle" x="59" y="-85.81" font-family="monospace" font-size="14.00" style="">c</text>
</g>
<!-- U0&#45;&gt;c1 -->
<g id="edge5" class="edge" data-name="U0-&gt;c1">

<path fill="none" stroke="black" d="M82.97,-145.14C79.42,-137.14 75.03,-127.21 70.97,-118.05" style=""/>
<polygon fill="black" stroke="black" points="74.3,-116.92 67.05,-109.2 67.9,-119.76 74.3,-116.92" style=""/>
</g>
<!-- U1 -->
<g id="node7" class="node" pointer-events="visible" data-name="U1">

<ellipse fill="none" stroke="black" cx="122" cy="-90.01" rx="18.02" ry="18.02" style=""/>
<text text-anchor="middle" x="122" y="-85.81" font-family="monospace" font-size="14.00" style="">U</text>
</g>
<!-- U0&#45;&gt;U1 -->
<g id="edge6" class="edge" data-name="U0-&gt;U1">

<path fill="none" stroke="black" d="M97.26,-145.14C101.03,-136.91 105.72,-126.63 110.01,-117.26" style=""/>
<polygon fill="black" stroke="black" points="113.17,-118.76 114.14,-108.21 106.8,-115.85 113.17,-118.76" style=""/>
</g>
<!-- eps -->
<g id="node8" class="node" pointer-events="visible" data-name="eps">

<text text-anchor="middle" x="122" y="-13.8" font-family="monospace" font-size="14.00" style="">ε</text>
</g>
<!-- U1&#45;&gt;eps -->
<g id="edge7" class="edge" data-name="U1-&gt;eps">

<path fill="none" stroke="black" d="M122,-71.7C122,-64.22 122,-55.27 122,-46.88" style=""/>
<polygon fill="black" stroke="black" points="125.5,-47.14 122,-37.14 118.5,-47.14 125.5,-47.14" style=""/>
</g>
</g>
</svg>