<?xml version="1.0" encoding="UTF-8" standalone="no"?>
<!DOCTYPE svg PUBLIC "-//W3C//DTD SVG 1.1//EN"
 "http://www.w3.org/Graphics/SVG/1.1/DTD/svg11.dtd">
<!-- Generated by graphviz version 2.36.0 (20140111.2315)
 -->
<!-- Title: parse_tree Pages: 1 -->
<svg width="251pt" height="260pt"
 viewBox="0.00 0.00 251.00 260.00" xmlns="http://www.w3.org/2000/svg" xmlns:xlink="http://www.w3.org/1999/xlink">
<g id="graph0" class="graph" transform="scale(1 1) rotate(0) translate(4 256)">
<title>parse_tree</title>
<polygon fill="white" stroke="none" points="-4,4 -4,-256 247,-256 247,4 -4,4"/>
<!-- S0 -->
<g id="node1" class="node"><title>S0</title>
<ellipse fill="none" stroke="black" cx="153" cy="-234" rx="18" ry="18"/>
<text text-anchor="middle" x="153" y="-229.8" font-family="monospace" font-size="14.00">S</text>
</g>
<!-- S1 -->
<g id="node2" class="node"><title>S1</title>
<ellipse fill="none" stroke="black" cx="90" cy="-162" rx="18" ry="18"/>
<text text-anchor="middle" x="90" y="-157.8" font-family="monospace" font-size="14.00">S</text>
</g>
<!-- S0&#45;&gt;S1 -->
<g id="edge1" class="edge"><title>S0&#45;&gt;S1</title>
<path fill="none" stroke="black" d="M141.445,-220.161C132.324,-210.027 119.414,-195.683 108.809,-183.899"/>
<polygon fill="black" stroke="black" points="111.201,-181.325 101.91,-176.233 105.998,-186.008 111.201,-181.325"/>
</g>
<!-- S2 -->
<g id="node3" class="node"><title>S2</title>
<ellipse fill="none" stroke="black" cx="216" cy="-162" rx="18" ry="18"/>
<text text-anchor="middle" x="216" y="-157.8" font-family="monospace" font-size="14.00">S</text>
</g>
<!-- S0&#45;&gt;S2 -->
<g id="edge3" class="edge"><title>S0&#45;&gt;S2</title>
<path fill="none" stroke="black" d="M164.555,-220.161C173.676,-210.027 186.586,-195.683 197.191,-183.899"/>
<polygon fill="black" stroke="black" points="200.002,-186.008 204.09,-176.233 194.799,-181.325 200.002,-186.008"/>
</g>
<!-- b1 -->
<g id="node7" class="node"><title>b1</title>
<text text-anchor="middle" x="153" y="-157.8" font-family="monospace" font-size="14.00">b</text>
</g>
<!-- S0&#45;&gt;b1 -->
<g id="edge2" class="edge"><title>S0&#45;&gt;b1</title>
<path fill="none" stroke="black" d="M153,-215.697C153,-207.983 153,-198.712 153,-190.112"/>
<polygon fill="black" stroke="black" points="156.5,-190.104 153,-180.104 149.5,-190.104 156.5,-190.104"/>
</g>
<!-- S3 -->
<g id="node4" class="node"><title>S3</title>
<ellipse fill="none" stroke="black" cx="27" cy="-90" rx="18" ry="18"/>
<text text-anchor="middle" x="27" y="-85.8" font-family="monospace" font-size="14.00">S</text>
</g>
<!-- S1&#45;&gt;S3 -->
<g id="edge4" class="edge"><title>S1&#45;&gt;S3</title>
<path fill="none" stroke="black" d="M78.4448,-148.161C69.3244,-138.027 56.4144,-123.683 45.8091,-111.899"/>
<polygon fill="black" stroke="black" points="48.2012,-109.325 38.91,-104.233 42.9981,-114.008 48.2012,-109.325"/>
</g>
<!-- S4 -->
<g id="node5" class="node"><title>S4</title>
<ellipse fill="none" stroke="black" cx="153" cy="-90" rx="18" ry="18"/>
<text text-anchor="middle" x="153" y="-85.8" font-family="monospace" font-size="14.00">S</text>
</g>
<!-- S1&#45;&gt;S4 -->
<g id="edge6" class="edge"><title>S1&#45;&gt;S4</title>
<path fill="none" stroke="black" d="M101.555,-148.161C110.676,-138.027 123.586,-123.683 134.191,-111.899"/>
<polygon fill="black" stroke="black" points="137.002,-114.008 141.09,-104.233 131.799,-109.325 137.002,-114.008"/>
</g>
<!-- b2 -->
<g id="node9" class="node"><title>b2</title>
<text text-anchor="middle" x="90" y="-85.8" font-family="monospace" font-size="14.00">b</text>
</g>
<!-- S1&#45;&gt;b2 -->
<g id="edge5" class="edge"><title>S1&#45;&gt;b2</title>
<path fill="none" stroke="black" d="M90,-143.697C90,-135.983 90,-126.712 90,-118.112"/>
<polygon fill="black" stroke="black" points="93.5001,-118.104 90,-108.104 86.5001,-118.104 93.5001,-118.104"/>
</g>
<!-- a3 -->
<g id="node10" class="node"><title>a3</title>
<text text-anchor="middle" x="216" y="-85.8" font-family="monospace" font-size="14.00">a</text>
</g>
<!-- S2&#45;&gt;a3 -->
<g id="edge9" class="edge"><title>S2&#45;&gt;a3</title>
<path fill="none" stroke="black" d="M216,-143.697C216,-135.983 216,-126.712 216,-118.112"/>
<polygon fill="black" stroke="black" points="219.5,-118.104 216,-108.104 212.5,-118.104 219.5,-118.104"/>
</g>
<!-- a1 -->
<g id="node6" class="node"><title>a1</title>
<text text-anchor="middle" x="27" y="-13.8" font-family="monospace" font-size="14.00">a</text>
</g>
<!-- S3&#45;&gt;a1 -->
<g id="edge7" class="edge"><title>S3&#45;&gt;a1</title>
<path fill="none" stroke="black" d="M27,-71.6966C27,-63.9827 27,-54.7125 27,-46.1124"/>
<polygon fill="black" stroke="black" points="30.5001,-46.1043 27,-36.1043 23.5001,-46.1044 30.5001,-46.1043"/>
</g>
<!-- a2 -->
<g id="node8" class="node"><title>a2</title>
<text text-anchor="middle" x="153" y="-13.8" font-family="monospace" font-size="14.00">a</text>
</g>
<!-- S4&#45;&gt;a2 -->
<g id="edge8" class="edge"><title>S4&#45;&gt;a2</title>
<path fill="none" stroke="black" d="M153,-71.6966C153,-63.9827 153,-54.7125 153,-46.1124"/>
<polygon fill="black" stroke="black" points="156.5,-46.1043 153,-36.1043 149.5,-46.1044 156.5,-46.1043"/>
</g>
</g>
</svg>
