<?xml version="1.0" encoding="UTF-8" standalone="no"?>
<!DOCTYPE svg PUBLIC "-//W3C//DTD SVG 1.1//EN"
 "http://www.w3.org/Graphics/SVG/1.1/DTD/svg11.dtd">
<!-- Generated by graphviz version 14.1.5 (20260411.2331)
 -->
<!-- Title: parse_tree Pages: 1 -->
<svg width="188pt" height="188pt"
 viewBox="0.00 0.00 188.00 188.00" xmlns="http://www.w3.org/2000/svg" xmlns:xlink="http://www.w3.org/1999/xlink">
<g id="graph0" class="graph" transform="scale(1 1) rotate(0) translate(4 184)">
<title>parse_tree</title>
<polygon fill="white" stroke="none" points="-4,4 -4,-184 184,-184 184,4 -4,4"/>
<!-- E0 -->
<g id="node1" class="node">
<title>E0</title>
<ellipse fill="none" stroke="black" cx="90" cy="-162" rx="18" ry="18"/>
<text xml:space="preserve" text-anchor="middle" x="90" y="-156.95" font-family="Times,serif" font-size="14.00">E</text>
</g>
<!-- E1 -->
<g id="node2" class="node">
<title>E1</title>
<ellipse fill="none" stroke="black" cx="27" cy="-90" rx="18" ry="18"/>
<text xml:space="preserve" text-anchor="middle" x="27" y="-84.95" font-family="Times,serif" font-size="14.00">E</text>
</g>
<!-- E0&#45;&gt;E1 -->
<g id="edge1" class="edge">
<title>E0&#45;&gt;E1</title>
<path fill="none" stroke="black" d="M78.15,-147.83C66.89,-135.32 50.04,-116.6 38.8,-104.11"/>
</g>
<!-- E2 -->
<g id="node3" class="node">
<title>E2</title>
<ellipse fill="none" stroke="black" cx="153" cy="-90" rx="18" ry="18"/>
<text xml:space="preserve" text-anchor="middle" x="153" y="-84.95" font-family="Times,serif" font-size="14.00">E</text>
</g>
<!-- E0&#45;&gt;E2 -->
<g id="edge3" class="edge">
<title>E0&#45;&gt;E2</title>
<path fill="none" stroke="black" d="M101.85,-147.83C113.11,-135.32 129.96,-116.6 141.2,-104.11"/>
</g>
<!-- star -->
<g id="node5" class="node">
<title>star</title>
<text xml:space="preserve" text-anchor="middle" x="90" y="-84.95" font-family="Times,serif" font-size="14.00">*</text>
</g>
<!-- E0&#45;&gt;star -->
<g id="edge2" class="edge">
<title>E0&#45;&gt;star</title>
<path fill="none" stroke="black" d="M90,-143.7C90,-132.68 90,-118.5 90,-107.62"/>
</g>
<!-- a -->
<g id="node4" class="node">
<title>a</title>
<text xml:space="preserve" text-anchor="middle" x="27" y="-12.95" font-family="Times,serif" font-size="14.00">a</text>
</g>
<!-- E1&#45;&gt;a -->
<g id="edge4" class="edge">
<title>E1&#45;&gt;a</title>
<path fill="none" stroke="black" d="M27,-71.7C27,-60.68 27,-46.5 27,-35.62"/>
</g>
<!-- c -->
<g id="node6" class="node">
<title>c</title>
<text xml:space="preserve" text-anchor="middle" x="153" y="-12.95" font-family="Times,serif" font-size="14.00">c</text>
</g>
<!-- E2&#45;&gt;c -->
<g id="edge5" class="edge">
<title>E2&#45;&gt;c</title>
<path fill="none" stroke="black" d="M153,-71.7C153,-60.68 153,-46.5 153,-35.62"/>
</g>
</g>
</svg>
