<?xml version="1.0" encoding="UTF-8" standalone="no"?>
<!DOCTYPE svg PUBLIC "-//W3C//DTD SVG 1.1//EN"
 "http://www.w3.org/Graphics/SVG/1.1/DTD/svg11.dtd">
<!-- Generated by graphviz version 14.1.5 (20260411.2331)
 -->
<!-- Title: parse_tree Pages: 1 -->
<svg width="260pt" height="332pt"
 viewBox="0.00 0.00 260.00 332.00" xmlns="http://www.w3.org/2000/svg" xmlns:xlink="http://www.w3.org/1999/xlink">
<g id="graph0" class="graph" transform="scale(1 1) rotate(0) translate(4 328)">
<title>parse_tree</title>
<polygon fill="white" stroke="none" points="-4,4 -4,-328 256,-328 256,4 -4,4"/>
<!-- E0 -->
<g id="node1" class="node">
<title>E0</title>
<ellipse fill="none" stroke="black" cx="93" cy="-306" rx="18" ry="18"/>
<text xml:space="preserve" text-anchor="middle" x="93" y="-300.95" font-family="Times,serif" font-size="14.00">E</text>
</g>
<!-- E1 -->
<g id="node2" class="node">
<title>E1</title>
<ellipse fill="none" stroke="black" cx="28" cy="-234" rx="18" ry="18"/>
<text xml:space="preserve" text-anchor="middle" x="28" y="-228.95" font-family="Times,serif" font-size="14.00">E</text>
</g>
<!-- E0&#45;&gt;E1 -->
<g id="edge1" class="edge">
<title>E0&#45;&gt;E1</title>
<path fill="none" stroke="black" d="M81.08,-292.16C69.35,-279.53 51.55,-260.36 39.85,-247.76"/>
</g>
<!-- E2 -->
<g id="node3" class="node">
<title>E2</title>
<ellipse fill="none" stroke="black" cx="160" cy="-234" rx="18" ry="18"/>
<text xml:space="preserve" text-anchor="middle" x="160" y="-228.95" font-family="Times,serif" font-size="14.00">E</text>
</g>
<!-- E0&#45;&gt;E2 -->
<g id="edge3" class="edge">
<title>E0&#45;&gt;E2</title>
<path fill="none" stroke="black" d="M104.98,-292.49C117.17,-279.74 135.97,-260.11 148.13,-247.41"/>
</g>
<!-- star -->
<g id="node8" class="node">
<title>star</title>
<text xml:space="preserve" text-anchor="middle" x="93" y="-228.95" font-family="Times,serif" font-size="14.00">*</text>
</g>
<!-- E0&#45;&gt;star -->
<g id="edge2" class="edge">
<title>E0&#45;&gt;star</title>
<path fill="none" stroke="black" d="M93,-287.7C93,-276.68 93,-262.5 93,-251.62"/>
</g>
<!-- c -->
<g id="node7" class="node">
<title>c</title>
<text xml:space="preserve" text-anchor="middle" x="27" y="-156.95" font-family="Times,serif" font-size="14.00">c</text>
</g>
<!-- E1&#45;&gt;c -->
<g id="edge4" class="edge">
<title>E1&#45;&gt;c</title>
<path fill="none" stroke="black" d="M27.75,-215.7C27.6,-204.68 27.39,-190.5 27.24,-179.62"/>
</g>
<!-- E3 -->
<g id="node4" class="node">
<title>E3</title>
<ellipse fill="none" stroke="black" cx="162" cy="-162" rx="18" ry="18"/>
<text xml:space="preserve" text-anchor="middle" x="162" y="-156.95" font-family="Times,serif" font-size="14.00">E</text>
</g>
<!-- E2&#45;&gt;E3 -->
<g id="edge6" class="edge">
<title>E2&#45;&gt;E3</title>
<path fill="none" stroke="black" d="M160.49,-215.7C160.8,-204.85 161.2,-190.92 161.51,-180.1"/>
</g>
<!-- lparen -->
<g id="node9" class="node">
<title>lparen</title>
<text xml:space="preserve" text-anchor="middle" x="99" y="-156.95" font-family="Times,serif" font-size="14.00">(</text>
</g>
<!-- E2&#45;&gt;lparen -->
<g id="edge5" class="edge">
<title>E2&#45;&gt;lparen</title>
<path fill="none" stroke="black" d="M148.53,-219.83C138.66,-208.51 124.36,-192.1 113.66,-179.82"/>
</g>
<!-- rparen -->
<g id="node10" class="node">
<title>rparen</title>
<text xml:space="preserve" text-anchor="middle" x="225" y="-156.95" font-family="Times,serif" font-size="14.00">)</text>
</g>
<!-- E2&#45;&gt;rparen -->
<g id="edge7" class="edge">
<title>E2&#45;&gt;rparen</title>
<path fill="none" stroke="black" d="M171.92,-220.16C182.4,-208.87 197.74,-192.36 209.23,-179.98"/>
</g>
<!-- E4 -->
<g id="node5" class="node">
<title>E4</title>
<ellipse fill="none" stroke="black" cx="99" cy="-90" rx="18" ry="18"/>
<text xml:space="preserve" text-anchor="middle" x="99" y="-84.95" font-family="Times,serif" font-size="14.00">E</text>
</g>
<!-- E3&#45;&gt;E4 -->
<g id="edge8" class="edge">
<title>E3&#45;&gt;E4</title>
<path fill="none" stroke="black" d="M150.15,-147.83C138.89,-135.32 122.04,-116.6 110.8,-104.11"/>
</g>
<!-- E5 -->
<g id="node6" class="node">
<title>E5</title>
<ellipse fill="none" stroke="black" cx="225" cy="-90" rx="18" ry="18"/>
<text xml:space="preserve" text-anchor="middle" x="225" y="-84.95" font-family="Times,serif" font-size="14.00">E</text>
</g>
<!-- E3&#45;&gt;E5 -->
<g id="edge10" class="edge">
<title>E3&#45;&gt;E5</title>
<path fill="none" stroke="black" d="M173.85,-147.83C185.11,-135.32 201.96,-116.6 213.2,-104.11"/>
</g>
<!-- plus -->
<g id="node11" class="node">
<title>plus</title>
<text xml:space="preserve" text-anchor="middle" x="162" y="-84.95" font-family="Times,serif" font-size="14.00">+</text>
</g>
<!-- E3&#45;&gt;plus -->
<g id="edge9" class="edge">
<title>E3&#45;&gt;plus</title>
<path fill="none" stroke="black" d="M162,-143.7C162,-132.68 162,-118.5 162,-107.62"/>
</g>
<!-- b -->
<g id="node12" class="node">
<title>b</title>
<text xml:space="preserve" text-anchor="middle" x="99" y="-12.95" font-family="Times,serif" font-size="14.00">b</text>
</g>
<!-- E4&#45;&gt;b -->
<g id="edge11" class="edge">
<title>E4&#45;&gt;b</title>
<path fill="none" stroke="black" d="M99,-71.7C99,-60.68 99,-46.5 99,-35.62"/>
</g>
<!-- d -->
<g id="node13" class="node">
<title>d</title>
<text xml:space="preserve" text-anchor="middle" x="225" y="-12.95" font-family="Times,serif" font-size="14.00">d</text>
</g>
<!-- E5&#45;&gt;d -->
<g id="edge12" class="edge">
<title>E5&#45;&gt;d</title>
<path fill="none" stroke="black" d="M225,-71.7C225,-60.68 225,-46.5 225,-35.62"/>
</g>
</g>
</svg>
