<?xml version="1.0" encoding="UTF-8" standalone="no"?>
<!DOCTYPE svg PUBLIC "-//W3C//DTD SVG 1.1//EN"
 "http://www.w3.org/Graphics/SVG/1.1/DTD/svg11.dtd">
<!-- Generated by graphviz version 2.36.0 (20140111.2315)
 -->
<!-- Title: parse_tree Pages: 1 -->
<svg width="134pt" height="188pt"
 viewBox="0.00 0.00 134.00 188.00" xmlns="http://www.w3.org/2000/svg" xmlns:xlink="http://www.w3.org/1999/xlink">
<g id="graph0" class="graph" transform="scale(1 1) rotate(0) translate(4 184)">
<title>parse_tree</title>
<polygon fill="white" stroke="none" points="-4,4 -4,-184 130,-184 130,4 -4,4"/>
<!-- S -->
<g id="node1" class="node"><title>S</title>
<ellipse fill="none" stroke="black" cx="62" cy="-162" rx="18" ry="18"/>
<text text-anchor="middle" x="62" y="-157.8" font-family="monospace" font-size="14.00">S</text>
</g>
<!-- A -->
<g id="node2" class="node"><title>A</title>
<ellipse fill="none" stroke="black" cx="31" cy="-90" rx="18" ry="18"/>
<text text-anchor="middle" x="31" y="-85.8" font-family="monospace" font-size="14.00">A</text>
</g>
<!-- S&#45;&gt;A -->
<g id="edge1" class="edge"><title>S&#45;&gt;A</title>
<path fill="none" stroke="black" d="M54.9656,-145.116C49.8923,-133.66 43.0735,-118.263 38.0065,-106.821"/>
</g>
<!-- B -->
<g id="node3" class="node"><title>B</title>
<ellipse fill="none" stroke="black" cx="94" cy="-90" rx="18" ry="18"/>
<text text-anchor="middle" x="94" y="-85.8" font-family="monospace" font-size="14.00">B</text>
</g>
<!-- S&#45;&gt;B -->
<g id="edge2" class="edge"><title>S&#45;&gt;B</title>
<path fill="none" stroke="black" d="M69.2613,-145.116C74.4983,-133.66 81.5371,-118.263 86.7674,-106.821"/>
</g>
<!-- a -->
<g id="node4" class="node"><title>a</title>
<text text-anchor="middle" x="27" y="-13.8" font-family="monospace" font-size="14.00">a</text>
</g>
<!-- A&#45;&gt;a -->
<g id="edge3" class="edge"><title>A&#45;&gt;a</title>
<path fill="none" stroke="black" d="M30.0112,-71.6966C29.3912,-60.8463 28.5952,-46.9167 27.9774,-36.1043"/>
</g>
<!-- b -->
<g id="node5" class="node"><title>b</title>
<text text-anchor="middle" x="99" y="-13.8" font-family="monospace" font-size="14.00">b</text>
</g>
<!-- B&#45;&gt;b -->
<g id="edge4" class="edge"><title>B&#45;&gt;b</title>
<path fill="none" stroke="black" d="M95.236,-71.6966C96.011,-60.8463 97.0059,-46.9167 97.7783,-36.1043"/>
</g>
</g>
</svg>
