<?xml version="1.0" standalone="no"?>
<svg xmlns="http://www.w3.org/2000/svg" xmlns:xlink="http://www.w3.org/1999/xlink" width="251pt" height="260pt" viewBox="0.00 0.00 251 260">
<g id="graph0" class="graph" transform="translate(4,256) scale(1)" data-name="parse_tree">

<polygon fill="white" stroke="none" points="-4,4 -4,-256 247,-256 247,4 -4,4"/>
<!-- E0 -->
<g id="node1" class="node" pointer-events="visible" data-name="E0">

<ellipse fill="none" stroke="black" cx="153" cy="-234" rx="18" ry="18"/>
<text text-anchor="middle" x="153" y="-229.8" font-family="monospace" font-size="14.00">E</text>
</g>
<!-- E1 -->
<g id="node3" class="node" pointer-events="visible" data-name="E1">

<ellipse fill="none" stroke="black" cx="90" cy="-162" rx="18" ry="18"/>
<text text-anchor="middle" x="90" y="-157.8" font-family="monospace" font-size="14.00">E</text>
</g>
<!-- E0&#45;&gt;E1 -->
<g id="edge1" class="edge" data-name="E0-&gt;E1">

<path fill="none" stroke="black" d="M141.15,-219.83C132.17,-209.86 119.66,-195.95 109.25,-184.39"/>
<polygon fill="black" stroke="black" points="112.1,-182.32 102.81,-177.23 106.9,-187.01 112.1,-182.32"/>
</g>
<!-- minus1 -->
<g id="node4" class="node" pointer-events="visible" data-name="minus1">

<text text-anchor="middle" x="90" y="-85.8" font-family="monospace" font-size="14.00">-</text>
</g>
<!-- E0&#45;&gt;minus1 -->
<g id="edge3" class="edge" data-name="E0-&gt;E2" data-comment="E0-&gt;minus1">

<path fill="none" stroke="black" d="M164.85,-219.83C173.83,-209.86 186.34,-195.95 196.75,-184.39"/>
<polygon fill="black" stroke="black" points="199.1,-187.01 203.19,-177.23 193.9,-182.32 199.1,-187.01"/>
</g>
<!-- E2 -->
<g id="node5" class="node" pointer-events="visible" data-name="E2">

<ellipse fill="none" stroke="black" cx="216" cy="-162" rx="18" ry="18"/>
<text text-anchor="middle" x="216" y="-157.8" font-family="monospace" font-size="14.00">E</text>
</g>
<!-- E0&#45;&gt;E2 -->
<g id="edge2" class="edge" data-name="E0-&gt;times1" data-comment="E0-&gt;E2">

<path fill="none" stroke="black" d="M153,-215.7C153,-208.21 153,-199.26 153,-190.88"/>
<polygon fill="black" stroke="black" points="156.5,-191.14 153,-181.14 149.5,-191.14 156.5,-191.14"/>
</g>
<!-- a1 -->
<g id="node6" class="node" pointer-events="visible" data-name="a1">

<text text-anchor="middle" x="27" y="-13.8" font-family="monospace" font-size="14.00">a</text>
</g>
<!-- E1&#45;&gt;a1 -->
<g id="edge4" class="edge" data-name="E1-&gt;E3" data-comment="E1-&gt;a1">

<path fill="none" stroke="black" d="M78.15,-147.83C69.17,-137.86 56.66,-123.95 46.25,-112.39"/>
<polygon fill="black" stroke="black" points="49.1,-110.32 39.81,-105.23 43.9,-115.01 49.1,-110.32"/>
</g><g id="edge5" class="edge" data-name="E1-&gt;minus1" data-comment="E1-&gt;a1">

<path fill="none" stroke="black" d="M90,-143.7C90,-136.21 90,-127.26 90,-118.88"/>
<polygon fill="black" stroke="black" points="93.5,-119.14 90,-109.14 86.5,-119.14 93.5,-119.14"/>
</g>
<!-- E3 -->
<g id="node7" class="node" pointer-events="visible" data-name="E3">

<ellipse fill="none" stroke="black" cx="27" cy="-90" rx="18" ry="18"/>
<text text-anchor="middle" x="27" y="-85.8" font-family="monospace" font-size="14.00">E</text>
</g>
<!-- E2&#45;&gt;E3 -->

<!-- times1 -->
<g id="node2" class="node" pointer-events="visible" data-name="times1">

<text text-anchor="middle" x="153" y="-157.8" font-family="monospace" font-size="14.00">*</text>
</g>
<g id="node8" class="node" pointer-events="visible" data-name="E4" data-comment="times1">

<ellipse fill="none" stroke="black" cx="153" cy="-90" rx="18" ry="18"/>
<text text-anchor="middle" x="153" y="-85.8" font-family="monospace" font-size="14.00">E</text>
</g><!-- b1 -->
<!-- E3&#45;&gt;a -->

<!-- E3&#45;&gt;b -->
<g id="edge9" class="edge" data-name="E4-&gt;b1" data-comment="E3-&gt;b">

<path fill="none" stroke="black" d="M153,-71.7C153,-64.21 153,-55.26 153,-46.88"/>
<polygon fill="black" stroke="black" points="156.5,-47.14 153,-37.14 149.5,-47.14 156.5,-47.14"/>
</g>
<g id="node9" class="node" pointer-events="visible" data-name="b1" data-comment="E3-&gt;b">

<text text-anchor="middle" x="153" y="-13.8" font-family="monospace" font-size="14.00">b</text>
</g><!-- c1 -->
<!-- c1 -->
<!-- c1 -->
<!-- c1 -->
<g id="node10" class="node" pointer-events="visible" data-name="c1">

<text text-anchor="middle" x="216" y="-85.8" font-family="monospace" font-size="14.00">c</text>
</g><g id="edge6" class="edge" data-name="E1-&gt;E4" data-comment="c1">

<path fill="none" stroke="black" d="M101.85,-147.83C110.83,-137.86 123.34,-123.95 133.75,-112.39"/>
<polygon fill="black" stroke="black" points="136.1,-115.01 140.19,-105.23 130.9,-110.32 136.1,-115.01"/>
</g>

<g id="edge7" class="edge" data-name="E2-&gt;c1" data-comment="c1">

<path fill="none" stroke="black" d="M216,-143.7C216,-136.21 216,-127.26 216,-118.88"/>
<polygon fill="black" stroke="black" points="219.5,-119.14 216,-109.14 212.5,-119.14 219.5,-119.14"/>
</g>

<g id="edge8" class="edge" data-name="E3-&gt;a1" data-comment="c1">

<path fill="none" stroke="black" d="M27,-71.7C27,-64.21 27,-55.26 27,-46.88"/>
<polygon fill="black" stroke="black" points="30.5,-47.14 27,-37.14 23.5,-47.14 30.5,-47.14"/>
</g>
</g>
</svg>