<?xml version="1.0" standalone="no"?>
<svg xmlns="http://www.w3.org/2000/svg" xmlns:xlink="http://www.w3.org/1999/xlink" width="134pt" height="188pt" viewBox="0.00 0.00 134 188.02">
<g id="graph0" class="graph" transform="translate(4,184.02000427246094) scale(1)" data-name="parse_tree">

<polygon fill="white" stroke="none" points="-4,4 -4,-184.02 130,-184.02 130,4 -4,4"/>
<!-- S -->
<g id="node1" class="node" pointer-events="visible" data-name="S">

<ellipse fill="none" stroke="black" cx="62" cy="-162.02" rx="18" ry="18"/>
<text text-anchor="middle" x="62" y="-157.82" font-family="monospace" font-size="14.00">S</text>
</g>
<!-- A -->
<g id="node2" class="node" pointer-events="visible" data-name="A">

<ellipse fill="none" stroke="black" cx="31" cy="-90.01" rx="18.02" ry="18.02"/>
<text text-anchor="middle" x="31" y="-85.81" font-family="monospace" font-size="14.00">A</text>
</g>
<!-- S&#45;&gt;A -->
<g id="edge1" class="edge" data-name="S-&gt;A">

<path fill="none" stroke="black" d="M54.97,-145.13C51.32,-136.9 46.77,-126.63 42.62,-117.25"/>
<polygon fill="black" stroke="black" points="45.87,-115.94 38.62,-108.22 39.47,-118.78 45.87,-115.94"/>
</g>
<!-- B -->
<g id="node3" class="node" pointer-events="visible" data-name="B">

<ellipse fill="none" stroke="black" cx="94" cy="-90.01" rx="18" ry="18"/>
<text text-anchor="middle" x="94" y="-85.81" font-family="monospace" font-size="14.00">B</text>
</g>
<!-- S&#45;&gt;B -->
<g id="edge2" class="edge" data-name="S-&gt;B">

<path fill="none" stroke="black" d="M69.26,-145.13C73.03,-136.9 77.72,-126.63 82.01,-117.25"/>
<polygon fill="black" stroke="black" points="85.16,-118.76 86.14,-108.21 78.8,-115.85 85.16,-118.76"/>
</g>
<!-- a -->
<g id="node4" class="node" pointer-events="visible" data-name="a">

<text text-anchor="middle" x="27" y="-13.8" font-family="monospace" font-size="14.00">a</text>
</g>
<!-- A&#45;&gt;a -->
<g id="edge3" class="edge" data-name="A-&gt;a">

<path fill="none" stroke="black" d="M30.01,-71.7C29.58,-64.22 29.07,-55.27 28.59,-46.88"/>
<polygon fill="black" stroke="black" points="32.1,-46.92 28.04,-37.14 25.11,-47.32 32.1,-46.92"/>
</g>
<!-- b -->
<g id="node5" class="node" pointer-events="visible" data-name="b">

<text text-anchor="middle" x="99" y="-13.8" font-family="monospace" font-size="14.00">b</text>
</g>
<!-- B&#45;&gt;b -->
<g id="edge4" class="edge" data-name="B-&gt;b">

<path fill="none" stroke="black" d="M95.24,-71.7C95.77,-64.22 96.41,-55.27 97.01,-46.88"/>
<polygon fill="black" stroke="black" points="100.48,-47.36 97.7,-37.13 93.5,-46.86 100.48,-47.36"/>
</g>
</g>
</svg>