<?xml version="1.0" encoding="UTF-8" standalone="no"?>
<!DOCTYPE svg PUBLIC "-//W3C//DTD SVG 1.1//EN"
 "http://www.w3.org/Graphics/SVG/1.1/DTD/svg11.dtd">
<!-- Generated by graphviz version 2.36.0 (20140111.2315)
 -->
<!-- Title: parse_tree Pages: 1 -->
<svg width="188pt" height="188pt"
 viewBox="0.00 0.00 188.00 188.00" xmlns="http://www.w3.org/2000/svg" xmlns:xlink="http://www.w3.org/1999/xlink">
<g id="graph0" class="graph" transform="scale(1 1) rotate(0) translate(4 184)">
<title>parse_tree</title>
<polygon fill="white" stroke="none" points="-4,4 -4,-184 184,-184 184,4 -4,4"/>
<!-- E0 -->
<g id="node1" class="node"><title>E0</title>
<ellipse fill="none" stroke="black" cx="90" cy="-162" rx="18" ry="18"/>
<text text-anchor="middle" x="90" y="-157.8" font-family="Times,serif" font-size="14.00">E</text>
</g>
<!-- E1 -->
<g id="node2" class="node"><title>E1</title>
<ellipse fill="none" stroke="black" cx="27" cy="-90" rx="18" ry="18"/>
<text text-anchor="middle" x="27" y="-85.8" font-family="Times,serif" font-size="14.00">E</text>
</g>
<!-- E0&#45;&gt;E1 -->
<g id="edge1" class="edge"><title>E0&#45;&gt;E1</title>
<path fill="none" stroke="black" d="M78.4448,-148.161C67.2197,-135.689 50.2542,-116.838 38.91,-104.233"/>
</g>
<!-- E2 -->
<g id="node3" class="node"><title>E2</title>
<ellipse fill="none" stroke="black" cx="153" cy="-90" rx="18" ry="18"/>
<text text-anchor="middle" x="153" y="-85.8" font-family="Times,serif" font-size="14.00">E</text>
</g>
<!-- E0&#45;&gt;E2 -->
<g id="edge3" class="edge"><title>E0&#45;&gt;E2</title>
<path fill="none" stroke="black" d="M101.555,-148.161C112.78,-135.689 129.746,-116.838 141.09,-104.233"/>
</g>
<!-- star -->
<g id="node5" class="node"><title>star</title>
<text text-anchor="middle" x="90" y="-85.8" font-family="Times,serif" font-size="14.00">*</text>
</g>
<!-- E0&#45;&gt;star -->
<g id="edge2" class="edge"><title>E0&#45;&gt;star</title>
<path fill="none" stroke="black" d="M90,-143.697C90,-132.846 90,-118.917 90,-108.104"/>
</g>
<!-- a -->
<g id="node4" class="node"><title>a</title>
<text text-anchor="middle" x="27" y="-13.8" font-family="Times,serif" font-size="14.00">a</text>
</g>
<!-- E1&#45;&gt;a -->
<g id="edge4" class="edge"><title>E1&#45;&gt;a</title>
<path fill="none" stroke="black" d="M27,-71.6966C27,-60.8463 27,-46.9167 27,-36.1043"/>
</g>
<!-- c -->
<g id="node6" class="node"><title>c</title>
<text text-anchor="middle" x="153" y="-13.8" font-family="Times,serif" font-size="14.00">c</text>
</g>
<!-- E2&#45;&gt;c -->
<g id="edge5" class="edge"><title>E2&#45;&gt;c</title>
<path fill="none" stroke="black" d="M153,-71.6966C153,-60.8463 153,-46.9167 153,-36.1043"/>
</g>
</g>
</svg>
