<?xml version="1.0" standalone="no"?>
<svg xmlns="http://www.w3.org/2000/svg" xmlns:xlink="http://www.w3.org/1999/xlink" width="188pt" height="188pt" viewBox="0.00 0.00 188 188.00">
<g id="graph0" class="graph" transform="translate(4,184) scale(1)" data-name="parse_tree">

<polygon fill="white" stroke="none" points="-4,4 -4,-184 184,-184 184,4 -4,4"/>
<!-- E0 -->
<g id="node1" class="node" pointer-events="visible" data-name="E0">

<ellipse fill="none" stroke="black" cx="90" cy="-162" rx="18" ry="18"/>
<text text-anchor="middle" x="90" y="-157.8" font-family="Times,serif" font-size="14.00">E</text>
</g>
<!-- E1 -->
<g id="node2" class="node" pointer-events="visible" data-name="E1">

<ellipse fill="none" stroke="black" cx="27" cy="-90" rx="18" ry="18"/>
<text text-anchor="middle" x="27" y="-85.8" font-family="Times,serif" font-size="14.00">E</text>
</g>
<!-- E0&#45;&gt;E1 -->
<g id="edge1" class="edge" data-name="E0-&gt;E1">

<path fill="none" stroke="black" d="M78.15,-147.83C69.17,-137.86 56.66,-123.95 46.25,-112.39"/>
<polygon fill="black" stroke="black" points="49.1,-110.32 39.81,-105.23 43.9,-115.01 49.1,-110.32"/>
</g>
<!-- E2 -->
<g id="node3" class="node" pointer-events="visible" data-name="E2">

<ellipse fill="none" stroke="black" cx="153" cy="-90" rx="18" ry="18"/>
<text text-anchor="middle" x="153" y="-85.8" font-family="Times,serif" font-size="14.00">E</text>
</g>
<!-- E0&#45;&gt;E2 -->
<g id="edge3" class="edge" data-name="E0-&gt;E2">

<path fill="none" stroke="black" d="M101.85,-147.83C110.83,-137.86 123.34,-123.95 133.75,-112.39"/>
<polygon fill="black" stroke="black" points="136.1,-115.01 140.19,-105.23 130.9,-110.32 136.1,-115.01"/>
</g>
<!-- star -->
<g id="node5" class="node" pointer-events="visible" data-name="star">

<text text-anchor="middle" x="90" y="-85.8" font-family="Times,serif" font-size="14.00">*</text>
</g>
<!-- E0&#45;&gt;star -->
<g id="edge2" class="edge" data-name="E0-&gt;star">

<path fill="none" stroke="black" d="M90,-143.7C90,-136.21 90,-127.26 90,-118.88"/>
<polygon fill="black" stroke="black" points="93.5,-119.14 90,-109.14 86.5,-119.14 93.5,-119.14"/>
</g>
<!-- a -->
<g id="node4" class="node" pointer-events="visible" data-name="a">

<text text-anchor="middle" x="27" y="-13.8" font-family="Times,serif" font-size="14.00">a</text>
</g>
<!-- E1&#45;&gt;a -->
<g id="edge4" class="edge" data-name="E1-&gt;a">

<path fill="none" stroke="black" d="M27,-71.7C27,-64.21 27,-55.26 27,-46.88"/>
<polygon fill="black" stroke="black" points="30.5,-47.14 27,-37.14 23.5,-47.14 30.5,-47.14"/>
</g>
<!-- c -->
<g id="node6" class="node" pointer-events="visible" data-name="c">

<text text-anchor="middle" x="153" y="-13.8" font-family="Times,serif" font-size="14.00">c</text>
</g>
<!-- E2&#45;&gt;c -->
<g id="edge5" class="edge" data-name="E2-&gt;c">

<path fill="none" stroke="black" d="M153,-71.7C153,-64.21 153,-55.26 153,-46.88"/>
<polygon fill="black" stroke="black" points="156.5,-47.14 153,-37.14 149.5,-47.14 156.5,-47.14"/>
</g>
</g>
</svg>