<?xml version="1.0" encoding="UTF-8" standalone="no"?>
<!DOCTYPE svg PUBLIC "-//W3C//DTD SVG 1.1//EN"
 "http://www.w3.org/Graphics/SVG/1.1/DTD/svg11.dtd">
<!-- Generated by graphviz version 2.36.0 (20140111.2315)
 -->
<!-- Title: parse_tree Pages: 1 -->
<svg width="251pt" height="260pt"
 viewBox="0.00 0.00 251.00 260.00" xmlns="http://www.w3.org/2000/svg" xmlns:xlink="http://www.w3.org/1999/xlink">
<g id="graph0" class="graph" transform="scale(1 1) rotate(0) translate(4 256)">
<title>parse_tree</title>
<polygon fill="white" stroke="none" points="-4,4 -4,-256 247,-256 247,4 -4,4"/>
<!-- E0 -->
<g id="node1" class="node"><title>E0</title>
<ellipse fill="none" stroke="black" cx="153" cy="-234" rx="18" ry="18"/>
<text text-anchor="middle" x="153" y="-229.8" font-family="monospace" font-size="14.00">E</text>
</g>
<!-- E1 -->
<g id="node2" class="node"><title>E1</title>
<ellipse fill="none" stroke="black" cx="90" cy="-162" rx="18" ry="18"/>
<text text-anchor="middle" x="90" y="-157.8" font-family="monospace" font-size="14.00">E</text>
</g>
<!-- E0&#45;&gt;E1 -->
<g id="edge1" class="edge"><title>E0&#45;&gt;E1</title>
<path fill="none" stroke="black" d="M141.445,-220.161C130.22,-207.689 113.254,-188.838 101.91,-176.233"/>
</g>
<!-- minus1 -->
<g id="node3" class="node"><title>minus1</title>
<text text-anchor="middle" x="153" y="-157.8" font-family="monospace" font-size="14.00">&#45;</text>
</g>
<!-- E0&#45;&gt;minus1 -->
<g id="edge2" class="edge"><title>E0&#45;&gt;minus1</title>
<path fill="none" stroke="black" d="M153,-215.697C153,-204.846 153,-190.917 153,-180.104"/>
</g>
<!-- E2 -->
<g id="node4" class="node"><title>E2</title>
<ellipse fill="none" stroke="black" cx="216" cy="-162" rx="18" ry="18"/>
<text text-anchor="middle" x="216" y="-157.8" font-family="monospace" font-size="14.00">E</text>
</g>
<!-- E0&#45;&gt;E2 -->
<g id="edge3" class="edge"><title>E0&#45;&gt;E2</title>
<path fill="none" stroke="black" d="M164.555,-220.161C175.78,-207.689 192.746,-188.838 204.09,-176.233"/>
</g>
<!-- E3 -->
<g id="node5" class="node"><title>E3</title>
<ellipse fill="none" stroke="black" cx="27" cy="-90" rx="18" ry="18"/>
<text text-anchor="middle" x="27" y="-85.8" font-family="monospace" font-size="14.00">E</text>
</g>
<!-- E1&#45;&gt;E3 -->
<g id="edge4" class="edge"><title>E1&#45;&gt;E3</title>
<path fill="none" stroke="black" d="M78.4448,-148.161C67.2197,-135.689 50.2542,-116.838 38.91,-104.233"/>
</g>
<!-- minus2 -->
<g id="node6" class="node"><title>minus2</title>
<text text-anchor="middle" x="90" y="-85.8" font-family="monospace" font-size="14.00">&#45;</text>
</g>
<!-- E1&#45;&gt;minus2 -->
<g id="edge5" class="edge"><title>E1&#45;&gt;minus2</title>
<path fill="none" stroke="black" d="M90,-143.697C90,-132.846 90,-118.917 90,-108.104"/>
</g>
<!-- E4 -->
<g id="node7" class="node"><title>E4</title>
<ellipse fill="none" stroke="black" cx="153" cy="-90" rx="18" ry="18"/>
<text text-anchor="middle" x="153" y="-85.8" font-family="monospace" font-size="14.00">E</text>
</g>
<!-- E1&#45;&gt;E4 -->
<g id="edge6" class="edge"><title>E1&#45;&gt;E4</title>
<path fill="none" stroke="black" d="M101.555,-148.161C112.78,-135.689 129.746,-116.838 141.09,-104.233"/>
</g>
<!-- c1 -->
<g id="node10" class="node"><title>c1</title>
<text text-anchor="middle" x="216" y="-85.8" font-family="monospace" font-size="14.00">c</text>
</g>
<!-- E2&#45;&gt;c1 -->
<g id="edge9" class="edge"><title>E2&#45;&gt;c1</title>
<path fill="none" stroke="black" d="M216,-143.697C216,-132.846 216,-118.917 216,-108.104"/>
</g>
<!-- a1 -->
<g id="node8" class="node"><title>a1</title>
<text text-anchor="middle" x="27" y="-13.8" font-family="monospace" font-size="14.00">a</text>
</g>
<!-- E3&#45;&gt;a1 -->
<g id="edge7" class="edge"><title>E3&#45;&gt;a1</title>
<path fill="none" stroke="black" d="M27,-71.6966C27,-60.8463 27,-46.9167 27,-36.1043"/>
</g>
<!-- b1 -->
<g id="node9" class="node"><title>b1</title>
<text text-anchor="middle" x="153" y="-13.8" font-family="monospace" font-size="14.00">b</text>
</g>
<!-- E4&#45;&gt;b1 -->
<g id="edge8" class="edge"><title>E4&#45;&gt;b1</title>
<path fill="none" stroke="black" d="M153,-71.6966C153,-60.8463 153,-46.9167 153,-36.1043"/>
</g>
</g>
</svg>
