<?xml version="1.0" encoding="UTF-8" standalone="no"?>
<!DOCTYPE svg PUBLIC "-//W3C//DTD SVG 1.1//EN"
 "http://www.w3.org/Graphics/SVG/1.1/DTD/svg11.dtd">
<!-- Generated by graphviz version 2.36.0 (20140111.2315)
 -->
<!-- Title: parse_tree Pages: 1 -->
<svg width="260pt" height="332pt"
 viewBox="0.00 0.00 260.00 332.00" xmlns="http://www.w3.org/2000/svg" xmlns:xlink="http://www.w3.org/1999/xlink">
<g id="graph0" class="graph" transform="scale(1 1) rotate(0) translate(4 328)">
<title>parse_tree</title>
<polygon fill="white" stroke="none" points="-4,4 -4,-328 256,-328 256,4 -4,4"/>
<!-- E0 -->
<g id="node1" class="node"><title>E0</title>
<ellipse fill="none" stroke="black" cx="96" cy="-306" rx="18" ry="18"/>
<text text-anchor="middle" x="96" y="-301.8" font-family="Times,serif" font-size="14.00">E</text>
</g>
<!-- E1 -->
<g id="node2" class="node"><title>E1</title>
<ellipse fill="none" stroke="black" cx="31" cy="-234" rx="18" ry="18"/>
<text text-anchor="middle" x="31" y="-229.8" font-family="Times,serif" font-size="14.00">E</text>
</g>
<!-- E0&#45;&gt;E1 -->
<g id="edge1" class="edge"><title>E0&#45;&gt;E1</title>
<path fill="none" stroke="black" d="M84.078,-292.161C72.3499,-279.531 54.5483,-260.36 42.8464,-247.758"/>
</g>
<!-- E2 -->
<g id="node3" class="node"><title>E2</title>
<ellipse fill="none" stroke="black" cx="160" cy="-234" rx="18" ry="18"/>
<text text-anchor="middle" x="160" y="-229.8" font-family="Times,serif" font-size="14.00">E</text>
</g>
<!-- E0&#45;&gt;E2 -->
<g id="edge3" class="edge"><title>E0&#45;&gt;E2</title>
<path fill="none" stroke="black" d="M107.739,-292.161C119.286,-279.531 136.814,-260.36 148.336,-247.758"/>
</g>
<!-- star -->
<g id="node8" class="node"><title>star</title>
<text text-anchor="middle" x="96" y="-229.8" font-family="Times,serif" font-size="14.00">*</text>
</g>
<!-- E0&#45;&gt;star -->
<g id="edge2" class="edge"><title>E0&#45;&gt;star</title>
<path fill="none" stroke="black" d="M96,-287.697C96,-276.846 96,-262.917 96,-252.104"/>
</g>
<!-- c -->
<g id="node7" class="node"><title>c</title>
<text text-anchor="middle" x="27" y="-157.8" font-family="Times,serif" font-size="14.00">c</text>
</g>
<!-- E1&#45;&gt;c -->
<g id="edge4" class="edge"><title>E1&#45;&gt;c</title>
<path fill="none" stroke="black" d="M30.0112,-215.697C29.3912,-204.846 28.5952,-190.917 27.9774,-180.104"/>
</g>
<!-- E3 -->
<g id="node4" class="node"><title>E3</title>
<ellipse fill="none" stroke="black" cx="162" cy="-162" rx="18" ry="18"/>
<text text-anchor="middle" x="162" y="-157.8" font-family="Times,serif" font-size="14.00">E</text>
</g>
<!-- E2&#45;&gt;E3 -->
<g id="edge6" class="edge"><title>E2&#45;&gt;E3</title>
<path fill="none" stroke="black" d="M160.494,-215.697C160.804,-204.846 161.202,-190.917 161.511,-180.104"/>
</g>
<!-- lparen -->
<g id="node9" class="node"><title>lparen</title>
<text text-anchor="middle" x="99" y="-157.8" font-family="Times,serif" font-size="14.00">(</text>
</g>
<!-- E2&#45;&gt;lparen -->
<g id="edge5" class="edge"><title>E2&#45;&gt;lparen</title>
<path fill="none" stroke="black" d="M148.526,-219.834C138.725,-208.586 124.559,-192.33 113.886,-180.082"/>
</g>
<!-- rparen -->
<g id="node10" class="node"><title>rparen</title>
<text text-anchor="middle" x="225" y="-157.8" font-family="Times,serif" font-size="14.00">)</text>
</g>
<!-- E2&#45;&gt;rparen -->
<g id="edge7" class="edge"><title>E2&#45;&gt;rparen</title>
<path fill="none" stroke="black" d="M171.922,-220.161C182.331,-208.952 197.523,-192.59 208.99,-180.242"/>
</g>
<!-- E4 -->
<g id="node5" class="node"><title>E4</title>
<ellipse fill="none" stroke="black" cx="99" cy="-90" rx="18" ry="18"/>
<text text-anchor="middle" x="99" y="-85.8" font-family="Times,serif" font-size="14.00">E</text>
</g>
<!-- E3&#45;&gt;E4 -->
<g id="edge8" class="edge"><title>E3&#45;&gt;E4</title>
<path fill="none" stroke="black" d="M150.445,-148.161C139.22,-135.689 122.254,-116.838 110.91,-104.233"/>
</g>
<!-- E5 -->
<g id="node6" class="node"><title>E5</title>
<ellipse fill="none" stroke="black" cx="225" cy="-90" rx="18" ry="18"/>
<text text-anchor="middle" x="225" y="-85.8" font-family="Times,serif" font-size="14.00">E</text>
</g>
<!-- E3&#45;&gt;E5 -->
<g id="edge10" class="edge"><title>E3&#45;&gt;E5</title>
<path fill="none" stroke="black" d="M173.555,-148.161C184.78,-135.689 201.746,-116.838 213.09,-104.233"/>
</g>
<!-- plus -->
<g id="node11" class="node"><title>plus</title>
<text text-anchor="middle" x="162" y="-85.8" font-family="Times,serif" font-size="14.00">+</text>
</g>
<!-- E3&#45;&gt;plus -->
<g id="edge9" class="edge"><title>E3&#45;&gt;plus</title>
<path fill="none" stroke="black" d="M162,-143.697C162,-132.846 162,-118.917 162,-108.104"/>
</g>
<!-- b -->
<g id="node12" class="node"><title>b</title>
<text text-anchor="middle" x="99" y="-13.8" font-family="Times,serif" font-size="14.00">b</text>
</g>
<!-- E4&#45;&gt;b -->
<g id="edge11" class="edge"><title>E4&#45;&gt;b</title>
<path fill="none" stroke="black" d="M99,-71.6966C99,-60.8463 99,-46.9167 99,-36.1043"/>
</g>
<!-- d -->
<g id="node13" class="node"><title>d</title>
<text text-anchor="middle" x="225" y="-13.8" font-family="Times,serif" font-size="14.00">d</text>
</g>
<!-- E5&#45;&gt;d -->
<g id="edge12" class="edge"><title>E5&#45;&gt;d</title>
<path fill="none" stroke="black" d="M225,-71.6966C225,-60.8463 225,-46.9167 225,-36.1043"/>
</g>
</g>
</svg>
