<?xml version="1.0" standalone="no"?>
<svg xmlns="http://www.w3.org/2000/svg" xmlns:xlink="http://www.w3.org/1999/xlink" width="260pt" height="332pt" viewBox="0.00 0.00 260.00 332.00">
<g id="graph0" class="graph" transform="translate(4,328) scale(1)" data-name="parse_tree">

<polygon fill="white" stroke="none" points="-4,4 -4,-328 256,-328 256,4 -4,4"/>
<!-- E0 -->
<g id="node1" class="node" pointer-events="visible" data-name="E0">

<ellipse fill="none" stroke="black" cx="93" cy="-306" rx="18" ry="18"/>
<text text-anchor="middle" x="93" y="-301.8" font-family="Times,serif" font-size="14.00">E</text>
</g>
<!-- E1 -->
<g id="node2" class="node" pointer-events="visible" data-name="E1">

<ellipse fill="none" stroke="black" cx="28" cy="-234" rx="18" ry="18"/>
<text text-anchor="middle" x="28" y="-229.8" font-family="Times,serif" font-size="14.00">E</text>
</g>
<!-- E0&#45;&gt;E1 -->
<g id="edge1" class="edge" data-name="E0-&gt;E1">

<path fill="none" stroke="black" d="M81.08,-292.16C71.73,-282.1 58.53,-267.88 47.63,-256.14"/>
<polygon fill="black" stroke="black" points="50.25,-253.81 40.88,-248.87 45.12,-258.58 50.25,-253.81"/>
</g>
<!-- E2 -->
<g id="node3" class="node" pointer-events="visible" data-name="E2">

<ellipse fill="none" stroke="black" cx="160" cy="-234" rx="18" ry="18"/>
<text text-anchor="middle" x="160" y="-229.8" font-family="Times,serif" font-size="14.00">E</text>
</g>
<!-- E0&#45;&gt;E2 -->
<g id="edge3" class="edge" data-name="E0-&gt;E2">

<path fill="none" stroke="black" d="M104.98,-292.49C114.79,-282.23 128.88,-267.52 140.34,-255.54"/>
<polygon fill="black" stroke="black" points="142.69,-258.14 147.08,-248.5 137.64,-253.3 142.69,-258.14"/>
</g>
<!-- star -->
<g id="node8" class="node" pointer-events="visible" data-name="star">

<text text-anchor="middle" x="93" y="-229.8" font-family="Times,serif" font-size="14.00">*</text>
</g>
<!-- E0&#45;&gt;star -->
<g id="edge2" class="edge" data-name="E0-&gt;star">

<path fill="none" stroke="black" d="M93,-287.7C93,-280.21 93,-271.26 93,-262.88"/>
<polygon fill="black" stroke="black" points="96.5,-263.14 93,-253.14 89.5,-263.14 96.5,-263.14"/>
</g>
<!-- c -->
<g id="node7" class="node" pointer-events="visible" data-name="c">

<text text-anchor="middle" x="27" y="-157.8" font-family="Times,serif" font-size="14.00">c</text>
</g>
<!-- E1&#45;&gt;c -->
<g id="edge4" class="edge" data-name="E1-&gt;c">

<path fill="none" stroke="black" d="M27.75,-215.7C27.65,-208.21 27.52,-199.26 27.4,-190.88"/>
<polygon fill="black" stroke="black" points="30.9,-191.08 27.26,-181.14 23.9,-191.18 30.9,-191.08"/>
</g>
<!-- E3 -->
<g id="node4" class="node" pointer-events="visible" data-name="E3">

<ellipse fill="none" stroke="black" cx="162" cy="-162" rx="18" ry="18"/>
<text text-anchor="middle" x="162" y="-157.8" font-family="Times,serif" font-size="14.00">E</text>
</g>
<!-- E2&#45;&gt;E3 -->
<g id="edge6" class="edge" data-name="E2-&gt;E3">

<path fill="none" stroke="black" d="M160.49,-215.7C160.7,-208.41 160.95,-199.73 161.18,-191.54"/>
<polygon fill="black" stroke="black" points="164.68,-191.71 161.47,-181.62 157.68,-191.51 164.68,-191.71"/>
</g>
<!-- lparen -->
<g id="node9" class="node" pointer-events="visible" data-name="lparen">

<text text-anchor="middle" x="99" y="-157.8" font-family="Times,serif" font-size="14.00">(</text>
</g>
<!-- E2&#45;&gt;lparen -->
<g id="edge5" class="edge" data-name="E2-&gt;lparen">

<path fill="none" stroke="black" d="M148.53,-219.83C140.82,-210.98 130.4,-199.04 121.11,-188.38"/>
<polygon fill="black" stroke="black" points="123.86,-186.2 114.66,-180.96 118.59,-190.8 123.86,-186.2"/>
</g>
<!-- rparen -->
<g id="node10" class="node" pointer-events="visible" data-name="rparen">

<text text-anchor="middle" x="225" y="-157.8" font-family="Times,serif" font-size="14.00">)</text>
</g>
<!-- E2&#45;&gt;rparen -->
<g id="edge7" class="edge" data-name="E2-&gt;rparen">

<path fill="none" stroke="black" d="M171.92,-220.16C180.19,-211.25 191.48,-199.09 201.53,-188.28"/>
<polygon fill="black" stroke="black" points="203.96,-190.8 208.2,-181.09 198.83,-186.04 203.96,-190.8"/>
</g>
<!-- E4 -->
<g id="node5" class="node" pointer-events="visible" data-name="E4">

<ellipse fill="none" stroke="black" cx="99" cy="-90" rx="18" ry="18"/>
<text text-anchor="middle" x="99" y="-85.8" font-family="Times,serif" font-size="14.00">E</text>
</g>
<!-- E3&#45;&gt;E4 -->
<g id="edge8" class="edge" data-name="E3-&gt;E4">

<path fill="none" stroke="black" d="M150.15,-147.83C141.17,-137.86 128.66,-123.95 118.25,-112.39"/>
<polygon fill="black" stroke="black" points="121.1,-110.32 111.81,-105.23 115.9,-115.01 121.1,-110.32"/>
</g>
<!-- E5 -->
<g id="node6" class="node" pointer-events="visible" data-name="E5">

<ellipse fill="none" stroke="black" cx="225" cy="-90" rx="18" ry="18"/>
<text text-anchor="middle" x="225" y="-85.8" font-family="Times,serif" font-size="14.00">E</text>
</g>
<!-- E3&#45;&gt;E5 -->
<g id="edge10" class="edge" data-name="E3-&gt;E5">

<path fill="none" stroke="black" d="M173.85,-147.83C182.83,-137.86 195.34,-123.95 205.75,-112.39"/>
<polygon fill="black" stroke="black" points="208.1,-115.01 212.19,-105.23 202.9,-110.32 208.1,-115.01"/>
</g>
<!-- plus -->
<g id="node11" class="node" pointer-events="visible" data-name="plus">

<text text-anchor="middle" x="162" y="-85.8" font-family="Times,serif" font-size="14.00">+</text>
</g>
<!-- E3&#45;&gt;plus -->
<g id="edge9" class="edge" data-name="E3-&gt;plus">

<path fill="none" stroke="black" d="M162,-143.7C162,-136.21 162,-127.26 162,-118.88"/>
<polygon fill="black" stroke="black" points="165.5,-119.14 162,-109.14 158.5,-119.14 165.5,-119.14"/>
</g>
<!-- b -->
<g id="node12" class="node" pointer-events="visible" data-name="b">

<text text-anchor="middle" x="99" y="-13.8" font-family="Times,serif" font-size="14.00">b</text>
</g>
<!-- E4&#45;&gt;b -->
<g id="edge11" class="edge" data-name="E4-&gt;b">

<path fill="none" stroke="black" d="M99,-71.7C99,-64.21 99,-55.26 99,-46.88"/>
<polygon fill="black" stroke="black" points="102.5,-47.14 99,-37.14 95.5,-47.14 102.5,-47.14"/>
</g>
<!-- d -->
<g id="node13" class="node" pointer-events="visible" data-name="d">

<text text-anchor="middle" x="225" y="-13.8" font-family="Times,serif" font-size="14.00">d</text>
</g>
<!-- E5&#45;&gt;d -->
<g id="edge12" class="edge" data-name="E5-&gt;d">

<path fill="none" stroke="black" d="M225,-71.7C225,-64.21 225,-55.26 225,-46.88"/>
<polygon fill="black" stroke="black" points="228.5,-47.14 225,-37.14 221.5,-47.14 228.5,-47.14"/>
</g>
</g>
</svg>