<?xml version="1.0" encoding="UTF-8" standalone="no"?>
<!DOCTYPE svg PUBLIC "-//W3C//DTD SVG 1.1//EN"
 "http://www.w3.org/Graphics/SVG/1.1/DTD/svg11.dtd">
<!-- Generated by graphviz version 2.36.0 (20140111.2315)
 -->
<!-- Title: parse_tree Pages: 1 -->
<svg width="251pt" height="260pt"
 viewBox="0.00 0.00 251.00 260.00" xmlns="http://www.w3.org/2000/svg" xmlns:xlink="http://www.w3.org/1999/xlink">
<g id="graph0" class="graph" transform="scale(1 1) rotate(0) translate(4 256)">
<title>parse_tree</title>
<polygon fill="white" stroke="none" points="-4,4 -4,-256 247,-256 247,4 -4,4"/>
<!-- S0 -->
<g id="node1" class="node"><title>S0</title>
<ellipse fill="none" stroke="black" cx="90" cy="-234" rx="18" ry="18"/>
<text text-anchor="middle" x="90" y="-229.8" font-family="monospace" font-size="14.00">S</text>
</g>
<!-- S1 -->
<g id="node2" class="node"><title>S1</title>
<ellipse fill="none" stroke="black" cx="27" cy="-162" rx="18" ry="18"/>
<text text-anchor="middle" x="27" y="-157.8" font-family="monospace" font-size="14.00">S</text>
</g>
<!-- S0&#45;&gt;S1 -->
<g id="edge1" class="edge"><title>S0&#45;&gt;S1</title>
<path fill="none" stroke="black" d="M78.4448,-220.161C67.2197,-207.689 50.2542,-188.838 38.91,-176.233"/>
</g>
<!-- S2 -->
<g id="node3" class="node"><title>S2</title>
<ellipse fill="none" stroke="black" cx="153" cy="-162" rx="18" ry="18"/>
<text text-anchor="middle" x="153" y="-157.8" font-family="monospace" font-size="14.00">S</text>
</g>
<!-- S0&#45;&gt;S2 -->
<g id="edge3" class="edge"><title>S0&#45;&gt;S2</title>
<path fill="none" stroke="black" d="M101.555,-220.161C112.78,-207.689 129.746,-188.838 141.09,-176.233"/>
</g>
<!-- b1 -->
<g id="node7" class="node"><title>b1</title>
<text text-anchor="middle" x="90" y="-157.8" font-family="monospace" font-size="14.00">b</text>
</g>
<!-- S0&#45;&gt;b1 -->
<g id="edge2" class="edge"><title>S0&#45;&gt;b1</title>
<path fill="none" stroke="black" d="M90,-215.697C90,-204.846 90,-190.917 90,-180.104"/>
</g>
<!-- a1 -->
<g id="node6" class="node"><title>a1</title>
<text text-anchor="middle" x="27" y="-85.8" font-family="monospace" font-size="14.00">a</text>
</g>
<!-- S1&#45;&gt;a1 -->
<g id="edge4" class="edge"><title>S1&#45;&gt;a1</title>
<path fill="none" stroke="black" d="M27,-143.697C27,-132.846 27,-118.917 27,-108.104"/>
</g>
<!-- S3 -->
<g id="node4" class="node"><title>S3</title>
<ellipse fill="none" stroke="black" cx="90" cy="-90" rx="18" ry="18"/>
<text text-anchor="middle" x="90" y="-85.8" font-family="monospace" font-size="14.00">S</text>
</g>
<!-- S2&#45;&gt;S3 -->
<g id="edge5" class="edge"><title>S2&#45;&gt;S3</title>
<path fill="none" stroke="black" d="M141.445,-148.161C130.22,-135.689 113.254,-116.838 101.91,-104.233"/>
</g>
<!-- S4 -->
<g id="node5" class="node"><title>S4</title>
<ellipse fill="none" stroke="black" cx="216" cy="-90" rx="18" ry="18"/>
<text text-anchor="middle" x="216" y="-85.8" font-family="monospace" font-size="14.00">S</text>
</g>
<!-- S2&#45;&gt;S4 -->
<g id="edge7" class="edge"><title>S2&#45;&gt;S4</title>
<path fill="none" stroke="black" d="M164.555,-148.161C175.78,-135.689 192.746,-116.838 204.09,-104.233"/>
</g>
<!-- b2 -->
<g id="node9" class="node"><title>b2</title>
<text text-anchor="middle" x="153" y="-85.8" font-family="monospace" font-size="14.00">b</text>
</g>
<!-- S2&#45;&gt;b2 -->
<g id="edge6" class="edge"><title>S2&#45;&gt;b2</title>
<path fill="none" stroke="black" d="M153,-143.697C153,-132.846 153,-118.917 153,-108.104"/>
</g>
<!-- a2 -->
<g id="node8" class="node"><title>a2</title>
<text text-anchor="middle" x="90" y="-13.8" font-family="monospace" font-size="14.00">a</text>
</g>
<!-- S3&#45;&gt;a2 -->
<g id="edge8" class="edge"><title>S3&#45;&gt;a2</title>
<path fill="none" stroke="black" d="M90,-71.6966C90,-60.8463 90,-46.9167 90,-36.1043"/>
</g>
<!-- a3 -->
<g id="node10" class="node"><title>a3</title>
<text text-anchor="middle" x="216" y="-13.8" font-family="monospace" font-size="14.00">a</text>
</g>
<!-- S4&#45;&gt;a3 -->
<g id="edge9" class="edge"><title>S4&#45;&gt;a3</title>
<path fill="none" stroke="black" d="M216,-71.6966C216,-60.8463 216,-46.9167 216,-36.1043"/>
</g>
</g>
</svg>
