<?xml version="1.0" encoding="UTF-8" standalone="no"?>
<!DOCTYPE svg PUBLIC "-//W3C//DTD SVG 1.1//EN"
 "http://www.w3.org/Graphics/SVG/1.1/DTD/svg11.dtd">
<!-- Generated by graphviz version 2.36.0 (20140111.2315)
 -->
<!-- Title: parse_tree Pages: 1 -->
<svg width="251pt" height="404pt"
 viewBox="0.00 0.00 251.00 404.00" xmlns="http://www.w3.org/2000/svg" xmlns:xlink="http://www.w3.org/1999/xlink">
<g id="graph0" class="graph" transform="scale(1 1) rotate(0) translate(4 400)">
<title>parse_tree</title>
<polygon fill="white" stroke="none" points="-4,4 -4,-400 247,-400 247,4 -4,4"/>
<!-- S0 -->
<g id="node1" class="node"><title>S0</title>
<ellipse fill="none" stroke="black" cx="90" cy="-378" rx="18" ry="18"/>
<text text-anchor="middle" x="90" y="-373.8" font-family="monospace" font-size="14.00">S</text>
</g>
<!-- A0 -->
<g id="node2" class="node"><title>A0</title>
<ellipse fill="none" stroke="black" cx="27" cy="-306" rx="18" ry="18"/>
<text text-anchor="middle" x="27" y="-301.8" font-family="monospace" font-size="14.00">A</text>
</g>
<!-- S0&#45;&gt;A0 -->
<g id="edge1" class="edge"><title>S0&#45;&gt;A0</title>
<path fill="none" stroke="black" d="M78.4448,-364.161C67.2197,-351.689 50.2542,-332.838 38.91,-320.233"/>
</g>
<!-- plus -->
<g id="node3" class="node"><title>plus</title>
<text text-anchor="middle" x="90" y="-301.8" font-family="monospace" font-size="14.00">+</text>
</g>
<!-- S0&#45;&gt;plus -->
<g id="edge2" class="edge"><title>S0&#45;&gt;plus</title>
<path fill="none" stroke="black" d="M90,-359.697C90,-348.846 90,-334.917 90,-324.104"/>
</g>
<!-- S1 -->
<g id="node4" class="node"><title>S1</title>
<ellipse fill="none" stroke="black" cx="153" cy="-306" rx="18" ry="18"/>
<text text-anchor="middle" x="153" y="-301.8" font-family="monospace" font-size="14.00">S</text>
</g>
<!-- S0&#45;&gt;S1 -->
<g id="edge3" class="edge"><title>S0&#45;&gt;S1</title>
<path fill="none" stroke="black" d="M101.555,-364.161C112.78,-351.689 129.746,-332.838 141.09,-320.233"/>
</g>
<!-- B0 -->
<g id="node5" class="node"><title>B0</title>
<ellipse fill="none" stroke="black" cx="27" cy="-234" rx="18" ry="18"/>
<text text-anchor="middle" x="27" y="-229.8" font-family="monospace" font-size="14.00">B</text>
</g>
<!-- A0&#45;&gt;B0 -->
<g id="edge4" class="edge"><title>A0&#45;&gt;B0</title>
<path fill="none" stroke="black" d="M27,-287.697C27,-276.846 27,-262.917 27,-252.104"/>
</g>
<!-- A1 -->
<g id="node7" class="node"><title>A1</title>
<ellipse fill="none" stroke="black" cx="153" cy="-234" rx="18" ry="18"/>
<text text-anchor="middle" x="153" y="-229.8" font-family="monospace" font-size="14.00">A</text>
</g>
<!-- S1&#45;&gt;A1 -->
<g id="edge6" class="edge"><title>S1&#45;&gt;A1</title>
<path fill="none" stroke="black" d="M153,-287.697C153,-276.846 153,-262.917 153,-252.104"/>
</g>
<!-- two -->
<g id="node6" class="node"><title>two</title>
<text text-anchor="middle" x="27" y="-157.8" font-family="monospace" font-size="14.00">2</text>
</g>
<!-- B0&#45;&gt;two -->
<g id="edge5" class="edge"><title>B0&#45;&gt;two</title>
<path fill="none" stroke="black" d="M27,-215.697C27,-204.846 27,-190.917 27,-180.104"/>
</g>
<!-- B1 -->
<g id="node8" class="node"><title>B1</title>
<ellipse fill="none" stroke="black" cx="90" cy="-162" rx="18" ry="18"/>
<text text-anchor="middle" x="90" y="-157.8" font-family="monospace" font-size="14.00">B</text>
</g>
<!-- A1&#45;&gt;B1 -->
<g id="edge7" class="edge"><title>A1&#45;&gt;B1</title>
<path fill="none" stroke="black" d="M141.445,-220.161C130.22,-207.689 113.254,-188.838 101.91,-176.233"/>
</g>
<!-- times -->
<g id="node9" class="node"><title>times</title>
<text text-anchor="middle" x="153" y="-157.8" font-family="monospace" font-size="14.00">*</text>
</g>
<!-- A1&#45;&gt;times -->
<g id="edge8" class="edge"><title>A1&#45;&gt;times</title>
<path fill="none" stroke="black" d="M153,-215.697C153,-204.846 153,-190.917 153,-180.104"/>
</g>
<!-- A2 -->
<g id="node10" class="node"><title>A2</title>
<ellipse fill="none" stroke="black" cx="216" cy="-162" rx="18" ry="18"/>
<text text-anchor="middle" x="216" y="-157.8" font-family="monospace" font-size="14.00">A</text>
</g>
<!-- A1&#45;&gt;A2 -->
<g id="edge9" class="edge"><title>A1&#45;&gt;A2</title>
<path fill="none" stroke="black" d="M164.555,-220.161C175.78,-207.689 192.746,-188.838 204.09,-176.233"/>
</g>
<!-- three -->
<g id="node11" class="node"><title>three</title>
<text text-anchor="middle" x="90" y="-85.8" font-family="monospace" font-size="14.00">3</text>
</g>
<!-- B1&#45;&gt;three -->
<g id="edge10" class="edge"><title>B1&#45;&gt;three</title>
<path fill="none" stroke="black" d="M90,-143.697C90,-132.846 90,-118.917 90,-108.104"/>
</g>
<!-- B2 -->
<g id="node12" class="node"><title>B2</title>
<ellipse fill="none" stroke="black" cx="216" cy="-90" rx="18" ry="18"/>
<text text-anchor="middle" x="216" y="-85.8" font-family="monospace" font-size="14.00">B</text>
</g>
<!-- A2&#45;&gt;B2 -->
<g id="edge11" class="edge"><title>A2&#45;&gt;B2</title>
<path fill="none" stroke="black" d="M216,-143.697C216,-132.846 216,-118.917 216,-108.104"/>
</g>
<!-- four -->
<g id="node13" class="node"><title>four</title>
<text text-anchor="middle" x="216" y="-13.8" font-family="monospace" font-size="14.00">4</text>
</g>
<!-- B2&#45;&gt;four -->
<g id="edge12" class="edge"><title>B2&#45;&gt;four</title>
<path fill="none" stroke="black" d="M216,-71.6966C216,-60.8463 216,-46.9167 216,-36.1043"/>
</g>
</g>
</svg>
