<?xml version="1.0" encoding="UTF-8" standalone="no"?>
<!DOCTYPE svg PUBLIC "-//W3C//DTD SVG 1.1//EN"
 "http://www.w3.org/Graphics/SVG/1.1/DTD/svg11.dtd">
<!-- Generated by graphviz version 14.1.5 (20260411.2331)
 -->
<!-- Title: parse_tree Pages: 1 -->
<svg width="157pt" height="404pt"
 viewBox="0.00 0.00 157.00 404.00" xmlns="http://www.w3.org/2000/svg" xmlns:xlink="http://www.w3.org/1999/xlink">
<g id="graph0" class="graph" transform="scale(1 1) rotate(0) translate(4 400)">
<title>parse_tree</title>
<polygon fill="white" stroke="none" points="-4,4 -4,-400 153,-400 153,4 -4,4"/>
<!-- S0 -->
<g id="node1" class="node">
<title>S0</title>
<ellipse fill="none" stroke="black" cx="58" cy="-378" rx="18" ry="18"/>
<text xml:space="preserve" text-anchor="middle" x="58" y="-373.32" font-family="monospace" font-size="14.00">S</text>
</g>
<!-- a1 -->
<g id="node2" class="node">
<title>a1</title>
<text xml:space="preserve" text-anchor="middle" x="27" y="-301.32" font-family="monospace" font-size="14.00">a</text>
</g>
<!-- S0&#45;&gt;a1 -->
<g id="edge1" class="edge">
<title>S0&#45;&gt;a1</title>
<path fill="none" stroke="black" d="M50.97,-361.12C46.04,-349.98 39.46,-335.13 34.44,-323.8"/>
</g>
<!-- S1 -->
<g id="node3" class="node">
<title>S1</title>
<ellipse fill="none" stroke="black" cx="90" cy="-306" rx="18" ry="18"/>
<text xml:space="preserve" text-anchor="middle" x="90" y="-301.32" font-family="monospace" font-size="14.00">S</text>
</g>
<!-- S0&#45;&gt;S1 -->
<g id="edge2" class="edge">
<title>S0&#45;&gt;S1</title>
<path fill="none" stroke="black" d="M65.26,-361.12C70.5,-349.66 77.54,-334.26 82.77,-322.82"/>
</g>
<!-- T0 -->
<g id="node4" class="node">
<title>T0</title>
<ellipse fill="none" stroke="black" cx="90" cy="-234" rx="18" ry="18"/>
<text xml:space="preserve" text-anchor="middle" x="90" y="-229.32" font-family="monospace" font-size="14.00">T</text>
</g>
<!-- S1&#45;&gt;T0 -->
<g id="edge3" class="edge">
<title>S1&#45;&gt;T0</title>
<path fill="none" stroke="black" d="M90,-287.7C90,-276.85 90,-262.92 90,-252.1"/>
</g>
<!-- U0 -->
<g id="node5" class="node">
<title>U0</title>
<ellipse fill="none" stroke="black" cx="90" cy="-162" rx="18" ry="18"/>
<text xml:space="preserve" text-anchor="middle" x="90" y="-157.32" font-family="monospace" font-size="14.00">U</text>
</g>
<!-- T0&#45;&gt;U0 -->
<g id="edge4" class="edge">
<title>T0&#45;&gt;U0</title>
<path fill="none" stroke="black" d="M90,-215.7C90,-204.85 90,-190.92 90,-180.1"/>
</g>
<!-- c1 -->
<g id="node6" class="node">
<title>c1</title>
<text xml:space="preserve" text-anchor="middle" x="59" y="-85.33" font-family="monospace" font-size="14.00">c</text>
</g>
<!-- U0&#45;&gt;c1 -->
<g id="edge5" class="edge">
<title>U0&#45;&gt;c1</title>
<path fill="none" stroke="black" d="M82.97,-145.12C78.04,-133.98 71.46,-119.13 66.44,-107.8"/>
</g>
<!-- U1 -->
<g id="node7" class="node">
<title>U1</title>
<ellipse fill="none" stroke="black" cx="122" cy="-90" rx="18" ry="18"/>
<text xml:space="preserve" text-anchor="middle" x="122" y="-85.33" font-family="monospace" font-size="14.00">U</text>
</g>
<!-- U0&#45;&gt;U1 -->
<g id="edge6" class="edge">
<title>U0&#45;&gt;U1</title>
<path fill="none" stroke="black" d="M97.26,-145.12C102.5,-133.66 109.54,-118.26 114.77,-106.82"/>
</g>
<!-- eps -->
<g id="node8" class="node">
<title>eps</title>
<text xml:space="preserve" text-anchor="middle" x="122" y="-13.32" font-family="monospace" font-size="14.00">ε</text>
</g>
<!-- U1&#45;&gt;eps -->
<g id="edge7" class="edge">
<title>U1&#45;&gt;eps</title>
<path fill="none" stroke="black" d="M122,-71.7C122,-60.68 122,-46.5 122,-35.62"/>
</g>
</g>
</svg>
