<?xml version="1.0" encoding="UTF-8" standalone="no"?>
<!DOCTYPE svg PUBLIC "-//W3C//DTD SVG 1.1//EN"
 "http://www.w3.org/Graphics/SVG/1.1/DTD/svg11.dtd">
<!-- Generated by graphviz version 14.1.5 (20260411.2331)
 -->
<!-- Title: NFA_ab Pages: 1 -->
<svg width="348pt" height="57pt"
 viewBox="0.00 0.00 348.00 57.00" xmlns="http://www.w3.org/2000/svg" xmlns:xlink="http://www.w3.org/1999/xlink">
<g id="graph0" class="graph" transform="scale(1 1) rotate(0) translate(4 53.29)">
<title>NFA_ab</title>
<polygon fill="white" stroke="none" points="-4,4 -4,-53.29 344.49,-53.29 344.49,4 -4,4"/>
<!-- start -->
<g id="node1" class="node">
<title>start</title>
<ellipse fill="black" stroke="black" cx="1.8" cy="-24.64" rx="1.8" ry="1.8"/>
</g>
<!-- S0 -->
<g id="node2" class="node">
<title>S0</title>
<ellipse fill="none" stroke="black" cx="61.24" cy="-24.64" rx="20.64" ry="20.64"/>
<text xml:space="preserve" text-anchor="middle" x="61.24" y="-19.59" font-family="Times,serif" font-size="14.00">S0</text>
</g>
<!-- start&#45;&gt;S0 -->
<g id="edge1" class="edge">
<title>start&#45;&gt;S0</title>
<path fill="none" stroke="black" d="M3.8,-24.64C7.06,-24.64 17.86,-24.64 29.15,-24.64"/>
<polygon fill="black" stroke="black" points="28.83,-28.14 38.83,-24.64 28.83,-21.14 28.83,-28.14"/>
</g>
<!-- S1 -->
<g id="node3" class="node">
<title>S1</title>
<ellipse fill="none" stroke="black" cx="144.53" cy="-24.64" rx="20.64" ry="20.64"/>
<text xml:space="preserve" text-anchor="middle" x="144.53" y="-19.59" font-family="Times,serif" font-size="14.00">S1</text>
</g>
<!-- S0&#45;&gt;S1 -->
<g id="edge2" class="edge">
<title>S0&#45;&gt;S1</title>
<path fill="none" stroke="black" d="M82.34,-24.64C91.39,-24.64 102.3,-24.64 112.37,-24.64"/>
<polygon fill="black" stroke="black" points="112.15,-28.14 122.15,-24.64 112.15,-21.14 112.15,-28.14"/>
<text xml:space="preserve" text-anchor="middle" x="102.89" y="-27.84" font-family="Times,serif" font-size="14.00">a</text>
</g>
<!-- S2 -->
<g id="node4" class="node">
<title>S2</title>
<ellipse fill="none" stroke="black" cx="227.81" cy="-24.64" rx="20.64" ry="20.64"/>
<text xml:space="preserve" text-anchor="middle" x="227.81" y="-19.59" font-family="Times,serif" font-size="14.00">S2</text>
</g>
<!-- S1&#45;&gt;S2 -->
<g id="edge3" class="edge">
<title>S1&#45;&gt;S2</title>
<path fill="none" stroke="black" d="M165.62,-24.64C174.68,-24.64 185.58,-24.64 195.66,-24.64"/>
<polygon fill="black" stroke="black" points="195.44,-28.14 205.44,-24.64 195.44,-21.14 195.44,-28.14"/>
<text xml:space="preserve" text-anchor="middle" x="186.17" y="-27.84" font-family="Times,serif" font-size="14.00">ε</text>
</g>
<!-- S3 -->
<g id="node5" class="node">
<title>S3</title>
<ellipse fill="none" stroke="black" cx="315.85" cy="-24.64" rx="20.64" ry="20.64"/>
<ellipse fill="none" stroke="black" cx="315.85" cy="-24.64" rx="24.64" ry="24.64"/>
<text xml:space="preserve" text-anchor="middle" x="315.85" y="-19.59" font-family="Times,serif" font-size="14.00">S3</text>
</g>
<!-- S2&#45;&gt;S3 -->
<g id="edge4" class="edge">
<title>S2&#45;&gt;S3</title>
<path fill="none" stroke="black" d="M248.77,-24.64C257.86,-24.64 268.9,-24.64 279.33,-24.64"/>
<polygon fill="black" stroke="black" points="279.2,-28.14 289.2,-24.64 279.2,-21.14 279.2,-28.14"/>
<text xml:space="preserve" text-anchor="middle" x="269.83" y="-27.84" font-family="Times,serif" font-size="14.00">b</text>
</g>
</g>
</svg>
