<?xml version="1.0" encoding="UTF-8" standalone="no"?>
<!DOCTYPE svg PUBLIC "-//W3C//DTD SVG 1.1//EN"
 "http://www.w3.org/Graphics/SVG/1.1/DTD/svg11.dtd">
<!-- Generated by graphviz version 14.1.5 (20260411.2331)
 -->
<!-- Title: NFA_ab Pages: 1 -->
<svg width="432pt" height="89pt"
 viewBox="0.00 0.00 432.00 89.00" xmlns="http://www.w3.org/2000/svg" xmlns:xlink="http://www.w3.org/1999/xlink">
<g id="graph0" class="graph" transform="scale(0.838729 0.838729) rotate(0) translate(4 102.31)">
<title>NFA_ab</title>
<polygon fill="white" stroke="none" points="-4,4 -4,-102.31 511.07,-102.31 511.07,4 -4,4"/>
<!-- start -->
<g id="node1" class="node">
<title>start</title>
<ellipse fill="black" stroke="black" cx="1.8" cy="-73.67" rx="1.8" ry="1.8"/>
</g>
<!-- S0 -->
<g id="node2" class="node">
<title>S0</title>
<ellipse fill="none" stroke="black" cx="61.24" cy="-73.67" rx="20.64" ry="20.64"/>
<text xml:space="preserve" text-anchor="middle" x="61.24" y="-68.62" font-family="Times,serif" font-size="14.00">S0</text>
</g>
<!-- start&#45;&gt;S0 -->
<g id="edge1" class="edge">
<title>start&#45;&gt;S0</title>
<path fill="none" stroke="black" d="M3.8,-73.67C7.06,-73.67 17.86,-73.67 29.15,-73.67"/>
<polygon fill="black" stroke="black" points="28.83,-77.17 38.83,-73.67 28.83,-70.17 28.83,-77.17"/>
</g>
<!-- S1 -->
<g id="node3" class="node">
<title>S1</title>
<ellipse fill="none" stroke="black" cx="144.53" cy="-73.67" rx="20.64" ry="20.64"/>
<text xml:space="preserve" text-anchor="middle" x="144.53" y="-68.62" font-family="Times,serif" font-size="14.00">S1</text>
</g>
<!-- S0&#45;&gt;S1 -->
<g id="edge3" class="edge">
<title>S0&#45;&gt;S1</title>
<path fill="none" stroke="black" d="M82.34,-73.67C91.39,-73.67 102.3,-73.67 112.37,-73.67"/>
<polygon fill="black" stroke="black" points="112.15,-77.17 122.15,-73.67 112.15,-70.17 112.15,-77.17"/>
<text xml:space="preserve" text-anchor="middle" x="102.89" y="-76.87" font-family="Times,serif" font-size="14.00">ε</text>
</g>
<!-- S5 -->
<g id="node7" class="node">
<title>S5</title>
<ellipse fill="none" stroke="black" cx="482.42" cy="-73.67" rx="20.64" ry="20.64"/>
<ellipse fill="none" stroke="black" cx="482.42" cy="-73.67" rx="24.64" ry="24.64"/>
<text xml:space="preserve" text-anchor="middle" x="482.42" y="-68.62" font-family="Times,serif" font-size="14.00">S5</text>
</g>
<!-- S0&#45;&gt;S5 -->
<g id="edge2" class="edge">
<title>S0&#45;&gt;S5</title>
<path fill="none" stroke="blue" d="M79.26,-62.77C91.22,-55.78 107.88,-47.35 123.89,-43.67 250.3,-14.54 289.02,-16.07 415.78,-43.67 427.62,-46.24 439.89,-51.16 450.57,-56.28"/>
<polygon fill="blue" stroke="blue" points="448.79,-59.3 459.3,-60.7 451.96,-53.05 448.79,-59.3"/>
<text xml:space="preserve" text-anchor="middle" x="269.46" y="-25.61" font-family="Times,serif" font-size="14.00">ε</text>
</g>
<!-- S2 -->
<g id="node4" class="node">
<title>S2</title>
<ellipse fill="none" stroke="black" cx="227.81" cy="-73.67" rx="20.64" ry="20.64"/>
<text xml:space="preserve" text-anchor="middle" x="227.81" y="-68.62" font-family="Times,serif" font-size="14.00">S2</text>
</g>
<!-- S1&#45;&gt;S2 -->
<g id="edge4" class="edge">
<title>S1&#45;&gt;S2</title>
<path fill="none" stroke="black" d="M165.62,-73.67C174.68,-73.67 185.58,-73.67 195.66,-73.67"/>
<polygon fill="black" stroke="black" points="195.44,-77.17 205.44,-73.67 195.44,-70.17 195.44,-77.17"/>
<text xml:space="preserve" text-anchor="middle" x="186.17" y="-76.87" font-family="Times,serif" font-size="14.00">a</text>
</g>
<!-- S3 -->
<g id="node5" class="node">
<title>S3</title>
<ellipse fill="none" stroke="black" cx="311.1" cy="-73.67" rx="20.64" ry="20.64"/>
<text xml:space="preserve" text-anchor="middle" x="311.1" y="-68.62" font-family="Times,serif" font-size="14.00">S3</text>
</g>
<!-- S2&#45;&gt;S3 -->
<g id="edge5" class="edge">
<title>S2&#45;&gt;S3</title>
<path fill="none" stroke="black" d="M248.91,-73.67C257.96,-73.67 268.87,-73.67 278.95,-73.67"/>
<polygon fill="black" stroke="black" points="278.72,-77.17 288.72,-73.67 278.72,-70.17 278.72,-77.17"/>
<text xml:space="preserve" text-anchor="middle" x="269.46" y="-76.87" font-family="Times,serif" font-size="14.00">ε</text>
</g>
<!-- S4 -->
<g id="node6" class="node">
<title>S4</title>
<ellipse fill="none" stroke="black" cx="395.14" cy="-73.67" rx="20.64" ry="20.64"/>
<text xml:space="preserve" text-anchor="middle" x="395.14" y="-68.62" font-family="Times,serif" font-size="14.00">S4</text>
</g>
<!-- S3&#45;&gt;S4 -->
<g id="edge6" class="edge">
<title>S3&#45;&gt;S4</title>
<path fill="none" stroke="black" d="M331.96,-73.67C341.26,-73.67 352.56,-73.67 362.97,-73.67"/>
<polygon fill="black" stroke="black" points="362.66,-77.17 372.66,-73.67 362.66,-70.17 362.66,-77.17"/>
<text xml:space="preserve" text-anchor="middle" x="353.12" y="-76.87" font-family="Times,serif" font-size="14.00">b</text>
</g>
<!-- S4&#45;&gt;S5 -->
<g id="edge7" class="edge">
<title>S4&#45;&gt;S5</title>
<path fill="none" stroke="black" d="M415.92,-73.67C424.93,-73.67 435.87,-73.67 446.21,-73.67"/>
<polygon fill="black" stroke="black" points="445.98,-77.17 455.98,-73.67 445.98,-70.17 445.98,-77.17"/>
<text xml:space="preserve" text-anchor="middle" x="436.78" y="-76.87" font-family="Times,serif" font-size="14.00">ε</text>
</g>
<!-- S5&#45;&gt;S0 -->
<g id="edge8" class="edge">
<title>S5&#45;&gt;S0</title>
<path fill="none" stroke="red" d="M462.44,-58.56C449.9,-49.35 432.71,-38.15 415.78,-31.67 352.6,-7.49 333.78,4.5 266.46,-2.17 202.15,-8.53 183.94,-6.82 123.89,-30.67 110.38,-36.03 96.96,-44.86 86.1,-53.14"/>
<polygon fill="red" stroke="red" points="84.11,-50.25 78.47,-59.21 88.47,-55.72 84.11,-50.25"/>
<text xml:space="preserve" text-anchor="middle" x="269.46" y="-5.37" font-family="Times,serif" font-size="14.00">ε</text>
</g>
</g>
</svg>
