<?xml version="1.0" encoding="UTF-8" standalone="no"?>
<!DOCTYPE svg PUBLIC "-//W3C//DTD SVG 1.1//EN"
 "http://www.w3.org/Graphics/SVG/1.1/DTD/svg11.dtd">
<!-- Generated by graphviz version 2.36.0 (20140111.2315)
 -->
<!-- Title: NFA_ab Pages: 1 -->
<svg width="432pt" height="98pt"
 viewBox="0.00 0.00 432.00 98.26" xmlns="http://www.w3.org/2000/svg" xmlns:xlink="http://www.w3.org/1999/xlink">
<g id="graph0" class="graph" transform="scale(0.847059 0.847059) rotate(0) translate(4 112)">
<title>NFA_ab</title>
<polygon fill="white" stroke="none" points="-4,4 -4,-112 506,-112 506,4 -4,4"/>
<!-- start -->
<g id="node1" class="node"><title>start</title>
<ellipse fill="black" stroke="black" cx="2" cy="-85" rx="1.8" ry="1.8"/>
</g>
<!-- S0 -->
<g id="node2" class="node"><title>S0</title>
<ellipse fill="none" stroke="black" cx="62" cy="-85" rx="19.3939" ry="19.3939"/>
<text text-anchor="middle" x="62" y="-80.8" font-family="Times,serif" font-size="14.00">S0</text>
</g>
<!-- start&#45;&gt;S0 -->
<g id="edge1" class="edge"><title>start&#45;&gt;S0</title>
<path fill="none" stroke="black" d="M4.0067,-85C7.55581,-85 19.9365,-85 32.2557,-85"/>
<polygon fill="black" stroke="black" points="32.3942,-88.5001 42.3941,-85 32.3941,-81.5001 32.3942,-88.5001"/>
</g>
<!-- S1 -->
<g id="node3" class="node"><title>S1</title>
<ellipse fill="none" stroke="black" cx="144" cy="-85" rx="19.3939" ry="19.3939"/>
<text text-anchor="middle" x="144" y="-80.8" font-family="Times,serif" font-size="14.00">S1</text>
</g>
<!-- S0&#45;&gt;S1 -->
<g id="edge3" class="edge"><title>S0&#45;&gt;S1</title>
<path fill="none" stroke="black" d="M81.5547,-85C91.3488,-85 103.578,-85 114.542,-85"/>
<polygon fill="black" stroke="black" points="114.546,-88.5001 124.546,-85 114.546,-81.5001 114.546,-88.5001"/>
<text text-anchor="middle" x="103" y="-87.8" font-family="Times,serif" font-size="14.00">ε</text>
</g>
<!-- S5 -->
<g id="node7" class="node"><title>S5</title>
<ellipse fill="none" stroke="black" cx="478" cy="-85" rx="19.4029" ry="19.4029"/>
<ellipse fill="none" stroke="black" cx="478" cy="-85" rx="23.3939" ry="23.3939"/>
<text text-anchor="middle" x="478" y="-80.8" font-family="Times,serif" font-size="14.00">S5</text>
</g>
<!-- S0&#45;&gt;S5 -->
<g id="edge2" class="edge"><title>S0&#45;&gt;S5</title>
<path fill="none" stroke="blue" d="M78.8992,-75.3894C90.8345,-68.7614 107.835,-60.5329 124,-57 249.049,-29.6711 286.638,-31.1473 412,-57 424.286,-59.5337 437.11,-64.4997 448.09,-69.5551"/>
<polygon fill="blue" stroke="blue" points="446.677,-72.7596 457.204,-73.9618 449.724,-66.4577 446.677,-72.7596"/>
<text text-anchor="middle" x="267" y="-39.8" font-family="Times,serif" font-size="14.00">ε</text>
</g>
<!-- S2 -->
<g id="node4" class="node"><title>S2</title>
<ellipse fill="none" stroke="black" cx="226" cy="-85" rx="19.3939" ry="19.3939"/>
<text text-anchor="middle" x="226" y="-80.8" font-family="Times,serif" font-size="14.00">S2</text>
</g>
<!-- S1&#45;&gt;S2 -->
<g id="edge4" class="edge"><title>S1&#45;&gt;S2</title>
<path fill="none" stroke="black" d="M163.555,-85C173.349,-85 185.578,-85 196.542,-85"/>
<polygon fill="black" stroke="black" points="196.546,-88.5001 206.546,-85 196.546,-81.5001 196.546,-88.5001"/>
<text text-anchor="middle" x="185" y="-87.8" font-family="Times,serif" font-size="14.00">a</text>
</g>
<!-- S3 -->
<g id="node5" class="node"><title>S3</title>
<ellipse fill="none" stroke="black" cx="308" cy="-85" rx="19.3939" ry="19.3939"/>
<text text-anchor="middle" x="308" y="-80.8" font-family="Times,serif" font-size="14.00">S3</text>
</g>
<!-- S2&#45;&gt;S3 -->
<g id="edge5" class="edge"><title>S2&#45;&gt;S3</title>
<path fill="none" stroke="black" d="M245.555,-85C255.349,-85 267.578,-85 278.542,-85"/>
<polygon fill="black" stroke="black" points="278.546,-88.5001 288.546,-85 278.546,-81.5001 278.546,-88.5001"/>
<text text-anchor="middle" x="267" y="-87.8" font-family="Times,serif" font-size="14.00">ε</text>
</g>
<!-- S4 -->
<g id="node6" class="node"><title>S4</title>
<ellipse fill="none" stroke="black" cx="392" cy="-85" rx="19.3939" ry="19.3939"/>
<text text-anchor="middle" x="392" y="-80.8" font-family="Times,serif" font-size="14.00">S4</text>
</g>
<!-- S3&#45;&gt;S4 -->
<g id="edge6" class="edge"><title>S3&#45;&gt;S4</title>
<path fill="none" stroke="black" d="M327.607,-85C337.882,-85 350.863,-85 362.398,-85"/>
<polygon fill="black" stroke="black" points="362.467,-88.5001 372.467,-85 362.467,-81.5001 362.467,-88.5001"/>
<text text-anchor="middle" x="350" y="-87.8" font-family="Times,serif" font-size="14.00">b</text>
</g>
<!-- S4&#45;&gt;S5 -->
<g id="edge7" class="edge"><title>S4&#45;&gt;S5</title>
<path fill="none" stroke="black" d="M411.642,-85C421.239,-85 433.221,-85 444.295,-85"/>
<polygon fill="black" stroke="black" points="444.528,-88.5001 454.527,-85 444.527,-81.5001 444.528,-88.5001"/>
<text text-anchor="middle" x="433" y="-87.8" font-family="Times,serif" font-size="14.00">ε</text>
</g>
<!-- S5&#45;&gt;S0 -->
<g id="edge8" class="edge"><title>S5&#45;&gt;S0</title>
<path fill="none" stroke="red" d="M462.837,-66.9737C441.494,-42.0227 398.497,-0 351,-0 184,-0 184,-0 184,-0 140.869,-0 102.235,-36.6099 80.7718,-61.7769"/>
<polygon fill="red" stroke="red" points="77.819,-59.8572 74.1697,-69.8037 83.2252,-64.3039 77.819,-59.8572"/>
<text text-anchor="middle" x="267" y="-2.8" font-family="Times,serif" font-size="14.00">ε</text>
</g>
</g>
</svg>
