<?xml version="1.0" encoding="UTF-8" standalone="no"?>
<!DOCTYPE svg PUBLIC "-//W3C//DTD SVG 1.1//EN"
 "http://www.w3.org/Graphics/SVG/1.1/DTD/svg11.dtd">
<!-- Generated by graphviz version 2.36.0 (20140111.2315)
 -->
<!-- Title: NFA_ab Pages: 1 -->
<svg width="346pt" height="54pt"
 viewBox="0.00 0.00 346.00 54.00" xmlns="http://www.w3.org/2000/svg" xmlns:xlink="http://www.w3.org/1999/xlink">
<g id="graph0" class="graph" transform="scale(1 1) rotate(0) translate(4 50)">
<title>NFA_ab</title>
<polygon fill="white" stroke="none" points="-4,4 -4,-50 342,-50 342,4 -4,4"/>
<!-- start -->
<g id="node1" class="node"><title>start</title>
<ellipse fill="black" stroke="black" cx="2" cy="-23" rx="1.8" ry="1.8"/>
</g>
<!-- S0 -->
<g id="node2" class="node"><title>S0</title>
<ellipse fill="none" stroke="black" cx="62" cy="-23" rx="19.3939" ry="19.3939"/>
<text text-anchor="middle" x="62" y="-18.8" font-family="Times,serif" font-size="14.00">S0</text>
</g>
<!-- start&#45;&gt;S0 -->
<g id="edge1" class="edge"><title>start&#45;&gt;S0</title>
<path fill="none" stroke="black" d="M4.0067,-23C7.55581,-23 19.9365,-23 32.2557,-23"/>
<polygon fill="black" stroke="black" points="32.3942,-26.5001 42.3941,-23 32.3941,-19.5001 32.3942,-26.5001"/>
</g>
<!-- S1 -->
<g id="node3" class="node"><title>S1</title>
<ellipse fill="none" stroke="black" cx="144" cy="-23" rx="19.3939" ry="19.3939"/>
<text text-anchor="middle" x="144" y="-18.8" font-family="Times,serif" font-size="14.00">S1</text>
</g>
<!-- S0&#45;&gt;S1 -->
<g id="edge2" class="edge"><title>S0&#45;&gt;S1</title>
<path fill="none" stroke="black" d="M81.5547,-23C91.3488,-23 103.578,-23 114.542,-23"/>
<polygon fill="black" stroke="black" points="114.546,-26.5001 124.546,-23 114.546,-19.5001 114.546,-26.5001"/>
<text text-anchor="middle" x="103" y="-25.8" font-family="Times,serif" font-size="14.00">a</text>
</g>
<!-- S2 -->
<g id="node4" class="node"><title>S2</title>
<ellipse fill="none" stroke="black" cx="226" cy="-23" rx="19.3939" ry="19.3939"/>
<text text-anchor="middle" x="226" y="-18.8" font-family="Times,serif" font-size="14.00">S2</text>
</g>
<!-- S1&#45;&gt;S2 -->
<g id="edge3" class="edge"><title>S1&#45;&gt;S2</title>
<path fill="none" stroke="black" d="M163.555,-23C173.349,-23 185.578,-23 196.542,-23"/>
<polygon fill="black" stroke="black" points="196.546,-26.5001 206.546,-23 196.546,-19.5001 196.546,-26.5001"/>
<text text-anchor="middle" x="185" y="-25.8" font-family="Times,serif" font-size="14.00">ε</text>
</g>
<!-- S3 -->
<g id="node5" class="node"><title>S3</title>
<ellipse fill="none" stroke="black" cx="314" cy="-23" rx="19.4029" ry="19.4029"/>
<ellipse fill="none" stroke="black" cx="314" cy="-23" rx="23.3939" ry="23.3939"/>
<text text-anchor="middle" x="314" y="-18.8" font-family="Times,serif" font-size="14.00">S3</text>
</g>
<!-- S2&#45;&gt;S3 -->
<g id="edge4" class="edge"><title>S2&#45;&gt;S3</title>
<path fill="none" stroke="black" d="M245.661,-23C255.722,-23 268.433,-23 280.094,-23"/>
<polygon fill="black" stroke="black" points="280.403,-26.5001 290.403,-23 280.403,-19.5001 280.403,-26.5001"/>
<text text-anchor="middle" x="268" y="-25.8" font-family="Times,serif" font-size="14.00">b</text>
</g>
</g>
</svg>
