<?xml version="1.0" standalone="no"?>
<svg xmlns="http://www.w3.org/2000/svg" xmlns:xlink="http://www.w3.org/1999/xlink" width="432pt" height="91pt" viewBox="0.00 0.00 432 90.79">
<g id="graph0" class="graph" transform="translate(8.671949096591995,85.16165655678284) scale(0.7835472032212419)" data-name="NFA_ab_cd">

<polygon fill="white" stroke="none" points="-4,4 -4,-106.47 521.64,-106.47 521.64,4 -4,4"/>
<!-- start -->
<g id="node1" class="node" pointer-events="visible" data-name="start">

<ellipse fill="black" stroke="black" cx="1.8" cy="-51.24" rx="1.8" ry="1.8"/>
</g>
<!-- S0 -->
<g id="node2" class="node" pointer-events="visible" data-name="S0">

<ellipse fill="none" stroke="black" cx="61.84" cy="-51.24" rx="21.47" ry="21.47"/>
<text text-anchor="middle" x="61.84" y="-47.04" font-family="Times,serif" font-size="14.00">S0</text>
</g>
<!-- start&#45;&gt;S0 -->
<g id="edge1" class="edge" data-name="start-&gt;S0">

<path fill="none" stroke="black" d="M3.81,-51.24C7.06,-51.24 17.72,-51.24 28.95,-51.24"/>
<polygon fill="black" stroke="black" points="28.62,-54.74 38.62,-51.24 28.62,-47.74 28.62,-54.74"/>
</g>
<!-- S3 -->
<!-- S3 -->
<g id="node5" class="node" pointer-events="visible" data-name="S3">

<ellipse fill="none" stroke="black" cx="317.46" cy="-81.24" rx="21.47" ry="21.47"/>
<text text-anchor="middle" x="317.46" y="-77.04" font-family="Times,serif" font-size="14.00">S3</text>
</g>
<!-- start&#45;&gt;S3 -->

<!-- S1 -->
<g id="node3" class="node" pointer-events="visible" data-name="S1">

<ellipse fill="none" stroke="black" cx="147.31" cy="-81.24" rx="21.47" ry="21.47"/>
<text text-anchor="middle" x="147.31" y="-77.04" font-family="Times,serif" font-size="14.00">S1</text>
</g>
<!-- S0&#45;&gt;S1 -->
<g id="edge2" class="edge" data-name="S0-&gt;S1">

<path fill="none" stroke="black" d="M82.62,-58.35C92.6,-61.93 104.92,-66.36 116.05,-70.36"/>
<polygon fill="black" stroke="black" points="114.65,-73.58 125.24,-73.67 117.02,-66.99 114.65,-73.58"/>
<text text-anchor="middle" x="104.57" y="-70.44" font-family="Times,serif" font-size="14.00">ε</text>
</g>
<!-- S2 -->
<g id="node4" class="node" pointer-events="visible" data-name="S2">

<ellipse fill="none" stroke="black" cx="231.99" cy="-81.24" rx="21.47" ry="21.47"/>
<text text-anchor="middle" x="231.99" y="-77.04" font-family="Times,serif" font-size="14.00">S2</text>
</g>
<!-- S1&#45;&gt;S2 -->
<g id="edge3" class="edge" data-name="S1-&gt;S2">

<path fill="none" stroke="black" d="M169.17,-81.24C178.18,-81.24 188.93,-81.24 198.91,-81.24"/>
<polygon fill="black" stroke="black" points="198.62,-84.74 208.62,-81.24 198.62,-77.74 198.62,-84.74"/>
<text text-anchor="middle" x="189.65" y="-85.44" font-family="Times,serif" font-size="14.00">a</text>
</g><g id="edge7" class="edge" data-name="S0-&gt;S5" data-comment="S1-&gt;S2">

<path fill="none" stroke="black" d="M82.62,-44.13C92.6,-40.54 104.92,-36.11 116.05,-32.11"/>
<polygon fill="black" stroke="black" points="117.02,-35.48 125.24,-28.81 114.65,-28.89 117.02,-35.48"/>
<text text-anchor="middle" x="104.57" y="-41.44" font-family="Times,serif" font-size="14.00">ε</text>
</g>
<!-- S6 -->
<g id="node8" class="node" pointer-events="visible" data-name="S6">

<ellipse fill="none" stroke="black" cx="231.99" cy="-21.24" rx="21.47" ry="21.47"/>

<text text-anchor="middle" x="231.99" y="-17.04" font-family="Times,serif" font-size="14.00">S6</text></g>
<!-- S2&#45;&gt;S6 -->
<g id="edge4" class="edge" data-name="S2-&gt;S3" data-comment="S2-&gt;S6">

<path fill="none" stroke="black" d="M253.63,-81.24C262.79,-81.24 273.79,-81.24 284.01,-81.24"/>
<polygon fill="black" stroke="black" points="283.97,-84.74 293.97,-81.24 283.97,-77.74 283.97,-84.74"/>
<text text-anchor="middle" x="274.73" y="-85.44" font-family="Times,serif" font-size="14.00">ε</text>
</g>
<!-- S4 -->
<g id="node6" class="node" pointer-events="visible" data-name="S4">

<ellipse fill="none" stroke="black" cx="402.94" cy="-81.24" rx="21.47" ry="21.47"/>
<text text-anchor="middle" x="402.94" y="-77.04" font-family="Times,serif" font-size="14.00">S4</text>
</g><g id="edge5" class="edge" data-name="S3-&gt;S4" data-comment="S4">

<path fill="none" stroke="black" d="M339.1,-81.24C348.26,-81.24 359.26,-81.24 369.48,-81.24"/>
<polygon fill="black" stroke="black" points="369.45,-84.74 379.45,-81.24 369.45,-77.74 369.45,-84.74"/>
<text text-anchor="middle" x="360.2" y="-85.44" font-family="Times,serif" font-size="14.00">b</text>
</g>
<!-- S3&#45;&gt;S4 -->

<!-- S5 -->

<!-- S5 -->
<g id="node7" class="node" pointer-events="visible" data-name="S5">

<ellipse fill="none" stroke="black" cx="147.31" cy="-21.24" rx="21.47" ry="21.47"/>
<text text-anchor="middle" x="147.31" y="-17.04" font-family="Times,serif" font-size="14.00">S5</text>
</g><g id="node11" class="node" pointer-events="visible" data-name="S9" data-comment="S5">

<ellipse fill="none" stroke="black" cx="492.41" cy="-51.24" rx="21.44" ry="21.44"/>
<ellipse fill="none" stroke="black" cx="492.41" cy="-51.24" rx="25.47" ry="25.47"/>
<text text-anchor="middle" x="492.41" y="-47.04" font-family="Times,serif" font-size="14.00">S9</text>
</g>
<!-- S4&#45;&gt;S5 -->

<!-- S4&#45;&gt;S5 -->
<g id="edge6" class="edge" data-name="S4-&gt;S9" data-comment="S4-&gt;S5">

<path fill="none" stroke="black" d="M423.78,-74.43C433.61,-71.06 445.76,-66.89 457.04,-63.02"/>
<polygon fill="black" stroke="black" points="458.16,-66.34 466.48,-59.78 455.89,-59.72 458.16,-66.34"/>
<text text-anchor="middle" x="445.67" y="-71.44" font-family="Times,serif" font-size="14.00">ε</text>
</g>

<!-- S4a -->
<g id="node9" class="node" pointer-events="visible" data-name="S7" data-comment="S4a">

<ellipse fill="none" stroke="black" cx="317.46" cy="-21.24" rx="21.47" ry="21.47"/>

<text text-anchor="middle" x="317.46" y="-17.04" font-family="Times,serif" font-size="14.00">S7</text></g>
<g id="edge9" class="edge" data-name="S6-&gt;S7" data-comment="S4a">

<path fill="none" stroke="black" d="M253.63,-21.24C262.79,-21.24 273.79,-21.24 284.01,-21.24"/>
<polygon fill="black" stroke="black" points="283.97,-24.74 293.97,-21.24 283.97,-17.74 283.97,-24.74"/>
<text text-anchor="middle" x="274.73" y="-25.44" font-family="Times,serif" font-size="14.00">ε</text>
</g><!-- S7&#45;&gt;S8 -->
<g id="edge8" class="edge" data-name="S5-&gt;S6" data-comment="S7-&gt;S8">

<path fill="none" stroke="black" d="M169.17,-21.24C178.18,-21.24 188.93,-21.24 198.91,-21.24"/>
<polygon fill="black" stroke="black" points="198.62,-24.74 208.62,-21.24 198.62,-17.74 198.62,-24.74"/>
<text text-anchor="middle" x="189.65" y="-25.44" font-family="Times,serif" font-size="14.00">c</text>
</g>
<!-- S8 -->
<!-- S8 -->
<g id="node10" class="node" pointer-events="visible" data-name="S8">

<ellipse fill="none" stroke="black" cx="402.94" cy="-21.24" rx="21.47" ry="21.47"/>
<text text-anchor="middle" x="402.94" y="-17.04" font-family="Times,serif" font-size="14.00">S8</text>
</g><g id="edge10" class="edge" data-name="S7-&gt;S8" data-comment="S8">

<path fill="none" stroke="black" d="M339.1,-21.24C348.26,-21.24 359.26,-21.24 369.48,-21.24"/>
<polygon fill="black" stroke="black" points="369.45,-24.74 379.45,-21.24 369.45,-17.74 369.45,-24.74"/>
<text text-anchor="middle" x="360.2" y="-25.44" font-family="Times,serif" font-size="14.00">d</text>
</g>
<g id="edge11" class="edge" data-name="S8-&gt;S9" data-comment="S8">

<path fill="none" stroke="black" d="M423.78,-28.04C433.61,-31.41 445.76,-35.58 457.04,-39.45"/>
<polygon fill="black" stroke="black" points="455.89,-42.75 466.48,-42.69 458.16,-36.13 455.89,-42.75"/>
<text text-anchor="middle" x="445.67" y="-40.44" font-family="Times,serif" font-size="14.00">ε</text>
</g>
</g>
</svg>