<?xml version="1.0" standalone="no"?>
<svg xmlns="http://www.w3.org/2000/svg" xmlns:xlink="http://www.w3.org/1999/xlink" width="355pt" height="58pt" viewBox="0.00 0.00 354.7 58.47">
<g id="graph0" class="graph" transform="translate(4,54.470001220703125) scale(1)" data-name="NFA_ab">

<polygon fill="white" stroke="none" points="-4,4 -4,-54.47 350.7,-54.47 350.7,4 -4,4"/>
<!-- start -->
<g id="node1" class="node" pointer-events="visible" data-name="start">

<ellipse fill="black" stroke="black" cx="1.8" cy="-25.24" rx="1.8" ry="1.8"/>
</g>
<!-- S0 -->
<g id="node2" class="node" pointer-events="visible" data-name="S0">

<ellipse fill="none" stroke="black" cx="61.84" cy="-25.24" rx="21.47" ry="21.47"/>
<text text-anchor="middle" x="61.84" y="-21.04" font-family="Times,serif" font-size="14.00">S0</text>
</g>
<!-- start&#45;&gt;S0 -->
<g id="edge1" class="edge" data-name="start-&gt;S0">

<path fill="none" stroke="black" d="M3.81,-25.24C7.06,-25.24 17.72,-25.24 28.95,-25.24"/>
<polygon fill="black" stroke="black" points="28.62,-28.74 38.62,-25.24 28.62,-21.74 28.62,-28.74"/>
</g>
<!-- S1 -->
<g id="node3" class="node" pointer-events="visible" data-name="S1">

<ellipse fill="none" stroke="black" cx="146.52" cy="-25.24" rx="21.47" ry="21.47"/>
<text text-anchor="middle" x="146.52" y="-21.04" font-family="Times,serif" font-size="14.00">S1</text>
</g>
<!-- S0&#45;&gt;S1 -->
<g id="edge2" class="edge" data-name="S0-&gt;S1">

<path fill="none" stroke="black" d="M83.7,-25.24C92.71,-25.24 103.45,-25.24 113.44,-25.24"/>
<polygon fill="black" stroke="black" points="113.15,-28.74 123.15,-25.24 113.15,-21.74 113.15,-28.74"/>
<text text-anchor="middle" x="104.18" y="-29.44" font-family="Times,serif" font-size="14.00">a</text>
</g>
<!-- S2 -->
<g id="node4" class="node" pointer-events="visible" data-name="S2">

<ellipse fill="none" stroke="black" cx="231.99" cy="-25.24" rx="21.47" ry="21.47"/>

<text text-anchor="middle" x="231.99" y="-21.04" font-family="Times,serif" font-size="14.00">S2</text></g>
<!-- S1&#45;&gt;S2 -->
<g id="edge3" class="edge" data-name="S1-&gt;S2">

<path fill="none" stroke="black" d="M168.15,-25.24C177.32,-25.24 188.32,-25.24 198.54,-25.24"/>
<polygon fill="black" stroke="black" points="198.5,-28.74 208.5,-25.24 198.5,-21.74 198.5,-28.74"/>
<text text-anchor="middle" x="189.26" y="-29.44" font-family="Times,serif" font-size="14.00">ε</text>
</g>
<!-- S -->
<!-- S3 -->
<g id="node5" class="node" pointer-events="visible" data-name="S3">

<ellipse fill="none" stroke="black" cx="321.46" cy="-25.24" rx="21.44" ry="21.44"/>
<ellipse fill="none" stroke="black" cx="321.46" cy="-25.24" rx="25.47" ry="25.47"/>
<text text-anchor="middle" x="321.46" y="-21.04" font-family="Times,serif" font-size="14.00">S3</text>
</g>
<g id="edge4" class="edge" data-name="S2-&gt;S3" data-comment="S3">

<path fill="none" stroke="black" d="M253.72,-25.24C262.83,-25.24 273.79,-25.24 284.17,-25.24"/>
<polygon fill="black" stroke="black" points="284.01,-28.74 294.01,-25.24 284.01,-21.74 284.01,-28.74"/>
<text text-anchor="middle" x="274.73" y="-29.44" font-family="Times,serif" font-size="14.00">b</text>
</g>
</g>
</svg>