<?xml version="1.0" standalone="no"?>
<svg xmlns="http://www.w3.org/2000/svg" xmlns:xlink="http://www.w3.org/1999/xlink" width="432pt" height="99pt" viewBox="0.00 0.00 432 98.82">
<g id="graph0" class="graph" transform="translate(3.2874040603637695,95.53196023850796) scale(0.8218510150909422)" data-name="NFA_ab">

<polygon fill="white" stroke="none" points="-4,4 -4,-116.24 521.64,-116.24 521.64,4 -4,4"/>
<!-- start -->
<g id="node1" class="node" pointer-events="visible" data-name="start">

<ellipse fill="black" stroke="black" cx="1.8" cy="-87" rx="1.8" ry="1.8"/>
</g>
<!-- S0 -->
<g id="node2" class="node" pointer-events="visible" data-name="S0">

<ellipse fill="none" stroke="black" cx="61.84" cy="-87" rx="21.47" ry="21.47"/>
<text text-anchor="middle" x="61.84" y="-82.8" font-family="Times,serif" font-size="14.00">S0</text>
</g>
<!-- start&#45;&gt;S0 -->
<g id="edge1" class="edge" data-name="start-&gt;S0">

<path fill="none" stroke="black" d="M3.81,-87C7.06,-87 17.72,-87 28.95,-87"/>
<polygon fill="black" stroke="black" points="28.62,-90.5 38.62,-87 28.62,-83.5 28.62,-90.5"/>
</g>
<!-- S1 -->
<g id="node3" class="node" pointer-events="visible" data-name="S1">

<ellipse fill="none" stroke="black" cx="147.31" cy="-87" rx="21.47" ry="21.47"/>
<text text-anchor="middle" x="147.31" y="-82.8" font-family="Times,serif" font-size="14.00">S1</text>
</g>
<!-- S0&#45;&gt;S1 -->
<g id="edge3" class="edge" data-name="S0-&gt;S1">

<path fill="none" stroke="black" d="M83.47,-87C92.63,-87 103.63,-87 113.85,-87"/>
<polygon fill="black" stroke="black" points="113.82,-90.5 123.82,-87 113.82,-83.5 113.82,-90.5"/>
<text text-anchor="middle" x="104.57" y="-91.2" font-family="Times,serif" font-size="14.00">ε</text>
</g>
<!-- S5 -->
<g id="node7" class="node" pointer-events="visible" data-name="S5">

<ellipse fill="none" stroke="black" cx="492.41" cy="-87" rx="21.44" ry="21.44"/>
<ellipse fill="none" stroke="black" cx="492.41" cy="-87" rx="25.47" ry="25.47"/>
<text text-anchor="middle" x="492.41" y="-82.8" font-family="Times,serif" font-size="14.00">S5</text>
</g>
<!-- S0&#45;&gt;S5 -->
<g id="edge2" class="edge" data-name="S0-&gt;S5">

<path fill="none" stroke="blue" d="M80.6,-75.95C92.86,-68.99 109.83,-60.66 126.07,-57 255.32,-27.89 294.59,-29.4 424.17,-57 436.17,-59.56 448.63,-64.41 459.51,-69.49"/>
<polygon fill="blue" stroke="blue" points="457.92,-72.6 468.43,-73.89 461.01,-66.33 457.92,-72.6"/>
<text text-anchor="middle" x="274.73" y="-39.2" font-family="Times,serif" font-size="14.00">ε</text>
</g>
<!-- S2 -->
<g id="node4" class="node" pointer-events="visible" data-name="S2">

<ellipse fill="none" stroke="black" cx="231.99" cy="-87" rx="21.47" ry="21.47"/>
<text text-anchor="middle" x="231.99" y="-82.8" font-family="Times,serif" font-size="14.00">S2</text>
</g>
<!-- S1&#45;&gt;S2 -->
<g id="edge4" class="edge" data-name="S1-&gt;S2">

<path fill="none" stroke="black" d="M169.17,-87C178.18,-87 188.93,-87 198.91,-87"/>
<polygon fill="black" stroke="black" points="198.62,-90.5 208.62,-87 198.62,-83.5 198.62,-90.5"/>
<text text-anchor="middle" x="189.65" y="-91.2" font-family="Times,serif" font-size="14.00">a</text>
</g>
<!-- S3 -->
<g id="node5" class="node" pointer-events="visible" data-name="S3">

<ellipse fill="none" stroke="black" cx="317.46" cy="-87" rx="21.47" ry="21.47"/>
<text text-anchor="middle" x="317.46" y="-82.8" font-family="Times,serif" font-size="14.00">S3</text>
</g>
<!-- S2&#45;&gt;S3 -->
<g id="edge5" class="edge" data-name="S2-&gt;S3">

<path fill="none" stroke="black" d="M253.63,-87C262.79,-87 273.79,-87 284.01,-87"/>
<polygon fill="black" stroke="black" points="283.97,-90.5 293.97,-87 283.97,-83.5 283.97,-90.5"/>
<text text-anchor="middle" x="274.73" y="-91.2" font-family="Times,serif" font-size="14.00">ε</text>
</g>
<!-- S4 -->
<g id="node6" class="node" pointer-events="visible" data-name="S4">

<ellipse fill="none" stroke="black" cx="402.94" cy="-87" rx="21.47" ry="21.47"/>
<text text-anchor="middle" x="402.94" y="-82.8" font-family="Times,serif" font-size="14.00">S4</text>
</g>
<!-- S3&#45;&gt;S4 -->
<g id="edge6" class="edge" data-name="S3-&gt;S4">

<path fill="none" stroke="black" d="M339.1,-87C348.26,-87 359.26,-87 369.48,-87"/>
<polygon fill="black" stroke="black" points="369.45,-90.5 379.45,-87 369.45,-83.5 369.45,-90.5"/>
<text text-anchor="middle" x="360.2" y="-91.2" font-family="Times,serif" font-size="14.00">b</text>
</g>
<!-- S4&#45;&gt;S5 -->
<g id="edge7" class="edge" data-name="S4-&gt;S5">

<path fill="none" stroke="black" d="M424.66,-87C433.77,-87 444.73,-87 455.12,-87"/>
<polygon fill="black" stroke="black" points="454.95,-90.5 464.95,-87 454.95,-83.5 454.95,-90.5"/>
<text text-anchor="middle" x="445.67" y="-91.2" font-family="Times,serif" font-size="14.00">ε</text>
</g>
<!-- S5&#45;&gt;S0 -->
<g id="edge8" class="edge" data-name="S5-&gt;S0">

<path fill="none" stroke="red" d="M475.61,-67.26C453.14,-41.59 409.32,0 361.2,0 188.65,0 188.65,0 188.65,0 144.94,0 105.43,-35.96 82.78,-61.65"/>
<polygon fill="red" stroke="red" points="80.28,-59.18 76.48,-69.07 85.62,-63.71 80.28,-59.18"/>
<text text-anchor="middle" x="274.73" y="-4.2" font-family="Times,serif" font-size="14.00">ε</text>
</g>
</g>
</svg>