<?xml version="1.0" encoding="UTF-8" standalone="no"?>
<!DOCTYPE svg PUBLIC "-//W3C//DTD SVG 1.1//EN"
 "http://www.w3.org/Graphics/SVG/1.1/DTD/svg11.dtd">
<!-- Generated by graphviz version 2.36.0 (20140111.2315)
 -->
<!-- Title: NFA_ab_cd Pages: 1 -->
<svg width="432pt" height="87pt"
 viewBox="0.00 0.00 432.00 87.25" xmlns="http://www.w3.org/2000/svg" xmlns:xlink="http://www.w3.org/1999/xlink">
<g id="graph0" class="graph" transform="scale(0.847059 0.847059) rotate(0) translate(4 99)">
<title>NFA_ab_cd</title>
<polygon fill="white" stroke="none" points="-4,4 -4,-99 506,-99 506,4 -4,4"/>
<!-- start -->
<g id="node1" class="node"><title>start</title>
<ellipse fill="black" stroke="black" cx="2" cy="-50" rx="1.8" ry="1.8"/>
</g>
<!-- S0 -->
<g id="node2" class="node"><title>S0</title>
<ellipse fill="none" stroke="black" cx="62" cy="-50" rx="19.3939" ry="19.3939"/>
<text text-anchor="middle" x="62" y="-45.8" font-family="Times,serif" font-size="14.00">S0</text>
</g>
<!-- start&#45;&gt;S0 -->
<g id="edge1" class="edge"><title>start&#45;&gt;S0</title>
<path fill="none" stroke="black" d="M4.0067,-50C7.55581,-50 19.9365,-50 32.2557,-50"/>
<polygon fill="black" stroke="black" points="32.3942,-53.5001 42.3941,-50 32.3941,-46.5001 32.3942,-53.5001"/>
</g>
<!-- S1 -->
<g id="node3" class="node"><title>S1</title>
<ellipse fill="none" stroke="black" cx="144" cy="-76" rx="19.3939" ry="19.3939"/>
<text text-anchor="middle" x="144" y="-71.8" font-family="Times,serif" font-size="14.00">S1</text>
</g>
<!-- S0&#45;&gt;S1 -->
<g id="edge2" class="edge"><title>S0&#45;&gt;S1</title>
<path fill="none" stroke="black" d="M80.7546,-55.7702C91.0083,-59.1027 104.122,-63.3645 115.666,-67.1163"/>
<polygon fill="black" stroke="black" points="114.703,-70.4836 125.295,-70.2459 116.867,-63.8263 114.703,-70.4836"/>
<text text-anchor="middle" x="103" y="-65.8" font-family="Times,serif" font-size="14.00">ε</text>
</g>
<!-- S5 -->
<g id="node7" class="node"><title>S5</title>
<ellipse fill="none" stroke="black" cx="144" cy="-19" rx="19.3939" ry="19.3939"/>
<text text-anchor="middle" x="144" y="-14.8" font-family="Times,serif" font-size="14.00">S5</text>
</g>
<!-- S0&#45;&gt;S5 -->
<g id="edge7" class="edge"><title>S0&#45;&gt;S5</title>
<path fill="none" stroke="black" d="M80.3588,-43.2735C90.8422,-39.2112 104.419,-33.9501 116.252,-29.3649"/>
<polygon fill="black" stroke="black" points="117.615,-32.5902 125.675,-25.7134 115.086,-26.0631 117.615,-32.5902"/>
<text text-anchor="middle" x="103" y="-38.8" font-family="Times,serif" font-size="14.00">ε</text>
</g>
<!-- S2 -->
<g id="node4" class="node"><title>S2</title>
<ellipse fill="none" stroke="black" cx="226" cy="-76" rx="19.3939" ry="19.3939"/>
<text text-anchor="middle" x="226" y="-71.8" font-family="Times,serif" font-size="14.00">S2</text>
</g>
<!-- S1&#45;&gt;S2 -->
<g id="edge3" class="edge"><title>S1&#45;&gt;S2</title>
<path fill="none" stroke="black" d="M163.555,-76C173.349,-76 185.578,-76 196.542,-76"/>
<polygon fill="black" stroke="black" points="196.546,-79.5001 206.546,-76 196.546,-72.5001 196.546,-79.5001"/>
<text text-anchor="middle" x="185" y="-78.8" font-family="Times,serif" font-size="14.00">a</text>
</g>
<!-- S3 -->
<g id="node5" class="node"><title>S3</title>
<ellipse fill="none" stroke="black" cx="308" cy="-76" rx="19.3939" ry="19.3939"/>
<text text-anchor="middle" x="308" y="-71.8" font-family="Times,serif" font-size="14.00">S3</text>
</g>
<!-- S2&#45;&gt;S3 -->
<g id="edge4" class="edge"><title>S2&#45;&gt;S3</title>
<path fill="none" stroke="black" d="M245.555,-76C255.349,-76 267.578,-76 278.542,-76"/>
<polygon fill="black" stroke="black" points="278.546,-79.5001 288.546,-76 278.546,-72.5001 278.546,-79.5001"/>
<text text-anchor="middle" x="267" y="-78.8" font-family="Times,serif" font-size="14.00">ε</text>
</g>
<!-- S4 -->
<g id="node6" class="node"><title>S4</title>
<ellipse fill="none" stroke="black" cx="392" cy="-76" rx="19.3939" ry="19.3939"/>
<text text-anchor="middle" x="392" y="-71.8" font-family="Times,serif" font-size="14.00">S4</text>
</g>
<!-- S3&#45;&gt;S4 -->
<g id="edge5" class="edge"><title>S3&#45;&gt;S4</title>
<path fill="none" stroke="black" d="M327.607,-76C337.882,-76 350.863,-76 362.398,-76"/>
<polygon fill="black" stroke="black" points="362.467,-79.5001 372.467,-76 362.467,-72.5001 362.467,-79.5001"/>
<text text-anchor="middle" x="350" y="-78.8" font-family="Times,serif" font-size="14.00">b</text>
</g>
<!-- S9 -->
<g id="node11" class="node"><title>S9</title>
<ellipse fill="none" stroke="black" cx="478" cy="-50" rx="19.4029" ry="19.4029"/>
<ellipse fill="none" stroke="black" cx="478" cy="-50" rx="23.3939" ry="23.3939"/>
<text text-anchor="middle" x="478" y="-45.8" font-family="Times,serif" font-size="14.00">S9</text>
</g>
<!-- S4&#45;&gt;S9 -->
<g id="edge6" class="edge"><title>S4&#45;&gt;S9</title>
<path fill="none" stroke="black" d="M410.814,-70.4861C420.871,-67.3732 433.735,-63.3916 445.442,-59.7678"/>
<polygon fill="black" stroke="black" points="446.816,-63.0066 455.334,-56.7062 444.746,-56.3196 446.816,-63.0066"/>
<text text-anchor="middle" x="433" y="-65.8" font-family="Times,serif" font-size="14.00">ε</text>
</g>
<!-- S6 -->
<g id="node8" class="node"><title>S6</title>
<ellipse fill="none" stroke="black" cx="226" cy="-19" rx="19.3939" ry="19.3939"/>
<text text-anchor="middle" x="226" y="-14.8" font-family="Times,serif" font-size="14.00">S6</text>
</g>
<!-- S5&#45;&gt;S6 -->
<g id="edge8" class="edge"><title>S5&#45;&gt;S6</title>
<path fill="none" stroke="black" d="M163.555,-19C173.349,-19 185.578,-19 196.542,-19"/>
<polygon fill="black" stroke="black" points="196.546,-22.5001 206.546,-19 196.546,-15.5001 196.546,-22.5001"/>
<text text-anchor="middle" x="185" y="-21.8" font-family="Times,serif" font-size="14.00">c</text>
</g>
<!-- S7 -->
<g id="node9" class="node"><title>S7</title>
<ellipse fill="none" stroke="black" cx="308" cy="-19" rx="19.3939" ry="19.3939"/>
<text text-anchor="middle" x="308" y="-14.8" font-family="Times,serif" font-size="14.00">S7</text>
</g>
<!-- S6&#45;&gt;S7 -->
<g id="edge9" class="edge"><title>S6&#45;&gt;S7</title>
<path fill="none" stroke="black" d="M245.555,-19C255.349,-19 267.578,-19 278.542,-19"/>
<polygon fill="black" stroke="black" points="278.546,-22.5001 288.546,-19 278.546,-15.5001 278.546,-22.5001"/>
<text text-anchor="middle" x="267" y="-21.8" font-family="Times,serif" font-size="14.00">ε</text>
</g>
<!-- S8 -->
<g id="node10" class="node"><title>S8</title>
<ellipse fill="none" stroke="black" cx="392" cy="-19" rx="19.3939" ry="19.3939"/>
<text text-anchor="middle" x="392" y="-14.8" font-family="Times,serif" font-size="14.00">S8</text>
</g>
<!-- S7&#45;&gt;S8 -->
<g id="edge10" class="edge"><title>S7&#45;&gt;S8</title>
<path fill="none" stroke="black" d="M327.607,-19C337.882,-19 350.863,-19 362.398,-19"/>
<polygon fill="black" stroke="black" points="362.467,-22.5001 372.467,-19 362.467,-15.5001 362.467,-22.5001"/>
<text text-anchor="middle" x="350" y="-21.8" font-family="Times,serif" font-size="14.00">d</text>
</g>
<!-- S8&#45;&gt;S9 -->
<g id="edge11" class="edge"><title>S8&#45;&gt;S9</title>
<path fill="none" stroke="black" d="M410.405,-25.4232C420.692,-29.2195 434.018,-34.1374 446.043,-38.5755"/>
<polygon fill="black" stroke="black" points="445.151,-41.9767 455.744,-42.1555 447.574,-35.4097 445.151,-41.9767"/>
<text text-anchor="middle" x="433" y="-37.8" font-family="Times,serif" font-size="14.00">ε</text>
</g>
</g>
</svg>
