<?xml version="1.0" encoding="UTF-8" standalone="no"?>
<!DOCTYPE svg PUBLIC "-//W3C//DTD SVG 1.1//EN"
 "http://www.w3.org/Graphics/SVG/1.1/DTD/svg11.dtd">
<!-- Generated by graphviz version 14.1.5 (20260411.2331)
 -->
<!-- Title: NFA_ab_cd Pages: 1 -->
<svg width="432pt" height="91pt"
 viewBox="0.00 0.00 432.00 91.00" xmlns="http://www.w3.org/2000/svg" xmlns:xlink="http://www.w3.org/1999/xlink">
<g id="graph0" class="graph" transform="scale(0.838729 0.838729) rotate(0) translate(4 104.29)">
<title>NFA_ab_cd</title>
<polygon fill="white" stroke="none" points="-4,4 -4,-104.29 511.07,-104.29 511.07,4 -4,4"/>
<!-- start -->
<g id="node1" class="node">
<title>start</title>
<ellipse fill="black" stroke="black" cx="1.8" cy="-49.64" rx="1.8" ry="1.8"/>
</g>
<!-- S0 -->
<g id="node2" class="node">
<title>S0</title>
<ellipse fill="none" stroke="black" cx="61.24" cy="-49.64" rx="20.64" ry="20.64"/>
<text xml:space="preserve" text-anchor="middle" x="61.24" y="-44.59" font-family="Times,serif" font-size="14.00">S0</text>
</g>
<!-- start&#45;&gt;S0 -->
<g id="edge1" class="edge">
<title>start&#45;&gt;S0</title>
<path fill="none" stroke="black" d="M3.8,-49.64C7.06,-49.64 17.86,-49.64 29.15,-49.64"/>
<polygon fill="black" stroke="black" points="28.83,-53.14 38.83,-49.64 28.83,-46.14 28.83,-53.14"/>
</g>
<!-- S1 -->
<g id="node3" class="node">
<title>S1</title>
<ellipse fill="none" stroke="black" cx="144.53" cy="-79.64" rx="20.64" ry="20.64"/>
<text xml:space="preserve" text-anchor="middle" x="144.53" y="-74.59" font-family="Times,serif" font-size="14.00">S1</text>
</g>
<!-- S0&#45;&gt;S1 -->
<g id="edge2" class="edge">
<title>S0&#45;&gt;S1</title>
<path fill="none" stroke="black" d="M81.1,-56.6C90.94,-60.24 103.22,-64.77 114.27,-68.84"/>
<polygon fill="black" stroke="black" points="112.76,-72.02 123.36,-72.2 115.19,-65.45 112.76,-72.02"/>
<text xml:space="preserve" text-anchor="middle" x="102.89" y="-68.74" font-family="Times,serif" font-size="14.00">ε</text>
</g>
<!-- S5 -->
<g id="node7" class="node">
<title>S5</title>
<ellipse fill="none" stroke="black" cx="144.53" cy="-20.64" rx="20.64" ry="20.64"/>
<text xml:space="preserve" text-anchor="middle" x="144.53" y="-15.59" font-family="Times,serif" font-size="14.00">S5</text>
</g>
<!-- S0&#45;&gt;S5 -->
<g id="edge7" class="edge">
<title>S0&#45;&gt;S5</title>
<path fill="none" stroke="black" d="M81,-42.9C87.03,-40.74 93.74,-38.34 99.89,-36.14 104.49,-34.5 109.36,-32.77 114.12,-31.07"/>
<polygon fill="black" stroke="black" points="115.16,-34.42 123.41,-27.77 112.81,-27.82 115.16,-34.42"/>
<text xml:space="preserve" text-anchor="middle" x="102.89" y="-39.34" font-family="Times,serif" font-size="14.00">ε</text>
</g>
<!-- S2 -->
<g id="node4" class="node">
<title>S2</title>
<ellipse fill="none" stroke="black" cx="227.81" cy="-79.64" rx="20.64" ry="20.64"/>
<text xml:space="preserve" text-anchor="middle" x="227.81" y="-74.59" font-family="Times,serif" font-size="14.00">S2</text>
</g>
<!-- S1&#45;&gt;S2 -->
<g id="edge3" class="edge">
<title>S1&#45;&gt;S2</title>
<path fill="none" stroke="black" d="M165.62,-79.64C174.68,-79.64 185.58,-79.64 195.66,-79.64"/>
<polygon fill="black" stroke="black" points="195.44,-83.14 205.44,-79.64 195.44,-76.14 195.44,-83.14"/>
<text xml:space="preserve" text-anchor="middle" x="186.17" y="-82.84" font-family="Times,serif" font-size="14.00">a</text>
</g>
<!-- S3 -->
<g id="node5" class="node">
<title>S3</title>
<ellipse fill="none" stroke="black" cx="311.1" cy="-79.64" rx="20.64" ry="20.64"/>
<text xml:space="preserve" text-anchor="middle" x="311.1" y="-74.59" font-family="Times,serif" font-size="14.00">S3</text>
</g>
<!-- S2&#45;&gt;S3 -->
<g id="edge4" class="edge">
<title>S2&#45;&gt;S3</title>
<path fill="none" stroke="black" d="M248.91,-79.64C257.96,-79.64 268.87,-79.64 278.95,-79.64"/>
<polygon fill="black" stroke="black" points="278.72,-83.14 288.72,-79.64 278.72,-76.14 278.72,-83.14"/>
<text xml:space="preserve" text-anchor="middle" x="269.46" y="-82.84" font-family="Times,serif" font-size="14.00">ε</text>
</g>
<!-- S4 -->
<g id="node6" class="node">
<title>S4</title>
<ellipse fill="none" stroke="black" cx="395.14" cy="-79.64" rx="20.64" ry="20.64"/>
<text xml:space="preserve" text-anchor="middle" x="395.14" y="-74.59" font-family="Times,serif" font-size="14.00">S4</text>
</g>
<!-- S3&#45;&gt;S4 -->
<g id="edge5" class="edge">
<title>S3&#45;&gt;S4</title>
<path fill="none" stroke="black" d="M331.96,-79.64C341.26,-79.64 352.56,-79.64 362.97,-79.64"/>
<polygon fill="black" stroke="black" points="362.66,-83.14 372.66,-79.64 362.66,-76.14 362.66,-83.14"/>
<text xml:space="preserve" text-anchor="middle" x="353.12" y="-82.84" font-family="Times,serif" font-size="14.00">b</text>
</g>
<!-- S9 -->
<g id="node11" class="node">
<title>S9</title>
<ellipse fill="none" stroke="black" cx="482.42" cy="-49.64" rx="20.64" ry="20.64"/>
<ellipse fill="none" stroke="black" cx="482.42" cy="-49.64" rx="24.64" ry="24.64"/>
<text xml:space="preserve" text-anchor="middle" x="482.42" y="-44.59" font-family="Times,serif" font-size="14.00">S9</text>
</g>
<!-- S4&#45;&gt;S9 -->
<g id="edge6" class="edge">
<title>S4&#45;&gt;S9</title>
<path fill="none" stroke="black" d="M415.06,-72.98C424.71,-69.59 436.72,-65.37 447.87,-61.45"/>
<polygon fill="black" stroke="black" points="448.91,-64.79 457.18,-58.17 446.58,-58.19 448.91,-64.79"/>
<text xml:space="preserve" text-anchor="middle" x="436.78" y="-68.74" font-family="Times,serif" font-size="14.00">ε</text>
</g>
<!-- S6 -->
<g id="node8" class="node">
<title>S6</title>
<ellipse fill="none" stroke="black" cx="227.81" cy="-20.64" rx="20.64" ry="20.64"/>
<text xml:space="preserve" text-anchor="middle" x="227.81" y="-15.59" font-family="Times,serif" font-size="14.00">S6</text>
</g>
<!-- S5&#45;&gt;S6 -->
<g id="edge8" class="edge">
<title>S5&#45;&gt;S6</title>
<path fill="none" stroke="black" d="M165.62,-20.64C174.68,-20.64 185.58,-20.64 195.66,-20.64"/>
<polygon fill="black" stroke="black" points="195.44,-24.14 205.44,-20.64 195.44,-17.14 195.44,-24.14"/>
<text xml:space="preserve" text-anchor="middle" x="186.17" y="-23.84" font-family="Times,serif" font-size="14.00">c</text>
</g>
<!-- S7 -->
<g id="node9" class="node">
<title>S7</title>
<ellipse fill="none" stroke="black" cx="311.1" cy="-20.64" rx="20.64" ry="20.64"/>
<text xml:space="preserve" text-anchor="middle" x="311.1" y="-15.59" font-family="Times,serif" font-size="14.00">S7</text>
</g>
<!-- S6&#45;&gt;S7 -->
<g id="edge9" class="edge">
<title>S6&#45;&gt;S7</title>
<path fill="none" stroke="black" d="M248.91,-20.64C257.96,-20.64 268.87,-20.64 278.95,-20.64"/>
<polygon fill="black" stroke="black" points="278.72,-24.14 288.72,-20.64 278.72,-17.14 278.72,-24.14"/>
<text xml:space="preserve" text-anchor="middle" x="269.46" y="-23.84" font-family="Times,serif" font-size="14.00">ε</text>
</g>
<!-- S8 -->
<g id="node10" class="node">
<title>S8</title>
<ellipse fill="none" stroke="black" cx="395.14" cy="-20.64" rx="20.64" ry="20.64"/>
<text xml:space="preserve" text-anchor="middle" x="395.14" y="-15.59" font-family="Times,serif" font-size="14.00">S8</text>
</g>
<!-- S7&#45;&gt;S8 -->
<g id="edge10" class="edge">
<title>S7&#45;&gt;S8</title>
<path fill="none" stroke="black" d="M331.96,-20.64C341.26,-20.64 352.56,-20.64 362.97,-20.64"/>
<polygon fill="black" stroke="black" points="362.66,-24.14 372.66,-20.64 362.66,-17.14 362.66,-24.14"/>
<text xml:space="preserve" text-anchor="middle" x="353.12" y="-23.84" font-family="Times,serif" font-size="14.00">d</text>
</g>
<!-- S8&#45;&gt;S9 -->
<g id="edge11" class="edge">
<title>S8&#45;&gt;S9</title>
<path fill="none" stroke="black" d="M415.06,-27.08C424.71,-30.36 436.72,-34.44 447.87,-38.23"/>
<polygon fill="black" stroke="black" points="446.58,-41.49 457.17,-41.4 448.83,-34.86 446.58,-41.49"/>
<text xml:space="preserve" text-anchor="middle" x="436.78" y="-38.34" font-family="Times,serif" font-size="14.00">ε</text>
</g>
</g>
</svg>
