<?xml version="1.0" encoding="UTF-8" standalone="no"?>
<!DOCTYPE svg PUBLIC "-//W3C//DTD SVG 1.1//EN"
 "http://www.w3.org/Graphics/SVG/1.1/DTD/svg11.dtd">
<!-- Generated by graphviz version 2.36.0 (20140111.2315)
 -->
<!-- Title: RC_Step5 Pages: 1 -->
<svg width="398pt" height="98pt"
 viewBox="0.00 0.00 398.00 98.00" xmlns="http://www.w3.org/2000/svg" xmlns:xlink="http://www.w3.org/1999/xlink">
<g id="graph0" class="graph" transform="scale(1 1) rotate(0) translate(4 94)">
<title>RC_Step5</title>
<polygon fill="white" stroke="none" points="-4,4 -4,-94 394,-94 394,4 -4,4"/>
<!-- x -->
<g id="node1" class="node"><title>x</title>
<path fill="none" stroke="black" d="M82,-90C82,-90 52,-90 52,-90 46,-90 40,-84 40,-78 40,-78 40,-66 40,-66 40,-60 46,-54 52,-54 52,-54 82,-54 82,-54 88,-54 94,-60 94,-66 94,-66 94,-78 94,-78 94,-84 88,-90 82,-90"/>
<text text-anchor="middle" x="67" y="-67.8" font-family="Times,serif" font-size="14.00">x</text>
</g>
<!-- B -->
<g id="node3" class="node"><title>B</title>
<path fill="none" stroke="black" d="M249.538,-63C249.538,-63 182.462,-63 182.462,-63 176.462,-63 170.462,-57 170.462,-51 170.462,-51 170.462,-39 170.462,-39 170.462,-33 176.462,-27 182.462,-27 182.462,-27 249.538,-27 249.538,-27 255.538,-27 261.538,-33 261.538,-39 261.538,-39 261.538,-51 261.538,-51 261.538,-57 255.538,-63 249.538,-63"/>
<text text-anchor="middle" x="216" y="-47.8" font-family="Times,serif" font-size="14.00">B</text>
<text text-anchor="middle" x="216" y="-33.8" font-family="Times,serif" font-size="14.00">ref_count = 2</text>
</g>
<!-- x&#45;&gt;B -->
<g id="edge2" class="edge"><title>x&#45;&gt;B</title>
<path fill="none" stroke="black" d="M94.2807,-67.1729C112.542,-63.8187 137.548,-59.2258 160.066,-55.0898"/>
<polygon fill="black" stroke="black" points="161.001,-58.4768 170.204,-53.2278 159.736,-51.592 161.001,-58.4768"/>
</g>
<!-- A -->
<g id="node2" class="node"><title>A</title>
<path fill="none" stroke="black" d="M121.613,-36C121.613,-36 12.3867,-36 12.3867,-36 6.38667,-36 0.386671,-30 0.386671,-24 0.386671,-24 0.386671,-12 0.386671,-12 0.386671,-6 6.38667,-0 12.3867,-0 12.3867,-0 121.613,-0 121.613,-0 127.613,-0 133.613,-6 133.613,-12 133.613,-12 133.613,-24 133.613,-24 133.613,-30 127.613,-36 121.613,-36"/>
<text text-anchor="middle" x="67" y="-20.8" font-family="Times,serif" font-size="14.00">A</text>
<text text-anchor="middle" x="67" y="-6.8" font-family="Times,serif" font-size="14.00">ref_count = 0 (freed)</text>
</g>
<!-- A&#45;&gt;B -->
<g id="edge1" class="edge"><title>A&#45;&gt;B</title>
<path fill="none" stroke="black" d="M133.761,-30.0785C142.662,-31.7134 151.716,-33.3764 160.393,-34.9702"/>
<polygon fill="black" stroke="black" points="159.907,-38.4393 170.375,-36.8035 161.171,-31.5545 159.907,-38.4393"/>
</g>
<!-- C -->
<g id="node4" class="node"><title>C</title>
<path fill="none" stroke="black" d="M377.538,-63C377.538,-63 310.462,-63 310.462,-63 304.462,-63 298.462,-57 298.462,-51 298.462,-51 298.462,-39 298.462,-39 298.462,-33 304.462,-27 310.462,-27 310.462,-27 377.538,-27 377.538,-27 383.538,-27 389.538,-33 389.538,-39 389.538,-39 389.538,-51 389.538,-51 389.538,-57 383.538,-63 377.538,-63"/>
<text text-anchor="middle" x="344" y="-47.8" font-family="Times,serif" font-size="14.00">C</text>
<text text-anchor="middle" x="344" y="-33.8" font-family="Times,serif" font-size="14.00">ref_count = 1</text>
</g>
<!-- B&#45;&gt;C -->
<g id="edge3" class="edge"><title>B&#45;&gt;C</title>
<path fill="none" stroke="black" d="M261.778,-45C270.319,-45 279.349,-45 288.162,-45"/>
<polygon fill="black" stroke="black" points="288.367,-48.5001 298.367,-45 288.366,-41.5001 288.367,-48.5001"/>
</g>
</g>
</svg>
