<?xml version="1.0" encoding="UTF-8" standalone="no"?>
<!DOCTYPE svg PUBLIC "-//W3C//DTD SVG 1.1//EN"
 "http://www.w3.org/Graphics/SVG/1.1/DTD/svg11.dtd">
<!-- Generated by graphviz version 2.36.0 (20140111.2315)
 -->
<!-- Title: RC_Step6 Pages: 1 -->
<svg width="228pt" height="44pt"
 viewBox="0.00 0.00 228.00 44.00" xmlns="http://www.w3.org/2000/svg" xmlns:xlink="http://www.w3.org/1999/xlink">
<g id="graph0" class="graph" transform="scale(1 1) rotate(0) translate(4 40)">
<title>RC_Step6</title>
<polygon fill="white" stroke="none" points="-4,4 -4,-40 224,-40 224,4 -4,4"/>
<!-- B -->
<g id="node1" class="node"><title>B</title>
<path fill="none" stroke="black" d="M79.5383,-36C79.5383,-36 12.4617,-36 12.4617,-36 6.46173,-36 0.461726,-30 0.461726,-24 0.461726,-24 0.461726,-12 0.461726,-12 0.461726,-6 6.46173,-0 12.4617,-0 12.4617,-0 79.5383,-0 79.5383,-0 85.5383,-0 91.5383,-6 91.5383,-12 91.5383,-12 91.5383,-24 91.5383,-24 91.5383,-30 85.5383,-36 79.5383,-36"/>
<text text-anchor="middle" x="46" y="-20.8" font-family="Times,serif" font-size="14.00">B</text>
<text text-anchor="middle" x="46" y="-6.8" font-family="Times,serif" font-size="14.00">ref_count = 1</text>
</g>
<!-- C -->
<g id="node2" class="node"><title>C</title>
<path fill="none" stroke="black" d="M207.538,-36C207.538,-36 140.462,-36 140.462,-36 134.462,-36 128.462,-30 128.462,-24 128.462,-24 128.462,-12 128.462,-12 128.462,-6 134.462,-0 140.462,-0 140.462,-0 207.538,-0 207.538,-0 213.538,-0 219.538,-6 219.538,-12 219.538,-12 219.538,-24 219.538,-24 219.538,-30 213.538,-36 207.538,-36"/>
<text text-anchor="middle" x="174" y="-20.8" font-family="Times,serif" font-size="14.00">C</text>
<text text-anchor="middle" x="174" y="-6.8" font-family="Times,serif" font-size="14.00">ref_count = 1</text>
</g>
<!-- B&#45;&gt;C -->
<g id="edge1" class="edge"><title>B&#45;&gt;C</title>
<path fill="none" stroke="black" d="M91.7777,-18C100.319,-18 109.349,-18 118.162,-18"/>
<polygon fill="black" stroke="black" points="118.367,-21.5001 128.367,-18 118.366,-14.5001 118.367,-21.5001"/>
</g>
</g>
</svg>
