<?xml version="1.0" encoding="UTF-8" standalone="no"?>
<!DOCTYPE svg PUBLIC "-//W3C//DTD SVG 1.1//EN"
 "http://www.w3.org/Graphics/SVG/1.1/DTD/svg11.dtd">
<!-- Generated by graphviz version 14.1.5 (20260411.2331)
 -->
<!-- Title: RC_Step3 Pages: 1 -->
<svg width="315pt" height="104pt"
 viewBox="0.00 0.00 315.00 104.00" xmlns="http://www.w3.org/2000/svg" xmlns:xlink="http://www.w3.org/1999/xlink">
<g id="graph0" class="graph" transform="scale(1 1) rotate(0) translate(4 99.5)">
<title>RC_Step3</title>
<polygon fill="white" stroke="none" points="-4,4 -4,-99.5 310.5,-99.5 310.5,4 -4,4"/>
<!-- root -->
<g id="node1" class="node">
<title>root</title>
<path fill="none" stroke="black" d="M42,-93C42,-93 12,-93 12,-93 6,-93 0,-87 0,-81 0,-81 0,-69 0,-69 0,-63 6,-57 12,-57 12,-57 42,-57 42,-57 48,-57 54,-63 54,-69 54,-69 54,-81 54,-81 54,-87 48,-93 42,-93"/>
<text xml:space="preserve" text-anchor="middle" x="27" y="-69.95" font-family="Times,serif" font-size="14.00">root</text>
</g>
<!-- A -->
<g id="node3" class="node">
<title>A</title>
<path fill="none" stroke="black" d="M168.25,-95.5C168.25,-95.5 102,-95.5 102,-95.5 96,-95.5 90,-89.5 90,-83.5 90,-83.5 90,-66.5 90,-66.5 90,-60.5 96,-54.5 102,-54.5 102,-54.5 168.25,-54.5 168.25,-54.5 174.25,-54.5 180.25,-60.5 180.25,-66.5 180.25,-66.5 180.25,-83.5 180.25,-83.5 180.25,-89.5 174.25,-95.5 168.25,-95.5"/>
<text xml:space="preserve" text-anchor="middle" x="135.12" y="-78.2" font-family="Times,serif" font-size="14.00">A</text>
<text xml:space="preserve" text-anchor="middle" x="135.12" y="-61.7" font-family="Times,serif" font-size="14.00">ref_count = 1</text>
</g>
<!-- root&#45;&gt;A -->
<g id="edge1" class="edge">
<title>root&#45;&gt;A</title>
<path fill="none" stroke="black" d="M54.23,-75C61.58,-75 69.85,-75 78.22,-75"/>
<polygon fill="black" stroke="black" points="78.09,-78.5 88.09,-75 78.09,-71.5 78.09,-78.5"/>
</g>
<!-- x -->
<g id="node2" class="node">
<title>x</title>
<path fill="none" stroke="black" d="M150.12,-36C150.12,-36 120.12,-36 120.12,-36 114.12,-36 108.12,-30 108.12,-24 108.12,-24 108.12,-12 108.12,-12 108.12,-6 114.12,0 120.12,0 120.12,0 150.12,0 150.12,0 156.12,0 162.12,-6 162.12,-12 162.12,-12 162.12,-24 162.12,-24 162.12,-30 156.12,-36 150.12,-36"/>
<text xml:space="preserve" text-anchor="middle" x="135.12" y="-12.95" font-family="Times,serif" font-size="14.00">x</text>
</g>
<!-- B -->
<g id="node4" class="node">
<title>B</title>
<path fill="none" stroke="black" d="M294.5,-66.5C294.5,-66.5 228.25,-66.5 228.25,-66.5 222.25,-66.5 216.25,-60.5 216.25,-54.5 216.25,-54.5 216.25,-37.5 216.25,-37.5 216.25,-31.5 222.25,-25.5 228.25,-25.5 228.25,-25.5 294.5,-25.5 294.5,-25.5 300.5,-25.5 306.5,-31.5 306.5,-37.5 306.5,-37.5 306.5,-54.5 306.5,-54.5 306.5,-60.5 300.5,-66.5 294.5,-66.5"/>
<text xml:space="preserve" text-anchor="middle" x="261.38" y="-49.2" font-family="Times,serif" font-size="14.00">B</text>
<text xml:space="preserve" text-anchor="middle" x="261.38" y="-32.7" font-family="Times,serif" font-size="14.00">ref_count = 2</text>
</g>
<!-- x&#45;&gt;B -->
<g id="edge3" class="edge">
<title>x&#45;&gt;B</title>
<path fill="none" stroke="black" d="M162.48,-23.94C174.85,-26.73 190.1,-30.16 204.84,-33.49"/>
<polygon fill="black" stroke="black" points="203.97,-36.88 214.49,-35.66 205.51,-30.05 203.97,-36.88"/>
</g>
<!-- A&#45;&gt;B -->
<g id="edge2" class="edge">
<title>A&#45;&gt;B</title>
<path fill="none" stroke="black" d="M180.63,-64.61C188.39,-62.8 196.56,-60.9 204.57,-59.02"/>
<polygon fill="black" stroke="black" points="205.35,-62.44 214.29,-56.76 203.75,-55.62 205.35,-62.44"/>
</g>
</g>
</svg>
