<?xml version="1.0" encoding="UTF-8" standalone="no"?>
<!DOCTYPE svg PUBLIC "-//W3C//DTD SVG 1.1//EN"
 "http://www.w3.org/Graphics/SVG/1.1/DTD/svg11.dtd">
<!-- Generated by graphviz version 14.1.5 (20260411.2331)
 -->
<!-- Title: RC_Step6 Pages: 1 -->
<svg width="225pt" height="49pt"
 viewBox="0.00 0.00 225.00 49.00" xmlns="http://www.w3.org/2000/svg" xmlns:xlink="http://www.w3.org/1999/xlink">
<g id="graph0" class="graph" transform="scale(1 1) rotate(0) translate(4 45)">
<title>RC_Step6</title>
<polygon fill="white" stroke="none" points="-4,4 -4,-45 220.5,-45 220.5,4 -4,4"/>
<!-- B -->
<g id="node1" class="node">
<title>B</title>
<path fill="none" stroke="black" d="M78.25,-41C78.25,-41 12,-41 12,-41 6,-41 0,-35 0,-29 0,-29 0,-12 0,-12 0,-6 6,0 12,0 12,0 78.25,0 78.25,0 84.25,0 90.25,-6 90.25,-12 90.25,-12 90.25,-29 90.25,-29 90.25,-35 84.25,-41 78.25,-41"/>
<text xml:space="preserve" text-anchor="middle" x="45.12" y="-23.7" font-family="Times,serif" font-size="14.00">B</text>
<text xml:space="preserve" text-anchor="middle" x="45.12" y="-7.2" font-family="Times,serif" font-size="14.00">ref_count = 1</text>
</g>
<!-- C -->
<g id="node2" class="node">
<title>C</title>
<path fill="none" stroke="black" d="M204.5,-41C204.5,-41 138.25,-41 138.25,-41 132.25,-41 126.25,-35 126.25,-29 126.25,-29 126.25,-12 126.25,-12 126.25,-6 132.25,0 138.25,0 138.25,0 204.5,0 204.5,0 210.5,0 216.5,-6 216.5,-12 216.5,-12 216.5,-29 216.5,-29 216.5,-35 210.5,-41 204.5,-41"/>
<text xml:space="preserve" text-anchor="middle" x="171.38" y="-23.7" font-family="Times,serif" font-size="14.00">C</text>
<text xml:space="preserve" text-anchor="middle" x="171.38" y="-7.2" font-family="Times,serif" font-size="14.00">ref_count = 1</text>
</g>
<!-- B&#45;&gt;C -->
<g id="edge1" class="edge">
<title>B&#45;&gt;C</title>
<path fill="none" stroke="black" d="M90.63,-20.5C98.3,-20.5 106.37,-20.5 114.3,-20.5"/>
<polygon fill="black" stroke="black" points="114.25,-24 124.25,-20.5 114.25,-17 114.25,-24"/>
</g>
</g>
</svg>
