<?xml version="1.0" encoding="UTF-8" standalone="no"?>
<!DOCTYPE svg PUBLIC "-//W3C//DTD SVG 1.1//EN"
 "http://www.w3.org/Graphics/SVG/1.1/DTD/svg11.dtd">
<!-- Generated by graphviz version 2.36.0 (20140111.2315)
 -->
<!-- Title: RC_Step7 Pages: 1 -->
<svg width="142pt" height="44pt"
 viewBox="0.00 0.00 142.00 44.00" xmlns="http://www.w3.org/2000/svg" xmlns:xlink="http://www.w3.org/1999/xlink">
<g id="graph0" class="graph" transform="scale(1 1) rotate(0) translate(4 40)">
<title>RC_Step7</title>
<polygon fill="white" stroke="none" points="-4,4 -4,-40 138,-40 138,4 -4,4"/>
<!-- C -->
<g id="node1" class="node"><title>C</title>
<path fill="none" stroke="black" d="M121.613,-36C121.613,-36 12.3867,-36 12.3867,-36 6.38667,-36 0.386671,-30 0.386671,-24 0.386671,-24 0.386671,-12 0.386671,-12 0.386671,-6 6.38667,-0 12.3867,-0 12.3867,-0 121.613,-0 121.613,-0 127.613,-0 133.613,-6 133.613,-12 133.613,-12 133.613,-24 133.613,-24 133.613,-30 127.613,-36 121.613,-36"/>
<text text-anchor="middle" x="67" y="-20.8" font-family="Times,serif" font-size="14.00">C</text>
<text text-anchor="middle" x="67" y="-6.8" font-family="Times,serif" font-size="14.00">ref_count = 0 (freed)</text>
</g>
</g>
</svg>
