<?xml version="1.0" encoding="UTF-8" standalone="no"?>
<!DOCTYPE svg PUBLIC "-//W3C//DTD SVG 1.1//EN"
 "http://www.w3.org/Graphics/SVG/1.1/DTD/svg11.dtd">
<!-- Generated by graphviz version 2.36.0 (20140111.2315)
 -->
<!-- Title: RC_Step4 Pages: 1 -->
<svg width="446pt" height="98pt"
 viewBox="0.00 0.00 446.00 98.00" xmlns="http://www.w3.org/2000/svg" xmlns:xlink="http://www.w3.org/1999/xlink">
<g id="graph0" class="graph" transform="scale(1 1) rotate(0) translate(4 94)">
<title>RC_Step4</title>
<polygon fill="white" stroke="none" points="-4,4 -4,-94 442,-94 442,4 -4,4"/>
<!-- root -->
<g id="node1" class="node"><title>root</title>
<path fill="none" stroke="black" d="M42,-90C42,-90 12,-90 12,-90 6,-90 0,-84 0,-78 0,-78 0,-66 0,-66 0,-60 6,-54 12,-54 12,-54 42,-54 42,-54 48,-54 54,-60 54,-66 54,-66 54,-78 54,-78 54,-84 48,-90 42,-90"/>
<text text-anchor="middle" x="27" y="-67.8" font-family="Times,serif" font-size="14.00">root</text>
</g>
<!-- A -->
<g id="node3" class="node"><title>A</title>
<path fill="none" stroke="black" d="M169.538,-90C169.538,-90 102.462,-90 102.462,-90 96.4617,-90 90.4617,-84 90.4617,-78 90.4617,-78 90.4617,-66 90.4617,-66 90.4617,-60 96.4617,-54 102.462,-54 102.462,-54 169.538,-54 169.538,-54 175.538,-54 181.538,-60 181.538,-66 181.538,-66 181.538,-78 181.538,-78 181.538,-84 175.538,-90 169.538,-90"/>
<text text-anchor="middle" x="136" y="-74.8" font-family="Times,serif" font-size="14.00">A</text>
<text text-anchor="middle" x="136" y="-60.8" font-family="Times,serif" font-size="14.00">ref_count = 1</text>
</g>
<!-- root&#45;&gt;A -->
<g id="edge1" class="edge"><title>root&#45;&gt;A</title>
<path fill="none" stroke="black" d="M54.1751,-72C62.0867,-72 71.088,-72 80.1413,-72"/>
<polygon fill="black" stroke="black" points="80.3295,-75.5001 90.3294,-72 80.3294,-68.5001 80.3295,-75.5001"/>
</g>
<!-- x -->
<g id="node2" class="node"><title>x</title>
<path fill="none" stroke="black" d="M151,-36C151,-36 121,-36 121,-36 115,-36 109,-30 109,-24 109,-24 109,-12 109,-12 109,-6 115,-0 121,-0 121,-0 151,-0 151,-0 157,-0 163,-6 163,-12 163,-12 163,-24 163,-24 163,-30 157,-36 151,-36"/>
<text text-anchor="middle" x="136" y="-13.8" font-family="Times,serif" font-size="14.00">x</text>
</g>
<!-- B -->
<g id="node4" class="node"><title>B</title>
<path fill="none" stroke="black" d="M297.538,-63C297.538,-63 230.462,-63 230.462,-63 224.462,-63 218.462,-57 218.462,-51 218.462,-51 218.462,-39 218.462,-39 218.462,-33 224.462,-27 230.462,-27 230.462,-27 297.538,-27 297.538,-27 303.538,-27 309.538,-33 309.538,-39 309.538,-39 309.538,-51 309.538,-51 309.538,-57 303.538,-63 297.538,-63"/>
<text text-anchor="middle" x="264" y="-47.8" font-family="Times,serif" font-size="14.00">B</text>
<text text-anchor="middle" x="264" y="-33.8" font-family="Times,serif" font-size="14.00">ref_count = 2</text>
</g>
<!-- x&#45;&gt;B -->
<g id="edge3" class="edge"><title>x&#45;&gt;B</title>
<path fill="none" stroke="black" d="M163.107,-23.5944C176.175,-26.3946 192.513,-29.8955 208.166,-33.2498"/>
<polygon fill="black" stroke="black" points="207.801,-36.751 218.312,-35.4241 209.268,-29.9064 207.801,-36.751"/>
</g>
<!-- A&#45;&gt;B -->
<g id="edge2" class="edge"><title>A&#45;&gt;B</title>
<path fill="none" stroke="black" d="M181.778,-62.4048C190.412,-60.5546 199.545,-58.5974 208.45,-56.6894"/>
<polygon fill="black" stroke="black" points="209.322,-60.082 218.367,-54.5643 207.855,-53.2374 209.322,-60.082"/>
</g>
<!-- C -->
<g id="node5" class="node"><title>C</title>
<path fill="none" stroke="black" d="M425.538,-63C425.538,-63 358.462,-63 358.462,-63 352.462,-63 346.462,-57 346.462,-51 346.462,-51 346.462,-39 346.462,-39 346.462,-33 352.462,-27 358.462,-27 358.462,-27 425.538,-27 425.538,-27 431.538,-27 437.538,-33 437.538,-39 437.538,-39 437.538,-51 437.538,-51 437.538,-57 431.538,-63 425.538,-63"/>
<text text-anchor="middle" x="392" y="-47.8" font-family="Times,serif" font-size="14.00">C</text>
<text text-anchor="middle" x="392" y="-33.8" font-family="Times,serif" font-size="14.00">ref_count = 1</text>
</g>
<!-- B&#45;&gt;C -->
<g id="edge4" class="edge"><title>B&#45;&gt;C</title>
<path fill="none" stroke="black" d="M309.778,-45C318.319,-45 327.349,-45 336.162,-45"/>
<polygon fill="black" stroke="black" points="336.367,-48.5001 346.367,-45 336.366,-41.5001 336.367,-48.5001"/>
</g>
</g>
</svg>
