<?xml version="1.0" encoding="UTF-8" standalone="no"?>
<!DOCTYPE svg PUBLIC "-//W3C//DTD SVG 1.1//EN"
 "http://www.w3.org/Graphics/SVG/1.1/DTD/svg11.dtd">
<!-- Generated by graphviz version 14.1.5 (20260411.2331)
 -->
<!-- Title: RC_Step1 Pages: 1 -->
<svg width="188pt" height="101pt"
 viewBox="0.00 0.00 188.00 101.00" xmlns="http://www.w3.org/2000/svg" xmlns:xlink="http://www.w3.org/1999/xlink">
<g id="graph0" class="graph" transform="scale(1 1) rotate(0) translate(4 96.5)">
<title>RC_Step1</title>
<polygon fill="white" stroke="none" points="-4,4 -4,-96.5 184.25,-96.5 184.25,4 -4,4"/>
<!-- root -->
<g id="node1" class="node">
<title>root</title>
<path fill="none" stroke="black" d="M42,-38.5C42,-38.5 12,-38.5 12,-38.5 6,-38.5 0,-32.5 0,-26.5 0,-26.5 0,-14.5 0,-14.5 0,-8.5 6,-2.5 12,-2.5 12,-2.5 42,-2.5 42,-2.5 48,-2.5 54,-8.5 54,-14.5 54,-14.5 54,-26.5 54,-26.5 54,-32.5 48,-38.5 42,-38.5"/>
<text xml:space="preserve" text-anchor="middle" x="27" y="-15.45" font-family="Times,serif" font-size="14.00">root</text>
</g>
<!-- A -->
<g id="node3" class="node">
<title>A</title>
<path fill="none" stroke="black" d="M168.25,-41C168.25,-41 102,-41 102,-41 96,-41 90,-35 90,-29 90,-29 90,-12 90,-12 90,-6 96,0 102,0 102,0 168.25,0 168.25,0 174.25,0 180.25,-6 180.25,-12 180.25,-12 180.25,-29 180.25,-29 180.25,-35 174.25,-41 168.25,-41"/>
<text xml:space="preserve" text-anchor="middle" x="135.12" y="-23.7" font-family="Times,serif" font-size="14.00">A</text>
<text xml:space="preserve" text-anchor="middle" x="135.12" y="-7.2" font-family="Times,serif" font-size="14.00">ref_count = 1</text>
</g>
<!-- root&#45;&gt;A -->
<g id="edge1" class="edge">
<title>root&#45;&gt;A</title>
<path fill="none" stroke="black" d="M54.23,-20.5C61.58,-20.5 69.85,-20.5 78.22,-20.5"/>
<polygon fill="black" stroke="black" points="78.09,-24 88.09,-20.5 78.09,-17 78.09,-24"/>
</g>
<!-- x -->
<g id="node2" class="node">
<title>x</title>
<path fill="none" stroke="black" d="M42,-92.5C42,-92.5 12,-92.5 12,-92.5 6,-92.5 0,-86.5 0,-80.5 0,-80.5 0,-68.5 0,-68.5 0,-62.5 6,-56.5 12,-56.5 12,-56.5 42,-56.5 42,-56.5 48,-56.5 54,-62.5 54,-68.5 54,-68.5 54,-80.5 54,-80.5 54,-86.5 48,-92.5 42,-92.5"/>
<text xml:space="preserve" text-anchor="middle" x="27" y="-69.45" font-family="Times,serif" font-size="14.00">x</text>
</g>
</g>
</svg>
