<?xml version="1.0" encoding="UTF-8" standalone="no"?>
<!DOCTYPE svg PUBLIC "-//W3C//DTD SVG 1.1//EN"
 "http://www.w3.org/Graphics/SVG/1.1/DTD/svg11.dtd">
<!-- Generated by graphviz version 14.1.5 (20260411.2331)
 -->
<!-- Title: RC_Step5 Pages: 1 -->
<svg width="391pt" height="104pt"
 viewBox="0.00 0.00 391.00 104.00" xmlns="http://www.w3.org/2000/svg" xmlns:xlink="http://www.w3.org/1999/xlink">
<g id="graph0" class="graph" transform="scale(1 1) rotate(0) translate(4 99.5)">
<title>RC_Step5</title>
<polygon fill="white" stroke="none" points="-4,4 -4,-99.5 387.25,-99.5 387.25,4 -4,4"/>
<!-- x -->
<g id="node1" class="node">
<title>x</title>
<path fill="none" stroke="black" d="M80.38,-95.5C80.38,-95.5 50.38,-95.5 50.38,-95.5 44.38,-95.5 38.38,-89.5 38.38,-83.5 38.38,-83.5 38.38,-71.5 38.38,-71.5 38.38,-65.5 44.38,-59.5 50.38,-59.5 50.38,-59.5 80.38,-59.5 80.38,-59.5 86.38,-59.5 92.38,-65.5 92.38,-71.5 92.38,-71.5 92.38,-83.5 92.38,-83.5 92.38,-89.5 86.38,-95.5 80.38,-95.5"/>
<text xml:space="preserve" text-anchor="middle" x="65.38" y="-72.45" font-family="Times,serif" font-size="14.00">x</text>
</g>
<!-- B -->
<g id="node3" class="node">
<title>B</title>
<path fill="none" stroke="black" d="M245,-69C245,-69 178.75,-69 178.75,-69 172.75,-69 166.75,-63 166.75,-57 166.75,-57 166.75,-40 166.75,-40 166.75,-34 172.75,-28 178.75,-28 178.75,-28 245,-28 245,-28 251,-28 257,-34 257,-40 257,-40 257,-57 257,-57 257,-63 251,-69 245,-69"/>
<text xml:space="preserve" text-anchor="middle" x="211.88" y="-51.7" font-family="Times,serif" font-size="14.00">B</text>
<text xml:space="preserve" text-anchor="middle" x="211.88" y="-35.2" font-family="Times,serif" font-size="14.00">ref_count = 2</text>
</g>
<!-- x&#45;&gt;B -->
<g id="edge2" class="edge">
<title>x&#45;&gt;B</title>
<path fill="none" stroke="black" d="M92.54,-72.25C110.07,-68.73 133.79,-63.97 155.4,-59.63"/>
<polygon fill="black" stroke="black" points="155.87,-63.11 164.98,-57.71 154.49,-56.25 155.87,-63.11"/>
</g>
<!-- A -->
<g id="node2" class="node">
<title>A</title>
<path fill="none" stroke="black" d="M118.75,-41C118.75,-41 12,-41 12,-41 6,-41 0,-35 0,-29 0,-29 0,-12 0,-12 0,-6 6,0 12,0 12,0 118.75,0 118.75,0 124.75,0 130.75,-6 130.75,-12 130.75,-12 130.75,-29 130.75,-29 130.75,-35 124.75,-41 118.75,-41"/>
<text xml:space="preserve" text-anchor="middle" x="65.38" y="-23.7" font-family="Times,serif" font-size="14.00">A</text>
<text xml:space="preserve" text-anchor="middle" x="65.38" y="-7.2" font-family="Times,serif" font-size="14.00">ref_count = 0 (freed)</text>
</g>
<!-- A&#45;&gt;B -->
<g id="edge1" class="edge">
<title>A&#45;&gt;B</title>
<path fill="none" stroke="black" d="M131.02,-33.03C139.19,-34.61 147.49,-36.22 155.5,-37.77"/>
<polygon fill="black" stroke="black" points="154.62,-41.16 165.1,-39.63 155.95,-34.29 154.62,-41.16"/>
</g>
<!-- C -->
<g id="node4" class="node">
<title>C</title>
<path fill="none" stroke="black" d="M371.25,-69C371.25,-69 305,-69 305,-69 299,-69 293,-63 293,-57 293,-57 293,-40 293,-40 293,-34 299,-28 305,-28 305,-28 371.25,-28 371.25,-28 377.25,-28 383.25,-34 383.25,-40 383.25,-40 383.25,-57 383.25,-57 383.25,-63 377.25,-69 371.25,-69"/>
<text xml:space="preserve" text-anchor="middle" x="338.12" y="-51.7" font-family="Times,serif" font-size="14.00">C</text>
<text xml:space="preserve" text-anchor="middle" x="338.12" y="-35.2" font-family="Times,serif" font-size="14.00">ref_count = 1</text>
</g>
<!-- B&#45;&gt;C -->
<g id="edge3" class="edge">
<title>B&#45;&gt;C</title>
<path fill="none" stroke="black" d="M257.38,-48.5C265.05,-48.5 273.12,-48.5 281.05,-48.5"/>
<polygon fill="black" stroke="black" points="281,-52 291,-48.5 281,-45 281,-52"/>
</g>
</g>
</svg>
