<?xml version="1.0" encoding="UTF-8" standalone="no"?>
<!DOCTYPE svg PUBLIC "-//W3C//DTD SVG 1.1//EN"
 "http://www.w3.org/Graphics/SVG/1.1/DTD/svg11.dtd">
<!-- Generated by graphviz version 2.36.0 (20140111.2315)
 -->
<!-- Title: RC_Step2 Pages: 1 -->
<svg width="318pt" height="98pt"
 viewBox="0.00 0.00 318.00 98.00" xmlns="http://www.w3.org/2000/svg" xmlns:xlink="http://www.w3.org/1999/xlink">
<g id="graph0" class="graph" transform="scale(1 1) rotate(0) translate(4 94)">
<title>RC_Step2</title>
<polygon fill="white" stroke="none" points="-4,4 -4,-94 314,-94 314,4 -4,4"/>
<!-- root -->
<g id="node1" class="node"><title>root</title>
<path fill="none" stroke="black" d="M42,-36C42,-36 12,-36 12,-36 6,-36 0,-30 0,-24 0,-24 0,-12 0,-12 0,-6 6,-0 12,-0 12,-0 42,-0 42,-0 48,-0 54,-6 54,-12 54,-12 54,-24 54,-24 54,-30 48,-36 42,-36"/>
<text text-anchor="middle" x="27" y="-13.8" font-family="Times,serif" font-size="14.00">root</text>
</g>
<!-- A -->
<g id="node3" class="node"><title>A</title>
<path fill="none" stroke="black" d="M169.538,-36C169.538,-36 102.462,-36 102.462,-36 96.4617,-36 90.4617,-30 90.4617,-24 90.4617,-24 90.4617,-12 90.4617,-12 90.4617,-6 96.4617,-0 102.462,-0 102.462,-0 169.538,-0 169.538,-0 175.538,-0 181.538,-6 181.538,-12 181.538,-12 181.538,-24 181.538,-24 181.538,-30 175.538,-36 169.538,-36"/>
<text text-anchor="middle" x="136" y="-20.8" font-family="Times,serif" font-size="14.00">A</text>
<text text-anchor="middle" x="136" y="-6.8" font-family="Times,serif" font-size="14.00">ref_count = 1</text>
</g>
<!-- root&#45;&gt;A -->
<g id="edge1" class="edge"><title>root&#45;&gt;A</title>
<path fill="none" stroke="black" d="M54.1751,-18C62.0867,-18 71.088,-18 80.1413,-18"/>
<polygon fill="black" stroke="black" points="80.3295,-21.5001 90.3294,-18 80.3294,-14.5001 80.3295,-21.5001"/>
</g>
<!-- x -->
<g id="node2" class="node"><title>x</title>
<path fill="none" stroke="black" d="M42,-90C42,-90 12,-90 12,-90 6,-90 0,-84 0,-78 0,-78 0,-66 0,-66 0,-60 6,-54 12,-54 12,-54 42,-54 42,-54 48,-54 54,-60 54,-66 54,-66 54,-78 54,-78 54,-84 48,-90 42,-90"/>
<text text-anchor="middle" x="27" y="-67.8" font-family="Times,serif" font-size="14.00">x</text>
</g>
<!-- B -->
<g id="node4" class="node"><title>B</title>
<path fill="none" stroke="black" d="M297.538,-36C297.538,-36 230.462,-36 230.462,-36 224.462,-36 218.462,-30 218.462,-24 218.462,-24 218.462,-12 218.462,-12 218.462,-6 224.462,-0 230.462,-0 230.462,-0 297.538,-0 297.538,-0 303.538,-0 309.538,-6 309.538,-12 309.538,-12 309.538,-24 309.538,-24 309.538,-30 303.538,-36 297.538,-36"/>
<text text-anchor="middle" x="264" y="-20.8" font-family="Times,serif" font-size="14.00">B</text>
<text text-anchor="middle" x="264" y="-6.8" font-family="Times,serif" font-size="14.00">ref_count = 1</text>
</g>
<!-- A&#45;&gt;B -->
<g id="edge2" class="edge"><title>A&#45;&gt;B</title>
<path fill="none" stroke="black" d="M181.778,-18C190.319,-18 199.349,-18 208.162,-18"/>
<polygon fill="black" stroke="black" points="208.367,-21.5001 218.367,-18 208.366,-14.5001 208.367,-21.5001"/>
</g>
</g>
</svg>
