<?xml version="1.0" encoding="UTF-8" standalone="no"?>
<!DOCTYPE svg PUBLIC "-//W3C//DTD SVG 1.1//EN"
 "http://www.w3.org/Graphics/SVG/1.1/DTD/svg11.dtd">
<!-- Generated by graphviz version 14.1.5 (20260411.2331)
 -->
<!-- Title: RC_Step7 Pages: 1 -->
<svg width="139pt" height="49pt"
 viewBox="0.00 0.00 139.00 49.00" xmlns="http://www.w3.org/2000/svg" xmlns:xlink="http://www.w3.org/1999/xlink">
<g id="graph0" class="graph" transform="scale(1 1) rotate(0) translate(4 45)">
<title>RC_Step7</title>
<polygon fill="white" stroke="none" points="-4,4 -4,-45 134.75,-45 134.75,4 -4,4"/>
<!-- C -->
<g id="node1" class="node">
<title>C</title>
<path fill="none" stroke="black" d="M118.75,-41C118.75,-41 12,-41 12,-41 6,-41 0,-35 0,-29 0,-29 0,-12 0,-12 0,-6 6,0 12,0 12,0 118.75,0 118.75,0 124.75,0 130.75,-6 130.75,-12 130.75,-12 130.75,-29 130.75,-29 130.75,-35 124.75,-41 118.75,-41"/>
<text xml:space="preserve" text-anchor="middle" x="65.38" y="-23.7" font-family="Times,serif" font-size="14.00">C</text>
<text xml:space="preserve" text-anchor="middle" x="65.38" y="-7.2" font-family="Times,serif" font-size="14.00">ref_count = 0 (freed)</text>
</g>
</g>
</svg>
