<?xml version="1.0" encoding="UTF-8" standalone="no"?>
<!DOCTYPE svg PUBLIC "-//W3C//DTD SVG 1.1//EN"
 "http://www.w3.org/Graphics/SVG/1.1/DTD/svg11.dtd">
<!-- Generated by graphviz version 14.1.5 (20260411.2331)
 -->
<!-- Title: TypeInference Pages: 1 -->
<svg width="999pt" height="403pt"
 viewBox="0.00 0.00 999.00 403.00" xmlns="http://www.w3.org/2000/svg" xmlns:xlink="http://www.w3.org/1999/xlink">
<g id="graph0" class="graph" transform="scale(1 1) rotate(0) translate(4 398.75)">
<title>TypeInference</title>
<polygon fill="white" stroke="none" points="-4,4 -4,-398.75 995,-398.75 995,4 -4,4"/>
<g id="clust1" class="cluster">
<title>cluster_square</title>
<polygon fill="none" stroke="gray" stroke-dasharray="5,2" points="8,-102.5 8,-386.75 233,-386.75 233,-102.5 8,-102.5"/>
<text xml:space="preserve" text-anchor="middle" x="88" y="-369.45" font-family="Times,serif" font-size="14.00">let square = fun z → z * z</text>
</g>
<g id="clust2" class="cluster">
<title>cluster_cond</title>
<polygon fill="none" stroke="gray" stroke-dasharray="5,2" points="241,-200.25 241,-386.75 501,-386.75 501,-200.25 241,-200.25"/>
<text xml:space="preserve" text-anchor="middle" x="291" y="-369.45" font-family="Times,serif" font-size="14.00">condition: f x y</text>
</g>
<g id="clust3" class="cluster">
<title>cluster_then</title>
<polygon fill="none" stroke="gray" stroke-dasharray="5,2" points="509,-206.5 509,-386.75 745,-386.75 745,-206.5 509,-206.5"/>
<text xml:space="preserve" text-anchor="middle" x="569.12" y="-369.45" font-family="Times,serif" font-size="14.00">then: f (square x) y</text>
</g>
<g id="clust4" class="cluster">
<title>cluster_else</title>
<polygon fill="none" stroke="gray" stroke-dasharray="5,2" points="753,-206.5 753,-386.75 983,-386.75 983,-206.5 753,-206.5"/>
<text xml:space="preserve" text-anchor="middle" x="801.88" y="-369.45" font-family="Times,serif" font-size="14.00">else: f x (f x y)</text>
</g>
<!-- z1 -->
<g id="node1" class="node">
<title>z1</title>
<path fill="#ffffe0" stroke="black" d="M58,-354.25C58,-354.25 28,-354.25 28,-354.25 22,-354.25 16,-348.25 16,-342.25 16,-342.25 16,-330.25 16,-330.25 16,-324.25 22,-318.25 28,-318.25 28,-318.25 58,-318.25 58,-318.25 64,-318.25 70,-324.25 70,-330.25 70,-330.25 70,-342.25 70,-342.25 70,-348.25 64,-354.25 58,-354.25"/>
<text xml:space="preserve" text-anchor="middle" x="43" y="-332.55" font-family="monospace" font-size="11.00">z</text>
</g>
<!-- mult -->
<g id="node3" class="node">
<title>mult</title>
<path fill="#add8e6" stroke="black" d="M156,-250.5C156,-250.5 126,-250.5 126,-250.5 120,-250.5 114,-244.5 114,-238.5 114,-238.5 114,-226.5 114,-226.5 114,-220.5 120,-214.5 126,-214.5 126,-214.5 156,-214.5 156,-214.5 162,-214.5 168,-220.5 168,-226.5 168,-226.5 168,-238.5 168,-238.5 168,-244.5 162,-250.5 156,-250.5"/>
<text xml:space="preserve" text-anchor="middle" x="141" y="-228.8" font-family="monospace" font-size="11.00">z * z</text>
</g>
<!-- z1&#45;&gt;mult -->
<g id="edge1" class="edge">
<title>z1&#45;&gt;mult</title>
<path fill="none" stroke="black" d="M41.75,-317.93C41.71,-304.83 43.68,-287.06 53,-274.75 65.09,-258.78 84.88,-248.76 102.64,-242.59"/>
<polygon fill="black" stroke="black" points="103.69,-245.93 112.19,-239.61 101.6,-239.25 103.69,-245.93"/>
<text xml:space="preserve" text-anchor="middle" x="95" y="-290.75" font-family="monospace" font-size="10.00">* requires Int</text>
<text xml:space="preserve" text-anchor="middle" x="95" y="-278" font-family="monospace" font-size="10.00">⇒ z : Int</text>
</g>
<!-- z2 -->
<g id="node2" class="node">
<title>z2</title>
<path fill="#ffffe0" stroke="black" d="M156,-354.25C156,-354.25 126,-354.25 126,-354.25 120,-354.25 114,-348.25 114,-342.25 114,-342.25 114,-330.25 114,-330.25 114,-324.25 120,-318.25 126,-318.25 126,-318.25 156,-318.25 156,-318.25 162,-318.25 168,-324.25 168,-330.25 168,-330.25 168,-342.25 168,-342.25 168,-348.25 162,-354.25 156,-354.25"/>
<text xml:space="preserve" text-anchor="middle" x="141" y="-332.55" font-family="monospace" font-size="11.00">z</text>
</g>
<!-- z2&#45;&gt;mult -->
<g id="edge2" class="edge">
<title>z2&#45;&gt;mult</title>
<path fill="none" stroke="black" d="M141,-317.99C141,-302.71 141,-280.12 141,-262.14"/>
<polygon fill="black" stroke="black" points="144.5,-262.36 141,-252.36 137.5,-262.36 144.5,-262.36"/>
<text xml:space="preserve" text-anchor="middle" x="183" y="-290.75" font-family="monospace" font-size="10.00">* requires Int</text>
<text xml:space="preserve" text-anchor="middle" x="183" y="-278" font-family="monospace" font-size="10.00">⇒ z : Int</text>
</g>
<!-- funz -->
<g id="node4" class="node">
<title>funz</title>
<path fill="#90ee90" stroke="black" d="M205.62,-146.5C205.62,-146.5 112.38,-146.5 112.38,-146.5 106.38,-146.5 100.38,-140.5 100.38,-134.5 100.38,-134.5 100.38,-122.5 100.38,-122.5 100.38,-116.5 106.38,-110.5 112.38,-110.5 112.38,-110.5 205.62,-110.5 205.62,-110.5 211.62,-110.5 217.62,-116.5 217.62,-122.5 217.62,-122.5 217.62,-134.5 217.62,-134.5 217.62,-140.5 211.62,-146.5 205.62,-146.5"/>
<text xml:space="preserve" text-anchor="middle" x="159" y="-131.55" font-family="monospace" font-size="11.00">fun z → z * z</text>
<text xml:space="preserve" text-anchor="middle" x="159" y="-118.05" font-family="monospace" font-size="11.00">type: Int → Int</text>
</g>
<!-- mult&#45;&gt;funz -->
<g id="edge3" class="edge">
<title>mult&#45;&gt;funz</title>
<path fill="none" stroke="black" d="M144.05,-214.2C146.76,-198.88 150.75,-176.24 153.93,-158.21"/>
<polygon fill="black" stroke="black" points="157.38,-158.83 155.67,-148.38 150.48,-157.62 157.38,-158.83"/>
<text xml:space="preserve" text-anchor="middle" x="180" y="-180.75" font-family="monospace" font-size="10.00">body : Int</text>
</g>
<!-- result -->
<g id="node18" class="node">
<title>result</title>
<ellipse fill="#f08080" stroke="black" cx="300" cy="-18" rx="174.08" ry="18"/>
<text xml:space="preserve" text-anchor="middle" x="300" y="-14.3" font-family="monospace" font-size="11.00">(Int → Bool → Bool) → Int → Bool → Bool</text>
</g>
<!-- funz&#45;&gt;result -->
<g id="edge16" class="edge">
<title>funz&#45;&gt;result</title>
<path fill="none" stroke="black" stroke-dasharray="5,2" d="M181.65,-110.07C205.33,-91.85 242.64,-63.14 269.03,-42.83"/>
<polygon fill="black" stroke="black" points="270.88,-45.83 276.67,-36.95 266.61,-40.28 270.88,-45.83"/>
<text xml:space="preserve" text-anchor="middle" x="317.39" y="-70" font-family="monospace" font-size="10.00">square : Int → Int</text>
<text xml:space="preserve" text-anchor="middle" x="317.39" y="-57.25" font-family="monospace" font-size="10.00">(used in then branch)</text>
</g>
<!-- f1 -->
<g id="node5" class="node">
<title>f1</title>
<path fill="#ffffe0" stroke="black" d="M291,-354.25C291,-354.25 261,-354.25 261,-354.25 255,-354.25 249,-348.25 249,-342.25 249,-342.25 249,-330.25 249,-330.25 249,-324.25 255,-318.25 261,-318.25 261,-318.25 291,-318.25 291,-318.25 297,-318.25 303,-324.25 303,-330.25 303,-330.25 303,-342.25 303,-342.25 303,-348.25 297,-354.25 291,-354.25"/>
<text xml:space="preserve" text-anchor="middle" x="276" y="-332.55" font-family="monospace" font-size="11.00">f</text>
</g>
<!-- fxy -->
<g id="node8" class="node">
<title>fxy</title>
<path fill="#add8e6" stroke="black" d="M472.88,-256.75C472.88,-256.75 339.12,-256.75 339.12,-256.75 333.12,-256.75 327.12,-250.75 327.12,-244.75 327.12,-244.75 327.12,-220.25 327.12,-220.25 327.12,-214.25 333.12,-208.25 339.12,-208.25 339.12,-208.25 472.88,-208.25 472.88,-208.25 478.88,-208.25 484.88,-214.25 484.88,-220.25 484.88,-220.25 484.88,-244.75 484.88,-244.75 484.88,-250.75 478.88,-256.75 472.88,-256.75"/>
<text xml:space="preserve" text-anchor="middle" x="406" y="-242.3" font-family="monospace" font-size="11.00">f x y</text>
<text xml:space="preserve" text-anchor="middle" x="406" y="-228.8" font-family="monospace" font-size="11.00">type: Bool</text>
<text xml:space="preserve" text-anchor="middle" x="406" y="-215.3" font-family="monospace" font-size="11.00">(must be Bool for if)</text>
</g>
<!-- f1&#45;&gt;fxy -->
<g id="edge4" class="edge">
<title>f1&#45;&gt;fxy</title>
<path fill="none" stroke="black" d="M273.38,-317.98C272.37,-304.73 273.28,-286.74 283,-274.75 291.79,-263.91 303.52,-255.9 316.26,-249.99"/>
<polygon fill="black" stroke="black" points="317.36,-253.32 325.26,-246.26 314.68,-246.86 317.36,-253.32"/>
<text xml:space="preserve" text-anchor="middle" x="337" y="-284.38" font-family="monospace" font-size="10.00">f : &#39;a → &#39;b → Bool</text>
</g>
<!-- x1 -->
<g id="node6" class="node">
<title>x1</title>
<path fill="#ffffe0" stroke="black" d="M404,-354.25C404,-354.25 374,-354.25 374,-354.25 368,-354.25 362,-348.25 362,-342.25 362,-342.25 362,-330.25 362,-330.25 362,-324.25 368,-318.25 374,-318.25 374,-318.25 404,-318.25 404,-318.25 410,-318.25 416,-324.25 416,-330.25 416,-330.25 416,-342.25 416,-342.25 416,-348.25 410,-354.25 404,-354.25"/>
<text xml:space="preserve" text-anchor="middle" x="389" y="-332.55" font-family="monospace" font-size="11.00">x</text>
</g>
<!-- x1&#45;&gt;fxy -->
<g id="edge5" class="edge">
<title>x1&#45;&gt;fxy</title>
<path fill="none" stroke="black" d="M391.87,-317.77C393.86,-305.69 396.57,-289.24 399,-274.75 399.36,-272.6 399.73,-270.39 400.11,-268.16"/>
<polygon fill="black" stroke="black" points="403.52,-268.99 401.73,-258.55 396.61,-267.82 403.52,-268.99"/>
<text xml:space="preserve" text-anchor="middle" x="417" y="-284.38" font-family="monospace" font-size="10.00">x : &#39;a</text>
</g>
<!-- y1 -->
<g id="node7" class="node">
<title>y1</title>
<path fill="#ffffe0" stroke="black" d="M476,-354.25C476,-354.25 446,-354.25 446,-354.25 440,-354.25 434,-348.25 434,-342.25 434,-342.25 434,-330.25 434,-330.25 434,-324.25 440,-318.25 446,-318.25 446,-318.25 476,-318.25 476,-318.25 482,-318.25 488,-324.25 488,-330.25 488,-330.25 488,-342.25 488,-342.25 488,-348.25 482,-354.25 476,-354.25"/>
<text xml:space="preserve" text-anchor="middle" x="461" y="-332.55" font-family="monospace" font-size="11.00">y</text>
</g>
<!-- y1&#45;&gt;fxy -->
<g id="edge6" class="edge">
<title>y1&#45;&gt;fxy</title>
<path fill="none" stroke="black" d="M454.63,-317.85C449.85,-305.51 442.8,-288.72 435,-274.75 433.44,-271.96 431.73,-269.12 429.95,-266.31"/>
<polygon fill="black" stroke="black" points="433.02,-264.6 424.57,-258.21 427.19,-268.48 433.02,-264.6"/>
<text xml:space="preserve" text-anchor="middle" x="464.91" y="-284.38" font-family="monospace" font-size="10.00">y : &#39;b</text>
</g>
<!-- ifnode -->
<g id="node17" class="node">
<title>ifnode</title>
<path fill="#ffa07a" stroke="black" d="M559.88,-159.5C559.88,-159.5 426.12,-159.5 426.12,-159.5 420.12,-159.5 414.12,-153.5 414.12,-147.5 414.12,-147.5 414.12,-109.5 414.12,-109.5 414.12,-103.5 420.12,-97.5 426.12,-97.5 426.12,-97.5 559.88,-97.5 559.88,-97.5 565.88,-97.5 571.88,-103.5 571.88,-109.5 571.88,-109.5 571.88,-147.5 571.88,-147.5 571.88,-153.5 565.88,-159.5 559.88,-159.5"/>
<text xml:space="preserve" text-anchor="middle" x="493" y="-145.05" font-family="monospace" font-size="11.00">if (f x y)</text>
<text xml:space="preserve" text-anchor="middle" x="493" y="-131.55" font-family="monospace" font-size="11.00">then (f (square x) y)</text>
<text xml:space="preserve" text-anchor="middle" x="493" y="-118.05" font-family="monospace" font-size="11.00">else (f x (f x y))</text>
<text xml:space="preserve" text-anchor="middle" x="493" y="-104.55" font-family="monospace" font-size="11.00">type: Bool</text>
</g>
<!-- fxy&#45;&gt;ifnode -->
<g id="edge13" class="edge">
<title>fxy&#45;&gt;ifnode</title>
<path fill="none" stroke="black" d="M426.18,-207.84C436.14,-196.16 448.43,-181.76 459.73,-168.5"/>
<polygon fill="black" stroke="black" points="462.18,-171.03 466,-161.15 456.85,-166.49 462.18,-171.03"/>
<text xml:space="preserve" text-anchor="middle" x="476.5" y="-180.75" font-family="monospace" font-size="10.00">condition</text>
</g>
<!-- sqx -->
<g id="node9" class="node">
<title>sqx</title>
<path fill="#add8e6" stroke="black" d="M581.38,-354.25C581.38,-354.25 528.62,-354.25 528.62,-354.25 522.62,-354.25 516.62,-348.25 516.62,-342.25 516.62,-342.25 516.62,-330.25 516.62,-330.25 516.62,-324.25 522.62,-318.25 528.62,-318.25 528.62,-318.25 581.38,-318.25 581.38,-318.25 587.38,-318.25 593.38,-324.25 593.38,-330.25 593.38,-330.25 593.38,-342.25 593.38,-342.25 593.38,-348.25 587.38,-354.25 581.38,-354.25"/>
<text xml:space="preserve" text-anchor="middle" x="555" y="-339.3" font-family="monospace" font-size="11.00">square x</text>
<text xml:space="preserve" text-anchor="middle" x="555" y="-325.8" font-family="monospace" font-size="11.00">type: Int</text>
</g>
<!-- then -->
<g id="node12" class="node">
<title>then</title>
<path fill="#add8e6" stroke="black" d="M664.25,-250.5C664.25,-250.5 577.75,-250.5 577.75,-250.5 571.75,-250.5 565.75,-244.5 565.75,-238.5 565.75,-238.5 565.75,-226.5 565.75,-226.5 565.75,-220.5 571.75,-214.5 577.75,-214.5 577.75,-214.5 664.25,-214.5 664.25,-214.5 670.25,-214.5 676.25,-220.5 676.25,-226.5 676.25,-226.5 676.25,-238.5 676.25,-238.5 676.25,-244.5 670.25,-250.5 664.25,-250.5"/>
<text xml:space="preserve" text-anchor="middle" x="621" y="-235.55" font-family="monospace" font-size="11.00">f (square x) y</text>
<text xml:space="preserve" text-anchor="middle" x="621" y="-222.05" font-family="monospace" font-size="11.00">type: Bool</text>
</g>
<!-- sqx&#45;&gt;then -->
<g id="edge7" class="edge">
<title>sqx&#45;&gt;then</title>
<path fill="none" stroke="black" d="M544.98,-317.97C539.03,-305.23 534.04,-287.89 542,-274.75 546.24,-267.75 552.11,-261.87 558.75,-256.97"/>
<polygon fill="black" stroke="black" points="560.43,-260.05 566.93,-251.68 556.63,-254.17 560.43,-260.05"/>
<text xml:space="preserve" text-anchor="middle" x="602" y="-290.75" font-family="monospace" font-size="10.00">square : Int → Int</text>
<text xml:space="preserve" text-anchor="middle" x="602" y="-278" font-family="monospace" font-size="10.00">⇒ x : Int (&#39;a = Int)</text>
</g>
<!-- f2 -->
<g id="node10" class="node">
<title>f2</title>
<path fill="#ffffe0" stroke="black" d="M653,-354.25C653,-354.25 623,-354.25 623,-354.25 617,-354.25 611,-348.25 611,-342.25 611,-342.25 611,-330.25 611,-330.25 611,-324.25 617,-318.25 623,-318.25 623,-318.25 653,-318.25 653,-318.25 659,-318.25 665,-324.25 665,-330.25 665,-330.25 665,-342.25 665,-342.25 665,-348.25 659,-354.25 653,-354.25"/>
<text xml:space="preserve" text-anchor="middle" x="638" y="-332.55" font-family="monospace" font-size="11.00">f</text>
</g>
<!-- f2&#45;&gt;then -->
<g id="edge8" class="edge">
<title>f2&#45;&gt;then</title>
<path fill="none" stroke="black" d="M655.71,-317.8C659.9,-312.59 663.78,-306.56 666,-300.25 669.75,-289.56 670.56,-285.12 666,-274.75 663.44,-268.93 659.61,-263.57 655.24,-258.78"/>
<polygon fill="black" stroke="black" points="657.67,-256.26 648.05,-251.84 652.81,-261.3 657.67,-256.26"/>
</g>
<!-- y2 -->
<g id="node11" class="node">
<title>y2</title>
<path fill="#ffffe0" stroke="black" d="M725,-354.25C725,-354.25 695,-354.25 695,-354.25 689,-354.25 683,-348.25 683,-342.25 683,-342.25 683,-330.25 683,-330.25 683,-324.25 689,-318.25 695,-318.25 695,-318.25 725,-318.25 725,-318.25 731,-318.25 737,-324.25 737,-330.25 737,-330.25 737,-342.25 737,-342.25 737,-348.25 731,-354.25 725,-354.25"/>
<text xml:space="preserve" text-anchor="middle" x="710" y="-332.55" font-family="monospace" font-size="11.00">y</text>
</g>
<!-- y2&#45;&gt;then -->
<g id="edge9" class="edge">
<title>y2&#45;&gt;then</title>
<path fill="none" stroke="black" d="M701.56,-318C694.85,-305.27 684.67,-287.93 673,-274.75 667.82,-268.89 661.73,-263.24 655.58,-258.1"/>
<polygon fill="black" stroke="black" points="657.81,-255.4 647.8,-251.91 653.45,-260.88 657.81,-255.4"/>
</g>
<!-- then&#45;&gt;ifnode -->
<g id="edge14" class="edge">
<title>then&#45;&gt;ifnode</title>
<path fill="none" stroke="black" d="M599.29,-214.2C583.07,-201.27 560.3,-183.13 539.99,-166.94"/>
<polygon fill="black" stroke="black" points="542.35,-164.35 532.35,-160.86 537.99,-169.82 542.35,-164.35"/>
<text xml:space="preserve" text-anchor="middle" x="601.46" y="-180.75" font-family="monospace" font-size="10.00">then branch</text>
</g>
<!-- fxy2 -->
<g id="node13" class="node">
<title>fxy2</title>
<path fill="#add8e6" stroke="black" d="M819,-354.25C819,-354.25 773,-354.25 773,-354.25 767,-354.25 761,-348.25 761,-342.25 761,-342.25 761,-330.25 761,-330.25 761,-324.25 767,-318.25 773,-318.25 773,-318.25 819,-318.25 819,-318.25 825,-318.25 831,-324.25 831,-330.25 831,-330.25 831,-342.25 831,-342.25 831,-348.25 825,-354.25 819,-354.25"/>
<text xml:space="preserve" text-anchor="middle" x="796" y="-339.3" font-family="monospace" font-size="11.00">f x y</text>
<text xml:space="preserve" text-anchor="middle" x="796" y="-325.8" font-family="monospace" font-size="11.00">type: &#39;b</text>
</g>
<!-- els -->
<g id="node16" class="node">
<title>els</title>
<path fill="#add8e6" stroke="black" d="M901.12,-250.5C901.12,-250.5 834.88,-250.5 834.88,-250.5 828.88,-250.5 822.88,-244.5 822.88,-238.5 822.88,-238.5 822.88,-226.5 822.88,-226.5 822.88,-220.5 828.88,-214.5 834.88,-214.5 834.88,-214.5 901.12,-214.5 901.12,-214.5 907.12,-214.5 913.12,-220.5 913.12,-226.5 913.12,-226.5 913.12,-238.5 913.12,-238.5 913.12,-244.5 907.12,-250.5 901.12,-250.5"/>
<text xml:space="preserve" text-anchor="middle" x="868" y="-235.55" font-family="monospace" font-size="11.00">f x (f x y)</text>
<text xml:space="preserve" text-anchor="middle" x="868" y="-222.05" font-family="monospace" font-size="11.00">type: Bool</text>
</g>
<!-- fxy2&#45;&gt;els -->
<g id="edge10" class="edge">
<title>fxy2&#45;&gt;els</title>
<path fill="none" stroke="black" d="M782.55,-317.79C774.55,-305.11 767.46,-287.94 776,-274.75 784.42,-261.74 798.02,-252.8 812.2,-246.67"/>
<polygon fill="black" stroke="black" points="813.08,-250.08 821.16,-243.22 810.57,-243.54 813.08,-250.08"/>
<text xml:space="preserve" text-anchor="middle" x="854" y="-290.75" font-family="monospace" font-size="10.00">result of f x y must be &#39;b</text>
<text xml:space="preserve" text-anchor="middle" x="854" y="-278" font-family="monospace" font-size="10.00">⇒ &#39;b = Bool</text>
</g>
<!-- f3 -->
<g id="node14" class="node">
<title>f3</title>
<path fill="#ffffe0" stroke="black" d="M891,-354.25C891,-354.25 861,-354.25 861,-354.25 855,-354.25 849,-348.25 849,-342.25 849,-342.25 849,-330.25 849,-330.25 849,-324.25 855,-318.25 861,-318.25 861,-318.25 891,-318.25 891,-318.25 897,-318.25 903,-324.25 903,-330.25 903,-330.25 903,-342.25 903,-342.25 903,-348.25 897,-354.25 891,-354.25"/>
<text xml:space="preserve" text-anchor="middle" x="876" y="-332.55" font-family="monospace" font-size="11.00">f</text>
</g>
<!-- f3&#45;&gt;els -->
<g id="edge11" class="edge">
<title>f3&#45;&gt;els</title>
<path fill="none" stroke="black" d="M903.45,-322.6C917.39,-315.56 932.19,-306.89 936,-300.25 941.64,-290.42 941.56,-284.63 936,-274.75 932.22,-268.04 926.86,-262.3 920.79,-257.42"/>
<polygon fill="black" stroke="black" points="922.92,-254.63 912.73,-251.74 918.89,-260.36 922.92,-254.63"/>
</g>
<!-- x3 -->
<g id="node15" class="node">
<title>x3</title>
<path fill="#ffffe0" stroke="black" d="M963,-354.25C963,-354.25 933,-354.25 933,-354.25 927,-354.25 921,-348.25 921,-342.25 921,-342.25 921,-330.25 921,-330.25 921,-324.25 927,-318.25 933,-318.25 933,-318.25 963,-318.25 963,-318.25 969,-318.25 975,-324.25 975,-330.25 975,-330.25 975,-342.25 975,-342.25 975,-348.25 969,-354.25 963,-354.25"/>
<text xml:space="preserve" text-anchor="middle" x="948" y="-332.55" font-family="monospace" font-size="11.00">x</text>
</g>
<!-- x3&#45;&gt;els -->
<g id="edge12" class="edge">
<title>x3&#45;&gt;els</title>
<path fill="none" stroke="black" d="M950.71,-317.95C951.81,-305.04 951.26,-287.48 943,-274.75 937.94,-266.95 930.88,-260.5 923.09,-255.2"/>
<polygon fill="black" stroke="black" points="924.98,-252.26 914.61,-250.08 921.36,-258.25 924.98,-252.26"/>
</g>
<!-- els&#45;&gt;ifnode -->
<g id="edge15" class="edge">
<title>els&#45;&gt;ifnode</title>
<path fill="none" stroke="black" d="M822.39,-219.09C763.23,-203 658.68,-174.57 583.22,-154.04"/>
<polygon fill="black" stroke="black" points="584.33,-150.71 573.76,-151.47 582.49,-157.47 584.33,-150.71"/>
<text xml:space="preserve" text-anchor="middle" x="747.09" y="-180.75" font-family="monospace" font-size="10.00">else branch</text>
</g>
<!-- ifnode&#45;&gt;result -->
<g id="edge17" class="edge">
<title>ifnode&#45;&gt;result</title>
<path fill="none" stroke="black" d="M452.03,-97.04C432.09,-82.96 407.41,-66.61 384,-54 374.91,-49.1 364.98,-44.43 355.24,-40.17"/>
<polygon fill="black" stroke="black" points="356.76,-37.02 346.19,-36.33 354.03,-43.46 356.76,-37.02"/>
<text xml:space="preserve" text-anchor="middle" x="517.25" y="-70" font-family="monospace" font-size="10.00">substitute &#39;a=Int, &#39;b=Bool</text>
<text xml:space="preserve" text-anchor="middle" x="517.25" y="-57.25" font-family="monospace" font-size="10.00">wrap in fun f → fun x → fun y →</text>
</g>
</g>
</svg>
