<?xml version="1.0" encoding="UTF-8" standalone="no"?>
<!DOCTYPE svg PUBLIC "-//W3C//DTD SVG 1.1//EN"
 "http://www.w3.org/Graphics/SVG/1.1/DTD/svg11.dtd">
<!-- Generated by graphviz version 2.36.0 (20140111.2315)
 -->
<!-- Title: TypeInference Pages: 1 -->
<svg width="883pt" height="382pt"
 viewBox="0.00 0.00 883.28 382.00" xmlns="http://www.w3.org/2000/svg" xmlns:xlink="http://www.w3.org/1999/xlink">
<g id="graph0" class="graph" transform="scale(1 1) rotate(0) translate(4 378)">
<title>TypeInference</title>
<polygon fill="white" stroke="none" points="-4,4 -4,-378 879.283,-378 879.283,4 -4,4"/>
<g id="clust1" class="cluster"><title>cluster_square</title>
<polygon fill="none" stroke="gray" stroke-dasharray="5,2" points="8,-94 8,-366 179,-366 179,-94 8,-94"/>
<text text-anchor="middle" x="88.3652" y="-350.8" font-family="Times,serif" font-size="14.00">let square = fun z → z * z</text>
</g>
<g id="clust2" class="cluster"><title>cluster_cond</title>
<polygon fill="none" stroke="gray" stroke-dasharray="5,2" points="187,-184 187,-364 401,-364 401,-184 187,-184"/>
<text text-anchor="middle" x="237.967" y="-348.8" font-family="Times,serif" font-size="14.00">condition: f x y</text>
</g>
<g id="clust3" class="cluster"><title>cluster_then</title>
<polygon fill="none" stroke="gray" stroke-dasharray="5,2" points="409,-187 409,-364 627,-364 627,-187 409,-187"/>
<text text-anchor="middle" x="470.259" y="-348.8" font-family="Times,serif" font-size="14.00">then: f (square x) y</text>
</g>
<g id="clust4" class="cluster"><title>cluster_else</title>
<polygon fill="none" stroke="gray" stroke-dasharray="5,2" points="635,-187 635,-364 849,-364 849,-187 635,-187"/>
<text text-anchor="middle" x="684.402" y="-348.8" font-family="Times,serif" font-size="14.00">else: f x (f x y)</text>
</g>
<!-- z1 -->
<g id="node1" class="node"><title>z1</title>
<path fill="#ffffe0" stroke="black" d="M130,-334C130,-334 100,-334 100,-334 94,-334 88,-328 88,-322 88,-322 88,-310 88,-310 88,-304 94,-298 100,-298 100,-298 130,-298 130,-298 136,-298 142,-304 142,-310 142,-310 142,-322 142,-322 142,-328 136,-334 130,-334"/>
<text text-anchor="middle" x="115" y="-312.7" font-family="monospace" font-size="11.00">z</text>
</g>
<!-- mult -->
<g id="node3" class="node"><title>mult</title>
<path fill="#add8e6" stroke="black" d="M129,-231C129,-231 99,-231 99,-231 93,-231 87,-225 87,-219 87,-219 87,-207 87,-207 87,-201 93,-195 99,-195 99,-195 129,-195 129,-195 135,-195 141,-201 141,-207 141,-207 141,-219 141,-219 141,-225 135,-231 129,-231"/>
<text text-anchor="middle" x="114" y="-209.7" font-family="monospace" font-size="11.00">z * z</text>
</g>
<!-- z1&#45;&gt;mult -->
<g id="edge1" class="edge"><title>z1&#45;&gt;mult</title>
<path fill="none" stroke="black" d="M114.83,-297.867C114.677,-282.414 114.45,-259.416 114.271,-241.409"/>
<polygon fill="black" stroke="black" points="117.769,-241.182 114.17,-231.217 110.77,-241.252 117.769,-241.182"/>
<text text-anchor="middle" x="143.347" y="-271.05" font-family="monospace" font-size="10.00">* requires Int</text>
<text text-anchor="middle" x="143.347" y="-261.05" font-family="monospace" font-size="10.00">⇒ z : Int</text>
</g>
<!-- z2 -->
<g id="node2" class="node"><title>z2</title>
<path fill="#ffffe0" stroke="black" d="M58,-334C58,-334 28,-334 28,-334 22,-334 16,-328 16,-322 16,-322 16,-310 16,-310 16,-304 22,-298 28,-298 28,-298 58,-298 58,-298 64,-298 70,-304 70,-310 70,-310 70,-322 70,-322 70,-328 64,-334 58,-334"/>
<text text-anchor="middle" x="43" y="-312.7" font-family="monospace" font-size="11.00">z</text>
</g>
<!-- z2&#45;&gt;mult -->
<g id="edge2" class="edge"><title>z2&#45;&gt;mult</title>
<path fill="none" stroke="black" d="M42.4552,-297.841C42.8302,-284.326 45.2075,-265.567 54.3057,-252 60.2074,-243.2 68.9084,-236.016 77.8524,-230.358"/>
<polygon fill="black" stroke="black" points="79.8701,-233.235 86.7828,-225.206 76.3719,-227.172 79.8701,-233.235"/>
<text text-anchor="middle" x="83.3472" y="-271.05" font-family="monospace" font-size="10.00">* requires Int</text>
<text text-anchor="middle" x="83.3472" y="-261.05" font-family="monospace" font-size="10.00">⇒ z : Int</text>
</g>
<!-- funz -->
<g id="node4" class="node"><title>funz</title>
<path fill="#90ee90" stroke="black" d="M155.358,-138C155.358,-138 94.6423,-138 94.6423,-138 88.6423,-138 82.6423,-132 82.6423,-126 82.6423,-126 82.6423,-114 82.6423,-114 82.6423,-108 88.6423,-102 94.6423,-102 94.6423,-102 155.358,-102 155.358,-102 161.358,-102 167.358,-108 167.358,-114 167.358,-114 167.358,-126 167.358,-126 167.358,-132 161.358,-138 155.358,-138"/>
<text text-anchor="middle" x="125" y="-124.365" font-family="monospace" font-size="11.00">fun z → z * z</text>
<text text-anchor="middle" x="125" y="-111.2" font-family="monospace" font-size="11.00">type: Int → Int</text>
</g>
<!-- mult&#45;&gt;funz -->
<g id="edge3" class="edge"><title>mult&#45;&gt;funz</title>
<path fill="none" stroke="black" d="M116.069,-194.884C117.652,-181.792 119.865,-163.48 121.692,-148.363"/>
<polygon fill="black" stroke="black" points="125.215,-148.387 122.94,-138.04 118.265,-147.547 125.215,-148.387"/>
<text text-anchor="middle" x="140.569" y="-166" font-family="monospace" font-size="10.00">body : Int</text>
</g>
<!-- result -->
<g id="node18" class="node"><title>result</title>
<ellipse fill="#f08080" stroke="black" cx="251" cy="-18" rx="136.283" ry="18"/>
<text text-anchor="middle" x="251" y="-15.7823" font-family="monospace" font-size="11.00">(Int → Bool → Bool) → Int → Bool → Bool</text>
</g>
<!-- funz&#45;&gt;result -->
<g id="edge16" class="edge"><title>funz&#45;&gt;result</title>
<path fill="none" stroke="black" stroke-dasharray="5,2" d="M139.227,-101.919C151.39,-87.97 169.839,-68.296 188.498,-54 194.745,-49.2135 201.723,-44.6548 208.688,-40.5036"/>
<polygon fill="black" stroke="black" points="210.517,-43.4897 217.449,-35.4771 207.033,-37.4181 210.517,-43.4897"/>
<text text-anchor="middle" x="236.251" y="-67.9839" font-family="monospace" font-size="10.00">square : Int → Int</text>
<text text-anchor="middle" x="236.251" y="-56.0161" font-family="monospace" font-size="10.00">(used in then branch)</text>
</g>
<!-- f1 -->
<g id="node5" class="node"><title>f1</title>
<path fill="#ffffe0" stroke="black" d="M381,-334C381,-334 351,-334 351,-334 345,-334 339,-328 339,-322 339,-322 339,-310 339,-310 339,-304 345,-298 351,-298 351,-298 381,-298 381,-298 387,-298 393,-304 393,-310 393,-310 393,-322 393,-322 393,-328 387,-334 381,-334"/>
<text text-anchor="middle" x="366" y="-312.7" font-family="monospace" font-size="11.00">f</text>
</g>
<!-- fxy -->
<g id="node8" class="node"><title>fxy</title>
<path fill="#add8e6" stroke="black" d="M337.482,-233.5C337.482,-233.5 250.518,-233.5 250.518,-233.5 244.518,-233.5 238.518,-227.5 238.518,-221.5 238.518,-221.5 238.518,-204.5 238.518,-204.5 238.518,-198.5 244.518,-192.5 250.518,-192.5 250.518,-192.5 337.482,-192.5 337.482,-192.5 343.482,-192.5 349.482,-198.5 349.482,-204.5 349.482,-204.5 349.482,-221.5 349.482,-221.5 349.482,-227.5 343.482,-233.5 337.482,-233.5"/>
<text text-anchor="middle" x="294" y="-220.7" font-family="monospace" font-size="11.00">f x y</text>
<text text-anchor="middle" x="294" y="-209.7" font-family="monospace" font-size="11.00">type: Bool</text>
<text text-anchor="middle" x="294" y="-198.7" font-family="monospace" font-size="11.00">(must be Bool for if)</text>
</g>
<!-- f1&#45;&gt;fxy -->
<g id="edge4" class="edge"><title>f1&#45;&gt;fxy</title>
<path fill="none" stroke="black" d="M344.448,-297.696C338.625,-292.397 332.614,-286.294 327.817,-280 319.197,-268.688 311.719,-254.849 306.003,-242.77"/>
<polygon fill="black" stroke="black" points="309.133,-241.197 301.808,-233.542 302.76,-244.094 309.133,-241.197"/>
<text text-anchor="middle" x="366.591" y="-263.984" font-family="monospace" font-size="10.00">f : &#39;a → &#39;b → Bool</text>
</g>
<!-- x1 -->
<g id="node6" class="node"><title>x1</title>
<path fill="#ffffe0" stroke="black" d="M309,-334C309,-334 279,-334 279,-334 273,-334 267,-328 267,-322 267,-322 267,-310 267,-310 267,-304 273,-298 279,-298 279,-298 309,-298 309,-298 315,-298 321,-304 321,-310 321,-310 321,-322 321,-322 321,-328 315,-334 309,-334"/>
<text text-anchor="middle" x="294" y="-312.7" font-family="monospace" font-size="11.00">x</text>
</g>
<!-- x1&#45;&gt;fxy -->
<g id="edge5" class="edge"><title>x1&#45;&gt;fxy</title>
<path fill="none" stroke="black" d="M281.227,-297.674C277.952,-292.282 274.88,-286.135 273.194,-280 269.897,-268 270.11,-264.056 273.194,-252 273.971,-248.965 275.046,-245.911 276.301,-242.925"/>
<polygon fill="black" stroke="black" points="279.549,-244.249 280.782,-233.726 273.256,-241.183 279.549,-244.249"/>
<text text-anchor="middle" x="284.403" y="-263" font-family="monospace" font-size="10.00">x : &#39;a</text>
</g>
<!-- y1 -->
<g id="node7" class="node"><title>y1</title>
<path fill="#ffffe0" stroke="black" d="M237,-334C237,-334 207,-334 207,-334 201,-334 195,-328 195,-322 195,-322 195,-310 195,-310 195,-304 201,-298 207,-298 207,-298 237,-298 237,-298 243,-298 249,-304 249,-310 249,-310 249,-322 249,-322 249,-328 243,-334 237,-334"/>
<text text-anchor="middle" x="222" y="-312.7" font-family="monospace" font-size="11.00">y</text>
</g>
<!-- y1&#45;&gt;fxy -->
<g id="edge6" class="edge"><title>y1&#45;&gt;fxy</title>
<path fill="none" stroke="black" d="M225.958,-297.74C229.63,-284.344 236.076,-265.792 246.194,-252 249.099,-248.041 252.517,-244.271 256.168,-240.75"/>
<polygon fill="black" stroke="black" points="258.738,-243.149 263.899,-233.896 254.094,-237.911 258.738,-243.149"/>
<text text-anchor="middle" x="257.403" y="-263" font-family="monospace" font-size="10.00">y : &#39;b</text>
</g>
<!-- ifnode -->
<g id="node17" class="node"><title>ifnode</title>
<path fill="#ffa07a" stroke="black" d="M395.482,-146C395.482,-146 308.518,-146 308.518,-146 302.518,-146 296.518,-140 296.518,-134 296.518,-134 296.518,-106 296.518,-106 296.518,-100 302.518,-94 308.518,-94 308.518,-94 395.482,-94 395.482,-94 401.482,-94 407.482,-100 407.482,-106 407.482,-106 407.482,-134 407.482,-134 407.482,-140 401.482,-146 395.482,-146"/>
<text text-anchor="middle" x="352" y="-133.2" font-family="monospace" font-size="11.00">if (f x y)</text>
<text text-anchor="middle" x="352" y="-122.2" font-family="monospace" font-size="11.00">then (f (square x) y)</text>
<text text-anchor="middle" x="352" y="-111.2" font-family="monospace" font-size="11.00">else (f x (f x y))</text>
<text text-anchor="middle" x="352" y="-100.2" font-family="monospace" font-size="11.00">type: Bool</text>
</g>
<!-- fxy&#45;&gt;ifnode -->
<g id="edge13" class="edge"><title>fxy&#45;&gt;ifnode</title>
<path fill="none" stroke="black" d="M306.585,-192.254C313.569,-181.297 322.447,-167.367 330.498,-154.737"/>
<polygon fill="black" stroke="black" points="333.482,-156.566 335.905,-146.252 327.579,-152.804 333.482,-156.566"/>
<text text-anchor="middle" x="343.015" y="-166" font-family="monospace" font-size="10.00">condition</text>
</g>
<!-- sqx -->
<g id="node9" class="node"><title>sqx</title>
<path fill="#add8e6" stroke="black" d="M607.143,-334C607.143,-334 572.857,-334 572.857,-334 566.857,-334 560.857,-328 560.857,-322 560.857,-322 560.857,-310 560.857,-310 560.857,-304 566.857,-298 572.857,-298 572.857,-298 607.143,-298 607.143,-298 613.143,-298 619.143,-304 619.143,-310 619.143,-310 619.143,-322 619.143,-322 619.143,-328 613.143,-334 607.143,-334"/>
<text text-anchor="middle" x="590" y="-318.2" font-family="monospace" font-size="11.00">square x</text>
<text text-anchor="middle" x="590" y="-307.2" font-family="monospace" font-size="11.00">type: Int</text>
</g>
<!-- then -->
<g id="node12" class="node"><title>then</title>
<path fill="#add8e6" stroke="black" d="M493.139,-231C493.139,-231 436.861,-231 436.861,-231 430.861,-231 424.861,-225 424.861,-219 424.861,-219 424.861,-207 424.861,-207 424.861,-201 430.861,-195 436.861,-195 436.861,-195 493.139,-195 493.139,-195 499.139,-195 505.139,-201 505.139,-207 505.139,-207 505.139,-219 505.139,-219 505.139,-225 499.139,-231 493.139,-231"/>
<text text-anchor="middle" x="465" y="-215.2" font-family="monospace" font-size="11.00">f (square x) y</text>
<text text-anchor="middle" x="465" y="-204.2" font-family="monospace" font-size="11.00">type: Bool</text>
</g>
<!-- sqx&#45;&gt;then -->
<g id="edge7" class="edge"><title>sqx&#45;&gt;then</title>
<path fill="none" stroke="black" d="M568.795,-297.867C548.324,-281.325 517.153,-256.139 494.312,-237.684"/>
<polygon fill="black" stroke="black" points="496.287,-234.78 486.309,-231.217 491.887,-240.225 496.287,-234.78"/>
<text text-anchor="middle" x="584.352" y="-272.034" font-family="monospace" font-size="10.00">square : Int → Int</text>
<text text-anchor="middle" x="584.352" y="-260.066" font-family="monospace" font-size="10.00">⇒ x : Int (&#39;a = Int)</text>
</g>
<!-- f2 -->
<g id="node10" class="node"><title>f2</title>
<path fill="#ffffe0" stroke="black" d="M531,-334C531,-334 501,-334 501,-334 495,-334 489,-328 489,-322 489,-322 489,-310 489,-310 489,-304 495,-298 501,-298 501,-298 531,-298 531,-298 537,-298 543,-304 543,-310 543,-310 543,-322 543,-322 543,-328 537,-334 531,-334"/>
<text text-anchor="middle" x="516" y="-312.7" font-family="monospace" font-size="11.00">f</text>
</g>
<!-- f2&#45;&gt;then -->
<g id="edge8" class="edge"><title>f2&#45;&gt;then</title>
<path fill="none" stroke="black" d="M507.349,-297.867C499.362,-282.051 487.385,-258.332 478.204,-240.15"/>
<polygon fill="black" stroke="black" points="481.326,-238.566 473.694,-231.217 475.077,-241.721 481.326,-238.566"/>
</g>
<!-- y2 -->
<g id="node11" class="node"><title>y2</title>
<path fill="#ffffe0" stroke="black" d="M459,-334C459,-334 429,-334 429,-334 423,-334 417,-328 417,-322 417,-322 417,-310 417,-310 417,-304 423,-298 429,-298 429,-298 459,-298 459,-298 465,-298 471,-304 471,-310 471,-310 471,-322 471,-322 471,-328 465,-334 459,-334"/>
<text text-anchor="middle" x="444" y="-312.7" font-family="monospace" font-size="11.00">y</text>
</g>
<!-- y2&#45;&gt;then -->
<g id="edge9" class="edge"><title>y2&#45;&gt;then</title>
<path fill="none" stroke="black" d="M447.562,-297.867C450.79,-282.341 455.602,-259.2 459.354,-241.156"/>
<polygon fill="black" stroke="black" points="462.811,-241.72 461.42,-231.217 455.958,-240.295 462.811,-241.72"/>
</g>
<!-- then&#45;&gt;ifnode -->
<g id="edge14" class="edge"><title>then&#45;&gt;ifnode</title>
<path fill="none" stroke="black" d="M443.746,-194.884C428.998,-183.007 408.917,-166.836 391.301,-152.649"/>
<polygon fill="black" stroke="black" points="393.393,-149.84 383.409,-146.294 389.002,-155.292 393.393,-149.84"/>
<text text-anchor="middle" x="442.409" y="-166" font-family="monospace" font-size="10.00">then branch</text>
</g>
<!-- fxy2 -->
<g id="node13" class="node"><title>fxy2</title>
<path fill="#add8e6" stroke="black" d="M829,-334C829,-334 799,-334 799,-334 793,-334 787,-328 787,-322 787,-322 787,-310 787,-310 787,-304 793,-298 799,-298 799,-298 829,-298 829,-298 835,-298 841,-304 841,-310 841,-310 841,-322 841,-322 841,-328 835,-334 829,-334"/>
<text text-anchor="middle" x="814" y="-318.2" font-family="monospace" font-size="11.00">f x y</text>
<text text-anchor="middle" x="814" y="-307.2" font-family="monospace" font-size="11.00">type: &#39;b</text>
</g>
<!-- els -->
<g id="node16" class="node"><title>els</title>
<path fill="#add8e6" stroke="black" d="M709.19,-231C709.19,-231 668.81,-231 668.81,-231 662.81,-231 656.81,-225 656.81,-219 656.81,-219 656.81,-207 656.81,-207 656.81,-201 662.81,-195 668.81,-195 668.81,-195 709.19,-195 709.19,-195 715.19,-195 721.19,-201 721.19,-207 721.19,-207 721.19,-219 721.19,-219 721.19,-225 715.19,-231 709.19,-231"/>
<text text-anchor="middle" x="689" y="-215.2" font-family="monospace" font-size="11.00">f x (f x y)</text>
<text text-anchor="middle" x="689" y="-204.2" font-family="monospace" font-size="11.00">type: Bool</text>
</g>
<!-- fxy2&#45;&gt;els -->
<g id="edge10" class="edge"><title>fxy2&#45;&gt;els</title>
<path fill="none" stroke="black" d="M792.795,-297.867C772.324,-281.325 741.153,-256.139 718.312,-237.684"/>
<polygon fill="black" stroke="black" points="720.287,-234.78 710.309,-231.217 715.887,-240.225 720.287,-234.78"/>
<text text-anchor="middle" x="822.642" y="-271.05" font-family="monospace" font-size="10.00">result of f x y must be &#39;b</text>
<text text-anchor="middle" x="822.642" y="-261.05" font-family="monospace" font-size="10.00">⇒ &#39;b = Bool</text>
</g>
<!-- f3 -->
<g id="node14" class="node"><title>f3</title>
<path fill="#ffffe0" stroke="black" d="M757,-334C757,-334 727,-334 727,-334 721,-334 715,-328 715,-322 715,-322 715,-310 715,-310 715,-304 721,-298 727,-298 727,-298 757,-298 757,-298 763,-298 769,-304 769,-310 769,-310 769,-322 769,-322 769,-328 763,-334 757,-334"/>
<text text-anchor="middle" x="742" y="-312.7" font-family="monospace" font-size="11.00">f</text>
</g>
<!-- f3&#45;&gt;els -->
<g id="edge11" class="edge"><title>f3&#45;&gt;els</title>
<path fill="none" stroke="black" d="M722.777,-297.78C717.735,-292.482 712.684,-286.359 709,-280 702.06,-268.022 697.309,-253.4 694.186,-240.966"/>
<polygon fill="black" stroke="black" points="697.579,-240.106 691.932,-231.142 690.757,-241.671 697.579,-240.106"/>
</g>
<!-- x3 -->
<g id="node15" class="node"><title>x3</title>
<path fill="#ffffe0" stroke="black" d="M685,-334C685,-334 655,-334 655,-334 649,-334 643,-328 643,-322 643,-322 643,-310 643,-310 643,-304 649,-298 655,-298 655,-298 685,-298 685,-298 691,-298 697,-304 697,-310 697,-310 697,-322 697,-322 697,-328 691,-334 685,-334"/>
<text text-anchor="middle" x="670" y="-312.7" font-family="monospace" font-size="11.00">x</text>
</g>
<!-- x3&#45;&gt;els -->
<g id="edge12" class="edge"><title>x3&#45;&gt;els</title>
<path fill="none" stroke="black" d="M673.223,-297.867C676.144,-282.341 680.497,-259.2 683.891,-241.156"/>
<polygon fill="black" stroke="black" points="687.352,-241.692 685.761,-231.217 680.473,-240.398 687.352,-241.692"/>
</g>
<!-- els&#45;&gt;ifnode -->
<g id="edge15" class="edge"><title>els&#45;&gt;ifnode</title>
<path fill="none" stroke="black" d="M657.037,-194.967C648.718,-190.981 639.656,-187.022 631,-184 559.796,-159.139 474.876,-141.602 417.578,-131.449"/>
<polygon fill="black" stroke="black" points="418.018,-127.973 407.565,-129.701 416.814,-134.869 418.018,-127.973"/>
<text text-anchor="middle" x="620.85" y="-166" font-family="monospace" font-size="10.00">else branch</text>
</g>
<!-- ifnode&#45;&gt;result -->
<g id="edge17" class="edge"><title>ifnode&#45;&gt;result</title>
<path fill="none" stroke="black" d="M326.513,-93.7658C310.845,-78.2521 290.878,-58.483 275.412,-43.1698"/>
<polygon fill="black" stroke="black" points="277.788,-40.5973 268.219,-36.0486 272.863,-45.5716 277.788,-40.5973"/>
<text text-anchor="middle" x="378.862" y="-67.9839" font-family="monospace" font-size="10.00">substitute &#39;a=Int, &#39;b=Bool</text>
<text text-anchor="middle" x="378.862" y="-57.9839" font-family="monospace" font-size="10.00">wrap in fun f → fun x → fun y →</text>
</g>
</g>
</svg>
