<?xml version="1.0" standalone="no"?>
<svg xmlns="http://www.w3.org/2000/svg" xmlns:xlink="http://www.w3.org/1999/xlink" width="863pt" height="397pt" viewBox="0.00 0.00 863.07 397.20">
<g id="graph0" class="graph" transform="translate(4,393.20001220703125) scale(1)" data-name="TypeInference">

<polygon fill="white" stroke="none" points="-4,4 -4,-393.2 859.07,-393.2 859.07,4 -4,4" style=""/>
<g id="clust1" class="cluster" data-name="cluster_square">

<polygon fill="none" stroke="gray" stroke-dasharray="5,2" points="8,-100.4 8,-381.2 171,-381.2 171,-100.4 8,-100.4" style=""/>
<text text-anchor="middle" x="86.62" y="-364.6" font-family="Times,serif" font-size="14.00" style="">let square = fun z → z * z</text>
</g>
<g id="clust2" class="cluster" data-name="cluster_cond">

<polygon fill="none" stroke="gray" stroke-dasharray="5,2" points="179,-196.8 179,-381.2 393,-381.2 393,-196.8 179,-196.8" style=""/>
<text text-anchor="middle" x="229.97" y="-364.6" font-family="Times,serif" font-size="14.00" style="">condition: f x y</text>
</g>
<g id="clust3" class="cluster" data-name="cluster_then">

<polygon fill="none" stroke="gray" stroke-dasharray="5,2" points="401,-202.6 401,-381.2 615,-381.2 615,-202.6 401,-202.6" style=""/>
<text text-anchor="middle" x="462.26" y="-364.6" font-family="Times,serif" font-size="14.00" style="">then: f (square x) y</text>
</g>
<g id="clust4" class="cluster" data-name="cluster_else">

<polygon fill="none" stroke="gray" stroke-dasharray="5,2" points="623,-202.6 623,-381.2 837,-381.2 837,-202.6 623,-202.6" style=""/>
<text text-anchor="middle" x="672.4" y="-364.6" font-family="Times,serif" font-size="14.00" style="">else: f x (f x y)</text>
</g>
<!-- z1 -->
<g id="node1" class="node" pointer-events="visible" data-name="z1">

<path fill="lightyellow" stroke="black" d="M130,-348.4C130,-348.4 100,-348.4 100,-348.4 94,-348.4 88,-342.4 88,-336.4 88,-336.4 88,-324.4 88,-324.4 88,-318.4 94,-312.4 100,-312.4 100,-312.4 130,-312.4 130,-312.4 136,-312.4 142,-318.4 142,-324.4 142,-324.4 142,-336.4 142,-336.4 142,-342.4 136,-348.4 130,-348.4" style=""/>
<text text-anchor="middle" x="115" y="-327.1" font-family="monospace" font-size="11.00" style="">z</text>
</g>
<!-- mult -->
<g id="node3" class="node" pointer-events="visible" data-name="mult">

<path fill="lightblue" stroke="black" d="M125,-246.6C125,-246.6 95,-246.6 95,-246.6 89,-246.6 83,-240.6 83,-234.6 83,-234.6 83,-222.6 83,-222.6 83,-216.6 89,-210.6 95,-210.6 95,-210.6 125,-210.6 125,-210.6 131,-210.6 137,-216.6 137,-222.6 137,-222.6 137,-234.6 137,-234.6 137,-240.6 131,-246.6 125,-246.6" style=""/>
<text text-anchor="middle" x="110" y="-225.3" font-family="monospace" font-size="11.00" style="">z * z</text>
</g>
<!-- z1&#45;&gt;mult -->
<g id="edge1" class="edge" data-name="z1-&gt;mult">

<path fill="none" stroke="black" d="M114.13,-312.02C113.39,-297.2 112.31,-275.62 111.44,-258.26" style=""/>
<polygon fill="black" stroke="black" points="114.93,-258.11 110.94,-248.3 107.94,-258.46 114.93,-258.11" style=""/>
<text text-anchor="middle" x="140.66" y="-285.4" font-family="monospace" font-size="10.00" style="">* requires Int</text>
<text text-anchor="middle" x="140.66" y="-273.4" font-family="monospace" font-size="10.00" style="">⇒ z : Int</text>
</g>
<!-- z2 -->
<g id="node2" class="node" pointer-events="visible" data-name="z2">

<path fill="lightyellow" stroke="black" d="M58,-348.4C58,-348.4 28,-348.4 28,-348.4 22,-348.4 16,-342.4 16,-336.4 16,-336.4 16,-324.4 16,-324.4 16,-318.4 22,-312.4 28,-312.4 28,-312.4 58,-312.4 58,-312.4 64,-312.4 70,-318.4 70,-324.4 70,-324.4 70,-336.4 70,-336.4 70,-342.4 64,-348.4 58,-348.4" style=""/>
<text text-anchor="middle" x="43" y="-327.1" font-family="monospace" font-size="11.00" style="">z</text>
</g>
<!-- z2&#45;&gt;mult -->
<g id="edge2" class="edge" data-name="z2-&gt;mult">

<path fill="none" stroke="black" d="M43.56,-311.91C44.68,-299.48 47.72,-282.84 55.68,-270.4 60.38,-263.07 66.88,-256.57 73.76,-251.03" style=""/>
<polygon fill="black" stroke="black" points="75.37,-254.2 81.35,-245.45 71.22,-248.56 75.37,-254.2" style=""/>
<text text-anchor="middle" x="82.66" y="-285.4" font-family="monospace" font-size="10.00" style="">* requires Int</text>
<text text-anchor="middle" x="82.66" y="-273.4" font-family="monospace" font-size="10.00" style="">⇒ z : Int</text>
</g>
<!-- funz -->
<g id="node4" class="node" pointer-events="visible" data-name="funz">

<path fill="lightgreen" stroke="black" d="M147.43,-144.4C147.43,-144.4 92.57,-144.4 92.57,-144.4 86.57,-144.4 80.57,-138.4 80.57,-132.4 80.57,-132.4 80.57,-120.4 80.57,-120.4 80.57,-114.4 86.57,-108.4 92.57,-108.4 92.57,-108.4 147.43,-108.4 147.43,-108.4 153.43,-108.4 159.43,-114.4 159.43,-120.4 159.43,-120.4 159.43,-132.4 159.43,-132.4 159.43,-138.4 153.43,-144.4 147.43,-144.4" style=""/>
<text text-anchor="middle" x="120" y="-129.7" font-family="monospace" font-size="11.00" style="">fun z → z * z</text>
<text text-anchor="middle" x="120" y="-116.5" font-family="monospace" font-size="11.00" style="">type: Int → Int</text>
</g>
<!-- mult&#45;&gt;funz -->
<g id="edge3" class="edge" data-name="mult-&gt;funz">

<path fill="none" stroke="black" d="M111.74,-210.15C113.23,-195.2 115.41,-173.4 117.15,-155.92" style=""/>
<polygon fill="black" stroke="black" points="120.62,-156.46 118.13,-146.16 113.65,-155.76 120.62,-156.46" style=""/>
<text text-anchor="middle" x="134.44" y="-177.8" font-family="monospace" font-size="10.00" style="">body : Int</text>
</g>
<!-- result -->
<g id="node18" class="node" pointer-events="visible" data-name="result">

<ellipse fill="lightcoral" stroke="black" cx="213" cy="-18" rx="125.04" ry="18" style=""/>
<text text-anchor="middle" x="213" y="-14.7" font-family="monospace" font-size="11.00" style="">(Int → Bool → Bool) → Int → Bool → Bool</text>
</g>
<!-- funz&#45;&gt;result -->
<g id="edge16" class="edge" data-name="funz-&gt;result">

<path fill="none" stroke="black" stroke-dasharray="5,2" d="M134.14,-108.17C146.22,-93.58 164.14,-72.2 180.31,-54 183.07,-50.9 185.99,-47.67 188.91,-44.49" style=""/>
<polygon fill="black" stroke="black" points="191.26,-47.11 195.5,-37.4 186.13,-42.34 191.26,-47.11" style=""/>
<text text-anchor="middle" x="223.35" y="-69" font-family="monospace" font-size="10.00" style="">square : Int → Int</text>
<text text-anchor="middle" x="223.35" y="-57" font-family="monospace" font-size="10.00" style="">(used in then branch)</text>
</g>
<!-- f1 -->
<g id="node5" class="node" pointer-events="visible" data-name="f1">

<path fill="lightyellow" stroke="black" d="M373,-348.4C373,-348.4 343,-348.4 343,-348.4 337,-348.4 331,-342.4 331,-336.4 331,-336.4 331,-324.4 331,-324.4 331,-318.4 337,-312.4 343,-312.4 343,-312.4 373,-312.4 373,-312.4 379,-312.4 385,-318.4 385,-324.4 385,-324.4 385,-336.4 385,-336.4 385,-342.4 379,-348.4 373,-348.4" style=""/>
<text text-anchor="middle" x="358" y="-327.1" font-family="monospace" font-size="11.00" style="">f</text>
</g>
<!-- fxy -->
<g id="node8" class="node" pointer-events="visible" data-name="fxy">

<path fill="lightblue" stroke="black" d="M333.54,-252.2C333.54,-252.2 250.46,-252.2 250.46,-252.2 244.46,-252.2 238.46,-246.2 238.46,-240.2 238.46,-240.2 238.46,-217 238.46,-217 238.46,-211 244.46,-205 250.46,-205 250.46,-205 333.54,-205 333.54,-205 339.54,-205 345.54,-211 345.54,-217 345.54,-217 345.54,-240.2 345.54,-240.2 345.54,-246.2 339.54,-252.2 333.54,-252.2" style=""/>
<text text-anchor="middle" x="292" y="-238.5" font-family="monospace" font-size="11.00" style="">f x y</text>
<text text-anchor="middle" x="292" y="-225.3" font-family="monospace" font-size="11.00" style="">type: Bool</text>
<text text-anchor="middle" x="292" y="-212.1" font-family="monospace" font-size="11.00" style="">(must be Bool for if)</text>
</g>
<!-- f1&#45;&gt;fxy -->
<g id="edge4" class="edge" data-name="f1-&gt;fxy">

<path fill="none" stroke="black" d="M342.26,-312.12C337.57,-306.63 332.58,-300.41 328.4,-294.4 321.45,-284.38 314.67,-272.93 308.88,-262.47" style=""/>
<polygon fill="black" stroke="black" points="312.01,-260.89 304.17,-253.76 305.85,-264.22 312.01,-260.89" style=""/>
<text text-anchor="middle" x="362.3" y="-279.4" font-family="monospace" font-size="10.00" style="">f : 'a → 'b → Bool</text>
</g>
<!-- x1 -->
<g id="node6" class="node" pointer-events="visible" data-name="x1">

<path fill="lightyellow" stroke="black" d="M301,-348.4C301,-348.4 271,-348.4 271,-348.4 265,-348.4 259,-342.4 259,-336.4 259,-336.4 259,-324.4 259,-324.4 259,-318.4 265,-312.4 271,-312.4 271,-312.4 301,-312.4 301,-312.4 307,-312.4 313,-318.4 313,-324.4 313,-324.4 313,-336.4 313,-336.4 313,-342.4 307,-348.4 301,-348.4" style=""/>
<text text-anchor="middle" x="286" y="-327.1" font-family="monospace" font-size="11.00" style="">x</text>
</g>
<!-- x1&#45;&gt;fxy -->
<g id="edge5" class="edge" data-name="x1-&gt;fxy">

<path fill="none" stroke="black" d="M279.44,-312.2C277.62,-306.61 275.89,-300.32 274.98,-294.4 273.36,-283.86 272.89,-280.86 274.98,-270.4 275.47,-267.95 276.11,-265.47 276.85,-263" style=""/>
<polygon fill="black" stroke="black" points="280.06,-264.42 280.13,-253.83 273.47,-262.07 280.06,-264.42" style=""/>
<text text-anchor="middle" x="283.51" y="-279.4" font-family="monospace" font-size="10.00" style="">x : 'a</text>
</g>
<!-- y1 -->
<g id="node7" class="node" pointer-events="visible" data-name="y1">

<path fill="lightyellow" stroke="black" d="M229,-348.4C229,-348.4 199,-348.4 199,-348.4 193,-348.4 187,-342.4 187,-336.4 187,-336.4 187,-324.4 187,-324.4 187,-318.4 193,-312.4 199,-312.4 199,-312.4 229,-312.4 229,-312.4 235,-312.4 241,-318.4 241,-324.4 241,-324.4 241,-336.4 241,-336.4 241,-342.4 235,-348.4 229,-348.4" style=""/>
<text text-anchor="middle" x="214" y="-327.1" font-family="monospace" font-size="11.00" style="">y</text>
</g>
<!-- y1&#45;&gt;fxy -->
<g id="edge6" class="edge" data-name="y1-&gt;fxy">

<path fill="none" stroke="black" d="M222.8,-312.09C229.37,-299.89 238.98,-283.47 249.42,-270.4 252.14,-266.99 255.14,-263.58 258.25,-260.27" style=""/>
<polygon fill="black" stroke="black" points="260.52,-262.96 265.03,-253.37 255.53,-258.05 260.52,-262.96" style=""/>
<text text-anchor="middle" x="258.79" y="-279.4" font-family="monospace" font-size="10.00" style="">y : 'b</text>
</g>
<!-- ifnode -->
<g id="node17" class="node" pointer-events="visible" data-name="ifnode">

<path fill="lightsalmon" stroke="black" d="M397.96,-156.7C397.96,-156.7 318.04,-156.7 318.04,-156.7 312.04,-156.7 306.04,-150.7 306.04,-144.7 306.04,-144.7 306.04,-108.1 306.04,-108.1 306.04,-102.1 312.04,-96.1 318.04,-96.1 318.04,-96.1 397.96,-96.1 397.96,-96.1 403.96,-96.1 409.96,-102.1 409.96,-108.1 409.96,-108.1 409.96,-144.7 409.96,-144.7 409.96,-150.7 403.96,-156.7 397.96,-156.7" style=""/>
<text text-anchor="middle" x="358" y="-142.9" font-family="monospace" font-size="11.00" style="">if (f x y)</text>
<text text-anchor="middle" x="358" y="-129.7" font-family="monospace" font-size="11.00" style="">then (f (square x) y)</text>
<text text-anchor="middle" x="358" y="-116.5" font-family="monospace" font-size="11.00" style="">else (f x (f x y))</text>
<text text-anchor="middle" x="358" y="-103.3" font-family="monospace" font-size="11.00" style="">type: Bool</text>
</g>
<!-- fxy&#45;&gt;ifnode -->
<g id="edge13" class="edge" data-name="fxy-&gt;ifnode">

<path fill="none" stroke="black" d="M306.98,-204.86C314.51,-193.43 323.84,-179.26 332.46,-166.18" style=""/>
<polygon fill="black" stroke="black" points="335.16,-168.44 337.74,-158.16 329.31,-164.59 335.16,-168.44" style=""/>
<text text-anchor="middle" x="343.89" y="-177.8" font-family="monospace" font-size="10.00" style="">condition</text>
</g>
<!-- sqx -->
<g id="node9" class="node" pointer-events="visible" data-name="sqx">

<path fill="lightblue" stroke="black" d="M595,-348.4C595,-348.4 565,-348.4 565,-348.4 559,-348.4 553,-342.4 553,-336.4 553,-336.4 553,-324.4 553,-324.4 553,-318.4 559,-312.4 565,-312.4 565,-312.4 595,-312.4 595,-312.4 601,-312.4 607,-318.4 607,-324.4 607,-324.4 607,-336.4 607,-336.4 607,-342.4 601,-348.4 595,-348.4" style=""/>
<text text-anchor="middle" x="580" y="-333.7" font-family="monospace" font-size="11.00" style="">square x</text>
<text text-anchor="middle" x="580" y="-320.5" font-family="monospace" font-size="11.00" style="">type: Int</text>
</g>
<!-- then -->
<g id="node12" class="node" pointer-events="visible" data-name="then">

<path fill="lightblue" stroke="black" d="M487.45,-246.6C487.45,-246.6 436.55,-246.6 436.55,-246.6 430.55,-246.6 424.55,-240.6 424.55,-234.6 424.55,-234.6 424.55,-222.6 424.55,-222.6 424.55,-216.6 430.55,-210.6 436.55,-210.6 436.55,-210.6 487.45,-210.6 487.45,-210.6 493.45,-210.6 499.45,-216.6 499.45,-222.6 499.45,-222.6 499.45,-234.6 499.45,-234.6 499.45,-240.6 493.45,-246.6 487.45,-246.6" style=""/>
<text text-anchor="middle" x="462" y="-231.9" font-family="monospace" font-size="11.00" style="">f (square x) y</text>
<text text-anchor="middle" x="462" y="-218.7" font-family="monospace" font-size="11.00" style="">type: Bool</text>
</g>
<!-- sqx&#45;&gt;then -->
<g id="edge7" class="edge" data-name="sqx-&gt;then">

<path fill="none" stroke="black" d="M559.45,-312.02C540.5,-295.99 512.17,-272.03 490.94,-254.07" style=""/>
<polygon fill="black" stroke="black" points="493.37,-251.55 483.47,-247.76 488.85,-256.89 493.37,-251.55" style=""/>
<text text-anchor="middle" x="573.52" y="-285.4" font-family="monospace" font-size="10.00" style="">square : Int → Int</text>
<text text-anchor="middle" x="573.52" y="-273.4" font-family="monospace" font-size="10.00" style="">⇒ x : Int ('a = Int)</text>
</g>
<!-- f2 -->
<g id="node10" class="node" pointer-events="visible" data-name="f2">

<path fill="lightyellow" stroke="black" d="M523,-348.4C523,-348.4 493,-348.4 493,-348.4 487,-348.4 481,-342.4 481,-336.4 481,-336.4 481,-324.4 481,-324.4 481,-318.4 487,-312.4 493,-312.4 493,-312.4 523,-312.4 523,-312.4 529,-312.4 535,-318.4 535,-324.4 535,-324.4 535,-336.4 535,-336.4 535,-342.4 529,-348.4 523,-348.4" style=""/>
<text text-anchor="middle" x="508" y="-327.1" font-family="monospace" font-size="11.00" style="">f</text>
</g>
<!-- f2&#45;&gt;then -->
<g id="edge8" class="edge" data-name="f2-&gt;then">

<path fill="none" stroke="black" d="M499.99,-312.02C493,-296.85 482.73,-274.58 474.63,-257.01" style=""/>
<polygon fill="black" stroke="black" points="477.92,-255.78 470.55,-248.16 471.56,-258.71 477.92,-255.78" style=""/>
</g>
<!-- y2 -->
<g id="node11" class="node" pointer-events="visible" data-name="y2">

<path fill="lightyellow" stroke="black" d="M451,-348.4C451,-348.4 421,-348.4 421,-348.4 415,-348.4 409,-342.4 409,-336.4 409,-336.4 409,-324.4 409,-324.4 409,-318.4 415,-312.4 421,-312.4 421,-312.4 451,-312.4 451,-312.4 457,-312.4 463,-318.4 463,-324.4 463,-324.4 463,-336.4 463,-336.4 463,-342.4 457,-348.4 451,-348.4" style=""/>
<text text-anchor="middle" x="436" y="-327.1" font-family="monospace" font-size="11.00" style="">y</text>
</g>
<!-- y2&#45;&gt;then -->
<g id="edge9" class="edge" data-name="y2-&gt;then">

<path fill="none" stroke="black" d="M440.53,-312.02C444.44,-296.99 450.17,-275 454.73,-257.51" style=""/>
<polygon fill="black" stroke="black" points="458.01,-258.81 457.14,-248.25 451.23,-257.04 458.01,-258.81" style=""/>
</g>
<!-- then&#45;&gt;ifnode -->
<g id="edge14" class="edge" data-name="then-&gt;ifnode">

<path fill="none" stroke="black" d="M443.88,-210.15C430.9,-197.64 412.92,-180.32 396.77,-164.75" style=""/>
<polygon fill="black" stroke="black" points="399.25,-162.28 389.62,-157.86 394.39,-167.32 399.25,-162.28" style=""/>
<text text-anchor="middle" x="442.46" y="-177.8" font-family="monospace" font-size="10.00" style="">then branch</text>
</g>
<!-- fxy2 -->
<g id="node13" class="node" pointer-events="visible" data-name="fxy2">

<path fill="lightblue" stroke="black" d="M817,-348.4C817,-348.4 787,-348.4 787,-348.4 781,-348.4 775,-342.4 775,-336.4 775,-336.4 775,-324.4 775,-324.4 775,-318.4 781,-312.4 787,-312.4 787,-312.4 817,-312.4 817,-312.4 823,-312.4 829,-318.4 829,-324.4 829,-324.4 829,-336.4 829,-336.4 829,-342.4 823,-348.4 817,-348.4" style=""/>
<text text-anchor="middle" x="802" y="-333.7" font-family="monospace" font-size="11.00" style="">f x y</text>
<text text-anchor="middle" x="802" y="-320.5" font-family="monospace" font-size="11.00" style="">type: 'b</text>
</g>
<!-- els -->
<g id="node16" class="node" pointer-events="visible" data-name="els">

<path fill="lightblue" stroke="black" d="M698.14,-246.6C698.14,-246.6 659.86,-246.6 659.86,-246.6 653.86,-246.6 647.86,-240.6 647.86,-234.6 647.86,-234.6 647.86,-222.6 647.86,-222.6 647.86,-216.6 653.86,-210.6 659.86,-210.6 659.86,-210.6 698.14,-210.6 698.14,-210.6 704.14,-210.6 710.14,-216.6 710.14,-222.6 710.14,-222.6 710.14,-234.6 710.14,-234.6 710.14,-240.6 704.14,-246.6 698.14,-246.6" style=""/>
<text text-anchor="middle" x="679" y="-231.9" font-family="monospace" font-size="11.00" style="">f x (f x y)</text>
<text text-anchor="middle" x="679" y="-218.7" font-family="monospace" font-size="11.00" style="">type: Bool</text>
</g>
<!-- fxy2&#45;&gt;els -->
<g id="edge10" class="edge" data-name="fxy2-&gt;els">

<path fill="none" stroke="black" d="M780.58,-312.02C760.73,-295.92 731.03,-271.82 708.87,-253.83" style=""/>
<polygon fill="black" stroke="black" points="711.33,-251.32 701.35,-247.74 706.91,-256.76 711.33,-251.32" style=""/>
<text text-anchor="middle" x="806.53" y="-285.4" font-family="monospace" font-size="10.00" style="">result of f x y must be 'b</text>
<text text-anchor="middle" x="806.53" y="-273.4" font-family="monospace" font-size="10.00" style="">⇒ 'b = Bool</text>
</g>
<!-- f3 -->
<g id="node14" class="node" pointer-events="visible" data-name="f3">

<path fill="lightyellow" stroke="black" d="M745,-348.4C745,-348.4 715,-348.4 715,-348.4 709,-348.4 703,-342.4 703,-336.4 703,-336.4 703,-324.4 703,-324.4 703,-318.4 709,-312.4 715,-312.4 715,-312.4 745,-312.4 745,-312.4 751,-312.4 757,-318.4 757,-324.4 757,-324.4 757,-336.4 757,-336.4 757,-342.4 751,-348.4 745,-348.4" style=""/>
<text text-anchor="middle" x="730" y="-327.1" font-family="monospace" font-size="11.00" style="">f</text>
</g>
<!-- f3&#45;&gt;els -->
<g id="edge11" class="edge" data-name="f3-&gt;els">

<path fill="none" stroke="black" d="M715.8,-312.22C711.66,-306.74 707.36,-300.5 704,-294.4 697.61,-282.79 692.1,-269.21 687.89,-257.49" style=""/>
<polygon fill="black" stroke="black" points="691.32,-256.7 684.76,-248.38 684.7,-258.97 691.32,-256.7" style=""/>
</g>
<!-- x3 -->
<g id="node15" class="node" pointer-events="visible" data-name="x3">

<path fill="lightyellow" stroke="black" d="M673,-348.4C673,-348.4 643,-348.4 643,-348.4 637,-348.4 631,-342.4 631,-336.4 631,-336.4 631,-324.4 631,-324.4 631,-318.4 637,-312.4 643,-312.4 643,-312.4 673,-312.4 673,-312.4 679,-312.4 685,-318.4 685,-324.4 685,-324.4 685,-336.4 685,-336.4 685,-342.4 679,-348.4 673,-348.4" style=""/>
<text text-anchor="middle" x="658" y="-327.1" font-family="monospace" font-size="11.00" style="">x</text>
</g>
<!-- x3&#45;&gt;els -->
<g id="edge12" class="edge" data-name="x3-&gt;els">

<path fill="none" stroke="black" d="M661.66,-312.02C664.79,-297.13 669.36,-275.41 673.02,-258.01" style=""/>
<polygon fill="black" stroke="black" points="676.44,-258.77 675.07,-248.27 669.59,-257.33 676.44,-258.77" style=""/>
</g>
<!-- els&#45;&gt;ifnode -->
<g id="edge15" class="edge" data-name="els-&gt;ifnode">

<path fill="none" stroke="black" d="M648.13,-210.15C638.94,-205.4 628.73,-200.54 619,-196.8 553.22,-171.51 474.71,-151.99 421.09,-140.19" style=""/>
<polygon fill="black" stroke="black" points="422.04,-136.81 411.52,-138.11 420.55,-143.65 422.04,-136.81" style=""/>
<text text-anchor="middle" x="613.63" y="-177.8" font-family="monospace" font-size="10.00" style="">else branch</text>
</g>
<!-- ifnode&#45;&gt;result -->
<g id="edge17" class="edge" data-name="ifnode-&gt;result">

<path fill="none" stroke="black" d="M320.39,-95.68C303.62,-82.64 283.51,-67.31 265,-54 259.62,-50.13 253.86,-46.13 248.21,-42.26" style=""/>
<polygon fill="black" stroke="black" points="250.37,-39.5 240.13,-36.8 246.45,-45.3 250.37,-39.5" style=""/>
<text text-anchor="middle" x="360.29" y="-69" font-family="monospace" font-size="10.00" style="">substitute 'a=Int, 'b=Bool</text>
<text text-anchor="middle" x="360.29" y="-57" font-family="monospace" font-size="10.00" style="">wrap in fun f → fun x → fun y →</text>
</g>
</g>
</svg>